<svg xmlns="http://www.w3.org/2000/svg" width="24.216" height="24.206" viewBox="0 0 24.216 24.206">
  <path id="icon-login" d="M11.987,0A11.977,11.977,0,0,0,1.079,7.08a.987.987,0,0,0,.5,1.31A1,1,0,0,0,2.9,7.89a9.98,9.98,0,1,1,0,8.172,1,1,0,0,0-1.325-.5.987.987,0,0,0-.5,1.31A11.966,11.966,0,1,0,11.987,0Zm.479,7.486a1,1,0,0,0-.7,1.7l1.776,1.8H1a1,1,0,0,0,0,2H13.545l-1.776,1.8a.992.992,0,1,0,1.4,1.394l3.491-3.494a.989.989,0,0,0,0-1.4l-3.488-3.5a.988.988,0,0,0-.7-.3Z" transform="translate(0.125 0.125)" fill="#fff" stroke="#fff" stroke-width="0.25"/>
</svg>
