<?xml version="1.0" encoding="utf-8"?>
<!-- Generator: Adobe Illustrator 25.4.1, SVG Export Plug-In . SVG Version: 6.00 Build 0)  -->
<svg version="1.1" id="Layer_1" xmlns="http://www.w3.org/2000/svg" xmlns:xlink="http://www.w3.org/1999/xlink" x="0px" y="0px"
	 viewBox="0 0 55 55" style="enable-background:new 0 0 55 55;" xml:space="preserve">
<style type="text/css">
	.st0{fill:none;}
	.st1{fill:#606A81;}
</style>
<g transform="translate(0 -0.035)">
	<rect y="0" class="st0" width="55" height="55"/>
	<path class="st1" d="M49.3,32.5c-5.5,5.5-13.9,7.1-21.1,3.9l-13.6,16l-0.1,0.1c-3.3,3.3-8.6,3.3-11.9,0c-3.3-3.3-3.3-8.6,0-11.9
		l0.1-0.1l16-13.8c-4.2-9.6,0.1-20.9,9.8-25.1c4.8-2.1,10.2-2.1,15.1-0.1c1.1,0.5,1.6,1.7,1.1,2.8c-0.2,0.1-0.5,0.4-0.6,0.6
		L33.7,15.3l1,5l5,1L50.1,11c0.9-0.9,2.2-0.9,3,0c0.2,0.2,0.4,0.4,0.5,0.6C56.5,18.7,54.9,26.9,49.3,32.5z"/>
</g>
</svg>
