<svg xmlns="http://www.w3.org/2000/svg" width="205" height="39.995" viewBox="0 0 205 39.995">
  <g id="ADPG_Logo_Bilingual_Neg" transform="translate(-68.215 -68.199)">
    <path id="Path_26777" data-name="Path 26777" d="M101.213,80.9a.1.1,0,0,0,.1.074.1.1,0,0,0,.1-.074s1.1-3.1,1.329-3.942a11.753,11.753,0,0,0-.064-1.259,50.292,50.292,0,0,0-1.262-7.407c-.018-.072-.053-.089-.1-.091s-.082.019-.1.091A50.338,50.338,0,0,0,99.948,75.7a11.69,11.69,0,0,0-.065,1.259C100.111,77.8,101.213,80.9,101.213,80.9Z" transform="translate(-13.097 0)" fill="#fff"/>
    <path id="Path_26778" data-name="Path 26778" d="M96.863,96.873a3.887,3.887,0,1,0,2.75-1.14,3.89,3.89,0,0,0-2.75,1.14Z" transform="translate(-11.376 -11.387)" fill="#fff"/>
    <path id="Path_26779" data-name="Path 26779" d="M95.85,84.6l-.345-1.056a11.235,11.235,0,0,0-3.325,1.4l.512.983A10.117,10.117,0,0,1,95.85,84.6Z" transform="translate(-9.911 -6.348)" fill="#fff"/>
    <path id="Path_26780" data-name="Path 26780" d="M109.861,84.947a11.21,11.21,0,0,0-3.325-1.4l-.345,1.056a10.118,10.118,0,0,1,3.158,1.324Z" transform="translate(-15.706 -6.35)" fill="#fff"/>
    <path id="Path_26781" data-name="Path 26781" d="M92.18,118.029a11.238,11.238,0,0,0,3.325,1.4l.345-1.056a10.118,10.118,0,0,1-3.158-1.325Z" transform="translate(-9.911 -20.201)" fill="#fff"/>
    <path id="Path_26782" data-name="Path 26782" d="M106.191,118.373l.345,1.056a11.2,11.2,0,0,0,3.325-1.4l-.512-.983A10.1,10.1,0,0,1,106.191,118.373Z" transform="translate(-15.706 -20.204)" fill="#fff"/>
    <path id="Path_26783" data-name="Path 26783" d="M84.933,109.873l.983-.511a10.111,10.111,0,0,1-1.324-3.158l-1.056.345a11.2,11.2,0,0,0,1.4,3.324Z" transform="translate(-6.336 -15.718)" fill="#fff"/>
    <path id="Path_26784" data-name="Path 26784" d="M83.539,95.518l1.056.345a10.117,10.117,0,0,1,1.324-3.158l-.983-.511A11.2,11.2,0,0,0,83.539,95.518Z" transform="translate(-6.338 -9.924)" fill="#fff"/>
    <path id="Path_26785" data-name="Path 26785" d="M119.411,106.549l-1.056-.345a10.112,10.112,0,0,1-1.325,3.158l.983.511A11.184,11.184,0,0,0,119.411,106.549Z" transform="translate(-20.189 -15.718)" fill="#fff"/>
    <path id="Path_26786" data-name="Path 26786" d="M117.035,92.705a10.087,10.087,0,0,1,1.324,3.158l1.056-.345a11.2,11.2,0,0,0-1.4-3.324Z" transform="translate(-20.19 -9.924)" fill="#fff"/>
    <path id="Path_26787" data-name="Path 26787" d="M101.405,114.691a.1.1,0,0,0-.1-.074.1.1,0,0,0-.1.074s-1.1,3.1-1.329,3.942a11.692,11.692,0,0,0,.065,1.259,50.311,50.311,0,0,0,1.262,7.407c.018.072.053.089.1.09s.082-.019.1-.09a50.309,50.309,0,0,0,1.262-7.407,11.544,11.544,0,0,0,.064-1.259C102.508,117.787,101.405,114.691,101.405,114.691Z" transform="translate(-13.097 -19.197)" fill="#fff"/>
    <path id="Path_26788" data-name="Path 26788" d="M76.972,102.719c.846-.227,3.942-1.33,3.942-1.33a.1.1,0,0,0,0-.191s-3.1-1.1-3.942-1.33a11.692,11.692,0,0,0-1.259.065,50.309,50.309,0,0,0-7.407,1.262c-.072.018-.089.053-.091.1s.019.082.091.1a50.31,50.31,0,0,0,7.407,1.262A11.691,11.691,0,0,0,76.972,102.719Z" transform="translate(0 -13.097)" fill="#fff"/>
    <path id="Path_26789" data-name="Path 26789" d="M127.315,101.194a50.294,50.294,0,0,0-7.407-1.262,11.694,11.694,0,0,0-1.259-.065c-.846.228-3.942,1.33-3.942,1.33a.1.1,0,0,0,0,.191s3.1,1.1,3.942,1.33a11.69,11.69,0,0,0,1.259-.064,50.292,50.292,0,0,0,7.407-1.262c.072-.018.089-.052.091-.1S127.387,101.212,127.315,101.194Z" transform="translate(-19.196 -13.097)" fill="#fff"/>
    <path id="Path_26790" data-name="Path 26790" d="M83.392,85.308c.522.661.735.874.735.874.672.44,3.839,1.909,3.839,1.909a.1.1,0,0,0,.117-.015.1.1,0,0,0,.015-.117s-1.466-3.167-1.909-3.838c0,0-.213-.213-.874-.735a22.449,22.449,0,0,0-4.893-3.108c-.077-.03-.1-.026-.134.006s-.036.059-.006.134a22.411,22.411,0,0,0,3.109,4.89Z" transform="translate(-4.982 -4.987)" fill="#fff"/>
    <path id="Path_26791" data-name="Path 26791" d="M115.7,113.757c-.521-.66-.735-.874-.735-.874-.671-.44-3.838-1.909-3.838-1.909a.1.1,0,0,0-.135.135s1.466,3.167,1.909,3.838c0,0,.213.213.874.735a22.409,22.409,0,0,0,4.892,3.108c.077.03.1.026.135-.006s.036-.059.006-.134a22.431,22.431,0,0,0-3.108-4.893Z" transform="translate(-17.685 -17.685)" fill="#fff"/>
    <path id="Path_26792" data-name="Path 26792" d="M88.091,110.99a.1.1,0,0,0-.117-.015s-3.167,1.466-3.838,1.909c0,0-.213.213-.735.874a22.44,22.44,0,0,0-3.108,4.893c-.03.077-.026.1.006.134s.059.036.134.006a22.432,22.432,0,0,0,4.893-3.108c.66-.521.874-.735.874-.735.441-.671,1.909-3.838,1.909-3.838a.1.1,0,0,0-.017-.12Z" transform="translate(-4.987 -17.686)" fill="#fff"/>
    <path id="Path_26793" data-name="Path 26793" d="M111.005,88.073a.1.1,0,0,0,.117.015s3.167-1.466,3.838-1.909c0,0,.213-.213.735-.874a22.432,22.432,0,0,0,3.108-4.893c.03-.077.026-.1-.006-.134s-.059-.036-.134-.006a22.432,22.432,0,0,0-4.893,3.108c-.661.521-.874.735-.874.735-.44.671-1.906,3.838-1.906,3.838a.1.1,0,0,0,.015.12Z" transform="translate(-17.685 -4.984)" fill="#fff"/>
    <path id="Path_26794" data-name="Path 26794" d="M161.66,106.364a.334.334,0,0,0-.293-.209,9.065,9.065,0,0,0-2.287,0,.345.345,0,0,0-.29.193,41.051,41.051,0,0,0-4.4,10.836.211.211,0,0,0,.226.29h2.274a.25.25,0,0,0,.274-.226c.145-.564.293-1.129.452-1.693h5.22c.161.564.307,1.129.452,1.693a.25.25,0,0,0,.274.226h2.274a.211.211,0,0,0,.226-.29,41.5,41.5,0,0,0-4.4-10.82Zm-3.387,7.014a32.962,32.962,0,0,1,1.952-4.691,32.885,32.885,0,0,1,1.951,4.691Z" transform="translate(-35.631 -15.667)" fill="#fff"/>
    <path id="Path_26795" data-name="Path 26795" d="M182.221,106.259h-4.773a.238.238,0,0,0-.258.258v10.772a.235.235,0,0,0,.258.258h4.773c3.773,0,6.111-2.4,6.111-5.773C188.332,108.566,185.992,106.259,182.221,106.259Zm0,8.982h-2.37v-6.675h2.37a3.071,3.071,0,0,1,3.385,3.208A3.171,3.171,0,0,1,182.221,115.241Z" transform="translate(-45.068 -15.74)" fill="#fff"/>
    <path id="Path_26796" data-name="Path 26796" d="M211.4,106.259h-4.774a.235.235,0,0,0-.257.258v10.772a.235.235,0,0,0,.257.258h2.145a.235.235,0,0,0,.258-.258v-2.855h2.016c3,0,5.127-1.483,5.127-4.16C216.171,107.662,214.445,106.259,211.4,106.259Zm-.338,5.918h-2.032v-3.661h2.193c1.564,0,2.287.581,2.287,1.759S212.784,112.177,211.06,112.177Z" transform="translate(-57.134 -15.74)" fill="#fff"/>
    <path id="Path_26797" data-name="Path 26797" d="M231.812,105.848c-3.774,0-6.112,2.451-6.112,5.886s2.338,5.885,6.112,5.885,6.111-2.451,6.111-5.885S235.584,105.848,231.812,105.848Zm0,9.466a3.584,3.584,0,1,1,3.385-3.577A3.23,3.23,0,0,1,231.812,115.314Z" transform="translate(-65.13 -15.57)" fill="#fff"/>
    <path id="Path_26798" data-name="Path 26798" d="M257.317,113.371a3.245,3.245,0,0,0,2.418-3.4c0-2.37-1.773-3.709-4.886-3.709h-4.34a.238.238,0,0,0-.259.258V117.29a.238.238,0,0,0,.259.258h2.144a.235.235,0,0,0,.258-.258v-3.177h2.048a11.486,11.486,0,0,1,2.322,3.241.315.315,0,0,0,.306.194h2.241c.193,0,.29-.129.193-.306A12.93,12.93,0,0,0,257.317,113.371Zm-2.483-1.515h-1.919v-3.338h1.79c1.775,0,2.37.581,2.37,1.677,0,1.064-.789,1.66-2.24,1.66Z" transform="translate(-75.283 -15.741)" fill="#fff"/>
    <path id="Path_26799" data-name="Path 26799" d="M278.857,106.259H268.94a.238.238,0,0,0-.259.258v1.742a.238.238,0,0,0,.259.258h3.466v8.772a.237.237,0,0,0,.258.258h2.145a.235.235,0,0,0,.258-.258v-8.772h2.241c1.6,0,1.951-.79,1.822-2.016a.246.246,0,0,0-.274-.242Z" transform="translate(-82.905 -15.74)" fill="#fff"/>
    <path id="Path_26800" data-name="Path 26800" d="M293.918,110.7l-1.145-.355c-1.322-.4-1.759-.677-1.759-1.307,0-.645.581-.967,1.58-.967a15.919,15.919,0,0,1,2.532.355,1.3,1.3,0,0,0,1.58-1.08l.114-.6a.262.262,0,0,0-.176-.323,12.6,12.6,0,0,0-3.886-.581c-2.693,0-4.385,1.322-4.385,3.258,0,2.016,1.547,2.9,3.273,3.451l1.759.564c.774.242,1.161.484,1.145,1.1,0,.613-.694.983-2.162.983a6.488,6.488,0,0,1-3.5-1.048c-.161-.113-.29-.065-.321.145l-.307,2.161a.262.262,0,0,0,.162.306,9.176,9.176,0,0,0,3.644.855c3.628,0,5.144-1.436,5.144-3.548C297.208,112.249,296.143,111.395,293.918,110.7Z" transform="translate(-91 -15.57)" fill="#fff"/>
    <path id="Path_26801" data-name="Path 26801" d="M323.507,110.862H319.3a.237.237,0,0,0-.259.258v1.822a.235.235,0,0,0,.259.257h2.129v1.387a4.974,4.974,0,0,1-2.435.565,3.158,3.158,0,0,1-3.386-3.418,3.335,3.335,0,0,1,3.66-3.5,11.612,11.612,0,0,1,1.759.145c1.016.161,1.58-.1,1.741-1.258l.064-.483a.258.258,0,0,0-.176-.307,9.676,9.676,0,0,0-3.242-.484c-4.015,0-6.531,2.451-6.531,5.886s2.339,5.885,6.112,5.885a7.677,7.677,0,0,0,4.628-1.5.43.43,0,0,0,.145-.323V111.12a.235.235,0,0,0-.259-.258Z" transform="translate(-101.185 -15.569)" fill="#fff"/>
    <path id="Path_26802" data-name="Path 26802" d="M342.76,113.371a3.246,3.246,0,0,0,2.418-3.4c0-2.37-1.774-3.709-4.886-3.709h-4.34a.238.238,0,0,0-.258.258V117.29a.235.235,0,0,0,.258.258H338.1a.238.238,0,0,0,.259-.258v-3.177h2.047a11.485,11.485,0,0,1,2.322,3.241.316.316,0,0,0,.306.194h2.242c.194,0,.29-.129.194-.306a12.94,12.94,0,0,0-2.712-3.871Zm-2.484-1.515h-1.919v-3.338h1.79c1.774,0,2.37.581,2.37,1.677,0,1.064-.79,1.66-2.241,1.66Z" transform="translate(-110.62 -15.741)" fill="#fff"/>
    <path id="Path_26803" data-name="Path 26803" d="M360.79,105.848c-3.773,0-6.111,2.451-6.111,5.886s2.338,5.885,6.111,5.885,6.111-2.451,6.111-5.885S364.561,105.848,360.79,105.848Zm0,9.466a3.584,3.584,0,1,1,3.387-3.577A3.229,3.229,0,0,1,360.79,115.314Z" transform="translate(-118.471 -15.57)" fill="#fff"/>
    <path id="Path_26804" data-name="Path 26804" d="M389.222,106.2h-2.111a.238.238,0,0,0-.258.258v5.982c0,1.967-.9,2.95-2.547,2.95-1.693,0-2.548-1.048-2.548-2.95v-4.547c0-1.306-.564-1.774-1.642-1.774a5.52,5.52,0,0,0-.774.049.246.246,0,0,0-.242.274v6.1c0,3.451,1.919,5.192,5.193,5.192s5.192-1.742,5.192-5.192V106.46a.235.235,0,0,0-.262-.258Z" transform="translate(-128.57 -15.683)" fill="#fff"/>
    <path id="Path_26805" data-name="Path 26805" d="M406.1,106.259h-4.773a.238.238,0,0,0-.258.258v10.772a.235.235,0,0,0,.258.258h2.145a.235.235,0,0,0,.258-.258v-2.855h2.015c3,0,5.128-1.483,5.128-4.16C410.869,107.663,409.144,106.259,406.1,106.259Zm-.339,5.918h-2.033v-3.661h2.193c1.564,0,2.29.581,2.29,1.759s-.724,1.9-2.45,1.9Z" transform="translate(-137.654 -15.74)" fill="#fff"/>
    <ellipse id="Ellipse_651" data-name="Ellipse 651" cx="0.968" cy="0.903" rx="0.968" ry="0.903" transform="translate(120.717 83.852)" fill="#fff"/>
    <path id="Path_26806" data-name="Path 26806" d="M163.395,95.7a.97.97,0,1,0-.967.9.905.905,0,0,0,.967-.9Z" transform="translate(-38.562 -10.945)" fill="#fff"/>
    <path id="Path_26807" data-name="Path 26807" d="M181.632,91.786a1.127,1.127,0,1,0-1.122,1.032,1.036,1.036,0,0,0,1.122-1.032Z" transform="translate(-45.975 -9.249)" fill="#fff"/>
    <path id="Path_26808" data-name="Path 26808" d="M179.084,75.287a6.456,6.456,0,0,0-3.007.684c.026-1.845.039-2.787.039-3.574a.176.176,0,0,0-.207-.194,7.625,7.625,0,0,0-.942.1,1.059,1.059,0,0,0-.986,1.125c0,1.574.039,4,.064,6.7H172.4c-.929,0-1.226-.309-1.226-1.084l.09-3.536a.188.188,0,0,0-.219-.206,7.618,7.618,0,0,0-.955.1,1.042,1.042,0,0,0-.981,1.122l.1,2.516c.026.775-.258,1.084-1.11,1.084H166.31V75.5a.19.19,0,0,0-.206-.207h-2.477c-2.129,0-3.265.723-3.265,3.149,0,.323.026,1.329.026,1.768,0,1.548-.425,2.116-2,2.116-1.525,0-2.053-.517-2.053-2.362V78.848a.191.191,0,0,0-.207-.206h-1.674a.19.19,0,0,0-.206.206v.968c0,3.38,1.574,4.633,4.116,4.633,2.478,0,4.116-1.109,4.116-4.426V78.5c0-.774.284-1.084,1.071-1.084h.67v4.633a.19.19,0,0,0,.207.206H168a3.154,3.154,0,0,0,2.426-.762c.323.555.9.762,1.935.762h10.966a.19.19,0,0,0,.206-.206V79.21C183.533,76.577,182.011,75.287,179.084,75.287Zm2.362,4.839h-5.432l.038-2.3a9.5,9.5,0,0,1,2.891-.477c2.5,0,2.5,1.38,2.5,1.974Z" transform="translate(-35.58 -1.655)" fill="#fff"/>
    <path id="Path_26809" data-name="Path 26809" d="M194.708,74.242a1.036,1.036,0,1,0-.788-.27A1.036,1.036,0,0,0,194.708,74.242Z" transform="translate(-51.849 -1.644)" fill="#fff"/>
    <path id="Path_26810" data-name="Path 26810" d="M226.182,91.786a1.127,1.127,0,1,0-1.122,1.032,1.036,1.036,0,0,0,1.122-1.032Z" transform="translate(-64.399 -9.249)" fill="#fff"/>
    <path id="Path_26811" data-name="Path 26811" d="M219.741,81.218l.09-3.536a.188.188,0,0,0-.219-.206,7.609,7.609,0,0,0-.955.1,1.042,1.042,0,0,0-.981,1.122l.1,2.516c.026.775-.259,1.084-1.11,1.084h-1.792V77.668a.19.19,0,0,0-.206-.207h-3.652a3.47,3.47,0,0,0-3.753,3.51c0,2.271,1.742,3.46,3.753,3.46h1.846c0,.774-.258,1.1-1.11,1.1h-3.42c-.142,0-.206.09-.18.235l.361,1.715a.2.2,0,0,0,.219.181h2.917c2.077,0,3.225-.723,3.225-3.213v-.013h1.688C218.643,84.431,219.676,83.708,219.741,81.218ZM212.8,82.3h-1.782c-1.212,0-1.664-.606-1.664-1.329s.452-1.38,1.664-1.38H212.8Z" transform="translate(-57.507 -3.83)" fill="#fff"/>
    <path id="Path_26812" data-name="Path 26812" d="M231.977,71.049h2.246a.189.189,0,0,0,.206-.206v-.749a.189.189,0,0,0-.206-.206h-1.239c0-.155.1-.4.516-.4h.31a.19.19,0,0,0,.206-.206v-.439a.19.19,0,0,0-.206-.206h-.568a1.338,1.338,0,0,0-1.471,1.252v.952a.189.189,0,0,0,.206.208Z" transform="translate(-67.641 -0.178)" fill="#fff"/>
    <path id="Path_26813" data-name="Path 26813" d="M232.209,76.106c0,1.884.052,3.652.09,7.033a.19.19,0,0,0,.206.206H234a.194.194,0,0,0,.207-.219c.1-5.4.128-6.839.128-8.232,0-.039-.077-.065-.206-.052-.31.026-.658.065-.942.1a1.064,1.064,0,0,0-.98,1.161Z" transform="translate(-67.82 -2.746)" fill="#fff"/>
    <path id="Path_26814" data-name="Path 26814" d="M244.363,78.75h2.245a.19.19,0,0,0,.207-.206V77.8a.19.19,0,0,0-.207-.206h-1.239c0-.155.1-.4.517-.4h.309a.19.19,0,0,0,.207-.206v-.439a.19.19,0,0,0-.207-.207h-.568a1.339,1.339,0,0,0-1.471,1.252v.955a.19.19,0,0,0,.206.206Z" transform="translate(-72.763 -3.363)" fill="#fff"/>
    <path id="Path_26815" data-name="Path 26815" d="M270.931,74.025a1.036,1.036,0,1,0-.788-.27A1.036,1.036,0,0,0,270.931,74.025Z" transform="translate(-83.372 -1.554)" fill="#fff"/>
    <path id="Path_26816" data-name="Path 26816" d="M261.458,81.218l.09-3.536a.188.188,0,0,0-.219-.206,7.616,7.616,0,0,0-.955.1,1.042,1.042,0,0,0-.981,1.122l.1,2.516c.026.775-.258,1.084-1.11,1.084h-1.8V77.668a.19.19,0,0,0-.206-.207h-2.477c-2.129,0-3.265.723-3.265,3.149,0,.323.026,1.329.026,1.768,0,1.548-.425,2.116-2,2.116-1.525,0-2.053-.517-2.053-2.362V81.024a.19.19,0,0,0-.206-.206h-1.678a.19.19,0,0,0-.206.206v.968c0,3.38,1.574,4.633,4.116,4.633,2.478,0,4.116-1.109,4.116-4.426V80.675c0-.774.284-1.084,1.071-1.084h.67v4.633a.19.19,0,0,0,.207.206h3.572C260.358,84.431,261.391,83.708,261.458,81.218Z" transform="translate(-72.915 -3.83)" fill="#fff"/>
    <path id="Path_26817" data-name="Path 26817" d="M277.365,82.254h1.5a.194.194,0,0,0,.207-.219c.1-6.929.129-8.4.129-9.793,0-.039-.077-.052-.206-.039a7.609,7.609,0,0,0-.942.1,1.056,1.056,0,0,0-.98,1.125c0,1.948.052,5.187.09,8.621a.19.19,0,0,0,.207.2Z" transform="translate(-86.373 -1.654)" fill="#fff"/>
    <path id="Path_26818" data-name="Path 26818" d="M297.815,78.689a3.577,3.577,0,0,0-3.626,2.567l-.026.077c-.245.736-.323.968-1.251.968h-1.525V77.669a.19.19,0,0,0-.206-.207h-3.652a3.47,3.47,0,0,0-3.753,3.51c0,2.271,1.742,3.46,3.753,3.46h1.846c0,.774-.258,1.1-1.11,1.1h-3.419c-.142,0-.207.09-.181.235l.361,1.715a.2.2,0,0,0,.219.181h2.916c2.078,0,3.225-.723,3.225-3.213v-.013h1.561a2.853,2.853,0,0,0,1.574-.31,3.739,3.739,0,0,0,3.29,1.729,3.586,3.586,0,1,0,0-7.163Zm-8.5,3.612h-1.781c-1.212,0-1.664-.606-1.664-1.329s.452-1.38,1.664-1.38h1.781Zm8.5,1.42c-1.213,0-1.665-.671-1.665-1.446s.452-1.458,1.665-1.458,1.664.684,1.664,1.458S299.029,83.721,297.815,83.721Z" transform="translate(-89.148 -3.83)" fill="#fff"/>
    <ellipse id="Ellipse_652" data-name="Ellipse 652" cx="0.968" cy="0.903" rx="0.968" ry="0.903" transform="translate(221.156 70.497)" fill="#fff"/>
    <ellipse id="Ellipse_653" data-name="Ellipse 653" cx="0.968" cy="0.903" rx="0.968" ry="0.903" transform="translate(218.975 70.497)" fill="#fff"/>
    <path id="Path_26819" data-name="Path 26819" d="M325.5,83.711h13.9a.191.191,0,0,0,.207-.206V81.789a.191.191,0,0,0-.207-.207h-4.941a3.665,3.665,0,0,1-.181-.993c0-1.458.684-1.909,1.818-1.909.775,0,1.51.168,1.935.168.762,0,1.045-.528,1.162-1.549a.215.215,0,0,0-.155-.245,8.433,8.433,0,0,0-2.942-.5c-2.825,0-3.91,1.613-3.91,3.665a6.288,6.288,0,0,0,.168,1.368h-2.756l-.013-3.419.052-2.233a.188.188,0,0,0-.219-.206,7.707,7.707,0,0,0-.955.1,1.024,1.024,0,0,0-.968.916h-2.039a3.442,3.442,0,0,0-3.523,3.485A3.361,3.361,0,0,0,325.5,83.711Zm-.052-4.839h2.039l.012,2.709h-1.69c-1.342,0-1.793-.49-1.793-1.354a1.3,1.3,0,0,1,1.432-1.352Z" transform="translate(-104.927 -3.111)" fill="#fff"/>
    <path id="Path_26820" data-name="Path 26820" d="M392.278,92.356a1.127,1.127,0,1,0,1.123-1.032,1.036,1.036,0,0,0-1.123,1.032Z" transform="translate(-134.019 -9.562)" fill="#fff"/>
    <path id="Path_26821" data-name="Path 26821" d="M371.8,83.987a2.854,2.854,0,0,0,1.575.31h9.571a2.853,2.853,0,0,0,1.574-.31,3.738,3.738,0,0,0,3.29,1.729,3.584,3.584,0,1,0,0-7.161,3.577,3.577,0,0,0-3.627,2.567l-.026.077c-.245.736-.322.968-1.251.968h-1.457c.039-.426.065-.839.065-1.173,0-2.529-1.5-3.858-4.426-3.858a8.435,8.435,0,0,0-2.942.5.215.215,0,0,0-.155.245c.117,1.02.4,1.549,1.162,1.549.426,0,1.161-.168,1.935-.168,1.265,0,2.336.451,2.336,1.845a6.6,6.6,0,0,1-.117,1.056h-5.894c-.9,0-1.006-.219-1.226-.9a3.838,3.838,0,0,0-7.29-.142l-.026.077c-.245.736-.323.968-1.251.968H362.1V77.533a.19.19,0,0,0-.206-.207h-3.652a3.47,3.47,0,0,0-3.753,3.51c0,2.271,1.742,3.46,3.753,3.46h1.846c0,.774-.258,1.1-1.11,1.1h-3.42c-.142,0-.207.09-.181.235l.361,1.715a.2.2,0,0,0,.219.181h2.916c2.078,0,3.225-.723,3.225-3.213V84.3h1.559a2.854,2.854,0,0,0,1.575-.31,3.739,3.739,0,0,0,3.29,1.729,3.674,3.674,0,0,0,3.278-1.73Zm16.01-3.3c1.213,0,1.664.684,1.664,1.458s-.452,1.446-1.664,1.446-1.665-.671-1.665-1.446.453-1.458,1.665-1.458Zm-27.789,1.484h-1.781c-1.212,0-1.664-.606-1.664-1.329s.452-1.38,1.664-1.38h1.781Zm8.5,1.42c-1.213,0-1.665-.671-1.665-1.446s.452-1.458,1.665-1.458,1.664.684,1.664,1.458-.452,1.446-1.665,1.446Z" transform="translate(-118.392 -3.696)" fill="#fff"/>
  </g>
</svg>
