<svg xmlns="http://www.w3.org/2000/svg" width="25" height="16.406" viewBox="0 0 25 16.406">
  <path id="Path_4904" data-name="Path 4904" d="M29.95,42.233a1.832,1.832,0,0,0-1.18-1.26s0,0-.01,0l-2.619-.855a5.246,5.246,0,0,0-2.908-.1l-1.733.44-7.081-3.108a2.416,2.416,0,0,0-1.549-.128l-1.554.4a.969.969,0,0,0-.707.721.947.947,0,0,0,.329.949l3.58,2.94-4.1,1.038A1.4,1.4,0,0,1,9.095,42.9l-1.7-1.71a.974.974,0,0,0-.926-.257l-1.091.277a.489.489,0,0,0-.3.227.5.5,0,0,0-.055.375L6.1,45.993A2.377,2.377,0,0,0,7.95,47.727l3.2.618a5.1,5.1,0,0,0,.991.094,5.349,5.349,0,0,0,1.285-.158l2.5-.632-1.7,4.615a.955.955,0,0,0,.189.973.974.974,0,0,0,.717.316.99.99,0,0,0,.239-.03l1.564-.4a2.369,2.369,0,0,0,1.33-.889l4.711-6.374,5.667-1.433a1.784,1.784,0,0,0,1.11-.82,1.823,1.823,0,0,0,.194-1.378ZM11.615,38.552l1.5-.38a1.413,1.413,0,0,1,.9.074l5.926,2.6-4.228,1.077ZM17.461,51.64a1.385,1.385,0,0,1-.772.519l-1.514.38,1.917-5.2,4.362-1.107ZM28.9,43.093a.817.817,0,0,1-.5.371L13.173,47.317a4.272,4.272,0,0,1-1.837.054l-3.2-.618a1.374,1.374,0,0,1-1.076-1.008L6.112,42.04l.593-.148,1.683,1.695a2.414,2.414,0,0,0,2.281.632l12.813-3.246a4.227,4.227,0,0,1,2.35.079l2.614.855a.85.85,0,0,1,.538.573A.8.8,0,0,1,28.9,43.093Z" transform="translate(-5.007 -37.146)" fill="#9d9ac0"/>
</svg>
