<svg xmlns="http://www.w3.org/2000/svg" width="32" height="27.909" viewBox="0 0 32 27.909">
	<g transform="translate(-5.007 -37.146)">
		<path fill="#9d9ac0" d="M36.934,43.709a2.356,2.356,0,0,0-1.511-1.625c-.006,0-.006,0-.013-.006l-3.353-1.1a6.664,6.664,0,0,0-3.722-.127l-2.218.567L17.053,37.4a3.071,3.071,0,0,0-1.982-.166l-1.989.51a1.245,1.245,0,0,0-.905.931A1.227,1.227,0,0,0,12.6,39.9L17.181,43.7l-5.246,1.339a1.777,1.777,0,0,1-1.7-.472L8.066,42.357a1.24,1.24,0,0,0-1.186-.331l-1.4.357a.627.627,0,0,0-.389.293.644.644,0,0,0-.07.484l1.377,5.4A3.052,3.052,0,0,0,8.774,50.8l4.092.8a6.482,6.482,0,0,0,1.268.121,6.8,6.8,0,0,0,1.644-.2l3.206-.816-2.174,5.953a1.236,1.236,0,0,0,1.16,1.664,1.257,1.257,0,0,0,.306-.038l2-.51a3.031,3.031,0,0,0,1.7-1.147l6.03-8.222,7.254-1.848a2.285,2.285,0,0,0,1.421-1.058,2.368,2.368,0,0,0,.249-1.778ZM13.465,38.96l1.919-.491a1.8,1.8,0,0,1,1.154.1l7.585,3.353-5.412,1.39Zm7.483,16.885a1.773,1.773,0,0,1-.988.669L18.022,57,20.476,50.3l5.584-1.428ZM35.589,44.818a1.047,1.047,0,0,1-.644.478L15.46,50.267a5.426,5.426,0,0,1-2.352.07l-4.092-.8a1.764,1.764,0,0,1-1.377-1.3L6.422,43.46l.759-.191,2.154,2.186a3.074,3.074,0,0,0,2.919.816l16.4-4.188a5.37,5.37,0,0,1,3.009.1l3.346,1.1a1.093,1.093,0,0,1,.688.739A1.033,1.033,0,0,1,35.589,44.818Z" transform="translate(0)" />
		<path fill="#f7bf06" d="M81.667,455H57.637a.637.637,0,1,0,0,1.275h24.03a.637.637,0,1,0,0-1.275Z" transform="translate(-48.679 -391.22)" />
	</g>
</svg>
