<svg xmlns="http://www.w3.org/2000/svg" width="18" height="18" viewBox="0 0 18 18">
	<g transform="translate(-0.105)">
		<rect fill="#f0f" opacity="0" width="18" height="18" transform="translate(0.105)" />
		<path fill="#57a05a" d="M8,16a8,8,0,1,1,8-8A8.009,8.009,0,0,1,8,16ZM4,8c0,.033,0,.1-.01.186A2.355,2.355,0,0,0,4,9l3,3,5-7a.16.16,0,0,0,.089.042.044.044,0,0,0,.033-.013.058.058,0,0,0,.014-.042.051.051,0,0,0-.046-.054c-.018,0-.048.011-.088.065l0-1a.975.975,0,0,0-.552-.142A.574.574,0,0,0,11,4L7,10,5,7a.746.746,0,0,0-.5-.142A.746.746,0,0,0,4,7v.976c0-.008-.005-.018-.012-.018s-.018.016-.023.032-.006.025,0,.03a.006.006,0,0,0,.005,0C3.973,8.023,3.983,8.016,4,8Z" transform="translate(1.106 1)" />
	</g>
</svg>
