<svg xmlns="http://www.w3.org/2000/svg" width="13.485" height="15.296" viewBox="0 0 13.485 15.296"><defs><style>.a{fill:#c5d2e7;}</style></defs><g transform="translate(-30.311 0)"><g transform="translate(30.311 0)"><path class="a" d="M43.182,5.93A3.908,3.908,0,0,0,40.7,3.859a4.98,4.98,0,0,0-3.156.409,6.26,6.26,0,0,0-.175-1.988,3.015,3.015,0,0,0,1.918,1.2,2.545,2.545,0,0,0,.351.024,4.1,4.1,0,0,0,2.8-1.435l.317-.317-.317-.317A3.817,3.817,0,0,0,39.282.024a3.165,3.165,0,0,0-2.127,1.51l-.04.072a3.244,3.244,0,0,0-.531-.792A2.521,2.521,0,0,0,35.209.005l-.136.886c.018,0,1.765.31,1.566,3.409a5.028,5.028,0,0,0-3.228-.442A3.908,3.908,0,0,0,30.924,5.93a5.714,5.714,0,0,0-.469,3.919A8.654,8.654,0,0,0,32.1,13.4,4.222,4.222,0,0,0,35.168,15.3a2.117,2.117,0,0,0,.524-.065,5.334,5.334,0,0,0,1.362-.442,5.335,5.335,0,0,0,1.362.442,2.115,2.115,0,0,0,.524.065A4.222,4.222,0,0,0,42.007,13.4a8.654,8.654,0,0,0,1.644-3.555A5.714,5.714,0,0,0,43.182,5.93Z" transform="translate(-30.311 0)"/></g></g></svg>