<svg xmlns="http://www.w3.org/2000/svg" width="24" height="24" viewBox="0 0 24 24">
	<rect fill="none" width="24" height="24" />
	<path fill="#919ab1" d="M69.351,69.2l.023-.031c.007-.011.014-.022.02-.033l.017-.03c.006-.011.011-.023.017-.034s.01-.021.015-.032.008-.022.012-.033.009-.024.013-.036.006-.022.009-.034.007-.025.009-.037,0-.026.006-.039,0-.022,0-.033,0-.048,0-.072V59A.75.75,0,0,0,68,59v7.939L57.28,56.219A.75.75,0,0,0,56.22,57.28L66.939,68H59a.75.75,0,0,0,0,1.5h9.75c.025,0,.049,0,.074,0l.033,0,.039-.006.037-.009.034-.009L69,69.455l.034-.012.032-.015.034-.017.029-.017.033-.02.031-.023.028-.021c.017-.014.033-.028.048-.043l.007-.006.005-.006c.015-.016.03-.032.044-.049Z" transform="translate(-50.75 -50.75)" />
</svg>
