<svg xmlns="http://www.w3.org/2000/svg" width="18" height="15" viewBox="0 0 18 15">
  <g id="Component_2_1" data-name="Component 2 – 1" transform="translate(0 15) rotate(-90)">
    <path id="Path_57" data-name="Path 57" d="M62.78,41.97a.75.75,0,0,0-1.061,0l-5.47,5.47V32.75a.75.75,0,0,0-1.5,0V47.439l-5.47-5.47A.75.75,0,1,0,48.22,43.03l6.75,6.75.008.007c.015.015.031.029.047.043l.028.021.031.023.033.02.029.017.034.017.032.015.034.012.036.012.034.009.037.009.039.006.033,0c.025,0,.049,0,.074,0s.049,0,.074,0l.033,0,.039-.006.037-.009.034-.009.036-.012.034-.012.032-.015.034-.017.029-.017.033-.02.031-.023.028-.021c.017-.014.033-.028.048-.043l.007-.006,6.75-6.75A.75.75,0,0,0,62.78,41.97Z" transform="translate(-48 -32)"/>
  </g>
</svg>
