<svg xmlns="http://www.w3.org/2000/svg" width="36" height="35.572" viewBox="0 0 36 35.572"><defs><style>.a{fill:none;}.barr{fill:#6f4c98;}</style></defs><rect class="a" width="35.572" height="35.572"/><path class="barr" d="M38.313,24A14.313,14.313,0,1,0,52.625,38.313,14.313,14.313,0,0,0,38.313,24Zm6.521,14.733a1.1,1.1,0,0,1-.239.359l-4.669,4.669A1.1,1.1,0,1,1,38.369,42.2l2.791-2.791H32.808a1.1,1.1,0,0,1,0-2.2H41.16l-2.791-2.791a1.1,1.1,0,0,1,1.557-1.557l4.669,4.669A1.1,1.1,0,0,1,44.834,38.733Z" transform="translate(-20.697 -20.697)"/></svg>