<svg xmlns="http://www.w3.org/2000/svg" width="33.06" height="33.059" viewBox="0 0 33.06 33.059">
  <g id="noun_Calendar_857970" transform="translate(-0.813 -0.813)">
    <path id="Path_4367" data-name="Path 4367" d="M31.51,4.748H29.149V2.387A1.576,1.576,0,0,0,27.576.813H24.427a1.576,1.576,0,0,0-1.574,1.574V4.748H11.833V2.387A1.576,1.576,0,0,0,10.259.813H7.109A1.576,1.576,0,0,0,5.535,2.387V4.748H3.174A2.364,2.364,0,0,0,.813,7.109v24.4a2.364,2.364,0,0,0,2.361,2.361H31.512a2.364,2.364,0,0,0,2.361-2.361V7.109A2.364,2.364,0,0,0,31.51,4.748ZM24.427,2.387h3.149V7.109H24.427Zm-17.318,0h3.149V7.109H7.109ZM32.3,31.51a.788.788,0,0,1-.788.788H3.174a.788.788,0,0,1-.788-.788V14.194H32.3Zm0-18.89H2.387V7.109a.788.788,0,0,1,.788-.788H5.535V8.684h6.3V6.323h11.02V8.684h6.3V6.323H31.51a.788.788,0,0,1,.788.788Z" fill="#9e99c3"/>
    <rect id="Rectangle_140480" data-name="Rectangle 140480" width="3.149" height="1.574" transform="translate(19.145 18.13)" fill="#f7bf06"/>
    <rect id="Rectangle_140481" data-name="Rectangle 140481" width="3.149" height="1.574" transform="translate(25.442 18.13)" fill="#f7bf06"/>
    <rect id="Rectangle_140482" data-name="Rectangle 140482" width="3.149" height="1.574" transform="translate(12.848 22.065)" fill="#f7bf06"/>
    <rect id="Rectangle_140483" data-name="Rectangle 140483" width="3.149" height="1.574" transform="translate(19.145 22.065)" fill="#f7bf06"/>
    <rect id="Rectangle_140484" data-name="Rectangle 140484" width="3.149" height="1.574" transform="translate(25.442 22.065)" fill="#f7bf06"/>
    <rect id="Rectangle_140485" data-name="Rectangle 140485" width="3.149" height="1.574" transform="translate(12.848 26.001)" fill="#f7bf06"/>
    <rect id="Rectangle_140486" data-name="Rectangle 140486" width="3.149" height="1.574" transform="translate(19.145 26.001)" fill="#f7bf06"/>
    <rect id="Rectangle_140487" data-name="Rectangle 140487" width="3.149" height="1.574" transform="translate(25.442 26.001)" fill="#f7bf06"/>
  </g>
</svg>
