<svg xmlns="http://www.w3.org/2000/svg" width="18.628" height="18.627" viewBox="0 0 18.628 18.627">
  <g id="noun_Calendar_857970" transform="translate(-2.08 -2.08)">
    <path id="Path_4367" data-name="Path 4367" d="M18.11,3.03h-1.33V1.7a.888.888,0,0,0-.887-.887H14.119a.888.888,0,0,0-.887.887V3.03H7.022V1.7A.888.888,0,0,0,6.135.813H4.36a.888.888,0,0,0-.887.887V3.03H2.143A1.332,1.332,0,0,0,.813,4.36V18.11a1.332,1.332,0,0,0,1.33,1.33H18.111a1.332,1.332,0,0,0,1.33-1.33V4.36A1.332,1.332,0,0,0,18.11,3.03ZM14.119,1.7h1.774V4.36H14.119ZM4.36,1.7H6.135V4.36H4.36ZM18.553,18.11a.444.444,0,0,1-.444.444H2.143A.444.444,0,0,1,1.7,18.11V8.352H18.553Zm0-10.644H1.7V4.36a.444.444,0,0,1,.444-.444h1.33V5.248H7.022V3.918h6.209v1.33h3.548V3.918h1.33a.444.444,0,0,1,.444.444Z" transform="translate(1.267 1.267)" fill="#919ab1"/>
    <rect id="Rectangle_140480" data-name="Rectangle 140480" width="2.015" height="1.007" transform="translate(12.547 11.898)" fill="#919ab1"/>
    <rect id="Rectangle_140481" data-name="Rectangle 140481" width="2.015" height="1.007" transform="translate(16.578 11.898)" fill="#919ab1"/>
    <rect id="Rectangle_140482" data-name="Rectangle 140482" width="2.015" height="1.007" transform="translate(8.516 14.416)" fill="#919ab1"/>
    <rect id="Rectangle_140483" data-name="Rectangle 140483" width="2.015" height="1.007" transform="translate(12.547 14.416)" fill="#919ab1"/>
    <rect id="Rectangle_140484" data-name="Rectangle 140484" width="2.015" height="1.007" transform="translate(16.578 14.416)" fill="#919ab1"/>
    <rect id="Rectangle_140485" data-name="Rectangle 140485" width="2.015" height="1.007" transform="translate(8.516 16.936)" fill="#919ab1"/>
    <rect id="Rectangle_140486" data-name="Rectangle 140486" width="2.015" height="1.007" transform="translate(12.547 16.936)" fill="#919ab1"/>
    <rect id="Rectangle_140487" data-name="Rectangle 140487" width="2.015" height="1.007" transform="translate(16.578 16.936)" fill="#919ab1"/>
  </g>
</svg>
