<svg xmlns="http://www.w3.org/2000/svg" width="21.48" height="25.384" viewBox="0 0 21.48 25.384">
  <path id="Path_210" data-name="Path 210" d="M61.178,31.112l-6.826-6.826-.031-.028c-.013-.012-.026-.025-.04-.036l-.028-.021c-.016-.012-.032-.025-.048-.036l-.023-.014c-.019-.012-.039-.024-.059-.035l-.017-.008c-.023-.012-.046-.023-.07-.033l-.011,0c-.026-.01-.052-.02-.078-.028l-.012,0c-.026-.008-.053-.015-.081-.02l-.026,0c-.023,0-.045-.008-.068-.01a.966.966,0,0,0-.1,0H41.945a1.955,1.955,0,0,0-1.953,1.953V47.431a1.955,1.955,0,0,0,1.953,1.953H59.519a1.955,1.955,0,0,0,1.953-1.953v-15.6c0-.006,0-.013,0-.019A.973.973,0,0,0,61.178,31.112ZM54.348,41.859a.976.976,0,1,1-1.381,1.381L50.729,41,48.49,43.24a.976.976,0,0,1-1.381-1.381l2.239-2.239L47.11,37.382A.976.976,0,0,1,48.49,36l2.239,2.239L52.967,36a.976.976,0,1,1,1.381,1.381L52.11,39.621ZM53.661,31.81V26.357l5.453,5.453Z" transform="translate(-39.992 -24)" fill="#fff"/>
</svg>
