<svg xmlns="http://www.w3.org/2000/svg" width="24" height="24" viewBox="0 0 24 24">
	<rect fill="none" width="24" height="24" transform="translate(0)" />
	<path fill="#6772c6" d="M30.5,61.994c0-.008,0-.016,0-.024s0-.042,0-.062,0-.018,0-.026-.007-.04-.012-.06l-.006-.024q-.009-.034-.022-.066l0-.011,0-.012v0l-1.306-3.264a1.493,1.493,0,0,0-1.393-.943H24.5v-.75a.75.75,0,0,0-.75-.75H9.5A1.5,1.5,0,0,0,8,57.5V68a1.5,1.5,0,0,0,1.5,1.5h1.22a3,3,0,0,0,5.81,0h5.44a3,3,0,0,0,5.81,0H29A1.5,1.5,0,0,0,30.5,68V62S30.5,62,30.5,61.994ZM24.5,59h3.242l.9,2.25H24.5Zm-15-1.5H23v6H9.5Zm4.125,12.75a1.5,1.5,0,1,1,1.5-1.5,1.5,1.5,0,0,1-1.5,1.5Zm11.25,0a1.5,1.5,0,1,1,1.5-1.5,1.5,1.5,0,0,1-1.5,1.5Z" transform="translate(-7.25 -50.75)" />
</svg>
