<svg xmlns="http://www.w3.org/2000/svg" width="18.382" height="21.796" viewBox="0 0 18.382 21.796">
  <g id="file" transform="translate(-40.097)">
    <g id="Group_152140" data-name="Group 152140" transform="translate(40.097)">
      <g id="Group_152139" data-name="Group 152139" transform="translate(0)">
        <path id="Path_4402" data-name="Path 4402" d="M57.429,2.889H55.591V1.05A1.053,1.053,0,0,0,54.54,0H41.147A1.053,1.053,0,0,0,40.1,1.05V17.857a1.054,1.054,0,0,0,1.05,1.05h1.838v1.838a1.053,1.053,0,0,0,1.05,1.05h8.928a3.065,3.065,0,0,0,1.815-.72l2.934-2.762a2.789,2.789,0,0,0,.765-1.77V3.939A1.054,1.054,0,0,0,57.429,2.889ZM42.986,3.939V18.12H41.147a.266.266,0,0,1-.263-.263V1.05a.266.266,0,0,1,.263-.263H54.54a.266.266,0,0,1,.263.263V2.889H44.036A1.053,1.053,0,0,0,42.986,3.939Zm14.188,13.8L54.24,20.5a1.394,1.394,0,0,1-.225.165V18.251a.658.658,0,0,1,.657-.656H57.3A1.1,1.1,0,0,1,57.174,17.741Zm.517-1.2a1.225,1.225,0,0,1-.036.263H54.671a1.447,1.447,0,0,0-1.444,1.444v2.726a1.373,1.373,0,0,1-.263.032H44.036a.266.266,0,0,1-.263-.263V3.939a.266.266,0,0,1,.263-.263H57.429a.266.266,0,0,1,.263.263Z" transform="translate(-40.097)" fill="#919ab1"/>
      </g>
    </g>
    <g id="Group_152142" data-name="Group 152142" transform="translate(45.529 6.357)">
      <g id="Group_152141" data-name="Group 152141" transform="translate(0 0)">
        <path id="Path_4403" data-name="Path 4403" d="M201.043,154.216h-9.326c-.267,0-.482.325-.482.727s.216.727.482.727h9.326c.266,0,.482-.325.482-.727S201.309,154.216,201.043,154.216Z" transform="translate(-191.235 -154.216)" fill="#919ab1"/>
      </g>
    </g>
    <g id="Group_152144" data-name="Group 152144" transform="translate(45.529 11.443)">
      <g id="Group_152143" data-name="Group 152143" transform="translate(0 0)">
        <path id="Path_4404" data-name="Path 4404" d="M201.043,277.59h-9.326c-.267,0-.482.325-.482.727s.216.727.482.727h9.326c.266,0,.482-.325.482-.727S201.309,277.59,201.043,277.59Z" transform="translate(-191.235 -277.59)" fill="#919ab1"/>
      </g>
    </g>
    <g id="Group_152146" data-name="Group 152146" transform="translate(45.529 13.985)">
      <g id="Group_152145" data-name="Group 152145" transform="translate(0 0)">
        <path id="Path_4405" data-name="Path 4405" d="M197.977,339.277h-6.163a.746.746,0,0,0,0,1.454h6.163a.746.746,0,0,0,0-1.454Z" transform="translate(-191.236 -339.277)" fill="#919ab1"/>
      </g>
    </g>
    <g id="Group_152148" data-name="Group 152148" transform="translate(45.529 8.9)">
      <g id="Group_152147" data-name="Group 152147" transform="translate(0 0)">
        <path id="Path_4406" data-name="Path 4406" d="M201.043,215.9h-9.326c-.267,0-.482.325-.482.727s.216.727.482.727h9.326c.266,0,.482-.325.482-.727S201.309,215.9,201.043,215.9Z" transform="translate(-191.235 -215.903)" fill="#919ab1"/>
      </g>
    </g>
  </g>
</svg>
