<svg xmlns="http://www.w3.org/2000/svg" width="21" height="21" viewBox="0 0 21 21"><defs><style>.a-chat{fill:none;}.b-chat{fill:#606a81;}</style></defs><rect class="a-chat" width="21" height="21"/><path class="b-chat" d="M32.511,23.993A8.512,8.512,0,0,0,25.05,36.6l-.7,2.447a1.309,1.309,0,0,0,1.619,1.619l2.448-.7a8.51,8.51,0,1,0,4.095-15.972Zm2.618,10.473H29.893a.655.655,0,1,1,0-1.309h5.237a.655.655,0,0,1,0,1.309Zm0-2.618H29.893a.655.655,0,0,1,0-1.309h5.237a.655.655,0,0,1,0,1.309Z" transform="translate(-22.038 -22.03)"/></svg>