<svg xmlns="http://www.w3.org/2000/svg" width="16" height="16.001" viewBox="0 0 16 16.001">
	<g transform="translate(1971 5133)">
		<circle fill="none" cx="8" cy="8" r="8" transform="translate(-1971 -5133)" />
		<g transform="translate(-1971 -5133)">
			<rect fill="none" width="16" height="16" transform="translate(0 0)" />
			<path fill="#8f9ab3" d="M32,24a8,8,0,1,0,8,8A8,8,0,0,0,32,24Zm3.81,6.6L31.3,34.907a.617.617,0,0,1-.851,0L28.19,32.753a.616.616,0,0,1,.851-.891l1.831,1.748,4.088-3.9a.616.616,0,1,1,.851.891Z" transform="translate(-24 -24)" />
		</g>
	</g>
</svg>
