<svg xmlns="http://www.w3.org/2000/svg" xmlns:xlink="http://www.w3.org/1999/xlink" width="23.227" height="23.203" viewBox="0 0 23.227 23.203">
  <defs>
    <clipPath id="clip-path">
      <rect id="Rectangle_141389" data-name="Rectangle 141389" width="23.227" height="23.203" fill="#919ab1"/>
    </clipPath>
  </defs>
  <g id="Group_157640" data-name="Group 157640" transform="translate(-698.788 -90.617)">
    <g id="Group_157639" data-name="Group 157639" transform="translate(698.788 90.617)" clip-path="url(#clip-path)">
      <path id="Path_5155" data-name="Path 5155" d="M720.473,102.866l-4.628,1.877-4.628-1.877v-.027l4.628-1.731,4.628,1.731Zm0,5.075-3.857,1.927v-3.586l3.857-1.758Zm-10.888-5.075-4.628,1.877-4.628-1.877v-.027l4.628-1.731,4.628,1.731Zm0,5.075-3.857,1.927v-3.586l3.857-1.758Zm-3.812-13.192,4.628-1.731,4.628,1.731v.029L710.4,96.653l-4.628-1.875Zm9.256,5.017-3.857,1.446v-3.09l3.857-1.677Zm5.925,1.605-4.383-1.64V94.813a1.63,1.63,0,0,0-1.061-1.526l-4.538-1.7a1.612,1.612,0,0,0-1.148,0l-4.536,1.7a1.629,1.629,0,0,0-1.062,1.526v4.918l-4.382,1.64a1.632,1.632,0,0,0-1.057,1.526v4.99a1.631,1.631,0,0,0,.9,1.459l4.536,2.265a1.625,1.625,0,0,0,1.461,0l4.713-2.356,4.713,2.356a1.626,1.626,0,0,0,1.461,0l4.536-2.265a1.631,1.631,0,0,0,.9-1.459V102.9A1.63,1.63,0,0,0,720.954,101.371Z" transform="translate(-698.788 -90.032)" fill="#919ab1"/>
    </g>
  </g>
</svg>
