<svg xmlns="http://www.w3.org/2000/svg" width="24" height="24" viewBox="0 0 24 24">
	<rect fill="none" width="24" height="24" />
	<g transform="translate(3.01 3.004)">
		<path fill="#c5d2e7" d="M120.75,72a.75.75,0,0,0-.75.75v4.5c0,.007,0,.013,0,.02s0,.03,0,.045,0,.023,0,.035,0,.024.006.036.005.026.009.039,0,.02.008.03.008.027.013.04l.01.028.016.038.014.03.018.033.019.032.018.027.025.033.019.023.029.032.022.021.03.027.028.023.028.021.038.024.017.011,3.9,2.25a.75.75,0,1,0,.75-1.3L121.5,76.817V72.75a.75.75,0,0,0-.75-.75Z" transform="translate(-111.76 -68.254)" />
		<path fill="#c5d2e7" d="M50.114,33.889a.75.75,0,0,0-.75.75v1.939l-1.9-1.9a9,9,0,1,0,0,12.728A.75.75,0,1,0,46.4,46.344a7.5,7.5,0,1,1,0-10.607l1.9,1.9H46.364a.75.75,0,0,0,0,1.5h3.75c.025,0,.05,0,.074,0l.031,0,.041-.006.036-.009.035-.009.035-.012.034-.012.032-.015.034-.016.031-.018.032-.02.033-.024.026-.019a.755.755,0,0,0,.1-.1l.019-.025c.008-.011.017-.022.025-.034s.013-.021.019-.032.013-.02.018-.031.011-.022.016-.033.011-.022.015-.033.008-.022.012-.033.009-.024.013-.036.006-.022.009-.033.007-.025.009-.038,0-.026.006-.039,0-.022,0-.034,0-.049,0-.074v-3.75a.75.75,0,0,0-.75-.75Z" transform="translate(-32.108 -32.045)" />
	</g>
</svg>
