<svg xmlns="http://www.w3.org/2000/svg" width="24" height="24" viewBox="0 0 24 24"><defs><style>.a{fill:none;}.b{fill:#6f4c98;}.c{fill:#fff;stroke:#d7dee8;}.d{fill:#8f9ab3;}.e{stroke:none;}</style></defs><rect class="a" width="24" height="24"/><path class="b" d="M21.655,77.28l-8.25,8.25a.75.75,0,0,1-1.061,0L8.219,81.4A.75.75,0,0,1,9.28,80.344l3.595,3.595,7.72-7.72a.75.75,0,0,1,1.061,1.061Zm8.625-1.061a.75.75,0,0,0-1.061,0l-7.72,7.72-1.661-1.661a.75.75,0,0,0-1.061,1.061l2.191,2.191a.75.75,0,0,0,1.061,0l8.25-8.25a.75.75,0,0,0,0-1.061Z" transform="translate(-7.25 -68.874)"/><g class="c"><circle class="e" cx="12" cy="12" r="12"/><circle class="a" cx="12" cy="12" r="11.5"/></g><g transform="translate(2.784 2.784)"><rect class="a" width="18" height="18" transform="translate(0.216 0.216)"/><path class="d" d="M18.487,76.982l-6.336,6.336a.576.576,0,0,1-.815,0L8.168,80.151a.576.576,0,1,1,.814-.815L11.744,82.1l5.928-5.929a.576.576,0,0,1,.815.815Zm6.624-.815a.576.576,0,0,0-.815,0L18.368,82.1l-1.276-1.276a.576.576,0,1,0-.814.815l1.683,1.683a.576.576,0,0,0,.815,0l6.336-6.336a.576.576,0,0,0,0-.815Z" transform="translate(-7.424 -70.527)"/></g></svg>