<svg xmlns="http://www.w3.org/2000/svg" width="27.221" height="30.847" viewBox="0 0 27.221 30.847">
  <g id="contact" transform="translate(0.001 0)">
    <path id="Path_10" data-name="Path 10" d="M21.745,18.5a8.638,8.638,0,0,0-6.418-6.556,6.769,6.769,0,1,0-8.716,0A8.626,8.626,0,0,0,0,20.321v6.715H15.308A6.194,6.194,0,1,0,21.745,18.5ZM6.029,6.769A4.94,4.94,0,1,1,10.97,11.71,4.946,4.946,0,0,1,6.029,6.769Zm8.8,17.883c0,.187.009.371.025.554H1.828V20.321A6.79,6.79,0,0,1,8.61,13.538h4.719a6.794,6.794,0,0,1,6.551,5.026,6.2,6.2,0,0,0-5.049,6.088Zm6.194,4.366a4.366,4.366,0,1,1,4.366-4.366A4.371,4.371,0,0,1,21.025,29.019Zm0,0" transform="translate(0 0)" fill="#a187bf"/>
    <path id="Path_11" data-name="Path 11" d="M309.964,366.672h-1.829v1.647h-1.647v1.829h1.647v1.647h1.829v-1.647h1.647v-1.829h-1.647Zm0,0" transform="translate(-288.024 -344.58)" fill="#a187bf"/>
  </g>
</svg>
