<svg xmlns="http://www.w3.org/2000/svg" xmlns:xlink="http://www.w3.org/1999/xlink" width="21.514" height="21.491" viewBox="0 0 21.514 21.491">
  <defs>
    <clipPath id="clip-path">
      <rect id="Rectangle_141387" data-name="Rectangle 141387" width="21.514" height="21.491" fill="#919ab1"/>
    </clipPath>
  </defs>
  <g id="Group_157636" data-name="Group 157636" transform="translate(-446.443 -91.253)">
    <g id="Group_157635" data-name="Group 157635" transform="translate(446.443 91.253)" clip-path="url(#clip-path)">
      <path id="Path_5152" data-name="Path 5152" d="M467.137,98.035l-5.157,2.345v10.746l5.225-2.089a1.1,1.1,0,0,0,.751-1.108v-9.34a.6.6,0,0,0-.819-.554Zm-9.937,7.406a1.786,1.786,0,0,1-1.364-.632c-.734-.866-1.515-1.852-2.221-2.863v6.791l7.17,2.387v-9.177c-.706,1.01-1.487,2-2.221,2.862A1.786,1.786,0,0,1,457.2,105.441Zm-10.005-5.362a1.1,1.1,0,0,0-.751,1.11v9.338a.6.6,0,0,0,.819.556l5.156-2.345v-8.7a11.482,11.482,0,0,1-.793-1.73ZM457.2,98.291a1.567,1.567,0,1,1,1.569-1.567A1.568,1.568,0,0,1,457.2,98.291Zm0-6.268a4.7,4.7,0,0,0-4.706,4.7c0,2.1,3.074,5.924,4.254,7.313a.587.587,0,0,0,.9,0c1.178-1.389,4.254-5.215,4.254-7.313A4.7,4.7,0,0,0,457.2,92.023Z" transform="translate(-446.443 -90.829)" fill="#919ab1"/>
    </g>
  </g>
</svg>
