<svg xmlns="http://www.w3.org/2000/svg" width="16.213" height="16.213" viewBox="0 0 16.213 16.213"><defs></defs><g transform="translate(0.409 0.359)"><g transform="translate(4.489 4.489)"><rect fill="#8f9ab3" width="7" height="7" transform="translate(0.102 0.152)"/></g><path fill="#8f9ab3" d="M15.591,8.641c.48,0,0-.52,0-1,0-.4.48,0,0,0h-1v-2h1c.48,0,0-.52,0-1,0-.4.48-1,0-1h-1a2.376,2.376,0,0,0-2-2h-1v-1c0-.4.48-1,0-1a1.187,1.187,0,0,0-1,1v1h-2v-1a1.187,1.187,0,0,0-1-1c-.48,0,0,.52,0,1v1h-2v-1a1.187,1.187,0,0,0-1-1,1.109,1.109,0,0,0-1,1v1h0a2.376,2.376,0,0,0-2,2h-1a1.109,1.109,0,0,0-1,1,1.187,1.187,0,0,0,1,1h1v2h-1c-.48,0-1-.48-1,0a1.187,1.187,0,0,0,1,1h1v2h-1a1.109,1.109,0,0,0-1,1c0,.4.52,0,1,0h1v1a2.376,2.376,0,0,0,2,2h0v1c0,.4.52,0,1,0s1,.48,1,0v-1h2v1c0,.4-.48,0,0,0s1,.48,1,0v-1h2v1c0,.4.52,0,1,0,.4,0,0,.48,0,0v-1h1a2.376,2.376,0,0,0,2-2v-1h1c.48,0,0,.48,0,0,0-.4.48-1,0-1h-1v-2Zm-3,4h-9v-9h9Z"/></g></svg>
