<?xml version="1.0" encoding="utf-8"?>
<!-- Generator: Adobe Illustrator 25.3.1, SVG Export Plug-In . SVG Version: 6.00 Build 0)  -->
<svg version="1.1" id="Layer_1" xmlns="http://www.w3.org/2000/svg" xmlns:xlink="http://www.w3.org/1999/xlink" x="0px" y="0px"
	 viewBox="0 0 40.6 53.4" style="enable-background:new 0 0 40.6 53.4;" xml:space="preserve">
<g transform="translate(-80.244 -24)">
	<line style="fill:none;stroke:#9D9AC0;stroke-width:2;stroke-linecap:round;stroke-linejoin:round;stroke-miterlimit:2.613;" class="st0" x1="113.5" y1="31.6" x2="117.4" y2="31.6"/>
	<path style="fill:none;stroke:#9D9AC0;stroke-width:2;stroke-linecap:round;stroke-linejoin:round;stroke-miterlimit:2.613;" class="st0" d="M117.4,31.6c1.4,0,2.5,1.1,2.5,2.5c0,0,0,0,0,0"/>
	<line style="fill:none;stroke:#9D9AC0;stroke-width:2;stroke-linecap:round;stroke-linejoin:round;stroke-miterlimit:2.613;" class="st0" x1="119.8" y1="34.1" x2="119.8" y2="73.9"/>
	<path style="fill:none;stroke:#9D9AC0;stroke-width:2;stroke-linecap:round;stroke-linejoin:round;stroke-miterlimit:2.613;" class="st0" d="M119.8,73.9c0,1.4-1.1,2.5-2.5,2.5"/>
	<line style="fill:none;stroke:#9D9AC0;stroke-width:2;stroke-linecap:round;stroke-linejoin:round;stroke-miterlimit:2.613;" class="st0" x1="117.4" y1="76.4" x2="83.7" y2="76.4"/>
	<path style="fill:none;stroke:#9D9AC0;stroke-width:2;stroke-linecap:round;stroke-linejoin:round;stroke-miterlimit:2.613;" class="st0" d="M83.7,76.4c-1.4,0-2.5-1.1-2.5-2.5"/>
	<line style="fill:none;stroke:#9D9AC0;stroke-width:2;stroke-linecap:round;stroke-linejoin:round;stroke-miterlimit:2.613;" class="st0" x1="81.2" y1="73.9" x2="81.2" y2="34.1"/>
	<path style="fill:none;stroke:#9D9AC0;stroke-width:2;stroke-linecap:round;stroke-linejoin:round;stroke-miterlimit:2.613;" class="st0" d="M81.2,34.1c0-1.4,1.1-2.5,2.5-2.5c0,0,0,0,0,0"/>
	<line style="fill:none;stroke:#9D9AC0;stroke-width:2;stroke-linecap:round;stroke-linejoin:round;stroke-miterlimit:2.613;" class="st0" x1="83.7" y1="31.6" x2="87" y2="31.6"/>
	<path style="fill:none;stroke:#9D9AC0;stroke-width:2;stroke-linecap:round;stroke-linejoin:round;stroke-miterlimit:2.613;" class="st0" d="M111.2,27.9h-6.4v-0.5"/>
	<path style="fill:none;stroke:#9D9AC0;stroke-width:2;stroke-linecap:round;stroke-linejoin:round;stroke-miterlimit:2.613;" class="st0" d="M104.8,27.4c0-1.3-1-2.4-2.4-2.4c0,0,0,0,0,0"/>
	<line style="fill:none;stroke:#9D9AC0;stroke-width:2;stroke-linecap:round;stroke-linejoin:round;stroke-miterlimit:2.613;" class="st0" x1="102.4" y1="25" x2="98.7" y2="25"/>
	<path style="fill:none;stroke:#9D9AC0;stroke-width:2;stroke-linecap:round;stroke-linejoin:round;stroke-miterlimit:2.613;" class="st0" d="M98.7,25c-1.3,0-2.4,1.1-2.4,2.4"/>
	<path style="fill:none;stroke:#9D9AC0;stroke-width:2;stroke-linecap:round;stroke-linejoin:round;stroke-miterlimit:2.613;" class="st0" d="M96.3,27.4v0.5h-6.4"/>
	<path style="fill:none;stroke:#9D9AC0;stroke-width:2;stroke-linecap:round;stroke-linejoin:round;stroke-miterlimit:2.613;" class="st0" d="M89.9,27.9c-1.3,0-2.4,1.1-2.4,2.4"/>
	<path style="fill:none;stroke:#9D9AC0;stroke-width:2;stroke-linecap:round;stroke-linejoin:round;stroke-miterlimit:2.613;" class="st0" d="M87.6,30.3v5.1h25.9v-5.1"/>
	<path style="fill:none;stroke:#9D9AC0;stroke-width:2;stroke-linecap:round;stroke-linejoin:round;stroke-miterlimit:2.613;" class="st0" d="M113.5,30.3c0-1.3-1-2.4-2.4-2.4c0,0,0,0,0,0"/>
	<g transform="translate(87.687 45.088)">
		<line style="fill:none;stroke:#F7BF06;stroke-width:2;stroke-linecap:round;stroke-linejoin:round;stroke-miterlimit:2.613;" class="st1" x1="0" y1="2.3" x2="2.1" y2="4.3"/>
		<line style="fill:none;stroke:#F7BF06;stroke-width:2;stroke-linecap:round;stroke-linejoin:round;stroke-miterlimit:2.613;" class="st1" x1="6" y1="0" x2="2.1" y2="4.3"/>
	</g>
	<line style="fill:none;stroke:#9D9AC0;stroke-width:2;stroke-linecap:round;stroke-linejoin:round;stroke-miterlimit:2.613;" class="st0" x1="97.4" y1="47.7" x2="113.4" y2="47.7"/>
	<line style="fill:none;stroke:#9D9AC0;stroke-width:2;stroke-linecap:round;stroke-linejoin:round;stroke-miterlimit:2.613;" class="st0" x1="97.4" y1="67" x2="113.4" y2="67"/>
	<line style="fill:none;stroke:#9D9AC0;stroke-width:2;stroke-linecap:round;stroke-linejoin:round;stroke-miterlimit:2.613;" class="st0" x1="97.4" y1="57.5" x2="113.4" y2="57.5"/>
</g>
</svg>
