<svg xmlns="http://www.w3.org/2000/svg" width="23.432" height="19.658" viewBox="0 0 23.432 19.658">
	<path fill="#c5d2e7" d="M23.432,39.091a.3.3,0,0,0-.009-.07v-2.6a.3.3,0,0,0-.005-.055l0-.012a.308.308,0,0,0-.015-.05l0,0a.292.292,0,0,0-.015-.03l-2.014-3.481v-.637a.826.826,0,0,0-.825-.825H14.126a.826.826,0,0,0-.825.825v.637l-2.013,3.48a.31.31,0,0,0-.014.029l0,.006a.3.3,0,0,0-.015.049l0,.013a.308.308,0,0,0-.005.054h0v7.352H10.01V41.2a2.615,2.615,0,0,0-.74-1.829A1.676,1.676,0,0,1,8.706,38.3h0a.3.3,0,0,0,.3-.3V36.852a.728.728,0,0,0-.727-.727H6.144a.728.728,0,0,0-.727.727V38a.3.3,0,0,0,.3.3h.03a1.675,1.675,0,0,1-.564,1.068,2.615,2.615,0,0,0-.74,1.829v2.575H3.287a2.153,2.153,0,0,0-2.151,2.151v3.138H1.116A1.117,1.117,0,0,0,0,50.177v.5a.3.3,0,0,0,.3.3H15.5v.006h7.617a.3.3,0,0,0,.3-.3V48.07a.3.3,0,0,0,.009-.07V39.091ZM11.849,36.722h6.862V38.79H11.849Zm9.218-3.25L22.6,36.119H19.535Zm-1.753,5.921H22.82V47.7H19.314Zm0-.6V36.722H22.82v2.068ZM13.9,32.152a.223.223,0,0,1,.223-.223h6.417a.223.223,0,0,1,.223.223v.417H13.9Zm-.127,1.019h6.769l-1.705,2.947H12.071Zm-1.926,6.22h6.862V47.7H14.848V45.987A2.479,2.479,0,1,0,12.8,43.545c0,.077,0,.154.012.23-.039,0-.077,0-.116,0h-.848V39.392Zm.848,4.983a1.55,1.55,0,0,1,1.548,1.548v3.138H10.382V45.923a2.144,2.144,0,0,0-.66-1.548Zm.707-.829a1.88,1.88,0,1,1,1.366,1.805A2.16,2.16,0,0,0,13.439,43.9,1.892,1.892,0,0,1,13.4,43.545ZM6.02,36.852a.125.125,0,0,1,.124-.124H8.282a.125.125,0,0,1,.124.124V37.7H6.02Zm-.4,2.936A2.262,2.262,0,0,0,6.351,38.3H8.1a2.262,2.262,0,0,0,.734,1.487,2.016,2.016,0,0,1,.571,1.41v2.575H5.046V41.2A2.016,2.016,0,0,1,5.617,39.788ZM1.739,45.923a1.55,1.55,0,0,1,1.548-1.548H8.231A1.55,1.55,0,0,1,9.78,45.923v3.138H1.739ZM15.2,50.376H.6v-.2a.514.514,0,0,1,.513-.513H14.69a.514.514,0,0,1,.513.513v.2Zm-.356-1.3V48.3h3.864v2.081H15.806v-.206A1.116,1.116,0,0,0,14.848,49.073Zm4.466,1.309V48.3H22.82v2.081Z" transform="translate(0 -31.327)" />
</svg>
