<svg xmlns="http://www.w3.org/2000/svg" width="24" height="24" viewBox="0 0 24 24">
	<path fill="#9e99c3" d="M-14382.721-557a.552.552,0,0,1-.48-.6v-10.8a.55.55,0,0,1,.48-.6h10.24a.548.548,0,0,1,.48.6v10.8a.551.551,0,0,1-.48.6Zm-12.8,0a.458.458,0,0,1-.479-.428v-7.714a.458.458,0,0,1,.479-.428h10.241a.458.458,0,0,1,.479.428v7.714a.458.458,0,0,1-.479.428Zm0-10.287c-.263,0-.479-.305-.479-.685v-12.343c0-.38.217-.685.479-.685h10.241c.263,0,.479.305.479.685v12.343c0,.38-.217.685-.479.685Zm12.8-3.429a.5.5,0,0,1-.48-.514v-9.256a.5.5,0,0,1,.48-.514h10.24a.5.5,0,0,1,.48.514v9.256a.5.5,0,0,1-.48.514Z" transform="translate(14396 581.001)" />
</svg>
