<svg xmlns="http://www.w3.org/2000/svg" width="16" height="16" viewBox="0 0 16 16">
    <rect fill="none" width="16" height="16"/>
    <g transform="translate(1.5 1.998)">
        <path fill="#dbe3f2" d="M80.771,39.826a.5.5,0,0,0,.707,0L84.1,37.2a.5.5,0,0,0-.707-.707l-1.771,1.771V32.471a.5.5,0,0,0-1,0v5.795l-1.771-1.771a.5.5,0,0,0-.707.707Z" transform="translate(-74.625 -31.971)"/>
        <path fill="#dbe3f2" d="M36.5,128a.5.5,0,0,0-.5.5V133H25v-4.5a.5.5,0,0,0-1,0V133a1,1,0,0,0,1,1H36a1,1,0,0,0,1-1v-4.5a.5.5,0,0,0-.5-.5Z" transform="translate(-24 -121.998)"/>
    </g>
</svg>
