<svg xmlns="http://www.w3.org/2000/svg" width="24" height="24" viewBox="0 0 24 24">
  <g id="sign-out-fill" transform="translate(0 24) rotate(-90)">
    <rect id="Rectangle_262" data-name="Rectangle 262" width="24" height="24" fill="none"/>
    <g id="Group_52" data-name="Group 52" transform="translate(2.997 3)">
      <path id="Path_311" data-name="Path 311" d="M.22,4.157,4.157.22A.75.75,0,1,1,5.218,1.28L2.561,3.938h8.692a.75.75,0,1,1,0,1.5H2.561L5.218,8.095A.75.75,0,1,1,4.157,9.155L.22,5.218A.75.75,0,0,1,.22,4.157Z" transform="translate(0 4.312)" fill="#a187bf"/>
      <path id="Path_312" data-name="Path 312" d="M.75,16.5H7.5V1.5H.75A.75.75,0,0,1,.75,0H7.5A1.5,1.5,0,0,1,9,1.5v15A1.5,1.5,0,0,1,7.5,18H.75a.75.75,0,0,1,0-1.5Z" transform="translate(9.003 0)" fill="#a187bf"/>
    </g>
  </g>
</svg>
