<?xml version="1.0" encoding="utf-8"?>
<!-- Generator: Adobe Illustrator 25.2.3, SVG Export Plug-In . SVG Version: 6.00 Build 0)  -->
<svg version="1.1" id="Layer_1" xmlns="http://www.w3.org/2000/svg" xmlns:xlink="http://www.w3.org/1999/xlink" x="0px" y="0px"
	 viewBox="0 0 32 32" style="enable-background:new 0 0 32 32;" xml:space="preserve">
<style type="text/css">
	.st0{fill:none;}
	.st1{fill:#0A0A0A;}
</style>
<g transform="translate(0 -0.221)">
	<rect y="0.2" class="st0" width="32" height="32"/>
	<path class="st1" d="M27.8,8.8l-2-4c-0.2-0.3-0.5-0.6-0.9-0.6H7c-0.4,0-0.7,0.2-0.9,0.6l-2,4C4,9,4,9.1,4,9.3v16.9c0,1.1,0.9,2,2,2
		h19.9c1.1,0,2-0.9,2-2V9.3C27.9,9.1,27.9,9,27.8,8.8z M20.9,19.7L16.7,24l0,0c0,0,0,0-0.1,0l0,0c0,0,0,0-0.1,0l0,0c0,0,0,0-0.1,0
		l0,0c0,0,0,0-0.1,0h0c0,0-0.1,0-0.1,0h0c0,0-0.1,0-0.1,0h0c0,0,0,0-0.1,0c-0.1,0-0.1,0-0.2,0c0,0,0,0-0.1,0h0c0,0-0.1,0-0.1,0h0
		c0,0-0.1,0-0.1,0h0c0,0,0,0-0.1,0l0,0c0,0,0,0-0.1,0l0,0c0,0,0,0-0.1,0l0,0c0,0,0,0,0,0l0,0L11,19.7c-0.4-0.4-0.3-1.1,0.1-1.4
		c0.4-0.3,0.9-0.3,1.3,0l2.5,2.5v-7.6c0-0.6,0.5-1,1.1-0.9c0.5,0,0.9,0.4,0.9,0.9v7.6l2.5-2.5c0.4-0.4,1.1-0.3,1.4,0.1
		C21.2,18.8,21.2,19.3,20.9,19.7L20.9,19.7z M6.6,8.3l1-2h16.7l1,2H6.6z"/>
</g>
</svg>
