<svg xmlns="http://www.w3.org/2000/svg" width="15.873" height="15.873" viewBox="0 0 15.873 15.873">
  <path id="Path_5102" data-name="Path 5102" d="M47.8,35.011l-1.323-2.646A.661.661,0,0,0,45.889,32h-11.9a.661.661,0,0,0-.592.366L32.07,35.011a.661.661,0,0,0-.07.3V46.55a1.324,1.324,0,0,0,1.323,1.323H46.55a1.324,1.324,0,0,0,1.323-1.323V35.307a.661.661,0,0,0-.07-.3ZM43.21,42.228,40.4,45.034l-.014.013-.034.031-.017.013-.035.026-.014.009-.041.025-.011.005-.048.023-.007,0-.054.019-.007,0-.055.014-.016,0L40,45.224a.653.653,0,0,1-.132,0l-.048-.007-.016,0-.055-.014-.007,0-.054-.019-.007,0-.048-.023-.011-.005-.041-.025-.014-.009-.035-.026-.017-.013-.033-.03-.015-.013-2.806-2.806a.661.661,0,0,1,.935-.935l1.677,1.677V37.952a.661.661,0,1,1,1.323,0v5.017l1.677-1.677a.661.661,0,0,1,.935.935Zm-9.479-7.582.661-1.323H45.48l.661,1.323Z" transform="translate(-32 -32)" fill="#267ad2"/>
</svg>
