<svg xmlns="http://www.w3.org/2000/svg" width="21" height="21" viewBox="0 0 21 21">
	<g transform="translate(-0.257 0.046)">
		<rect fill="none" width="21" height="21" transform="translate(0.257 -0.046)" />
		<path fill="#919ab1" d="M48.043,31.439l-3.734-3.734a1.337,1.337,0,0,0-1.891,0l-2.2,2.2h0l-7.826,7.826a1.328,1.328,0,0,0-.392.945v3.734a1.338,1.338,0,0,0,1.337,1.337h3.734a1.328,1.328,0,0,0,.945-.392L48.043,33.33A1.338,1.338,0,0,0,48.043,31.439Zm-2.674,2.674-3.734-3.734,1.729-1.729L47.1,32.384Z" transform="translate(-29.326 -25.212)" />
	</g>
</svg>
