<svg xmlns="http://www.w3.org/2000/svg" width="16" height="16" viewBox="0 0 16 16">
	<g transform="translate(-0.257 0.046)">
		<rect fill="none" width="16" height="16" transform="translate(0.257 -0.046)" />
		<path fill="#267ad2" d="M44.224,30.457l-2.845-2.845a1.019,1.019,0,0,0-1.441,0l-1.677,1.677h0L32.3,35.252a1.012,1.012,0,0,0-.3.72v2.845a1.02,1.02,0,0,0,1.019,1.019h2.845a1.012,1.012,0,0,0,.72-.3l7.64-7.64A1.02,1.02,0,0,0,44.224,30.457Zm-2.037,2.037-2.845-2.845,1.317-1.317L43.5,31.177Z" transform="translate(-29.901 -25.723)" />
	</g>
</svg>
