<svg xmlns="http://www.w3.org/2000/svg" width="31.998" height="32.004" viewBox="0 0 31.998 32.004">
	<g transform="translate(-17623.008 4408)">
		<g transform="translate(17623.008 -4408)">
			<path fill="#9d9ac0" d="M28.336,27.731a.9.9,0,0,0-.231,1.778c5.6.738,8.115,2.267,8.115,3.155,0,1.244-4.889,3.555-14.221,3.555S7.778,33.908,7.778,32.664s4.586-3.4,13.332-3.555v2.666a.889.889,0,1,0,1.778,0V20.158a7.111,7.111,0,1,0-1.778,0v7.173C13.457,27.464,6,29.286,6,32.664S14.044,38,22,38s16-1.831,16-5.333C38,29.375,31.243,28.122,28.336,27.731ZM16.666,13.11A5.333,5.333,0,1,1,22,18.443a5.333,5.333,0,0,1-5.333-5.333Z" transform="translate(-6 -5.993)" />
		</g>
		<circle fill="#f7bf0f" cx="2.561" cy="2.561" r="2.561" transform="translate(17636.445 -4403.518)" />
	</g>
</svg>
