<?xml version="1.0" encoding="utf-8"?>
<!-- Generator: Adobe Illustrator 25.3.1, SVG Export Plug-In . SVG Version: 6.00 Build 0)  -->
<svg version="1.1" id="Layer_1" xmlns="http://www.w3.org/2000/svg" xmlns:xlink="http://www.w3.org/1999/xlink" x="0px" y="0px"
	 viewBox="0 0 16 16" style="enable-background:new 0 0 16 16;" xml:space="preserve">
<style type="text/css">
	.st0{fill:none;}
	.st1{fill:#111111;}
</style>
<path class="st1" d="M13.5,13H7.2l5.1-5.1l0,0L14,6.2c0.4-0.4,0.4-1,0-1.4L11.2,2c-0.4-0.4-1-0.4-1.4,0L2.3,9.5
	C2.2,9.6,2.1,9.7,2.1,9.8c0,0,0,0,0,0C2,10,2,10.1,2,10.2V13c0,0.6,0.4,1,1,1h10.5c0.3,0,0.5-0.2,0.5-0.5S13.8,13,13.5,13z
	 M10.5,2.7l2.8,2.8L12,6.8L9.2,4L10.5,2.7z"/>
</svg>
