<svg xmlns="http://www.w3.org/2000/svg" width="70" height="70" viewBox="0 0 70 70">
  <g id="emoji-happiness-4" transform="translate(-390 -338)">
    <g id="emoji-happiness-4-2" data-name="emoji-happiness-4" transform="translate(-315 17)">
      <g id="Web_1920_5" data-name="Web 1920 – 5" transform="translate(707 322)">
        <path id="Ellipse_69" data-name="Ellipse 69" d="M33.5,0A33.5,33.5,0,1,1,0,33.5,33.5,33.5,0,0,1,33.5,0Z" fill="#ffb713"/>
        <ellipse id="Ellipse_70" data-name="Ellipse 70" cx="5.151" cy="4.215" rx="5.151" ry="4.215" transform="translate(15.195 23.99) rotate(20.972)" fill="#fff"/>
        <ellipse id="Ellipse_72" data-name="Ellipse 72" cx="5.151" cy="4.215" rx="5.151" ry="4.215" transform="translate(41.188 26.924) rotate(-14)" fill="#fff"/>
        <path id="Path_43" data-name="Path 43" d="M288.386,22.706s.688,5.532,8.442,5.532S305,22.706,305,22.706" transform="translate(-263.866 14.739)" fill="none" stroke="#fff" stroke-linecap="round" stroke-linejoin="round" stroke-width="3"/>
      </g>
      <g id="Ellipse_69-2" data-name="Ellipse 69" transform="translate(705 321)">
        <path id="Path_26540" data-name="Path 26540" d="M35,0A35,35,0,1,1,0,35,35,35,0,0,1,35,0Z" fill="none"/>
        <path id="Path_26541" data-name="Path 26541" d="M35,4A31.009,31.009,0,0,0,22.935,63.565,31.009,31.009,0,0,0,47.065,6.434,30.8,30.8,0,0,0,35,4m0-4A35,35,0,1,1,0,35,35,35,0,0,1,35,0Z" fill="#fff"/>
      </g>
    </g>
  </g>
</svg>
