<svg xmlns="http://www.w3.org/2000/svg" xmlns:xlink="http://www.w3.org/1999/xlink" width="70" height="70" viewBox="0 0 70 70">
  <defs>
    <clipPath id="happiness-index-2-active">
      <rect id="Rectangle_141772" data-name="Rectangle 141772" width="67" height="67"/>
    </clipPath>
  </defs>
  <g id="emoji-happiness-2" transform="translate(-390 -141)">
    <g id="Group_158966" data-name="Group 158966">
      <g id="Web_1920_3" data-name="Web 1920 – 3" transform="translate(392 143)" clip-path="url(#happiness-index-2-active)">
        <path id="Ellipse_65" data-name="Ellipse 65" d="M33.5,0A33.5,33.5,0,1,1,0,33.5,33.5,33.5,0,0,1,33.5,0Z" fill="#ffb713"/>
        <path id="Ellipse_66" data-name="Ellipse 66" d="M5.022.061c2.744,0,4.969,1.889,4.969,4.218S7.766,8.5,5.022,8.5.054,6.609.054,4.279,2.278.061,5.022.061Z" transform="translate(13.519 33.151) rotate(-17)" fill="#fff"/>
        <path id="Path_40" data-name="Path 40" d="M0,0S.808,4.99,9.912,4.99,19.5,0,19.5,0" transform="translate(43.026 48.524) rotate(180)" fill="#ffb713" stroke="#fff" stroke-linecap="round" stroke-linejoin="round" stroke-width="3"/>
        <ellipse id="Ellipse_67" data-name="Ellipse 67" cx="5.191" cy="4.407" rx="5.191" ry="4.407" transform="matrix(0.927, 0.375, -0.375, 0.927, 43.769, 29.348)" fill="#fff"/>
      </g>
      <g id="Ellipse_69" data-name="Ellipse 69" transform="translate(390 141)">
        <path id="Path_26536" data-name="Path 26536" d="M35,0A35,35,0,1,1,0,35,35,35,0,0,1,35,0Z" fill="none"/>
        <path id="Path_26537" data-name="Path 26537" d="M35,4A31.009,31.009,0,0,0,22.935,63.565,31.009,31.009,0,0,0,47.065,6.434,30.8,30.8,0,0,0,35,4m0-4A35,35,0,1,1,0,35,35,35,0,0,1,35,0Z" fill="#fff"/>
      </g>
    </g>
  </g>
</svg>
