<svg xmlns="http://www.w3.org/2000/svg" xmlns:xlink="http://www.w3.org/1999/xlink" width="70" height="70" viewBox="0 0 70 70">
  <defs>
    <clipPath id="happiness-index-3">
      <rect id="Rectangle_141773" data-name="Rectangle 141773" width="67" height="67" stroke="#707070" stroke-width="1"/>
    </clipPath>
  </defs>
  <g id="emoji-happiness-3" transform="translate(-390 -238)">
    <g id="Group_158967" data-name="Group 158967" transform="translate(0 4)">
      <g id="Web_1920_4" data-name="Web 1920 – 4" transform="translate(392 236)" clip-path="url(#happiness-index-3)">
        <circle id="Ellipse_69" data-name="Ellipse 69" cx="33.5" cy="33.5" r="33.5" fill="#dbe3f2"/>
        <path id="Ellipse_71" data-name="Ellipse 71" d="M4.716,0A4.716,4.716,0,1,1,0,4.716,4.716,4.716,0,0,1,4.716,0Z" transform="translate(14.503 28.228)" fill="#5f5986"/>
        <circle id="Ellipse_73" data-name="Ellipse 73" cx="4.716" cy="4.716" r="4.716" transform="translate(43.396 28.228)" fill="#5f5986"/>
        <line id="Line_5" data-name="Line 5" x2="12.317" transform="translate(27.846 39.8)" fill="none" stroke="#5f5986" stroke-linecap="round" stroke-width="3"/>
      </g>
      <g id="Ellipse_69-2" data-name="Ellipse 69" transform="translate(390 234)" fill="none">
        <path d="M35,0A35,35,0,1,1,0,35,35,35,0,0,1,35,0Z" stroke="none"/>
        <path d="M 35.00000381469727 4.000007629394531 C 30.81326675415039 4.000007629394531 26.75389099121094 4.819091796875 22.93462753295898 6.434490203857422 C 19.24365234375 7.995655059814453 15.927978515625 10.23141479492188 13.07969284057617 13.07969284057617 C 10.23141479492188 15.927978515625 7.995655059814453 19.24365234375 6.434490203857422 22.93462753295898 C 4.819091796875 26.75389099121094 4.000007629394531 30.81326675415039 4.000007629394531 35.00000381469727 C 4.000007629394531 39.18674087524414 4.819091796875 43.24611663818359 6.434490203857422 47.06537628173828 C 7.995655059814453 50.75635528564453 10.23141479492188 54.07202911376953 13.07969284057617 56.92031860351562 C 15.927978515625 59.76859283447266 19.24365234375 62.00435256958008 22.93462753295898 63.56551742553711 C 26.75389099121094 65.18091583251953 30.81326675415039 66 35.00000381469727 66 C 39.18674087524414 66 43.24611663818359 65.18091583251953 47.06537628173828 63.56551742553711 C 50.75635528564453 62.00435256958008 54.07202911376953 59.76859283447266 56.92031860351562 56.92031860351562 C 59.76859283447266 54.07202911376953 62.00435256958008 50.75635528564453 63.56551742553711 47.06537628173828 C 65.18091583251953 43.24611663818359 66 39.18674087524414 66 35.00000381469727 C 66 30.81326675415039 65.18091583251953 26.75389099121094 63.56551742553711 22.93462753295898 C 62.00435256958008 19.24365234375 59.76859283447266 15.927978515625 56.92031860351562 13.07969284057617 C 54.07202911376953 10.23141479492188 50.75635528564453 7.995655059814453 47.06537628173828 6.434490203857422 C 43.24611663818359 4.819091796875 39.18674087524414 4.000007629394531 35.00000381469727 4.000007629394531 M 35.00000381469727 7.62939453125e-06 C 54.3299674987793 7.62939453125e-06 70 15.67004013061523 70 35.00000381469727 C 70 54.3299674987793 54.3299674987793 70 35.00000381469727 70 C 15.67004013061523 70 7.62939453125e-06 54.3299674987793 7.62939453125e-06 35.00000381469727 C 7.62939453125e-06 15.67004013061523 15.67004013061523 7.62939453125e-06 35.00000381469727 7.62939453125e-06 Z" stroke="none" fill="#5f5986"/>
      </g>
    </g>
  </g>
</svg>
