<svg xmlns="http://www.w3.org/2000/svg" xmlns:xlink="http://www.w3.org/1999/xlink" width="70" height="70" viewBox="0 0 70 70">
  <defs>
    <clipPath id="happiness-index-2">
      <rect id="Rectangle_141772" data-name="Rectangle 141772" width="67" height="67"/>
    </clipPath>
  </defs>
  <g id="emoji-happiness-2" transform="translate(-390 -141)">
    <g id="Group_158966" data-name="Group 158966">
      <g id="Web_1920_3" data-name="Web 1920 – 3" transform="translate(392 143)" clip-path="url(#happiness-index-2)">
        <path id="Ellipse_65" data-name="Ellipse 65" d="M33.5,0A33.5,33.5,0,1,1,0,33.5,33.5,33.5,0,0,1,33.5,0Z" fill="#dbe3f2"/>
        <path id="Ellipse_66" data-name="Ellipse 66" d="M5.022.061c2.744,0,4.969,1.889,4.969,4.218S7.766,8.5,5.022,8.5.054,6.609.054,4.279,2.278.061,5.022.061Z" transform="translate(13.519 33.151) rotate(-17)" fill="#5f5986"/>
        <path id="Ellipse_67" data-name="Ellipse 67" d="M4.9-.073c2.744,0,4.969,1.889,4.969,4.218S7.649,8.363,4.9,8.363-.064,6.475-.064,4.145,2.161-.073,4.9-.073Z" transform="matrix(0.927, 0.375, -0.375, 0.927, 43.839, 30.095)" fill="#5f5986"/>
        <path id="Path_40" data-name="Path 40" d="M0,0S.808,4.99,9.912,4.99,19.5,0,19.5,0" transform="translate(43.026 48.524) rotate(180)" fill="#dbe3f2" stroke="#5f5986" stroke-linecap="round" stroke-linejoin="round" stroke-width="3"/>
      </g>
      <g id="Ellipse_69" data-name="Ellipse 69" transform="translate(390 141)" fill="none">
        <path d="M35,0A35,35,0,1,1,0,35,35,35,0,0,1,35,0Z" stroke="none"/>
        <path d="M 35.00000381469727 4.000007629394531 C 30.81326675415039 4.000007629394531 26.75389099121094 4.819091796875 22.93462753295898 6.434490203857422 C 19.24365234375 7.995655059814453 15.927978515625 10.23141479492188 13.07969284057617 13.07969284057617 C 10.23141479492188 15.927978515625 7.995655059814453 19.24365234375 6.434490203857422 22.93462753295898 C 4.819091796875 26.75389099121094 4.000007629394531 30.81326675415039 4.000007629394531 35.00000381469727 C 4.000007629394531 39.18674087524414 4.819091796875 43.24611663818359 6.434490203857422 47.06537628173828 C 7.995655059814453 50.75635528564453 10.23141479492188 54.07202911376953 13.07969284057617 56.92031860351562 C 15.927978515625 59.76859283447266 19.24365234375 62.00435256958008 22.93462753295898 63.56551742553711 C 26.75389099121094 65.18091583251953 30.81326675415039 66 35.00000381469727 66 C 39.18674087524414 66 43.24611663818359 65.18091583251953 47.06537628173828 63.56551742553711 C 50.75635528564453 62.00435256958008 54.07202911376953 59.76859283447266 56.92031860351562 56.92031860351562 C 59.76859283447266 54.07202911376953 62.00435256958008 50.75635528564453 63.56551742553711 47.06537628173828 C 65.18091583251953 43.24611663818359 66 39.18674087524414 66 35.00000381469727 C 66 30.81326675415039 65.18091583251953 26.75389099121094 63.56551742553711 22.93462753295898 C 62.00435256958008 19.24365234375 59.76859283447266 15.927978515625 56.92031860351562 13.07969284057617 C 54.07202911376953 10.23141479492188 50.75635528564453 7.995655059814453 47.06537628173828 6.434490203857422 C 43.24611663818359 4.819091796875 39.18674087524414 4.000007629394531 35.00000381469727 4.000007629394531 M 35.00000381469727 7.62939453125e-06 C 54.3299674987793 7.62939453125e-06 70 15.67004013061523 70 35.00000381469727 C 70 54.3299674987793 54.3299674987793 70 35.00000381469727 70 C 15.67004013061523 70 7.62939453125e-06 54.3299674987793 7.62939453125e-06 35.00000381469727 C 7.62939453125e-06 15.67004013061523 15.67004013061523 7.62939453125e-06 35.00000381469727 7.62939453125e-06 Z" stroke="none" fill="#5f5986"/>
      </g>
    </g>
    <ellipse id="Ellipse_67-2" data-name="Ellipse 67" cx="5.191" cy="4.407" rx="5.191" ry="4.407" transform="matrix(0.927, 0.375, -0.375, 0.927, 435.769, 172.348)" fill="#5f5986"/>
  </g>
</svg>
