<svg xmlns="http://www.w3.org/2000/svg" xmlns:xlink="http://www.w3.org/1999/xlink" width="70" height="70" viewBox="0 0 70 70">
  <defs>
    <clipPath id="happiness-index-1">
      <rect id="Rectangle_141766" data-name="Rectangle 141766" width="67" height="67" fill="none"/>
    </clipPath>
  </defs>
  <g id="emoji-happiness-1" transform="translate(-560 -471)">
    <g id="Web_1920_2" data-name="Web 1920 – 2" transform="translate(562 473)" clip-path="url(#happiness-index-1)">
      <circle id="Ellipse_64" data-name="Ellipse 64" cx="33.5" cy="33.5" r="33.5" fill="#dbe3f2"/>
      <path id="Path_39" data-name="Path 39" d="M23.308,0s-.585,4.92-11.464,4.92S0,0,0,0Z" transform="translate(45.013 49.658) rotate(180)" fill="#fff" stroke="#5f5986" stroke-linecap="round" stroke-width="3"/>
      <path id="Path_41" data-name="Path 41" d="M-23.231,29.675s-2.393,5.012-10.439,3.03" transform="translate(49.404 7.226)" fill="#dbe3f2" stroke="#5f5986" stroke-linecap="round" stroke-width="3"/>
      <path id="Path_42" data-name="Path 42" d="M-33.67,29.675s2.393,5.012,10.439,3.03" transform="translate(74.119 7.226)" fill="#dbe3f2" stroke="#5f5986" stroke-linecap="round" stroke-width="3"/>
    </g>
    <g id="Ellipse_69" data-name="Ellipse 69" transform="translate(560 471)">
      <path id="Path_26534" data-name="Path 26534" d="M35,0A35,35,0,1,1,0,35,35,35,0,0,1,35,0Z" fill="none"/>
      <path id="Path_26535" data-name="Path 26535" d="M35,4A31.009,31.009,0,0,0,22.935,63.565,31.009,31.009,0,0,0,47.065,6.434,30.8,30.8,0,0,0,35,4m0-4A35,35,0,1,1,0,35,35,35,0,0,1,35,0Z" fill="#5f5986"/>
    </g>
  </g>
</svg>
