<svg xmlns="http://www.w3.org/2000/svg" xmlns:xlink="http://www.w3.org/1999/xlink" width="70" height="70" viewBox="0 0 70 70">
  <defs>
    <clipPath id="happiness-index-5">
      <rect id="Rectangle_141774" data-name="Rectangle 141774" width="67" height="67"/>
    </clipPath>
  </defs>
  <g id="emoji-happiness-5" transform="translate(-390 -435)">
    <g id="Web_1920_6" data-name="Web 1920 – 6" transform="translate(392 437)" clip-path="url(#happiness-index-5)">
      <path id="Path_47" data-name="Path 47" d="M315.651,22.706s-.683,11.522-13.41,11.522-13.856-11.522-13.856-11.522Z" transform="translate(-268.275 12.012)" fill="#fff" stroke="#5f5986" stroke-linecap="round" stroke-width="3"/>
      <path id="Path_48" data-name="Path 48" d="M-.029,4.007S.415-.041,5.426-.041,10.7,4.007,10.7,4.007" transform="matrix(0.985, -0.174, 0.174, 0.985, 41.199, 23.755)" fill="#dbe3f2" stroke="#5f5986" stroke-linecap="round" stroke-linejoin="round" stroke-width="3"/>
      <path id="Path_46" data-name="Path 46" d="M315.8,22.706s-.687,11.581-13.482,11.581-13.931-11.581-13.931-11.581Z" transform="translate(-268.363 11.841)" fill="#fff" stroke="#4e3f9c" stroke-linecap="round" stroke-width="3"/>
      <circle id="Ellipse_69" data-name="Ellipse 69" cx="33.5" cy="33.5" r="33.5" fill="#dbe3f2"/>
      <path id="Path_36" data-name="Path 36" d="M316.156,22.706s-.7,11.736-13.659,11.736-14.113-11.736-14.113-11.736Z" transform="translate(-268.546 12.387)" fill="#fff" stroke="#5f5986" stroke-linecap="round" stroke-width="3"/>
      <path id="Path_37" data-name="Path 37" d="M0,.084S.453,4.208,5.552,4.208,10.928.084,10.928.084" transform="matrix(-0.985, -0.174, 0.174, -0.985, 25.894, 28.034)" fill="none" stroke="#5f5986" stroke-linecap="round" stroke-linejoin="round" stroke-width="3"/>
      <path id="Path_38" data-name="Path 38" d="M-.03,4.082S.423-.042,5.521-.042,10.9,4.082,10.9,4.082" transform="matrix(0.985, -0.174, 0.174, 0.985, 41.32, 23.926)" fill="none" stroke="#5f5986" stroke-linecap="round" stroke-linejoin="round" stroke-width="3"/>
    </g>
    <g id="Ellipse_69-2" data-name="Ellipse 69" transform="translate(390 435)" fill="none">
      <path d="M35,0A35,35,0,1,1,0,35,35,35,0,0,1,35,0Z" stroke="none"/>
      <path d="M 35.00000381469727 4.000007629394531 C 30.81326675415039 4.000007629394531 26.75389099121094 4.819091796875 22.93462753295898 6.434490203857422 C 19.24365234375 7.995655059814453 15.927978515625 10.23141479492188 13.07969284057617 13.07969284057617 C 10.23141479492188 15.927978515625 7.995655059814453 19.24365234375 6.434490203857422 22.93462753295898 C 4.819091796875 26.75389099121094 4.000007629394531 30.81326675415039 4.000007629394531 35.00000381469727 C 4.000007629394531 39.18674087524414 4.819091796875 43.24611663818359 6.434490203857422 47.06537628173828 C 7.995655059814453 50.75635528564453 10.23141479492188 54.07202911376953 13.07969284057617 56.92031860351562 C 15.927978515625 59.76859283447266 19.24365234375 62.00435256958008 22.93462753295898 63.56551742553711 C 26.75389099121094 65.18091583251953 30.81326675415039 66 35.00000381469727 66 C 39.18674087524414 66 43.24611663818359 65.18091583251953 47.06537628173828 63.56551742553711 C 50.75635528564453 62.00435256958008 54.07202911376953 59.76859283447266 56.92031860351562 56.92031860351562 C 59.76859283447266 54.07202911376953 62.00435256958008 50.75635528564453 63.56551742553711 47.06537628173828 C 65.18091583251953 43.24611663818359 66 39.18674087524414 66 35.00000381469727 C 66 30.81326675415039 65.18091583251953 26.75389099121094 63.56551742553711 22.93462753295898 C 62.00435256958008 19.24365234375 59.76859283447266 15.927978515625 56.92031860351562 13.07969284057617 C 54.07202911376953 10.23141479492188 50.75635528564453 7.995655059814453 47.06537628173828 6.434490203857422 C 43.24611663818359 4.819091796875 39.18674087524414 4.000007629394531 35.00000381469727 4.000007629394531 M 35.00000381469727 7.62939453125e-06 C 54.3299674987793 7.62939453125e-06 70 15.67004013061523 70 35.00000381469727 C 70 54.3299674987793 54.3299674987793 70 35.00000381469727 70 C 15.67004013061523 70 7.62939453125e-06 54.3299674987793 7.62939453125e-06 35.00000381469727 C 7.62939453125e-06 15.67004013061523 15.67004013061523 7.62939453125e-06 35.00000381469727 7.62939453125e-06 Z" stroke="none" fill="#5f5986"/>
    </g>
  </g>
</svg>
