<svg xmlns="http://www.w3.org/2000/svg" xmlns:xlink="http://www.w3.org/1999/xlink" width="70" height="70" viewBox="0 0 70 70">
  <defs>
    <clipPath id="happiness-index-3-active">
      <rect id="Rectangle_141773" data-name="Rectangle 141773" width="67" height="67" stroke="#707070" stroke-width="1"/>
    </clipPath>
  </defs>
  <g id="emoji-happiness-3" transform="translate(-390 -238)">
    <g id="Group_158967" data-name="Group 158967" transform="translate(0 4)">
      <g id="Web_1920_4" data-name="Web 1920 – 4" transform="translate(392 236)" clip-path="url(#happiness-index-3-active)">
        <path id="Ellipse_69" data-name="Ellipse 69" d="M33.5,0A33.5,33.5,0,1,1,0,33.5,33.5,33.5,0,0,1,33.5,0Z" fill="#ffb713"/>
        <path id="Ellipse_71" data-name="Ellipse 71" d="M4.716,0A4.716,4.716,0,1,1,0,4.716,4.716,4.716,0,0,1,4.716,0Z" transform="translate(14.503 28.228)" fill="#fff"/>
        <circle id="Ellipse_73" data-name="Ellipse 73" cx="4.716" cy="4.716" r="4.716" transform="translate(43.396 28.228)" fill="#fff"/>
        <line id="Line_5" data-name="Line 5" x2="12.317" transform="translate(27.846 39.8)" fill="none" stroke="#fff" stroke-linecap="round" stroke-width="3"/>
      </g>
      <g id="Ellipse_69-2" data-name="Ellipse 69" transform="translate(390 234)">
        <path id="Path_26538" data-name="Path 26538" d="M35,0A35,35,0,1,1,0,35,35,35,0,0,1,35,0Z" fill="none"/>
        <path id="Path_26539" data-name="Path 26539" d="M35,4A31.009,31.009,0,0,0,22.935,63.565,31.009,31.009,0,0,0,47.065,6.434,30.8,30.8,0,0,0,35,4m0-4A35,35,0,1,1,0,35,35,35,0,0,1,35,0Z" fill="#fff"/>
      </g>
    </g>
  </g>
</svg>
