<svg xmlns="http://www.w3.org/2000/svg" width="14" height="14" viewBox="0 0 14 14"><defs><style>.a-employee-note-fill{fill:none;}.b-employee-note-fill{fill:#2d3955;}</style></defs><rect class="a-employee-note-fill" width="14" height="14"/><path class="b-employee-note-fill" d="M41.625,32h-8.75a.876.876,0,0,0-.875.875v8.75a.876.876,0,0,0,.875.875h5.944a.871.871,0,0,0,.619-.256l2.806-2.806a.871.871,0,0,0,.256-.619V32.875A.876.876,0,0,0,41.625,32ZM35.5,35.063H39a.438.438,0,0,1,0,.875H35.5a.438.438,0,0,1,0-.875Zm1.75,4.375H35.5a.438.438,0,0,1,0-.875h1.75a.438.438,0,0,1,0,.875Zm-1.75-1.75a.438.438,0,0,1,0-.875H39a.438.438,0,0,1,0,.875ZM39,41.444V39h2.445Z" transform="translate(-30.25 -30.25)"/></svg>