<svg xmlns="http://www.w3.org/2000/svg" width="18" height="18" viewBox="0 0 18 18"><defs><style>.a-employee-file-arrow-down{fill:none;}.b-employee-file-arrow-down{fill:#0d102c;}</style></defs><rect class="a-employee-file-arrow-down" width="18" height="18"/><path class="b-employee-file-arrow-down" d="M52.2,28.1l-3.933-3.933-.018-.016-.023-.021-.016-.012-.028-.021-.013-.008-.034-.02-.01,0-.04-.019-.007,0-.045-.016-.007,0-.046-.012-.015,0L47.924,24l-.056,0H41.117a1.126,1.126,0,0,0-1.125,1.125V37.5a1.126,1.126,0,0,0,1.125,1.125H51.243A1.126,1.126,0,0,0,52.368,37.5V28.511s0-.007,0-.011a.56.56,0,0,0-.17-.4Zm-3.652,5.582-1.969,1.969-.005,0c-.012.011-.024.022-.036.033l-.021.016-.023.017-.025.015-.022.013-.026.012-.024.011-.025.009-.027.009-.025.007-.028.007-.03,0-.025,0-.056,0-.056,0-.025,0-.03,0-.028-.007-.025-.007-.027-.009-.025-.009-.024-.011-.026-.012-.022-.013-.025-.015-.023-.017-.021-.016c-.012-.01-.024-.021-.035-.032l-.006-.005-1.969-1.969a.563.563,0,0,1,.8-.8l1.009,1.009V30.75a.562.562,0,1,1,1.125,0v3.142l1.009-1.009a.563.563,0,1,1,.8.8ZM47.868,28.5V25.358L51.01,28.5Z" transform="translate(-37.18 -22.313)"/></svg>