<svg xmlns="http://www.w3.org/2000/svg" width="14" height="14" viewBox="0 0 14 14"><defs><style>.a-employee-file-fill{fill:none;}.b-employee-file-fill{fill:#2d3955;}</style></defs><g transform="translate(-3.659 -3.73)"><g transform="translate(3.659 3.73)"><rect class="a-employee-file-fill" width="14" height="14"/><path class="b-employee-file-fill" d="M33.608,40H24.8a.8.8,0,0,0-.8.8v7.606a.4.4,0,0,0,.579.358L26,48.054l1.422.711a.4.4,0,0,0,.358,0l1.422-.711,1.422.711a.4.4,0,0,0,.358,0l1.422-.711,1.422.711a.4.4,0,0,0,.579-.358V40.8A.8.8,0,0,0,33.608,40Zm-1.8,5.2H26.6a.4.4,0,1,1,0-.8h5.2a.4.4,0,1,1,0,.8Zm0-1.6H26.6a.4.4,0,1,1,0-.8h5.2a.4.4,0,1,1,0,.8Z" transform="translate(-22.204 -37.403)"/></g></g></svg>