<svg xmlns="http://www.w3.org/2000/svg" width="14" height="14" viewBox="0 0 14 14"><defs><style>.a-magazine-fill{fill:none;}.b-magazine-fill{fill:#2d3955;}</style></defs><g transform="translate(-3.659 -3.73)"><g transform="translate(3.659 3.73)"><rect class="a-magazine-fill" width="14" height="14"/><path class="b-magazine-fill" d="M17.267,40H10.059a.687.687,0,0,0-.686.686v5.835a.343.343,0,1,1-.686,0v-4.8a.343.343,0,1,0-.686,0v4.81a1.031,1.031,0,0,0,1.03,1.025h7.894a1.031,1.031,0,0,0,1.03-1.03V40.686A.687.687,0,0,0,17.267,40Zm-1.373,5.491H11.432a.343.343,0,0,1,0-.686h4.462a.343.343,0,0,1,0,.686Zm0-1.373H11.432a.343.343,0,1,1,0-.686h4.462a.343.343,0,1,1,0,.686Zm0-1.373H11.432a.343.343,0,0,1,0-.686h4.462a.343.343,0,0,1,0,.686Z" transform="translate(-6.352 -36.775)"/></g></g></svg>