<svg xmlns="http://www.w3.org/2000/svg" width="40" height="40" viewBox="0 0 40 40"><defs><style>.a{fill:#2d3955;}</style></defs><path class="a" d="M44.689,36.563a3.017,3.017,0,0,0-2-3l-4-1v-1c.522-.439,1.769-1.366,2-2,1.3-.208,2-.726,2-2v-3c0-.955-.562-1.2-1-2v-4a3.017,3.017,0,0,0-2-3l-3-1h0a4.855,4.855,0,0,0,1-2c1.3-.208,2-1.726,2-3v-2a6,6,0,0,0-12,0v2c0,1.274.7,2.792,2,3a4.855,4.855,0,0,0,1,2h0l-2,1a7.613,7.613,0,0,0-4-1h0a8.01,8.01,0,0,0-4,1l-2-1h0a4.855,4.855,0,0,0,1-2c1.3-.208,2-1.726,2-3v-2a6,6,0,0,0-12,0v2c0,1.274.7,2.792,2,3a4.855,4.855,0,0,0,1,2h0l-3,1a3.015,3.015,0,0,0-2,3v4c-.438.794-1,1.045-1,2v3c0,1.274.7,1.792,2,2,.231.634,1.478,1.561,2,2v1l-4,1a3.017,3.017,0,0,0-2,3v4h10v1h20v-1h10Zm-11-4h-2l-4-2v-1c.69-.452.64-1.281,1-2,.429-.034,1.65.2,2,0a2.126,2.126,0,0,0,2,2,4.866,4.866,0,0,0,1,2Zm-9,6h0l1,2h-2Zm0-2h0l-1-1,1-1,1,1Zm-7-4h-2v-1a4.855,4.855,0,0,0,1-2,2.127,2.127,0,0,0,2-2c.352.2,1.572-.032,2,0,.362.719.31,1.548,1,2v1Zm-7-4v-3c1.01-.1,1.2-.415,2-1a6.373,6.373,0,0,0,3,1v3a3.273,3.273,0,0,1-3,3C11.169,31.563,10.689,29.986,10.689,28.563Zm2-8c2.662,0,5,1.509,5,4v1c-.407-.221-.495-1-1-1h0a4.447,4.447,0,0,1-3-1h-1a4.447,4.447,0,0,1-3,1h0a6.944,6.944,0,0,0-2,1v-1C7.689,22.073,10.027,20.563,12.689,20.563Zm7,6c-.424-.221-1-.513-1-1s.59-.776,1-1v2C19.689,26.725,19.672,26.405,19.689,26.563Zm-3,0c.41.224,1,.524,1,1s-.59.776-1,1Zm9,4-1,2-1-2h0c.438.123.521,0,1,0s.562.123,1,0Zm-1-1a2.793,2.793,0,0,1-3-3v-4a5.975,5.975,0,0,0,3-1,5.975,5.975,0,0,0,3,1v4A2.793,2.793,0,0,1,24.689,29.563Zm-2,2,1,2-2,2-2-3Zm3,2,1-2,3,1-2,3Zm4-7v-2c.41.224,1,.524,1,1s-.576.779-1,1C29.707,26.405,29.689,26.725,29.689,26.563Zm12-2v1a6.944,6.944,0,0,0-2-1h-7c-.505,0-.593.779-1,1v-1c0-2.49,2.338-4,5-4S41.689,22.073,41.689,24.563Zm-9,4c-.41-.224-1-.524-1-1s.59-.776,1-1Zm2,4a9.312,9.312,0,0,0,2,0c.485,0,.567.144,1,0h0l-1,1Zm2-1a3.273,3.273,0,0,1-3-3v-2h5v2C38.689,29.986,38.21,31.563,36.689,31.563Zm4-3v-2c.41.224,1,.524,1,1S41.1,28.339,40.689,28.563Zm0-10v2c-1.1-.924-2.41-2-4-2-1.948,0-3.862,1.682-5,3v-2a3.073,3.073,0,0,0-2-3l1-1a3.635,3.635,0,0,0,3,2,3.635,3.635,0,0,0,3-2l3,1C40.491,16.844,40.689,17.76,40.689,18.563Zm-7-5c-1.521,0-3-.577-3-2v-3a10.734,10.734,0,0,0,4-1h0a3.637,3.637,0,0,0,2,1v3C36.689,12.986,35.21,13.563,33.689,13.563Zm4-3v-2c.41.224,1,.524,1,1S38.1,10.339,37.689,10.563Zm-4-8a5.257,5.257,0,0,1,5,5h0c-.407-.221-1.495,0-2,0-.695,0-.509-.542-1-1l-1-1-1,1a5.155,5.155,0,0,1-3,1c-.505,0-1.593-.221-2,0h0A5.257,5.257,0,0,1,33.689,2.563Zm-5,7c0-.476.59-.776,1-1v2C29.279,10.341,28.689,10.039,28.689,9.563Zm5,6c.485,0,.567-.856,1-1v1c0,.711-.24,1-1,1s-1-.289-1-1v-1C33.122,14.707,33.2,15.563,33.689,15.563Zm-9,0a5.835,5.835,0,0,1,4,2h0c.957.3,2,1.058,2,2v4c-.214-.116-.755-.94-1-1v-1h-1a5.151,5.151,0,0,1-3-1h-2a5.14,5.14,0,0,1-3,1h-1v1c-.245.06-.786.882-1,1v-3c0-2.845,2.959-5,6-5Zm-9-2c-1.521,0-3-.577-3-2v-3h6v3C18.689,12.986,17.21,13.563,15.689,13.563Zm4-3v-2c.41.224,1,.524,1,1S20.1,10.339,19.689,10.563Zm-4-8a5.257,5.257,0,0,1,5,5h0c-.407-.221-1.495,0-2,0h-6c-.505,0-1.593-.221-2,0h0A5.257,5.257,0,0,1,15.689,2.563Zm-5,7c0-.476.59-.776,1-1v2C11.279,10.341,10.689,10.039,10.689,9.563Zm5,6c.485,0,.567-.856,1-1v1c0,.711-.24,1-1,1s-1-.289-1-1v-1C15.122,14.707,15.2,15.563,15.689,15.563Zm-6,1,3-1a3.632,3.632,0,0,0,3,2,3.635,3.635,0,0,0,3-2l1,1a5.333,5.333,0,0,0-2,4v1c-1.138-1.318-3.051-3-5-3-1.59,0-2.9,1.077-4,2v-2C8.689,17.762,8.886,16.846,9.689,16.563Zm-2,11c0-.476.59-.776,1-1v2C8.279,28.341,7.689,28.039,7.689,27.563Zm5,5a9.312,9.312,0,0,0,2,0h0l-2,1-1-1h0C12.122,32.707,12.2,32.563,12.689,32.563Zm-7,6v-2c0-.8,1.2-1.718,2-2l3-1,2,3,3-3h0c-1.019.844-1,1.689-1,3v2Zm10-2a3.293,3.293,0,0,1,2-3h1l2,4,2-1,1,1-1,3h-3v-3h-1v3h-3Zm18,4h-3v-3h-1v3h-3l-1-3,1-1,2,1,2-4h1a3.288,3.288,0,0,1,2,3Zm10-2h-9v-2c0-1.311.021-2.156-1-3h0l3,3,2-3,3,1c.8.281,2,1.2,2,2Z" transform="translate(-4.689 -1.563)"/></svg>