<svg xmlns="http://www.w3.org/2000/svg" width="20" height="20" viewBox="0 0 20 20"><defs><style>.aa{fill:none;}.bb{fill:#606a81;}</style></defs><rect class="aa" width="20" height="20"/><path class="bb" d="M40.25,48.61q0-.017,0-.035t0-.028c0-.011,0-.022,0-.032s0-.019-.006-.029-.005-.02-.008-.03l-.009-.029-.011-.029-.011-.028-.014-.028-.014-.026-.016-.026-.017-.026-.018-.023-.021-.026-.01-.012-.009-.009-.023-.023-.022-.02-.023-.019-.026-.019-.023-.015-.028-.017-.026-.013-.028-.014-.029-.012-.027-.01-.032-.009-.027-.007-.032-.006-.029,0-.031,0-.032,0H24.613l-.034,0-.029,0-.031,0-.03.006-.029.007-.03.009-.029.01-.027.011-.029.014-.024.013-.029.018-.023.015-.026.02-.023.018-.023.021-.023.023-.009.009-.01.012-.021.026-.018.023-.017.026-.016.026-.014.026-.014.028-.011.028-.011.029-.009.029c0,.01-.005.02-.008.03s0,.019-.006.029,0,.021,0,.032,0,.019,0,.028,0,.023,0,.035,0,.01,0,.015V59.25a1.251,1.251,0,0,0,1.25,1.25H39a1.251,1.251,0,0,0,1.25-1.25V48.625C40.251,48.62,40.25,48.615,40.25,48.61ZM39,59.25H25.251v-9.2L31.7,55.961a.625.625,0,0,0,.845,0L39,50.046v9.2Z" transform="translate(-22.126 -44.25)"/></svg>