<svg xmlns="http://www.w3.org/2000/svg" width="16" height="10.286" viewBox="0 0 16 10.286">
  <path id="card_name" data-name="card name" d="M17.429,7H2.571A.571.571,0,0,0,2,7.571v9.143a.571.571,0,0,0,.571.571H17.429A.571.571,0,0,0,18,16.714V7.571A.571.571,0,0,0,17.429,7ZM4.286,9.857a.571.571,0,0,1,.571-.571H7.143a.571.571,0,0,1,.571.571v2.286a.571.571,0,0,1-.571.571H4.857a.571.571,0,0,1-.571-.571ZM5.429,15H4.286a.571.571,0,0,1,0-1.143H5.429a.571.571,0,0,1,0,1.143Zm3.429,0H7.714a.571.571,0,0,1,0-1.143H8.857a.571.571,0,0,1,0,1.143Zm3.429,0H11.143a.571.571,0,0,1,0-1.143h1.143a.571.571,0,0,1,0,1.143Zm3.429,0H14.571a.571.571,0,0,1,0-1.143h1.143a.571.571,0,0,1,0,1.143Zm0-3.429H10a.571.571,0,1,1,0-1.143h5.714a.571.571,0,0,1,0,1.143Z" transform="translate(-2 -7)" fill="#0c102e"/>
</svg>
