<svg id="receipt-fill" xmlns="http://www.w3.org/2000/svg" width="20" height="20" viewBox="0 0 20 20">
  <rect id="Rectangle_254" data-name="Rectangle 254" width="20" height="20" fill="none"/>
  <path id="Path_300" data-name="Path 300" d="M39,40H25.25A1.251,1.251,0,0,0,24,41.25V53.125a.625.625,0,0,0,.9.559l2.22-1.11,2.22,1.11a.625.625,0,0,0,.559,0l2.22-1.11,2.22,1.11a.625.625,0,0,0,.559,0l2.22-1.11,2.22,1.11a.625.625,0,0,0,.9-.559V41.25A1.251,1.251,0,0,0,39,40Zm-2.812,8.125H28.063a.625.625,0,0,1,0-1.25h8.125a.625.625,0,0,1,0,1.25Zm0-2.5H28.063a.625.625,0,0,1,0-1.25h8.125a.625.625,0,0,1,0,1.25Z" transform="translate(-22.125 -36.875)" fill="#1992ea"/>
</svg>
