<svg xmlns="http://www.w3.org/2000/svg" width="45.001" height="45.001" viewBox="0 0 45.001 45.001">
	<g transform="translate(-0.103 0.001)">
		<rect fill="#f0f" opacity="0" width="45" height="45" transform="translate(0.104)" />
		<path fill="#f5f5f5" d="M22.5,0A22.5,22.5,0,1,1,0,22.5,22.5,22.5,0,0,1,22.5,0Z" transform="translate(0.104)" />
		<path fill="#1992ea" stroke="#1992ea" d="M43.33,54.452c.009-.012.016-.024.024-.036l.02-.03c.008-.013.015-.027.022-.041l.016-.03c.006-.014.012-.028.018-.042s.01-.022.014-.033.009-.027.013-.041.008-.025.012-.038.006-.027.009-.041.006-.026.008-.039,0-.032.007-.048,0-.022,0-.034a.955.955,0,0,0,0-.167c0-.011,0-.022,0-.034s0-.032-.007-.048-.006-.026-.008-.039-.006-.028-.009-.041-.008-.025-.012-.038-.008-.027-.013-.041-.009-.022-.014-.033-.011-.028-.018-.042l-.016-.03c-.007-.014-.014-.028-.022-.041l-.02-.03c-.008-.012-.015-.024-.024-.036s-.023-.029-.034-.043l-.015-.019-4.5-5.071a.692.692,0,0,0-1.061,0,.923.923,0,0,0,0,1.2l3.22,3.628H33.75c-5.382.007-9.744,4.922-9.75,10.988a.755.755,0,1,0,1.5,0c.005-5.133,3.7-9.292,8.25-9.3h7.189L37.72,58.39a.923.923,0,0,0,0,1.2.692.692,0,0,0,1.061,0l4.5-5.071L43.3,54.5C43.307,54.481,43.319,54.467,43.33,54.452Z" transform="translate(-10.59 -34.66)" />
	</g>
</svg>
