<svg xmlns="http://www.w3.org/2000/svg" width="15.4" height="17" viewBox="0 0 15.4 17">
  <g id="iconfinder_cart_1814095" transform="translate(-8.6)">
    <g id="Icon-Cart" transform="translate(8.6 0)">
      <path id="Fill-110" d="M-54.271-456.387h-9.971a.378.378,0,0,1-.362-.2.4.4,0,0,1-.033-.428l.856-2.172-.856-8.095H-67.4v-.921h3.159a.461.461,0,0,1,.461.395l.921,8.589a.643.643,0,0,1-.033.23l-.658,1.645h9.279v.954" transform="translate(67.4 468.2)" fill="#0d102c"/>
      <path id="Fill-111" d="M-55.841-454.9l-.2-.888,10.5-2.172v-3.718H-56.4v-.921h11.32a.45.45,0,0,1,.461.461v4.541a.428.428,0,0,1-.362.428L-55.841-454.9" transform="translate(60.02 464.443)" fill="#0d102c"/>
      <path id="Fill-112" d="M-29.79-431.38a1.826,1.826,0,0,1-1.81-1.81A1.826,1.826,0,0,1-29.79-435a1.826,1.826,0,0,1,1.81,1.81,1.826,1.826,0,0,1-1.81,1.81Zm0-2.731a.92.92,0,0,0-.921.921.9.9,0,0,0,.921.921.9.9,0,0,0,.921-.921.92.92,0,0,0-.921-.921Z" transform="translate(43.38 448.38)" fill="#0d102c"/>
      <path id="Fill-113" d="M-62.79-431.38a1.826,1.826,0,0,1-1.81-1.81A1.826,1.826,0,0,1-62.79-435a1.826,1.826,0,0,1,1.81,1.81,1.826,1.826,0,0,1-1.81,1.81Zm0-2.731a.92.92,0,0,0-.921.921.9.9,0,0,0,.921.921.9.9,0,0,0,.921-.921.92.92,0,0,0-.921-.921Z" transform="translate(65.521 448.38)" fill="#0d102c"/>
    </g>
  </g>
</svg>
