<svg id="package-fill" xmlns="http://www.w3.org/2000/svg" width="18" height="18" viewBox="0 0 18 18">
  <rect id="Rectangle_239" data-name="Rectangle 239" width="18" height="18" fill="none"/>
  <path id="Path_284" data-name="Path 284" d="M41.8,21.113,41.8,21.1l-.006-.01a1.125,1.125,0,0,0-.414-.406l-5.906-3.338a1.131,1.131,0,0,0-1.107,0l-5.906,3.338a1.124,1.124,0,0,0-.419.415l0,.005,0,.01a1.124,1.124,0,0,0-.144.549V28.32a1.127,1.127,0,0,0,.571.979l5.906,3.338a1.123,1.123,0,0,0,.514.144l.034,0h.006l.045,0a1.123,1.123,0,0,0,.508-.143L41.379,29.3a1.127,1.127,0,0,0,.571-.979V21.664A1.124,1.124,0,0,0,41.8,21.113Zm-6.886-2.787,5.331,3.013L38.37,22.413l-5.372-3Zm.071,6.02L29.6,21.333l2.253-1.274,5.379,3.006Zm.5,6.989.062-6.015,2.258-1.291v2.405a.563.563,0,0,0,1.125,0V23.385l1.889-1.08V28.32Z" transform="translate(-25.927 -15.992)" fill="#2d3955"/>
</svg>
