<svg id="iconfinder_ic_location_on_48px_3669413" xmlns="http://www.w3.org/2000/svg" width="23.484" height="23.484" viewBox="0 0 23.484 23.484">
  <path id="Path_6207" data-name="Path 6207" d="M17.646,4A7.378,7.378,0,0,0,10,11.073c0,5.3,7.646,13.135,7.646,13.135s7.646-7.83,7.646-13.135A7.378,7.378,0,0,0,17.646,4Zm0,9.6a2.635,2.635,0,0,1-2.731-2.526,2.635,2.635,0,0,1,2.731-2.526,2.635,2.635,0,0,1,2.731,2.526A2.635,2.635,0,0,1,17.646,13.6Z" transform="translate(-5.904 -2.362)" fill="#c5d2e7"/>
  <path id="Path_6208" data-name="Path 6208" d="M0,0H23.484V23.484H0Z" fill="none"/>
</svg>
