<svg xmlns="http://www.w3.org/2000/svg" width="46.001" height="46.001" viewBox="0 0 46.001 46.001"><defs><style>.a-view-icon{fill:#f0f;opacity:0;}.b-view-icon{fill:#f5f5f5;stroke:#f5f5f5;}.c-view-icon{fill:#1992ea;stroke:#1992ea;}</style></defs><g transform="translate(0.397 0.501)"><rect class="a-view-icon" width="45" height="45" transform="translate(0.104)"/><path class="b-view-icon" d="M22.5,0A22.5,22.5,0,1,1,0,22.5,22.5,22.5,0,0,1,22.5,0Z" transform="translate(0.104)"/><path class="c-view-icon" d="M27.6,54.28a11.589,11.589,0,0,0-2.265-3.146,10.543,10.543,0,0,0-15.016,0A11.589,11.589,0,0,0,8.057,54.28a.656.656,0,0,0,0,.532,11.587,11.587,0,0,0,2.265,3.146,10.545,10.545,0,0,0,15.016,0A11.587,11.587,0,0,0,27.6,54.812.656.656,0,0,0,27.6,54.28ZM17.83,51.6a2.949,2.949,0,1,1-2.949,2.949A2.949,2.949,0,0,1,17.83,51.6Z" transform="translate(4.274 -32.045)"/></g></svg>