<svg xmlns="http://www.w3.org/2000/svg" width="14" height="13.998" viewBox="0 0 14 13.998">
  <g id="find-replace" transform="translate(-4 -4)">
    <path id="Path_6260" data-name="Path 6260" d="M11,6a5.022,5.022,0,0,1,3.54,1.46L12.85,9.15a.5.5,0,0,0,.36.85H17.5a.5.5,0,0,0,.5-.5V5.21a.5.5,0,0,0-.85-.35l-1.2,1.2A6.982,6.982,0,0,0,4.42,8.64,1,1,0,0,0,5.35,10a.979.979,0,0,0,.93-.66A5.007,5.007,0,0,1,11,6Z" fill="#203b5c"/>
    <path id="Path_6261" data-name="Path 6261" d="M11,16a5.022,5.022,0,0,1-3.54-1.46l1.69-1.69A.5.5,0,0,0,8.79,12H4.5a.5.5,0,0,0-.5.5v4.29a.5.5,0,0,0,.85.35l1.2-1.2a6.983,6.983,0,0,0,11.53-2.58A1,1,0,0,0,16.65,12a.979.979,0,0,0-.93.66A5.007,5.007,0,0,1,11,16Z" fill="#203b5c"/>
  </g>
</svg>
