<svg xmlns="http://www.w3.org/2000/svg" width="12.79" height="10.463" viewBox="0 0 12.79 10.463">
  <g id="iconfinder_camera_2561351" transform="translate(-0.998 -2.998)">
    <path id="Subtraction_3" data-name="Subtraction 3" d="M11.628,10.463H1.165A1.164,1.164,0,0,1,0,9.3v-6.4A1.166,1.166,0,0,1,1.165,1.744H3.488L4.653,0H8.137L9.3,1.744h2.326A1.164,1.164,0,0,1,12.79,2.906V9.3A1.163,1.163,0,0,1,11.628,10.463Zm-5.289-6.6A1.919,1.919,0,1,0,8.26,5.779,1.919,1.919,0,0,0,6.339,3.862Z" transform="translate(0.998 2.998)" fill="#2d3955"/>
  </g>
</svg>
