<svg xmlns="http://www.w3.org/2000/svg" width="25.652" height="25.951" viewBox="0 0 25.652 25.951">
  <g id="research-file" transform="translate(-1.25 -1)">
    <path id="Path_6241" data-name="Path 6241" d="M5.724,1A4.474,4.474,0,0,0,1.25,5.474v16.7a4.474,4.474,0,0,0,4.474,4.474H17.656a4.474,4.474,0,0,0,4.474-4.474V9.054a.9.9,0,0,0-.262-.633L14.709,1.262A.9.9,0,0,0,14.076,1Z" transform="translate(0 0)" fill="#eceff1"/>
    <path id="Path_6243" data-name="Path 6243" d="M12.778,1.262a.895.895,0,0,0-1.528.633V5.474a4.474,4.474,0,0,0,4.474,4.474H19.3a.895.895,0,0,0,.633-1.528Z" transform="translate(1.931 0)" fill="#cdd8dd"/>
    <path id="Path_6244" data-name="Path 6244" d="M16.321,13.04A3.281,3.281,0,1,0,19.6,16.321,3.281,3.281,0,0,0,16.321,13.04ZM11.25,16.321a5.071,5.071,0,1,1,5.071,5.071A5.071,5.071,0,0,1,11.25,16.321Z" transform="translate(1.931 1.98)" fill="#e68a00" fill-rule="evenodd"/>
    <path id="Path_6245" data-name="Path 6245" d="M17.512,17.512a.9.9,0,0,1,1.265,0l4.773,4.773a.895.895,0,0,1-1.265,1.265l-4.773-4.773A.9.9,0,0,1,17.512,17.512Z" transform="translate(3.09 3.138)" fill="#e68a00" fill-rule="evenodd"/>
    <path id="Path_6246" data-name="Path 6246" d="M14,13.76a3.281,3.281,0,0,0,4.64,4.64l6.068,6.068a.9.9,0,0,1-1.265,0l-4.226-4.226a5.071,5.071,0,0,1-6.483-7.748Z" transform="translate(1.931 2.22)" fill="#e68a00" fill-rule="evenodd"/>
    <path id="Path_6247" data-name="Path 6247" d="M4.25,7.145a.9.9,0,0,1,.895-.895h5.966a.895.895,0,1,1,0,1.79H5.145A.9.9,0,0,1,4.25,7.145Zm0,5.966a.9.9,0,0,1,.895-.895h5.966a.895.895,0,1,1,0,1.79H5.145A.9.9,0,0,1,4.25,13.111Zm0,5.966a.9.9,0,0,1,.895-.895h5.966a.895.895,0,0,1,0,1.79H5.145A.9.9,0,0,1,4.25,19.076Z" transform="translate(0.579 1.014)" fill="#e68a00" fill-rule="evenodd"/>
    <path id="Path_6248" data-name="Path 6248" d="M11.111,18.181v1.79H5.145a.895.895,0,0,1,0-1.79Zm0-5.966v1.79H5.145a.895.895,0,1,1,0-1.79Zm0-5.966V8.04H5.145a.895.895,0,1,1,0-1.79Z" transform="translate(0.579 1.014)" fill="#e68a00" fill-rule="evenodd"/>
  </g>
</svg>
