<svg xmlns="http://www.w3.org/2000/svg" width="20.88" height="25.652" viewBox="0 0 20.88 25.652">
  <g id="research-file" transform="translate(-1.25 -1)">
    <path id="Path_6241" data-name="Path 6241" d="M5.724,1A4.474,4.474,0,0,0,1.25,5.474v16.7a4.474,4.474,0,0,0,4.474,4.474H17.656a4.474,4.474,0,0,0,4.474-4.474V9.054a.9.9,0,0,0-.262-.633L14.709,1.262A.9.9,0,0,0,14.076,1Z" transform="translate(0 0)" fill="#eceff1"/>
    <path id="Path_6243" data-name="Path 6243" d="M12.778,1.262a.895.895,0,0,0-1.528.633V5.474a4.474,4.474,0,0,0,4.474,4.474H19.3a.895.895,0,0,0,.633-1.528Z" transform="translate(1.931 0)" fill="#e0e0e0"/>
    <path id="Path_6247" data-name="Path 6247" d="M4.25,7.145a.9.9,0,0,1,.895-.895h5.966a.895.895,0,1,1,0,1.79H5.145A.9.9,0,0,1,4.25,7.145Zm0,5.966a.9.9,0,0,1,.895-.895h5.966a.895.895,0,1,1,0,1.79H5.145A.9.9,0,0,1,4.25,13.111Zm0,5.966a.9.9,0,0,1,.895-.895h5.966a.895.895,0,0,1,0,1.79H5.145A.9.9,0,0,1,4.25,19.076Z" transform="translate(0.579 1.014)" fill="#37a251" fill-rule="evenodd"/>
  </g>
</svg>
