<svg xmlns="http://www.w3.org/2000/svg" width="13.816" height="9.539" viewBox="0 0 13.816 9.539">
  <path id="Path_4705" data-name="Path 4705" d="M20.772,52.088a7.55,7.55,0,0,0-1.476-2.05,6.869,6.869,0,0,0-9.783,0,7.55,7.55,0,0,0-1.476,2.05.427.427,0,0,0,0,.347,7.549,7.549,0,0,0,1.476,2.05,6.87,6.87,0,0,0,9.783,0,7.549,7.549,0,0,0,1.476-2.05A.427.427,0,0,0,20.772,52.088ZM14.4,50.34a1.921,1.921,0,1,1-1.921,1.921A1.921,1.921,0,0,1,14.4,50.34Z" transform="translate(-7.497 -47.492)" fill="#1c2842" stroke="#1c2842" stroke-width="1"/>
</svg>
