<svg xmlns="http://www.w3.org/2000/svg" width="11.395" height="15.247" viewBox="0 0 11.395 15.247">
  <g id="iconfinder_Construction_crane_hook_6588852" transform="translate(-6 -2)">
    <path id="Path_6214" data-name="Path 6214" d="M6.76,4.713h9.876a2.034,2.034,0,0,0,.76-1.628V2.543A.513.513,0,0,0,16.852,2H6.543A.513.513,0,0,0,6,2.543v.543A2.034,2.034,0,0,0,6.76,4.713Z" fill="#fff"/>
    <path id="Path_6215" data-name="Path 6215" d="M9,9v3.8a.513.513,0,0,0,.543.543h2.713v1.628a.326.326,0,0,0,.054.217l1.248,2.876a.982.982,0,0,1-.054.868.939.939,0,0,1-1.519,0,.885.885,0,0,1-.109-.814A4.7,4.7,0,0,0,12.2,16.38a.543.543,0,1,0-1.085,0,4.025,4.025,0,0,1-.271,1.357,1.884,1.884,0,0,0,.217,1.845,2,2,0,0,0,3.473-1.953L13.341,14.86V13.341H16.6a.513.513,0,0,0,.543-.543V9Z" transform="translate(-1.372 -3.202)" fill="#2d3955"/>
  </g>
</svg>
