<svg xmlns="http://www.w3.org/2000/svg" width="32.363" height="34.325" viewBox="0 0 32.363 34.325">
  <g id="noun_container_2467797" transform="translate(-1.5 -0.5)">
    <path id="Path_4359" data-name="Path 4359" d="M1.99,34.824H33.373a.486.486,0,0,0,.49-.49V15.7a.486.486,0,0,0-.49-.49H29.617L18.79,7.09a2.443,2.443,0,0,0-.637-4.58L18.084.971A.492.492,0,0,0,17.574.5a.486.486,0,0,0-.471.51l.078,1.961a.5.5,0,0,0,.5.471,1.471,1.471,0,0,1,0,2.942h0A1.469,1.469,0,0,1,16.21,4.913a.49.49,0,1,0-.981,0A2.443,2.443,0,0,0,16.573,7.09L5.746,15.21H1.99a.486.486,0,0,0-.49.49V34.334A.486.486,0,0,0,1.99,34.824ZM29.94,16.191h2.942v1.961H29.94ZM6.4,15.946,17.681,7.483l11.278,8.454v2.207H6.4Zm-3.923.245H5.423v1.961H2.481Zm0,2.942h30.4v14.71H2.481Z" transform="translate(0 0)" fill="#9d9ac0"/>
    <path id="Path_4360" data-name="Path 4360" d="M5.99,20.5a.486.486,0,0,0-.49.49V32.759a.49.49,0,1,0,.981,0V20.99A.486.486,0,0,0,5.99,20.5Z" transform="translate(-0.077 -0.386)" fill="#f7bf06"/>
    <path id="Path_4361" data-name="Path 4361" d="M9.99,20.5a.486.486,0,0,0-.49.49V32.759a.49.49,0,1,0,.981,0V20.99A.486.486,0,0,0,9.99,20.5Z" transform="translate(-0.154 -0.386)" fill="#9d9ac0"/>
    <path id="Path_4362" data-name="Path 4362" d="M13.99,20.5a.486.486,0,0,0-.49.49V32.759a.49.49,0,1,0,.981,0V20.99A.486.486,0,0,0,13.99,20.5Z" transform="translate(-0.232 -0.386)" fill="#9d9ac0"/>
    <path id="Path_4363" data-name="Path 4363" d="M17.99,20.5a.486.486,0,0,0-.49.49V32.759a.49.49,0,1,0,.981,0V20.99A.486.486,0,0,0,17.99,20.5Z" transform="translate(-0.309 -0.386)" fill="#9d9ac0"/>
    <path id="Path_4364" data-name="Path 4364" d="M21.99,20.5a.486.486,0,0,0-.49.49V32.759a.49.49,0,1,0,.981,0V20.99A.486.486,0,0,0,21.99,20.5Z" transform="translate(-0.386 -0.386)" fill="#9d9ac0"/>
    <path id="Path_4365" data-name="Path 4365" d="M25.99,20.5a.486.486,0,0,0-.49.49V32.759a.49.49,0,1,0,.981,0V20.99A.486.486,0,0,0,25.99,20.5Z" transform="translate(-0.463 -0.386)" fill="#9d9ac0"/>
    <path id="Path_4366" data-name="Path 4366" d="M29.99,20.5a.486.486,0,0,0-.49.49V32.759a.49.49,0,1,0,.981,0V20.99A.486.486,0,0,0,29.99,20.5Z" transform="translate(-0.541 -0.386)" fill="#f7bf06"/>
  </g>
</svg>
