<?xml version="1.0" encoding="utf-8"?>
<!-- Generator: Adobe Illustrator 25.2.3, SVG Export Plug-In . SVG Version: 6.00 Build 0)  -->
<svg version="1.1" id="Layer_1" xmlns="http://www.w3.org/2000/svg" xmlns:xlink="http://www.w3.org/1999/xlink" x="0px" y="0px"
	 viewBox="0 0 512 512" style="enable-background:new 0 0 512 512;" xml:space="preserve">
<g>
	<g>
		<path d="M439.7,91.2L351.4,3c-1.9-1.9-4.5-3-7.2-3H79.6c-5.6,0-10.2,4.6-10.2,10.2v491.6c0,5.6,4.6,10.2,10.2,10.2h352.9
			c5.6,0,10.2-4.6,10.2-10.2V98.4C442.6,95.7,441.6,93.1,439.7,91.2z M354.4,34.8l53.4,53.4h-53.4V34.8z M422.2,491.6H89.8V20.4H334
			v78c0,5.6,4.6,10.2,10.2,10.2h78V491.6z"/>
	</g>
</g>
<g>
	<g>
		<path d="M311.6,263.1l75.7-93.5c2.5-3.1,3-7.3,1.3-10.8c-1.7-3.5-5.3-5.8-9.2-5.8h-85c-3.1,0-6,1.4-7.9,3.8L256,194.5l-30.5-37.7
			c-1.9-2.4-4.8-3.8-7.9-3.8h-85c-3.9,0-7.5,2.3-9.2,5.8c-1.7,3.5-1.2,7.8,1.3,10.8l75.7,93.5l-75.7,93.5c-2.5,3.1-3,7.3-1.3,10.8
			s5.3,5.8,9.2,5.8h85c3.1,0,6-1.4,7.9-3.8l30.5-37.7l30.5,37.7c1.9,2.4,4.8,3.8,7.9,3.8h85c3.9,0,7.5-2.3,9.2-5.8
			c1.7-3.5,1.2-7.8-1.3-10.8L311.6,263.1z M299.3,173.4H358l-59.6,73.5l-29.4-36.2L299.3,173.4z M212.7,352.9H154l59.6-73.5
			l29.4,36.2L212.7,352.9z M299.3,352.9L154,173.4h58.7L358,352.9H299.3z"/>
	</g>
</g>
</svg>
