<?xml version="1.0" encoding="utf-8"?>
<!-- Generator: Adobe Illustrator 25.3.1, SVG Export Plug-In . SVG Version: 6.00 Build 0)  -->
<svg version="1.0" id="Layer_1" xmlns="http://www.w3.org/2000/svg" xmlns:xlink="http://www.w3.org/1999/xlink" x="0px" y="0px"
	 viewBox="0 0 32 27.9" style="enable-background:new 0 0 32 27.9;" xml:space="preserve">
<g transform="translate(-5.007 -37.146)">
	<path fill="#9D9AC0" d="M36.7,44c-0.3-0.7-1-1.2-1.7-1.4c0,0,0,0,0,0l-3.5-0.6c-1.3-0.2-2.5,0-3.7,0.5l-2.1,0.9l-9.6-2.5
		c-0.7-0.2-1.4-0.1-2,0.1l-1.9,0.8c-0.4,0.2-0.7,0.6-0.7,1.1c0,0.5,0.2,0.9,0.6,1.1l5.1,3l-5,2.2c-0.6,0.2-1.2,0.2-1.8-0.2L8,47.2
		c-0.4-0.3-0.8-0.3-1.2-0.1l-1.3,0.6c-0.2,0.1-0.3,0.2-0.3,0.4c-0.1,0.2-0.1,0.3,0,0.5l2.2,5.1c0.5,1.1,1.5,1.8,2.7,1.8l4.2,0.1
		c0.4,0,0.9,0,1.3-0.1c0.5-0.1,1.1-0.2,1.6-0.5l3-1.3L18.9,60c-0.1,0.7,0.3,1.3,1,1.5c0.1,0,0.3,0,0.4,0c0.1,0,0.2,0,0.3-0.1
		l1.9-0.8c0.6-0.3,1.2-0.8,1.5-1.4l4.7-9.1l6.9-3c0.6-0.2,1-0.7,1.2-1.3C37,45.2,36.9,44.6,36.7,44L36.7,44z M12.8,43l1.8-0.8
		c0.4-0.2,0.8-0.2,1.2-0.1l8,2.1l-5.1,2.2L12.8,43z M22.8,58.5c-0.2,0.4-0.5,0.7-0.9,0.8l-1.8,0.8l1.4-7l5.3-2.3L22.8,58.5z
		 M35.5,45.3c-0.1,0.3-0.3,0.5-0.6,0.6l-18.5,8c-0.7,0.3-1.5,0.5-2.3,0.4l-4.2-0.1c-0.7,0-1.3-0.4-1.6-1.1l-2-4.5l0.7-0.3l2.5,1.8
		c0.9,0.6,2,0.8,3,0.3l15.5-6.7c0.9-0.4,2-0.5,3-0.4l3.5,0.6c0.4,0.1,0.6,0.3,0.8,0.6C35.6,44.8,35.7,45,35.5,45.3z"/>
	<path fill="#F7BF06" d="M33,63.8H9c-0.4,0-0.6,0.3-0.6,0.6c0,0.4,0.3,0.6,0.6,0.6h24c0.4,0,0.6-0.3,0.6-0.6
		C33.6,64.1,33.3,63.8,33,63.8L33,63.8z"/>
</g>
</svg>
