<svg xmlns="http://www.w3.org/2000/svg" width="18" height="18" viewBox="0 0 18 18"><defs><style>.a{fill:none;opacity:0;}</style></defs><rect class="a" width="18" height="18"/><path d="M24.827,53.389a9.947,9.947,0,0,0-1.944-2.7,9.05,9.05,0,0,0-12.889,0,9.947,9.947,0,0,0-1.944,2.7.563.563,0,0,0,0,.457,9.946,9.946,0,0,0,1.944,2.7,9.051,9.051,0,0,0,12.889,0,9.946,9.946,0,0,0,1.944-2.7A.563.563,0,0,0,24.827,53.389Zm-8.389-2.3a2.531,2.531,0,1,1-2.531,2.531A2.531,2.531,0,0,1,16.438,51.086Z" transform="translate(-7.438 -44.617)"/></svg>