<?xml version="1.0" encoding="utf-8"?>
<!-- Generator: Adobe Illustrator 26.2.1, SVG Export Plug-In . SVG Version: 6.00 Build 0)  -->
<svg version="1.1" id="Layer_1" xmlns="http://www.w3.org/2000/svg" xmlns:xlink="http://www.w3.org/1999/xlink" x="0px" y="0px"
	 viewBox="0 0 18 18" style="enable-background:new 0 0 18 18;" xml:space="preserve">
<style type="text/css">
	.st0{fill:none;}
	.st1{fill:#A187BF;}
</style>
<rect y="0" class="st0" width="18" height="18"/>
<path class="st1" d="M17.4,8.8c-0.5-1-1.1-1.9-1.9-2.7C11.9,2.5,6.2,2.5,2.6,6c0,0-0.1,0.1-0.1,0.1C1.8,6.9,1.1,7.8,0.6,8.8
	c-0.1,0.1-0.1,0.3,0,0.5c0.5,1,1.1,1.9,1.9,2.7c3.5,3.6,9.2,3.6,12.8,0.1c0,0,0.1-0.1,0.1-0.1c0.8-0.8,1.5-1.7,1.9-2.7
	C17.5,9.1,17.5,8.9,17.4,8.8z M9,6.5c1.4,0,2.5,1.1,2.5,2.5c0,1.4-1.1,2.5-2.5,2.5S6.5,10.4,6.5,9l0,0C6.5,7.6,7.6,6.5,9,6.5
	C9,6.5,9,6.5,9,6.5L9,6.5z"/>
</svg>
