<svg xmlns="http://www.w3.org/2000/svg" width="27" height="27" viewBox="0 0 27 27">
  <path id="Facebook" d="M27-15V6a3,3,0,0,1-3,3H18.375a.75.75,0,0,1-.75-.75v-9h3.51a.75.75,0,0,0,.735-.6l.54-2.7a.375.375,0,0,0-.075-.309A.375.375,0,0,0,22.05-4.5H17.625V-9.375A.375.375,0,0,1,18-9.75h3.75a.75.75,0,0,0,.75-.75v-2.25a.75.75,0,0,0-.75-.75H18A4.5,4.5,0,0,0,13.5-9v4.5H11.655a.75.75,0,0,0-.75.75V-1.5a.75.75,0,0,0,.75.75H13.5v9a.75.75,0,0,1-.75.75H3A3,3,0,0,1,0,6V-15a3,3,0,0,1,3-3H24A3,3,0,0,1,27-15Z" transform="translate(0 18)" fill="#fff"/>
</svg>
