<svg xmlns="http://www.w3.org/2000/svg" width="15.389" height="16" viewBox="0 0 15.389 16"><defs><style>.a{fill:#373068;}</style></defs><g transform="translate(-649.693 -203.746)"><path class="a" d="M654.851,213.079a4.335,4.335,0,1,1,4.47-4.333.344.344,0,0,0,.688,0,5.161,5.161,0,1,0-5.158,5,.333.333,0,1,0,0-.667Zm0-7a1.7,1.7,0,0,0-1.719,1.636l.682.06a1.018,1.018,0,0,1,1.027-1.03c.242,0,1.021.062,1.021.854,0,.418-.252.621-.627.918a1.6,1.6,0,0,0-.813,1.227v.333h.688v-.333c0-.288.23-.45.56-.711a1.789,1.789,0,0,0,.9-1.434,1.543,1.543,0,0,0-1.719-1.521Zm.26,4.666h-.688v.667h.688Zm8.683-.667H657.6a1.435,1.435,0,0,0-1.461,1.333v5.666a1.435,1.435,0,0,0,1.461,1.333h1.891l.928,1.2a.352.352,0,0,0,.482.066.344.344,0,0,0,.069-.066l.928-1.2h1.891a1.284,1.284,0,0,0,1.29-1.333v-5.666A1.284,1.284,0,0,0,663.792,210.079Zm.6,7a.609.609,0,0,1-.6.666h-2.063a.348.348,0,0,0-.275.133l-.757.977-.757-.977a.349.349,0,0,0-.275-.133H657.6a.76.76,0,0,1-.773-.666v-5.666a.759.759,0,0,1,.773-.667h6.19a.609.609,0,0,1,.6.667Z"/><g transform="translate(658.2 212.627)"><path class="a" d="M667.587,222.155h3.224a.267.267,0,0,0,0-.534h-3.224a.267.267,0,0,0,0,.534Z" transform="translate(-666.788 -221.621)"/><path class="a" d="M670.838,224.226h-4.3a.267.267,0,0,0,0,.534h4.3a.267.267,0,0,0,0-.534Z" transform="translate(-666.278 -222.89)"/><path class="a" d="M670.811,226.83h-3.224a.267.267,0,0,0,0,.534h3.224a.267.267,0,0,0,0-.534Z" transform="translate(-666.788 -224.158)"/></g></g></svg>