<svg xmlns="http://www.w3.org/2000/svg" width="22.624" height="21.754" viewBox="0 0 22.624 21.754">
  <path id="Path_3676" data-name="Path 3676" d="M46.624,38.962a1.742,1.742,0,0,0-1.739-1.74H41.4V33.74A1.742,1.742,0,0,0,39.663,32H25.74A1.742,1.742,0,0,0,24,33.74V47.664a.87.87,0,0,0,1.417.677l3.8-3.075v3.269a1.742,1.742,0,0,0,1.74,1.739H41.141l4.066,3.286a.87.87,0,0,0,1.418-.674ZM42,48.727a.87.87,0,0,0-.547-.193H30.962V45.053h8.7a1.742,1.742,0,0,0,1.74-1.74V38.962h3.481v12.1Z" transform="translate(-24 -32)" fill="#606a81"/>
</svg>
