<svg xmlns="http://www.w3.org/2000/svg" width="40.623" height="39.06" viewBox="0 0 40.623 39.06">
  <path id="Path_3676" data-name="Path 3676" d="M64.623,44.5A3.128,3.128,0,0,0,61.5,41.375h-6.25v-6.25A3.128,3.128,0,0,0,52.124,32h-25A3.128,3.128,0,0,0,24,35.125v25a1.562,1.562,0,0,0,2.545,1.215l6.83-5.521v5.869A3.128,3.128,0,0,0,36.5,64.811H54.777l7.3,5.9A1.562,1.562,0,0,0,64.623,69.5ZM56.312,62.034a1.562,1.562,0,0,0-.982-.347H36.5v-6.25H52.124a3.128,3.128,0,0,0,3.125-3.125V44.5H61.5V66.226Z" transform="translate(-24 -32)" fill="#fff"/>
</svg>
