<svg xmlns="http://www.w3.org/2000/svg" width="16" height="16" viewBox="0 0 16 16">
    <rect fill="none" width="16" height="16" />
    <path d="M50.842,27.642l-3.5-3.5-.016-.014-.02-.018L47.3,24.1l-.025-.018-.012-.007-.03-.018-.009,0-.036-.017-.006,0-.04-.014-.006,0-.041-.01-.014,0L47.043,24l-.05,0h-6a1,1,0,0,0-1,1V36a1,1,0,0,0,1,1h9a1,1,0,0,0,1-1V28.01s0-.006,0-.01A.5.5,0,0,0,50.842,27.642ZM47.6,32.6l-1.75,1.75,0,0-.032.029-.019.014-.02.015-.022.014-.02.012-.023.011-.021.01-.022.008-.024.008-.023.006-.025.006-.026,0-.022,0-.049,0-.049,0-.022,0-.026,0-.025-.006-.023-.006-.024-.008-.022-.008-.021-.01-.023-.011-.02-.012-.022-.014-.02-.015-.019-.014-.031-.028-.005,0-1.75-1.75A.5.5,0,0,1,44.1,31.9l.9.9V30a.5.5,0,0,1,1,0v2.793l.9-.9a.5.5,0,0,1,.707.707Zm-.6-4.6V25.207L49.786,28Z" transform="translate(-37.493 -22.5)" />
</svg>
