<svg xmlns="http://www.w3.org/2000/svg" width="24" height="24" viewBox="0 0 24 24">
	<rect fill="none" width="24" height="24" />
	<path fill="#ffcc00" d="M56.267,29.463,51.023,24.22,51,24.2l-.031-.028-.022-.016-.037-.028-.018-.011-.045-.027-.013-.006c-.018-.009-.035-.018-.054-.025l-.009,0c-.02-.008-.04-.015-.06-.022l-.009,0c-.02-.006-.041-.011-.062-.016l-.02,0L50.568,24a.742.742,0,0,0-.075,0h-9a1.5,1.5,0,0,0-1.5,1.5V42a1.5,1.5,0,0,0,1.5,1.5h13.5a1.5,1.5,0,0,0,1.5-1.5V30.015s0-.01,0-.015a.747.747,0,0,0-.227-.537ZM50.493,30V25.811L54.682,30Z" transform="translate(-36.243 -21.75)" />
	<path fill="#f7f9fd" stroke="#fff" d="M42.5,69a.311.311,0,0,1-.221-.092l-2.187-2.187a.312.312,0,0,1,.442-.442L42.5,68.25,46.654,64.1a.313.313,0,1,1,.442.442l-4.375,4.375A.312.312,0,0,1,42.5,69Z" transform="translate(-31.438 -52.504)" />
</svg>
