<svg xmlns="http://www.w3.org/2000/svg" width="24" height="24" viewBox="0 0 24 24">
	<rect fill="none" width="24" height="24" />
	<path fill="#bc2f2c" d="M56.267,29.463,51.023,24.22,51,24.2l-.031-.028-.022-.016-.037-.028-.018-.011-.045-.027-.013-.006c-.018-.009-.035-.018-.054-.025l-.009,0c-.02-.008-.04-.015-.06-.022l-.009,0c-.02-.006-.041-.011-.062-.016l-.02,0L50.568,24a.742.742,0,0,0-.075,0h-9a1.5,1.5,0,0,0-1.5,1.5V42a1.5,1.5,0,0,0,1.5,1.5h13.5a1.5,1.5,0,0,0,1.5-1.5V30.015s0-.01,0-.015a.747.747,0,0,0-.227-.537ZM51.754,39.512a.75.75,0,0,1-1.061,0l-1.03-1.03a3.37,3.37,0,1,1,1.061-1.06l1.029,1.029A.75.75,0,0,1,51.754,39.512ZM50.493,30V25.811L54.682,30Z" transform="translate(-36.243 -21.75)" />
	<path fill="#bc2f2c" d="M105.9,128.01a1.874,1.874,0,1,0,1.326.548A1.874,1.874,0,0,0,105.9,128.01Z" transform="translate(-94.271 -116.009)" />
</svg>
