<?xml version="1.0" encoding="utf-8"?>
<!-- Generator: Adobe Illustrator 25.2.1, SVG Export Plug-In . SVG Version: 6.00 Build 0)  -->
<svg version="1.1" id="Layer_1" xmlns="http://www.w3.org/2000/svg" xmlns:xlink="http://www.w3.org/1999/xlink" x="0px" y="0px"
	 viewBox="0 0 24 24" style="enable-background:new 0 0 24 24;" xml:space="preserve">
<style type="text/css">
	.st0{fill:none;}
	.st1{fill:#D92836;}
</style>
<rect class="st0" width="24" height="24"/>
<path class="st1" d="M20,7.7l-5.2-5.2l0,0l0,0l0,0l0,0l0,0l0,0l0,0c0,0,0,0-0.1,0h0c0,0,0,0-0.1,0h0c0,0,0,0-0.1,0h0l-0.1,0
	c0,0-0.1,0-0.1,0h-9c-0.8,0-1.5,0.7-1.5,1.5v16.5c0,0.8,0.7,1.5,1.5,1.5h13.5c0.8,0,1.5-0.7,1.5-1.5v-12c0,0,0,0,0,0
	C20.3,8,20.2,7.9,20,7.7L20,7.7z M14.2,8.2V4.1l4.2,4.2H14.2z"/>
</svg>
