<svg xmlns="http://www.w3.org/2000/svg" width="52" height="52" viewBox="0 0 52 52">
	<g transform="translate(18558.291 9904.291)">
		<line fill="none" stroke="#9d9ac0" stroke-linecap="round" stroke-width="2px" x2="10.853" transform="translate(-18550.021 -9890.913)" />
		<g transform="translate(-18525.68 -9868.45)">
			<line fill="none" stroke-linecap="round" stroke-width="2px" stroke="#f7bf06" x2="9" transform="translate(0.39 0.158)" />
			<line fill="none" stroke-linecap="round" stroke-width="2px" stroke="#f7bf06" x2="9" transform="translate(0.39 5.158)" />
		</g>
		<g transform="translate(-18549.699 -9879.263)">
			<line fill="none" stroke="#9d9ac0" stroke-linecap="round" stroke-width="2px" x2="10.853" transform="translate(0 5.426)" />
			<line fill="none" stroke="#9d9ac0" stroke-linecap="round" stroke-width="2px" x2="10.853" transform="translate(5.426 0) rotate(90)" />
		</g>
		<g transform="translate(-18524.805 -9899.531) rotate(45)">
			<line fill="none" stroke="#9d9ac0" stroke-linecap="round" stroke-width="2px" x2="12.129" transform="translate(0 6.065)" />
			<line fill="none" stroke="#9d9ac0" stroke-linecap="round" stroke-width="2px" x2="12.129" transform="translate(6.065 0) rotate(90)" />
		</g>
		<g fill="none" transform="translate(-18558.291 -9904.291)">
			<path stroke="none" d="M26.51,46.864H4a4,4,0,0,1-4-4V4A4,4,0,0,1,4,0H42.863a4,4,0,0,1,4,4V26.51A14.445,14.445,0,1,1,26.51,46.864Z" />
			<path stroke="none" fill="#9d9ac0" d="M 37.55520248413086 49.99930191040039 C 40.87931060791016 49.99930191040039 44.00434112548828 48.70492935180664 46.35464096069336 46.35464096069336 C 48.70492935180664 44.00434112548828 49.99930191040039 40.87931060791016 49.99930191040039 37.55520248413086 C 49.99930191040039 33.87982177734375 48.38644027709961 30.41123008728027 45.57427215576172 28.03882026672363 L 44.86389923095703 27.43953132629395 L 44.86389923095703 26.51014137268066 L 44.86389923095703 3.999600887298584 C 44.86389923095703 2.897021055221558 43.96648025512695 2.000000953674316 42.86339950561523 2.000000953674316 L 3.999600887298584 2.000000953674316 C 2.897021055221558 2.000000953674316 2.000000953674316 2.897021055221558 2.000000953674316 3.999600887298584 L 2.000000953674316 42.86339950561523 C 2.000000953674316 43.96648025512695 2.897021055221558 44.86389923095703 3.999600887298584 44.86389923095703 L 26.51014137268066 44.86389923095703 L 27.43953132629395 44.86389923095703 L 28.03882026672363 45.57427215576172 C 30.41123008728027 48.38644027709961 33.87982177734375 49.99930191040039 37.55520248413086 49.99930191040039 M 37.55520248413086 51.99930191040039 C 33.12428283691406 51.99930191040039 29.15967178344727 50.00455093383789 26.51014137268066 46.86389923095703 L 3.999600887298584 46.86389923095703 C 1.791000962257385 46.86389923095703 9.552002211421495e-07 45.07290267944336 9.552002211421495e-07 42.86339950561523 L 9.552002211421495e-07 3.999600887298584 C 9.552002211421495e-07 1.791000962257385 1.791000962257385 9.552002211421495e-07 3.999600887298584 9.552002211421495e-07 L 42.86339950561523 9.552002211421495e-07 C 45.07290267944336 9.552002211421495e-07 46.86389923095703 1.791000962257385 46.86389923095703 3.999600887298584 L 46.86389923095703 26.51014137268066 C 50.00455093383789 29.15967178344727 51.99930191040039 33.12428283691406 51.99930191040039 37.55520248413086 C 51.99930191040039 45.53280258178711 45.53280258178711 51.99930191040039 37.55520248413086 51.99930191040039 Z" />
		</g>
		<g fill="none" stroke="#9d9ac0" stroke-width="2px" transform="translate(-18535.291 -9881.291)">
			<circle stroke="none" cx="14.5" cy="14.5" r="14.5" />
			<circle fill="none" cx="14.5" cy="14.5" r="13.5" />
		</g>
	</g>
</svg>