<svg xmlns="http://www.w3.org/2000/svg" width="14" height="14" viewBox="0 0 14 14"><defs><style>.a-flag{fill:none;}.b-flag{fill:#8f9ab3;}</style></defs><rect class="a-flag" width="14" height="14"/><path class="b-flag" d="M42.258,26.979a.437.437,0,0,0-.458.041c-1.548,1.161-2.859.6-4.378-.052-1.545-.662-3.3-1.412-5.247.052l-.007.006-.018.015-.016.014-.014.014-.016.018-.011.014-.015.02-.01.015-.012.02-.009.018-.009.019-.008.021-.007.018-.007.023,0,.018c0,.007,0,.015,0,.022s0,.014,0,.021,0,.014,0,.021,0,.016,0,.024,0,.006,0,.009v9.188a.438.438,0,0,0,.875,0v-2.4c1.472-.993,2.742-.45,4.2.176a7.407,7.407,0,0,0,2.872.792,3.857,3.857,0,0,0,2.375-.844.438.438,0,0,0,.175-.35V27.37a.438.438,0,0,0-.242-.391Z" transform="translate(-30.25 -24.745)"/></svg>