<svg xmlns="http://www.w3.org/2000/svg" width="20" height="20" viewBox="0 0 20 20">
	<rect fill="none" width="20" height="20" />
	<path fill="#C8D2DD" d="M46.654,27.323a.625.625,0,0,0-.655.059c-2.211,1.658-4.085.855-6.254-.074-2.207-.946-4.707-2.017-7.5.074l-.01.009-.025.021-.023.021-.02.02-.023.025-.016.02-.021.028-.014.022-.018.029-.013.026-.013.027-.012.03-.009.026c0,.011-.007.022-.01.033s0,.017-.007.026,0,.021-.006.032,0,.02,0,.029,0,.019,0,.029,0,.023,0,.034,0,.009,0,.013V41.007a.625.625,0,0,0,1.25,0V37.58c2.1-1.419,3.917-.643,6,.252a10.581,10.581,0,0,0,4.1,1.131,5.51,5.51,0,0,0,3.393-1.205.625.625,0,0,0,.25-.5V27.882a.625.625,0,0,0-.345-.559Z" transform="translate(-29.5 -24.132)" />
</svg>
