<svg xmlns="http://www.w3.org/2000/svg" width="13.131" height="16" viewBox="0 0 13.131 16"><defs><style>.a{fill:#8f9ab3;}</style></defs><g transform="translate(0.306 0.348)"><g transform="translate(6.251 1.055)"><g transform="translate(0)"><circle class="a" cx="1.5" cy="1.5" r="1.5" transform="translate(-0.491 -0.402)"/></g></g><g transform="translate(8.368 0)"><g transform="translate(0 0)"><ellipse class="a" cx="0.5" cy="1" rx="0.5" ry="1" transform="translate(0.392 -0.348)"/></g></g><g transform="translate(0 3.808)"><path class="a" d="M18.255,21.48l-4-7v-2h1v-1h-7v1h1v2l-4,7c-.147.265,0-.323,0,0a2.074,2.074,0,0,0,2,2h9a2.074,2.074,0,0,0,2-2C18.255,21.158,18.4,21.746,18.255,21.48Zm-9-3,2-3v-3h1v3l3,3Z" transform="translate(-5.495 -11.637)"/></g></g></svg>