<svg xmlns="http://www.w3.org/2000/svg" width="33.06" height="33.059" viewBox="0 0 33.06 33.059">
  <g id="noun_Calendar_857970" transform="translate(-0.813 -0.813)">
    <path id="Path_4367" data-name="Path 4367" d="M31.51,4.748H29.149V2.387A1.576,1.576,0,0,0,27.576.813H24.427a1.576,1.576,0,0,0-1.574,1.574V4.748H11.833V2.387A1.576,1.576,0,0,0,10.259.813H7.109A1.576,1.576,0,0,0,5.535,2.387V4.748H3.174A2.364,2.364,0,0,0,.813,7.109v24.4a2.364,2.364,0,0,0,2.361,2.361H31.512a2.364,2.364,0,0,0,2.361-2.361V7.109A2.364,2.364,0,0,0,31.51,4.748ZM24.427,2.387h3.149V7.109H24.427Zm-17.318,0h3.149V7.109H7.109ZM32.3,31.51a.788.788,0,0,1-.788.788H3.174a.788.788,0,0,1-.788-.788V14.194H32.3Zm0-18.89H2.387V7.109a.788.788,0,0,1,.788-.788H5.535V8.684h6.3V6.323h11.02V8.684h6.3V6.323H31.51a.788.788,0,0,1,.788.788Z" fill="#9e99c3"/>
    <path id="Union_2" data-name="Union 2" d="M7.57,12.8l-1.708-.487L4.7,11.975l-1.163.334-.01,0-1.7.485a.408.408,0,0,1-.118.016.427.427,0,0,1-.117-.838l1.4-.4V7.687H.427A.427.427,0,0,1,0,7.26V5.552a.427.427,0,0,1,.31-.411l2.68-.766V1.708a1.708,1.708,0,0,1,3.416,0V4.375l2.68.766a.427.427,0,0,1,.31.411V7.26a.427.427,0,0,1-.427.427H6.406v3.888l1.4.4a.427.427,0,0,1-.117.838H7.682A.409.409,0,0,1,7.57,12.8ZM4.816,11.121l.736.211V1.708a.854.854,0,1,0-1.708,0v9.623l.736-.211a.428.428,0,0,1,.236,0Zm1.59-4.287H8.541V5.874l-2.136-.61ZM.854,5.874v.959H2.99V5.264Z" transform="translate(23.874 17.896) rotate(90)" fill="#f7bf06"/>
  </g>
</svg>
