<svg xmlns="http://www.w3.org/2000/svg" width="28" height="28" viewBox="0 0 28 28">
  <g id="Group_157264" data-name="Group 157264" transform="translate(513 -218)">
    <g id="Component_413_1" data-name="Component 413 – 1" transform="translate(-513 218)">
      <g id="Group_152517" data-name="Group 152517">
        <rect id="Rectangle_140539" data-name="Rectangle 140539" width="28" height="28" fill="none"/>
        <path id="Path_4381" data-name="Path 4381" d="M23.931,77.493l-9.625,9.625a.875.875,0,0,1-1.237,0L8.256,82.306a.875.875,0,0,1,1.237-1.238l4.194,4.194,9.006-9.006a.875.875,0,1,1,1.238,1.238Zm10.063-1.238a.875.875,0,0,0-1.238,0L23.75,85.262l-1.938-1.938a.875.875,0,1,0-1.237,1.238l2.557,2.556a.875.875,0,0,0,1.237,0l9.625-9.625a.875.875,0,0,0,0-1.238Z" transform="translate(-7.125 -67.687)" fill="#6f4c98"/>
      </g>
      <g id="Ellipse_517" data-name="Ellipse 517" fill="#6f4c98" stroke="#6f4c98" stroke-width="1">
        <circle cx="14" cy="14" r="14" stroke="none"/>
        <circle cx="14" cy="14" r="13.5" fill="none"/>
      </g>
    </g>
    <path id="Path_4431" data-name="Path 4431" d="M-286.955,529.726a.362.362,0,0,0-.471.184l-.758,1.769a.365.365,0,0,0,0,.276.383.383,0,0,0,.066.106.367.367,0,0,0,.125.091l6.231,2.66-4.7,3.463a.365.365,0,0,0-.146.292,1.573,1.573,0,0,0,.367.951,1.233,1.233,0,0,0,.217.189,1.837,1.837,0,0,0,1.759-.034l6.939-2.972,4.854,2.075c1.428.611,2.905.263,3.355-.794a1.83,1.83,0,0,0-.208-1.709,3.343,3.343,0,0,0-1.541-1.265l-5.612-2.386-2.23-5.971c-.289-.745-.689-1.181-1.189-1.29a1.471,1.471,0,0,0-1.228.377.361.361,0,0,0-.11.306l.62,4.81-2.335-.982-1.834-3.51a.361.361,0,0,0-.4-.183l-1.921.436a.36.36,0,0,0-.235.182.36.36,0,0,0-.018.3l1.021,2.9Zm6.453-3.558a.614.614,0,0,1,.434-.1c.248.054.483.348.678.848l1.99,5.313-2.448-1.046Zm-6.052,1.056,1.25-.276,1.781,3.363a.36.36,0,0,0,.175.163l12.186,5.2a2.63,2.63,0,0,1,1.211.984,1.13,1.13,0,0,1,.163,1.037c-.282.66-1.387.85-2.409.412l-4.227-1.8.725-.311a.367.367,0,0,0,.191-.483.368.368,0,0,0-.484-.19l-8.568,3.685c-.493.2-.863.238-1.074.1a.607.607,0,0,1-.232-.383l6.13-4.521a.362.362,0,0,0,.076-.507.362.362,0,0,0-.507-.076l-.939.689-6.284-2.689.467-1.1,1.035.44a.359.359,0,0,0,.39-.06.36.36,0,0,0,.1-.381Z" transform="translate(-220.366 -301.306)" fill="#fff" stroke="#fff" stroke-width="0.5"/>
  </g>
</svg>
