<svg xmlns="http://www.w3.org/2000/svg" width="55.25" height="44.625" viewBox="0 0 55.25 44.625"><defs><style>.a-fol{fill:#c5d2e7;}</style></defs><path class="a-fol" d="M75,54.373H52.33l-7.371-5.526A4.27,4.27,0,0,0,42.415,48H28.245A4.254,4.254,0,0,0,24,52.248V88.373a4.254,4.254,0,0,0,4.25,4.25H75.232a4.019,4.019,0,0,0,4.013-4.013V58.623A4.254,4.254,0,0,0,75,54.373ZM58,75.624h-4.25v4.25a2.125,2.125,0,0,1-4.25,0v-4.25h-4.25a2.125,2.125,0,0,1,0-4.25H49.5v-4.25a2.125,2.125,0,0,1,4.25,0v4.25H58a2.125,2.125,0,0,1,0,4.25Z" transform="translate(-23.995 -47.998)"/></svg>