<svg xmlns="http://www.w3.org/2000/svg" width="157" height="195" viewBox="0 0 157 195"><defs><linearGradient id="a" x1="96.477%" x2="5.906%" y1="91.13%" y2="13.86%"><stop offset="0%" stop-color="#19103A"/><stop offset="66.067%" stop-color="#6F5AB9"/><stop offset="100%" stop-color="#B99EFF"/></linearGradient></defs><path d="M1396 195v-8h16v8h-16zm-28 0v-51.111h27.62V115H1412v57.778h-16.38v-13.651h-11.24V195H1368zm57 0v-79h16v79h-16zm-86-1v-35h16v35h-16zm143-1v-20h16v20h-16zm-28-5v-44h16v44h-16zm-171-15v-44h16.38v28.085H1327V173h-44zm199-14v-30h16v30h-16zm-143-15V45h16v99h-16zm-28.38 0v-28.542H1283v-28.23h16.38v13.174h11.24V59H1327v85h-16.38zm58.38-13V43.931h27.74V30H1413v73.455h-27.74V131H1369zm16-58v15h11V58h-11v15zm69 56V85h16.26v14.986h11.48V85H1498v29.971h-27.74V129H1454zm27.953-56H1425V58.344h56.953V44H1498v29h-16.047zM1283 74V30h16v44h-16zm171-29V1h16.26v14.986h11.48V1H1498v29.971h-27.74V45H1454zm-29 0V1h16v44h-16zm-113 0V1h16.26v14.986h11.48V1H1356v29.971h-27.74V45H1312zm56-15V0h16v30h-16zm28-14V1h16v15h-16z" transform="translate(-1283)" fill="url(#a)" fill-rule="evenodd"/></svg>