<svg id="Capa_1" enable-background="new 0 0 512 512" height="512" viewBox="0 0 512 512" width="512" xmlns="http://www.w3.org/2000/svg"><g><path d="m504.5 271h-233.255c-2.99-14.672-14.573-26.255-29.245-29.245v-105.755h22.5c4.143 0 7.5-3.358 7.5-7.5v-90c0-4.142-3.357-7.5-7.5-7.5h-257c-4.142 0-7.5 3.358-7.5 7.5v90c0 4.142 3.358 7.5 7.5 7.5h22.5v337.5c0 4.142 3.358 7.5 7.5 7.5h197c4.142 0 7.5-3.358 7.5-7.5v-113.255c14.672-2.99 26.255-14.573 29.245-29.245h233.255c4.143 0 7.5-3.358 7.5-7.5v-45c0-4.142-3.357-7.5-7.5-7.5zm-489.5-225h242v75h-242zm30 420v-330h182v330zm212-142.5c0 9.778-6.271 18.114-15 21.21v-87.42c8.729 3.096 15 11.432 15 21.21zm108.107-37.5h68.786l-30 30h-68.786zm-51.214 30h-41.893v-30h71.893zm183.107 0h-71.893l30-30h41.893z"/><path d="m234.5 61h-197c-4.142 0-7.5 3.358-7.5 7.5v30c0 4.142 3.358 7.5 7.5 7.5h197c4.142 0 7.5-3.358 7.5-7.5v-30c0-4.142-3.358-7.5-7.5-7.5zm-7.5 30h-182v-15h182z"/><path d="m204.5 151h-137c-4.142 0-7.5 3.358-7.5 7.5v135c0 4.142 3.358 7.5 7.5 7.5s7.5-3.358 7.5-7.5v-127.5h122v150h-129.5c-4.142 0-7.5 3.358-7.5 7.5v30c0 4.142 3.358 7.5 7.5 7.5h137c4.142 0 7.5-3.358 7.5-7.5v-195c0-4.142-3.358-7.5-7.5-7.5zm-7.5 195h-122v-15h122z"/></g></svg>