<svg xmlns="http://www.w3.org/2000/svg" width="24" height="24" viewBox="0 0 24 24"><defs><style>.a1,.b1{fill:none;}.a1{stroke:#57a05a;}.c1{fill:#57a05a;}.d1{stroke:none;}</style></defs><g transform="translate(3.141)"><g class="a1" transform="translate(-3.141)"><circle class="d1" cx="12" cy="12" r="12"/><circle class="b1" cx="12" cy="12" r="11.5"/></g><g transform="translate(0.859 4)"><rect class="b1" width="24" height="24"/><path class="c1" d="M31.143,24a7.143,7.143,0,1,0,7.143,7.143A7.143,7.143,0,0,0,31.143,24Zm3.4,5.892-4.03,3.846a.551.551,0,0,1-.76,0l-2.014-1.923a.55.55,0,0,1,.76-.8l1.634,1.561,3.65-3.484a.55.55,0,1,1,.76.8Z" transform="translate(-23.143 -23.143)"/></g></g></svg>