<svg xmlns="http://www.w3.org/2000/svg" width="36" height="36" viewBox="0 0 36 36"><defs><style>.a-pane,.c-pane,.d-pane{fill:none;}.b-pane{fill:#f7bf06;}.d-pane{stroke:#373069;stroke-linecap:round;stroke-linejoin:round;}.e-pane,.f-pane{stroke:none;}.f-pane{fill:#f7bf06;}</style></defs><g transform="translate(3.141)"><g class="a-pane" transform="translate(-3.141)"><path class="e-pane" d="M18,0A18,18,0,1,1,0,18,18,18,0,0,1,18,0Z"/><path class="f-pane" d="M 18 1 C 13.45914077758789 1 9.190059661865234 2.768310546875 5.979190826416016 5.979190826416016 C 2.768310546875 9.190059661865234 1 13.45914077758789 1 18 C 1 22.54085922241211 2.768310546875 26.80994033813477 5.979190826416016 30.02080917358398 C 9.190059661865234 33.231689453125 13.45914077758789 35 18 35 C 22.54085922241211 35 26.80994033813477 33.231689453125 30.02080917358398 30.02080917358398 C 33.231689453125 26.80994033813477 35 22.54085922241211 35 18 C 35 13.45914077758789 33.231689453125 9.190059661865234 30.02080917358398 5.979190826416016 C 26.80994033813477 2.768310546875 22.54085922241211 1 18 1 M 18 0 C 27.94112014770508 0 36 8.058879852294922 36 18 C 36 27.94112014770508 27.94112014770508 36 18 36 C 8.058879852294922 36 0 27.94112014770508 0 18 C 0 8.058879852294922 8.058879852294922 0 18 0 Z"/></g><circle class="b-pane" cx="13" cy="13" r="13" transform="translate(2.258 5.5)"/><g transform="translate(5.258 8.261)"><rect class="c-pane" width="20" height="20" transform="translate(0 0.239)"/><line class="d-pane" x2="11" transform="translate(2 17.239)"/><path class="d-pane" d="M14.6,64.006l2.968,2.782a2.519,2.519,0,0,0,2.989.34L32.475,60.2,31.008,58.4a2.519,2.519,0,0,0-3.227-.576l-3.493,2.055-4.724-1.575-1.3.557a.63.63,0,0,0-.173,1.047l2.417,2.175-2.2,1.26L16.1,62.4l-1.319.565a.63.63,0,0,0-.183,1.038Z" transform="translate(-13.265 -52.796)"/></g></g></svg>