<svg xmlns="http://www.w3.org/2000/svg" width="24" height="24" viewBox="0 0 24 24"><defs><style>.a-grey{opacity:0.4;}.b-grey,.c-grey{fill:none;}.b-grey{stroke:#c8b6dd;}.d-grey{fill:#c8b6dd;}.e-grey{stroke:none;}</style></defs><g class="a-grey" transform="translate(3.141)"><g class="b-grey" transform="translate(-3.141)"><circle class="e-grey" cx="12" cy="12" r="12"/><circle class="c-grey" cx="12" cy="12" r="11.5"/></g><g transform="translate(0.859 4)"><rect class="c-grey" width="16" height="16"/><path class="d-grey" d="M31.143,24a7.143,7.143,0,1,0,7.143,7.143A7.143,7.143,0,0,0,31.143,24Zm3.4,5.892-4.03,3.846a.551.551,0,0,1-.76,0l-2.014-1.923a.55.55,0,0,1,.76-.8l1.634,1.561,3.65-3.484a.55.55,0,1,1,.76.8Z" transform="translate(-23.143 -23.143)"/></g></g></svg>