<svg xmlns="http://www.w3.org/2000/svg" width="15.879" height="18.773" viewBox="0 0 15.879 18.773">
  <g id="icon-financial-undertaking" transform="translate(-1107.072 -896.67)">
    <g id="file" transform="translate(1107.222 896.82)">
      <g id="Group_152140" data-name="Group 152140" transform="translate(0)">
        <g id="Group_152139" data-name="Group 152139" transform="translate(0)">
          <path id="Path_4402" data-name="Path 4402" d="M54.786,2.448H53.228V.89a.893.893,0,0,0-.89-.89H40.987a.893.893,0,0,0-.89.89V15.134a.893.893,0,0,0,.89.89h1.558v1.558a.893.893,0,0,0,.89.89H51a2.6,2.6,0,0,0,1.538-.61l2.487-2.341a2.364,2.364,0,0,0,.648-1.5V3.338A.893.893,0,0,0,54.786,2.448Zm-12.241.89V15.357H40.987a.226.226,0,0,1-.223-.223V.89a.226.226,0,0,1,.223-.223H52.338a.226.226,0,0,1,.223.223V2.448H43.435A.893.893,0,0,0,42.545,3.338Zm12.025,11.7-2.487,2.341a1.182,1.182,0,0,1-.191.14V15.468a.558.558,0,0,1,.556-.556h2.227A.934.934,0,0,1,54.57,15.036Zm.438-1.014a1.038,1.038,0,0,1-.03.223H52.449a1.227,1.227,0,0,0-1.224,1.224v2.31A1.164,1.164,0,0,1,51,17.8H43.435a.225.225,0,0,1-.223-.223V3.338a.225.225,0,0,1,.223-.223H54.786a.226.226,0,0,1,.223.223Z" transform="translate(-40.097 0)" fill="#0d102c" stroke="#0d102c" stroke-width="0.3"/>
        </g>
      </g>
      <g id="Group_152142" data-name="Group 152142" transform="translate(5.453 5.564)">
        <g id="Group_152141" data-name="Group 152141">
          <path id="Path_4403" data-name="Path 4403" d="M198.023,154.216h-6.454a.334.334,0,0,0,0,.668h6.454a.334.334,0,0,0,0-.668Z" transform="translate(-191.235 -154.216)" fill="#0d102c" stroke="#0d102c" stroke-width="0.3"/>
        </g>
      </g>
      <g id="Group_152146" data-name="Group 152146" transform="translate(5.453 10.015)">
        <g id="Group_152145" data-name="Group 152145">
          <path id="Path_4405" data-name="Path 4405" d="M195.131,339.277H191.57a.334.334,0,1,0,0,.668h3.561a.334.334,0,0,0,0-.668Z" transform="translate(-191.236 -339.277)" fill="#0d102c" stroke="#0d102c" stroke-width="0.3"/>
        </g>
      </g>
      <g id="Group_152148" data-name="Group 152148" transform="translate(5.453 7.79)">
        <g id="Group_152147" data-name="Group 152147">
          <path id="Path_4406" data-name="Path 4406" d="M198.023,215.9h-6.454a.334.334,0,0,0,0,.668h6.454a.334.334,0,0,0,0-.668Z" transform="translate(-191.235 -215.903)" fill="#0d102c" stroke="#0d102c" stroke-width="0.3"/>
        </g>
      </g>
    </g>
    <path id="Path_6290" data-name="Path 6290" d="M1812.291,3355.13a1.226,1.226,0,0,0-.935,1.146,1.248,1.248,0,0,0,1.117,1.183c.031,0,.062.009.094.012a.708.708,0,0,1,.664.647.727.727,0,0,1-.758.652l-.033,0a.825.825,0,0,1-.689-.336l-.389.39a1.369,1.369,0,0,0,.93.485v.2h.551v-.247a1.226,1.226,0,0,0,.935-1.146,1.26,1.26,0,0,0-1.21-1.195.951.951,0,0,1-.094-.02.629.629,0,0,1,0-1.253.918.918,0,0,1,.221-.029.826.826,0,0,1,.689.336l.389-.389a1.369,1.369,0,0,0-.93-.485v-.2h-.551Z" transform="translate(-697.939 -2446.038)" fill="#0d102c" stroke="#0d102c" stroke-width="0.3"/>
  </g>
</svg>
