<svg xmlns="http://www.w3.org/2000/svg" width="19.832" height="19.832" viewBox="0 0 19.832 19.832">
  <g id="icon-expand" transform="translate(0.25 -3.75)">
    <path id="Path_103" data-name="Path 103" d="M152.965,40.9c0-.013,0-.026-.006-.04s0-.038-.009-.057-.007-.031-.011-.046-.008-.032-.012-.048-.01-.03-.016-.045-.011-.032-.017-.047-.013-.027-.019-.041-.015-.032-.023-.048-.015-.025-.022-.037-.018-.031-.028-.046-.019-.026-.029-.04-.019-.026-.029-.039-.038-.044-.059-.065l-.007-.008-.006-.006c-.021-.021-.044-.041-.067-.06l-.036-.027-.042-.031-.043-.026-.04-.024L152.4,40.1l-.044-.021-.043-.016-.049-.017-.043-.011-.052-.013-.049-.007L152.071,40c-.029,0-.058,0-.087,0h-5.991a1,1,0,1,0,0,1.993h3.574l-5.275,5.275a1,1,0,1,0,1.41,1.409l5.275-5.275v3.574a1,1,0,0,0,1.993,0V41A.991.991,0,0,0,152.965,40.9Z" transform="translate(-133.638 -36)" fill="#373069" stroke="#373069" stroke-width="0.5"/>
    <path id="Path_104" data-name="Path 104" d="M47.268,144.292l-5.275,5.275v-3.574a1,1,0,0,0-1.993,0v5.979a.993.993,0,0,0,0,.1c0,.013,0,.026.006.04s0,.038.009.057.007.031.011.046.008.032.012.048.01.03.016.045.011.032.017.047.013.027.019.041.015.032.023.048.015.025.022.037.018.031.028.046.019.027.029.04.019.026.029.039.038.044.059.065l.007.008.006.006c.021.021.044.041.067.06l.036.027.042.031.044.027.04.023.046.022.043.02.045.016.047.017.045.012.049.012.053.008.043.006c.033,0,.066,0,.1,0h5.98a1,1,0,1,0,0-1.993H43.4l5.275-5.275a1,1,0,1,0-1.41-1.409Z" transform="translate(-40 -129.638)" fill="#373069" stroke="#373069" stroke-width="0.5"/>
  </g>
</svg>
