<svg xmlns="http://www.w3.org/2000/svg" width="17.248" height="19.499" viewBox="0 0 17.248 19.499">
  <path id="icon-attachment" d="M48.654,33.234a.75.75,0,0,1,0,1.061L40.96,41.977a5.25,5.25,0,1,1-7.424-7.425l9.306-9.436a3.75,3.75,0,1,1,5.307,5.3l-9.306,9.436a2.25,2.25,0,1,1-3.186-3.178l7.806-7.935a.75.75,0,0,1,1.069,1.052l-7.81,7.94a.75.75,0,1,0,1.056,1.065l9.307-9.436a2.25,2.25,0,1,0-3.178-3.186L34.6,35.609a3.75,3.75,0,0,0,5.3,5.307l7.693-7.683A.75.75,0,0,1,48.654,33.234Z" transform="translate(-31.998 -24.016)" fill="#c8b6dd"/>
</svg>
