<svg id="icon-digital-labour-service-dashboard" xmlns="http://www.w3.org/2000/svg" width="61.187" height="45.598" viewBox="0 0 61.187 45.598">
  <path id="builder" d="M10.014,15.351l2.13,6.164,1.069-3.659-.525-.564a.841.841,0,0,1-.155-.893c.284-.555.875-.452,1.421-.452s1.286-.105,1.467.6a.931.931,0,0,1-.184.742l-.525.564,1.069,3.659,1.92-6.164c1.391,1.231,5.508,1.479,7.04,2.32a3.982,3.982,0,0,1,1.283,1.065c.953,1.24.893,5.148.827,6.112H.872c.148-1.272-.127-4.877.827-6.112a3.957,3.957,0,0,1,1.275-1.061c1.53-.841,5.65-1.089,7.04-2.32ZM12.041,1.3a.444.444,0,0,1-.153-.022A4.9,4.9,0,0,0,9.128,5.394a.462.462,0,0,1-.52.381A.452.452,0,0,1,8.3,5.612a.439.439,0,0,1-.1-.329A5.74,5.74,0,0,1,11.529.478a5.765,5.765,0,0,1,2.624-.45A6.459,6.459,0,0,1,16.73.717a5.387,5.387,0,0,1,3.061,4.6.466.466,0,0,1-.931.034,4.517,4.517,0,0,0-2.571-3.861c-.061-.03-.12-.06-.184-.088a.464.464,0,0,1-.166.024c-.424-.009-.533.736-.56,1.735V4.612c0,.4.017.811.017,1.076a.464.464,0,0,1-.927,0c0-.445,0-.76-.013-1.076,0-.517-.02-1.02,0-1.483A3.969,3.969,0,0,1,14.927,1,5.346,5.346,0,0,0,14.1.889,5.183,5.183,0,0,0,13.07.934a4.284,4.284,0,0,1,.437,2.113c.013.478,0,1,0,1.537,0,.321-.011.646-.011,1.1a.453.453,0,0,1-.9,0c0-.282,0-.7.015-1.111,0-.527.02-1.039,0-1.506C12.585,2.056,12.471,1.3,12.041,1.3ZM19.348,7.3q.052.127.1.252h0c.048.129.092.263.133.4v.013c.052.26.083.392.1.471h0a.939.939,0,0,1,.028.136V9.2h0a3.537,3.537,0,0,1-.077.5,4.973,4.973,0,0,1-.146.514h0a2.432,2.432,0,0,1-.437.773.964.964,0,0,1-.474.334l-.1.366A5.368,5.368,0,0,1,16.783,14.4h0a4.076,4.076,0,0,1-2.74.96,4.238,4.238,0,0,1-2.768-1.05A6.277,6.277,0,0,1,9.5,11.43c-.02-.073-.05-.157-.074-.232a1.006,1.006,0,0,1-.7-.534A3.505,3.505,0,0,1,8.284,9.3a2.862,2.862,0,0,1,.109-1.022,6.578,6.578,0,0,1,.3-.861c-.094-.047-.181-.1-.267-.151A2.6,2.6,0,0,1,7.414,6.224l.848-.364h0a1.7,1.7,0,0,0,.678.674,9.845,9.845,0,0,0,4.738.949,12.835,12.835,0,0,0,5.051-.872,2.438,2.438,0,0,0,1.043-.788l.8.452A3.086,3.086,0,0,1,19.348,7.3ZM9.509,7.78a1.774,1.774,0,0,0-.361,1.358,3.2,3.2,0,0,0,.179.882,1.107,1.107,0,0,0,.306.5h0a.119.119,0,0,0,.092.026.275.275,0,0,1,.219.026.3.3,0,0,1,.138.161c.052.144.1.31.144.458a4.792,4.792,0,0,0,1.893,2.613,3.7,3.7,0,0,0,1.968.616,3.379,3.379,0,0,0,1.928-.57,4.291,4.291,0,0,0,1.655-2.367c.037-.14.074-.267.116-.409l.048-.161a.306.306,0,0,1,.116-.161h0a.268.268,0,0,1,.2-.043c.079.013.175-.045.271-.151A1.824,1.824,0,0,0,18.749,10a3.285,3.285,0,0,0,.087-1.177,5.651,5.651,0,0,0-.308-1.1.114.114,0,0,1,0-.054V7.658a15.9,15.9,0,0,1-9.012.131Z" transform="translate(34.302 12.64)" fill="#9d9ac0" fill-rule="evenodd"/>
  <path id="workstation" d="M5.031,2.133V3.47a.664.664,0,0,0,.6.713h.926a6.2,6.2,0,0,0,.442,1.4l-.715.845a.817.817,0,0,0,0,1.008l.885,1.052a.532.532,0,0,0,.847,0l.67-.777a8.41,8.41,0,0,0,1.129.644V9.55a.663.663,0,0,0,.6.713h1.24a.668.668,0,0,0,.6-.713V8.435a4.269,4.269,0,0,0,1.178-.526l.711.845a.532.532,0,0,0,.847,0L15.871,7.7a.813.813,0,0,0,0-.983L15.23,5.9a5.857,5.857,0,0,0,.521-1.342H16.76a.555.555,0,0,0,.427-.207.786.786,0,0,0,.177-.506V2.369a1.023,1.023,0,0,0-.029-.226H42.552a1.227,1.227,0,0,1,1.108,1.3v5.9h1.654V1.475A1.4,1.4,0,0,0,44.073,0H1.24A1.4,1.4,0,0,0,0,1.475V35.94a1.373,1.373,0,0,0,1.24,1.475H31.46V31.733H2.757a1.238,1.238,0,0,1-1.1-1.322V3.441a1.23,1.23,0,0,1,1.1-1.307Zm8.533,0a3.23,3.23,0,0,1-.955,3.17,2.147,2.147,0,0,1-2.832,0,3.23,3.23,0,0,1-.955-3.17ZM16.95,39.5H28.356A7.28,7.28,0,0,0,31.4,45.6H13.907A7.689,7.689,0,0,0,16.95,39.5Z" transform="translate(0 0)" fill="#9d9ac0" fill-rule="evenodd"/>
  <path id="workstation-2" data-name="workstation" d="M35.727,8.15l1.128,1.128a.766.766,0,0,1,0,1.085l-.909.909a6.015,6.015,0,0,1,.566,1.5h1.175a.771.771,0,0,1,.766.761v1.6a.771.771,0,0,1-.766.78H36.4a5.971,5.971,0,0,1-.666,1.461l.842.823a.761.761,0,0,1,0,1.08l-1.128,1.132a.761.761,0,0,1-1.08,0l-.914-.909a5.824,5.824,0,0,1-1.5.561v1.18a.766.766,0,0,1-.766.766H29.579a.766.766,0,0,1-.761-.766V19.961a6.105,6.105,0,0,1-1.466-.666l-.833.833a.771.771,0,0,1-1.08,0L24.307,19a.776.776,0,0,1,0-1.085l.909-.909a6.072,6.072,0,0,1-.561-1.5h-1.18a.771.771,0,0,1-.766-.766v-1.6a.771.771,0,0,1,.766-.766h1.285a6.186,6.186,0,0,1,.671-1.461l-.837-.833a.776.776,0,0,1,0-1.085l1.132-1.128a.761.761,0,0,1,1.08,0l.909.914a6.119,6.119,0,0,1,1.508-.566V7.032a.766.766,0,0,1,.761-.766h1.6a.771.771,0,0,1,.766.766V8.3a6.072,6.072,0,0,1,1.461.666l.837-.833a.761.761,0,0,1,1.08,0Zm-5.144,2.855a3.145,3.145,0,1,1-3.141,3.141,3.145,3.145,0,0,1,3.141-3.141Z" transform="translate(-0.051 -1.482)" fill="#9d9ac0" fill-rule="evenodd"/>
  <g id="Group_158689" data-name="Group 158689" transform="translate(0 1)">
    <path id="Path_26220" data-name="Path 26220" d="M31.743,44.986h10.4c.41,0,.743-.445.743-.993S42.555,43,42.145,43h-10.4c-.41,0-.743.445-.743.993S31.333,44.986,31.743,44.986Z" transform="translate(-35.824 57.752) rotate(-90)" fill="#f7bf0f"/>
    <path id="Path_26221" data-name="Path 26221" d="M31.5,49.986h6.952c.274,0,.5-.445.5-.993s-.222-.993-.5-.993H31.5c-.274,0-.5.445-.5.993S31.222,49.986,31.5,49.986Z" transform="translate(-35.859 57.771) rotate(-90)" fill="#f7bf0f"/>
    <path id="Path_26222" data-name="Path 26222" d="M31.613,54.986H40.2c.339,0,.613-.445.613-.993S40.538,53,40.2,53H31.613c-.339,0-.613.445-.613.993S31.275,54.986,31.613,54.986Z" transform="translate(-35.895 57.752) rotate(-90)" fill="#f7bf0f"/>
    <path id="Path_26223" data-name="Path 26223" d="M31.406,54.986h5.677c.224,0,.406-.445.406-.993S37.307,53,37.083,53H31.406c-.224,0-.406.445-.406.993S31.182,54.986,31.406,54.986Z" transform="translate(-30.93 57.752) rotate(-90)" fill="#f7bf0f"/>
  </g>
</svg>
