<svg xmlns="http://www.w3.org/2000/svg" width="36" height="35.854" viewBox="0 0 36 35.854">
  <g id="Group_153771" data-name="Group 153771" transform="translate(3786 -3274.424)">
    <g id="noun_Gear_2336684" transform="translate(-3786 3274.424)">
      <path id="Path_4399" data-name="Path 4399" d="M45.454,25.8l-3.373-.325a14.124,14.124,0,0,0-1.715-4.053L42.5,18.835a.585.585,0,0,0-.036-.785l-3.557-3.593a.585.585,0,0,0-.79-.039l-2.587,2.145a14.581,14.581,0,0,0-4.056-1.709l-.325-3.342A.573.573,0,0,0,30.572,11h-5.1a.573.573,0,0,0-.583.514l-.325,3.349a14.107,14.107,0,0,0-4.06,1.7L17.921,14.42a.585.585,0,0,0-.787.035l-3.6,3.593a.585.585,0,0,0-.037.788l2.144,2.585a14.642,14.642,0,0,0-1.712,4.05l-3.383.326a.6.6,0,0,0-.546.583v5.093a.6.6,0,0,0,.545.583l3.373.325a14.124,14.124,0,0,0,1.715,4.053l-2.139,2.582a.585.585,0,0,0,.038.788l3.6,3.593a.585.585,0,0,0,.787.037l2.587-2.145A14.579,14.579,0,0,0,24.564,43l.325,3.342a.573.573,0,0,0,.583.514h5.1a.573.573,0,0,0,.583-.514l.325-3.349a14.107,14.107,0,0,0,4.06-1.7l2.583,2.144a.585.585,0,0,0,.787-.035l3.6-3.592a.585.585,0,0,0,.037-.788L40.4,36.43a14.642,14.642,0,0,0,1.712-4.05l3.34-.325A.6.6,0,0,0,46,31.471V26.379a.6.6,0,0,0-.545-.583Zm-.625,5.144-3.227.314a.6.6,0,0,0-.523.456A13.5,13.5,0,0,1,39.2,36.157a.585.585,0,0,0,.038.693l2.073,2.5L38.46,42.19l-2.5-2.075a.585.585,0,0,0-.7-.038,12.966,12.966,0,0,1-4.446,1.87.569.569,0,0,0-.46.5l-.314,3.232H26l-.315-3.232a.577.577,0,0,0-.461-.509,13.41,13.41,0,0,1-4.452-1.87.585.585,0,0,0-.69.044l-2.5,2.075-2.845-2.839,2.074-2.5a.585.585,0,0,0,.037-.7,12.966,12.966,0,0,1-1.876-4.439.6.6,0,0,0-.532-.458l-3.27-.315V26.91l3.27-.315a.6.6,0,0,0,.523-.456,13.5,13.5,0,0,1,1.884-4.447A.585.585,0,0,0,16.811,21l-2.073-2.5,2.846-2.839,2.5,2.075a.585.585,0,0,0,.7.038,12.966,12.966,0,0,1,4.446-1.87.569.569,0,0,0,.46-.5L26,12.169h4.037l.315,3.232a.577.577,0,0,0,.461.509,13.41,13.41,0,0,1,4.452,1.87.585.585,0,0,0,.69-.044l2.5-2.073L41.264,18.5,39.187,21a.585.585,0,0,0-.037.7,12.966,12.966,0,0,1,1.876,4.439.6.6,0,0,0,.532.458l3.27.315Z" transform="translate(-10 -10.998)" fill="#9e99c3"/>
      <path id="Path_4400" data-name="Path 4400" d="M109.611,98.225a11.544,11.544,0,1,0,11.561,11.544A11.566,11.566,0,0,0,109.611,98.225Zm-1.248,1.246a10.408,10.408,0,0,1,2.488,0v6.525a3.969,3.969,0,0,0-2.488,0Zm-1.171.209v6.938a4.006,4.006,0,0,0-.738.737H99.506a10.417,10.417,0,0,1,7.687-7.675Zm-7.972,10.089a10.425,10.425,0,0,1,.075-1.244h6.538a3.953,3.953,0,0,0,0,2.488H99.3A10.425,10.425,0,0,1,99.221,109.769Zm7.972,10.089a10.417,10.417,0,0,1-7.687-7.675h6.949a4.005,4.005,0,0,0,.738.737Zm3.659.21a10.408,10.408,0,0,1-2.488,0v-6.527a3.969,3.969,0,0,0,2.488,0Zm-1.24-7.5a2.8,2.8,0,1,1,2.808-2.8A2.8,2.8,0,0,1,109.611,112.572Zm2.411,7.289v-6.934a4.012,4.012,0,0,0,.745-.743h6.949A10.417,10.417,0,0,1,112.022,119.861ZM120,109.769a10.419,10.419,0,0,1-.075,1.244h-6.537a3.953,3.953,0,0,0,0-2.488h6.537A10.419,10.419,0,0,1,120,109.769Zm-7.234-2.415a4.012,4.012,0,0,0-.745-.743V99.678a10.418,10.418,0,0,1,7.694,7.677Z" transform="translate(-91.607 -91.843)" fill="#9e99c3"/>
    </g>
    <circle id="Ellipse_501" data-name="Ellipse 501" cx="2.876" cy="2.876" r="2.876" transform="translate(-3770.899 3289.423)" fill="#f7bf06"/>
  </g>
</svg>
