<svg xmlns="http://www.w3.org/2000/svg" width="512.875" height="512.922" viewBox="0 0 512.875 512.922">
  <g id="triangle-icon_1_" data-name="triangle-icon (1)" transform="translate(-0.462)">
    <path id="Path_26825" data-name="Path 26825" d="M433.348,512.922H80.45A80,80,0,0,1,8.9,397.164L185.333,44.25a80,80,0,0,1,143.133,0L504.9,397.164a80,80,0,0,1-71.551,115.758Zm0,0" fill="#f7636f"/>
    <g id="Group_159229" data-name="Group 159229">
      <path id="Path_26826" data-name="Path 26826" d="M256.9,128.2a16,16,0,0,1,16,16v192a16,16,0,0,1-32,0v-192A16,16,0,0,1,256.9,128.2Zm0,0" fill="#fff"/>
      <path id="Path_26827" data-name="Path 26827" d="M240.9,384.2h32v32h-32Zm0,0" fill="#fff"/>
    </g>
  </g>
</svg>
