<svg xmlns="http://www.w3.org/2000/svg" width="34.32" height="35.189" viewBox="0 0 34.32 35.189">
  <g id="icon-properties" transform="translate(-18926.803 2737.189)">
    <g id="Group" transform="translate(18921.414 -2742.563)">
      <circle id="Ellipse_503" data-name="Ellipse 503" cx="2" cy="2" r="2" transform="translate(29.586 29.563)" fill="#f7bf06"/>
    </g>
    <path id="Compound_Path" data-name="Compound Path" d="M24.777,5.563a.755.755,0,0,0-1,0l-17,14a.731.731,0,0,0,0,1c.261.3.669,1.222,1,1l3-3v17a4.041,4.041,0,0,0,4,4h15a9.882,9.882,0,0,0,3,1h0a14.783,14.783,0,0,0,4-2,9.734,9.734,0,0,0,4-8v-5a1.2,1.2,0,0,0-1-1,13.364,13.364,0,0,1-3,0v-6l3,3c.2.226.708.088,1,0s-.045-.7,0-1,.253-.83,0-1Zm14,25a8.228,8.228,0,0,1-3,7c-.757.6-2.087.686-3,1a5.175,5.175,0,0,1-2-1c-2.235-1.809-4.017-4.124-4-7v-4c2.169-.109,4.263-1.7,6-3,1.737,1.3,3.831,2.891,6,3Zm-3-7a6.859,6.859,0,0,1-2-1,.667.667,0,0,0-1,0,12.545,12.545,0,0,1-7,2c-.436,0,0,.564,0,1v5c0,2.711.218,4.957,2,7h-13c-1.307,0-3-.693-3-2v-18l12-10,12,10Z" transform="translate(18920.223 -2742.563)" fill="#9d9ac0"/>
  </g>
</svg>
