<svg id="icon-employees" xmlns="http://www.w3.org/2000/svg" width="36" height="36" viewBox="0 0 36 36">
  <path id="np_employee_2559513_000000" d="M40.688,32.786a2.932,2.932,0,0,0-2.014-2.719l-2.951-1.035V28.54a3.476,3.476,0,0,0,1.04-1.468,2.372,2.372,0,0,0,2.064-2.283V22.466a4.92,4.92,0,0,0-.621-2.384V17.107a2.932,2.932,0,0,0-2.014-2.719L33.24,13.354v-.492a3.476,3.476,0,0,0,1.04-1.468,2.372,2.372,0,0,0,2.064-2.283V6.789a5.421,5.421,0,0,0-5.586-5.226,5.421,5.421,0,0,0-5.586,5.226V9.111a2.372,2.372,0,0,0,2.064,2.283,3.476,3.476,0,0,0,1.04,1.468v.492l-2.332.819a4.993,4.993,0,0,0-3.009-1h-.245a6.467,6.467,0,0,0-3.389.949l-2.2-.771v-.492a3.476,3.476,0,0,0,1.04-1.468,2.372,2.372,0,0,0,2.064-2.283V6.789A5.421,5.421,0,0,0,14.62,1.563,5.421,5.421,0,0,0,9.034,6.789V9.111A2.372,2.372,0,0,0,11.1,11.395a3.476,3.476,0,0,0,1.04,1.468v.492L9.186,14.391a2.929,2.929,0,0,0-2.014,2.717v2.976a4.91,4.91,0,0,0-.621,2.382v2.323a2.372,2.372,0,0,0,2.064,2.283,3.476,3.476,0,0,0,1.04,1.468v.492L6.7,30.067a2.932,2.932,0,0,0-2.014,2.719V36.4h8.69v1.161H32V36.4h8.69Zm-9.931-3.745-1.547.576L25.171,27.9v-.941a4.159,4.159,0,0,0,1.446-1.608,2.571,2.571,0,0,0,1.061-.316,2.384,2.384,0,0,0,2.037,2.038,3.489,3.489,0,0,0,1.041,1.469ZM22.576,34.66H22.8l.372,1.742H22.2Zm.349-1.161h-.475l-.757-1.415.995-.745.993.743Zm-6.759-3.882-1.547-.576v-.5a3.476,3.476,0,0,0,1.04-1.468A2.385,2.385,0,0,0,17.7,25.034a2.563,2.563,0,0,0,1.061.316A4.171,4.171,0,0,0,20.2,26.959V27.9ZM9.653,25.95V23.588a5,5,0,0,0,2.483-.926,4.972,4.972,0,0,0,2.483.926V25.95a2.41,2.41,0,0,1-2.483,2.323A2.41,2.41,0,0,1,9.653,25.95ZM12.136,18.4a4.217,4.217,0,0,1,4.345,4.065v.322a2.593,2.593,0,0,0-1.241-.322h-.107a3.715,3.715,0,0,1-2.557-.991l-.439-.411-.439.411a3.715,3.715,0,0,1-2.557.991H9.033a2.593,2.593,0,0,0-1.241.322v-.322A4.217,4.217,0,0,1,12.136,18.4Zm6.232,5.659a1.117,1.117,0,0,1-.025-2.013v1.581A4,4,0,0,0,18.368,24.061Zm-2.508-.271a1.116,1.116,0,0,1,0,2Zm8.069,4.291-1.241,1.547L21.446,28.08v-.559a4.584,4.584,0,0,0,2.483,0Zm-1.241-1.549a3.011,3.011,0,0,1-3.1-2.9V20.7a7.052,7.052,0,0,0,3.1-1.018,7.052,7.052,0,0,0,3.1,1.018v2.929A3.011,3.011,0,0,1,22.688,26.531Zm-2.059,2.463,1.2,1.5L19.8,32.017l-1.161-2.173Zm2.917,1.5,1.2-1.5,1.994.848L25.58,32.015Zm3.487-6.866V22.047a1.117,1.117,0,0,1-.025,2.013A4,4,0,0,0,27.033,23.628Zm10.552-1.161v.322a2.593,2.593,0,0,0-1.241-.322H30.136a2.593,2.593,0,0,0-1.241.322v-.322a4.355,4.355,0,0,1,8.69,0Zm-8.069,3.323a1.116,1.116,0,0,1,0-2ZM32,29.231a3.893,3.893,0,0,0,2.483,0v.01L33.24,30.79,32,29.241Zm1.241-.958a2.41,2.41,0,0,1-2.483-2.323V23.628h4.966V25.95A2.41,2.41,0,0,1,33.24,28.273Zm3.724-2.484v-2a1.115,1.115,0,0,1,0,2Zm0-8.681v1.475a5.827,5.827,0,0,0-8.069.605V17.916a3.117,3.117,0,0,0-1.974-2.847l1.508-.528a2.53,2.53,0,0,0,4.655,0l2.672.938a1.756,1.756,0,0,1,1.207,1.63ZM30.757,12.6a2.41,2.41,0,0,1-2.483-2.323V7.91A7.049,7.049,0,0,0,31.3,6.954l0,0A3.737,3.737,0,0,0,33.24,7.9v2.376A2.41,2.41,0,0,1,30.757,12.6Zm3.724-2.484v-2a1.115,1.115,0,0,1,0,2ZM30.757,2.724A4.217,4.217,0,0,1,35.1,6.789v.322a2.593,2.593,0,0,0-1.241-.322,2.487,2.487,0,0,1-1.681-.65l-.723-.676-.736.459a5.8,5.8,0,0,1-3.068.868,2.593,2.593,0,0,0-1.241.322V6.789a4.217,4.217,0,0,1,4.345-4.065ZM26.412,9.112a1.147,1.147,0,0,1,.621-1v2A1.143,1.143,0,0,1,26.412,9.112Zm4.345,4.645a3.931,3.931,0,0,0,1.241-.2v.2a1.244,1.244,0,0,1-2.483,0v-.2A3.931,3.931,0,0,0,30.757,13.757Zm-7.824.581A3.622,3.622,0,0,1,25.9,15.821l.118.165.2.062a1.981,1.981,0,0,1,1.438,1.867v3.133a2.582,2.582,0,0,0-.621-.241V19.563h-.621a5.788,5.788,0,0,1-3.066-.868l-.658-.411-.658.409a5.776,5.776,0,0,1-3.066.87h-.621v1.244a2.523,2.523,0,0,0-.621.241V18.983a4.82,4.82,0,0,1,4.966-4.645ZM14.619,12.6a2.41,2.41,0,0,1-2.483-2.323V7.95H17.1v2.323A2.41,2.41,0,0,1,14.619,12.6Zm3.724-2.484v-2a1.115,1.115,0,0,1,0,2ZM14.619,2.725a4.217,4.217,0,0,1,4.345,4.065v.322a2.593,2.593,0,0,0-1.241-.322H11.516a2.593,2.593,0,0,0-1.241.322V6.789a4.217,4.217,0,0,1,4.345-4.065ZM10.274,9.112a1.147,1.147,0,0,1,.621-1v2A1.143,1.143,0,0,1,10.274,9.112Zm4.345,4.645a3.931,3.931,0,0,0,1.241-.2v.2a1.244,1.244,0,0,1-2.483,0v-.2A3.931,3.931,0,0,0,14.619,13.757Zm-5,1.72,2.671-.938a2.529,2.529,0,0,0,4.655,0l1.255.441a5.586,5.586,0,0,0-1.721,4v.206a5.829,5.829,0,0,0-8.069-.607V17.108a1.758,1.758,0,0,1,1.209-1.63ZM7.791,24.79a1.147,1.147,0,0,1,.621-1v2A1.143,1.143,0,0,1,7.791,24.79Zm4.345,4.645a3.931,3.931,0,0,0,1.241-.2v.01l-1.241,1.549-1.241-1.549v-.01A3.931,3.931,0,0,0,12.136,29.435ZM5.929,35.241V32.787a1.759,1.759,0,0,1,1.209-1.632l2.919-1.023,2.079,2.594,2.073-2.587.638.238a3.961,3.961,0,0,0-1.469,3.043v1.822Zm8.69-1.822a2.906,2.906,0,0,1,1.82-2.643l1.064-.453,1.87,3.5,1.33-1,.714,1.336L20.938,36.4H18.343V34.08H17.1V36.4H14.619ZM30.757,36.4H28.274V34.08H27.033V36.4H24.438l-.479-2.241.714-1.336,1.33,1,1.868-3.5,1.064.453a2.9,2.9,0,0,1,1.822,2.642Zm8.69-1.161H32V33.419a3.958,3.958,0,0,0-1.471-3.043l.638-.238,2.075,2.587,2.079-2.594,2.919,1.025a1.755,1.755,0,0,1,1.209,1.63Z" transform="translate(-4.689 -1.563)" fill="#8f9ab3"/>
</svg>
