<svg xmlns="http://www.w3.org/2000/svg" width="42.242" height="49.346" viewBox="0 0 42.242 49.346">
  <g id="icon-nav-tenant-services" transform="translate(-230.567 -616.014)">
    <g id="icon-marsad" transform="translate(230.567 616.014)">
      <g id="icon-marsad-2" data-name="icon-marsad" transform="translate(0 0)">
        <g id="Group_158598" data-name="Group 158598" transform="translate(0 0)">
          <g id="data-collection" transform="translate(6.215 29.196)">
            <path id="Path_26151" data-name="Path 26151" d="M7.685,32.735a1.03,1.03,0,1,1,0-2.055h20.8a1.03,1.03,0,1,1,0,2.055Z" transform="translate(-6.58 -30.68)" fill="#f7bf06" fill-rule="evenodd"/>
          </g>
          <g id="data-collection-2" data-name="data-collection">
            <path id="Path_26151-2" data-name="Path 26151" d="M42.233,30.88v-11A2.838,2.838,0,0,0,39.4,17.051H35.441V9.844A2.838,2.838,0,0,0,32.607,7.01H2.834A2.838,2.838,0,0,0,0,9.844V46.182a2.838,2.838,0,0,0,2.834,2.834H6.792v4.506a2.838,2.838,0,0,0,2.834,2.834H39.409a2.838,2.838,0,0,0,2.834-2.834V39.466ZM9.219,49.016v4.506a.377.377,0,0,0,.123.283.409.409,0,0,0,.283.123H39.409a.377.377,0,0,0,.283-.123.41.41,0,0,0,.123-.283V19.885a.377.377,0,0,0-.123-.283.393.393,0,0,0-.283-.123H35.451v26.7a2.838,2.838,0,0,1-2.834,2.834ZM32.607,9.438H2.834a.377.377,0,0,0-.283.123.41.41,0,0,0-.123.283V46.182a.393.393,0,0,0,.123.283.409.409,0,0,0,.283.123H32.617a.377.377,0,0,0,.283-.123.393.393,0,0,0,.123-.283V9.844a.42.42,0,0,0-.416-.406Z" transform="translate(0 -7.01)" fill="#9d9ac0" fill-rule="evenodd"/>
          </g>
        </g>
        <path id="Path_26153" data-name="Path 26153" d="M7.685,32.735a1.03,1.03,0,1,1,0-2.055H19.039a1.03,1.03,0,1,1,0,2.055Z" transform="translate(-0.364 3.174)" fill="#f7bf06" fill-rule="evenodd"/>
      </g>
    </g>
    <path id="property-agreement-icon_1_" data-name="property-agreement-icon (1)" d="M11.219,24.939V17.058a1.655,1.655,0,0,1-1.152.054,1.321,1.321,0,0,1-.63-.438,1.394,1.394,0,0,1-.273-.707,1.8,1.8,0,0,1,.43-1.321h0a.866.866,0,0,1,.061-.061L19.9,6.6a.384.384,0,0,1,.484-.023l10.243,7.973h0l.046.042a1.686,1.686,0,0,1,.476,1.555,1.409,1.409,0,0,1-.326.622,1.386,1.386,0,0,1-.58.384,1.586,1.586,0,0,1-1.217-.081v7.854h-1V16.639c0-.181-7.036-5.738-7.812-6.345-.822.626-7.992,6.141-7.992,6.375v8.28Zm8.952-8.929a4.34,4.34,0,0,1,4.336,4.328v4.609H15.843V20.338A4.34,4.34,0,0,1,20.171,16.01Zm.384.768v3.568h3.184a3.583,3.583,0,0,0-3.2-3.556Zm0,4.321v3.1h3.184V21.1Zm-.768,3.1V21.1H16.6v3.1Zm0-3.841V16.782a3.591,3.591,0,0,0-3.2,3.556h0Zm6.183-13.1h3.072v4.159L25.97,9.385Z" transform="translate(228.338 616.345)" fill="#9d9ac0" fill-rule="evenodd"/>
  </g>
</svg>
