<svg id="icon_-_pdf_-_Dark" data-name="icon - pdf - Dark" xmlns="http://www.w3.org/2000/svg" width="48" height="54.5" viewBox="0 0 48 54.5">
  <path id="Path_3609" data-name="Path 3609" d="M99.417,0A3.421,3.421,0,0,0,96,3.406V51.094A3.422,3.422,0,0,0,99.417,54.5h34.167A3.422,3.422,0,0,0,137,51.094V13.625L123.333,0Z" transform="translate(-89)" fill="#dbe3f2"/>
  <path id="Path_3610" data-name="Path 3610" d="M355.429,13.625h10.286L352,0V10.219A3.428,3.428,0,0,0,355.429,13.625Z" transform="translate(-317.714)" fill="#8f9ab3"/>
  <path id="Path_3611" data-name="Path 3611" d="M394.286,138.219,384,128h10.286Z" transform="translate(-346.286 -114.375)" fill="#c5d2e7"/>
  <path id="Path_3612" data-name="Path 3612" d="M73.143,258.734a1.714,1.714,0,0,1-1.714,1.7H33.714a1.714,1.714,0,0,1-1.714-1.7V241.7a1.714,1.714,0,0,1,1.714-1.7H71.429a1.714,1.714,0,0,1,1.714,1.7Z" transform="translate(-32 -214.453)" fill="#f7f9fd"/>
  <g id="Group_151455" data-name="Group 151455" transform="translate(7.473 31.329)">
    <path id="Path_3613" data-name="Path 3613" d="M101.744,295.26a.94.94,0,0,1,.931-.94h3.166a3.4,3.4,0,0,1,0,6.809h-2.289v1.8a.857.857,0,0,1-.878.938.921.921,0,0,1-.931-.938Zm1.809.775v3.393h2.289a1.7,1.7,0,0,0,0-3.393Z" transform="translate(-101.744 -294.32)" fill="#373068"/>
    <path id="Path_3614" data-name="Path 3614" d="M188.77,304.9a.856.856,0,0,1-.946-.843v-7.736a.93.93,0,0,1,.946-.845h3.139c6.264,0,6.127,9.423.123,9.423Zm.864-7.761v6.1h2.275c3.7,0,3.866-6.1,0-6.1Z" transform="translate(-178.601 -295.349)" fill="#373068"/>
    <path id="Path_3615" data-name="Path 3615" d="M288.929,297.229v2.165h3.5a1.057,1.057,0,0,1,.987.966.951.951,0,0,1-.987.817h-3.5v2.86a.809.809,0,0,1-.821.843.869.869,0,0,1-.972-.843V296.3a.864.864,0,0,1,.972-.845h4.812a.853.853,0,0,1,.96.845.944.944,0,0,1-.96.926h-3.991Z" transform="translate(-267.273 -295.335)" fill="#373068"/>
  </g>
  <path id="Path_3616" data-name="Path 3616" d="M128.571,417.7H96v1.7h32.571a1.714,1.714,0,0,0,1.714-1.7V416A1.714,1.714,0,0,1,128.571,417.7Z" transform="translate(-89.143 -371.719)" fill="#c5d2e7"/>
</svg>
