<svg xmlns="http://www.w3.org/2000/svg" width="44.738" height="38.117" viewBox="0 0 44.738 38.117">
  <g id="Group_158928" data-name="Group 158928" transform="translate(-815.183 -126.272)">
    <g id="Group_158927" data-name="Group 158927" transform="translate(815.182 143.599)">
      <g id="id-card" transform="translate(3.354 4.646)">
        <path id="Path_26656" data-name="Path 26656" d="M15.975,15.795a1.788,1.788,0,0,1,.555.469,4.4,4.4,0,0,1,.553,1.75.609.609,0,0,1-.639.6H12.2c0-.1.005-.191.005-.286l-.61-2.122.3-.327a.546.546,0,0,0,.1-.43c-.1-.411-.508-.348-.838-.348-.314,0-.65-.06-.812.262a.5.5,0,0,0,.089.519l.3.327-.61,2.122c.013.1.026.191.039.286H6.03a.612.612,0,0,1-.639-.6,4.4,4.4,0,0,1,.553-1.75A1.759,1.759,0,0,1,6.5,15.8c.65-.364,2.374-.477,3.018-.988.1-.212.2-.511.259-.7,0-.01-.005.016.026-.079.071-.215-.354-.634-.5-.862l-.529-.841a1.521,1.521,0,0,1-.3-.768.587.587,0,0,1,.052-.275.521.521,0,0,1,.181-.212.656.656,0,0,1,.128-.065A13.71,13.71,0,0,1,8.815,9.5a1.98,1.98,0,0,1,.065-.343,2.215,2.215,0,0,1,1.464-1.423c.33-.113.2-.385.534-.367a4.273,4.273,0,0,1,2.473,1.09c.655.755.487,1.685.464,2.607h0a.376.376,0,0,1,.278.288,1.187,1.187,0,0,1-.144.72h0a.128.128,0,0,0-.008.018l-.6.99a4.9,4.9,0,0,1-.781,1.058l-.047.042c.045.063.1.141.155.225.081.123.17.254.259.375A23.5,23.5,0,0,1,15.975,15.795Z" transform="translate(-5.391 -7.366)" fill="#9d9ac0" fill-rule="evenodd"/>
      </g>
      <g id="Rectangle_141821" data-name="Rectangle 141821" transform="translate(0 -0.327)" fill="none" stroke="#9d9ac0" stroke-width="1.5">
        <rect width="28.897" height="21.117" rx="3" stroke="none"/>
        <rect x="0.75" y="0.75" width="27.397" height="19.617" rx="2.25" fill="none"/>
      </g>
      <path id="Path_26659" data-name="Path 26659" d="M28.1,21.556c-.2,0-.364-.354-.364-.789s.162-.789.364-.789h8.153c.2,0,.364.354.364.789s-.162.789-.364.789Zm0-4.763c-.2,0-.364-.354-.364-.789s.162-.789.364-.789h7.773c.2,0,.364.354.364.789s-.162.789-.364.789H28.1Zm0-4.763c-.2,0-.364-.354-.364-.789s.162-.789.364-.789H33.3c.2,0,.364.354.364.789s-.162.789-.364.789Z" transform="translate(-10.949 -5.806)" fill="#f7bf06" stroke="#f7bf06" stroke-width="0.2" fill-rule="evenodd"/>
    </g>
    <path id="online-card-payment-icon" d="M37.893,2.112a14.786,14.786,0,0,0-3.444,1A16.6,16.6,0,0,0,31.81,4.54,15.143,15.143,0,0,0,29.549,6.4h0a15.46,15.46,0,0,0-1.228,1.383h4.464a34.58,34.58,0,0,1,5.107-5.674ZM53.8,24.9h.038a16.993,16.993,0,0,0,.792-1.611l.021-.045a14.523,14.523,0,0,0,.875-2.839,15.027,15.027,0,0,0,.273-2.14H51.513A15.336,15.336,0,0,1,49.542,24.9Zm-1.234,1.912H48.353a28.386,28.386,0,0,1-3.51,4.073V28.144q.605-.671,1.138-1.342H44.843V24.9h2.493A13.949,13.949,0,0,0,49.6,18.257H44.843v-.968a2.331,2.331,0,0,0-.207-.951h4.928A15.474,15.474,0,0,0,47.084,9.7H41.4v5.221H39.483V9.682H33.795A16.225,16.225,0,0,0,31.547,14.9H29.6a17.224,17.224,0,0,1,1.974-5.221H27.048a16.549,16.549,0,0,0-.8,1.608l-.021.045a14.617,14.617,0,0,0-.875,2.849c-.048.235-.09.477-.124.719H23.3c.052-.37.111-.733.183-1.093a16.851,16.851,0,0,1,.992-3.223l.024-.052a18.037,18.037,0,0,1,1.6-2.929,16.909,16.909,0,0,1,2.1-2.552,16.716,16.716,0,0,1,2.552-2.1,18.05,18.05,0,0,1,2.946-1.6A16.982,16.982,0,0,1,40.441,0,17.608,17.608,0,0,1,43.9.345a16.446,16.446,0,0,1,3.223.992l.052.021a18.2,18.2,0,0,1,2.946,1.6,17.044,17.044,0,0,1,4.661,4.647,18.328,18.328,0,0,1,1.611,2.943,16.521,16.521,0,0,1,1,3.282,17.936,17.936,0,0,1,0,6.94,16.342,16.342,0,0,1-1,3.212l-.021.052a18.327,18.327,0,0,1-1.591,2.936,16.716,16.716,0,0,1-2.1,2.552,16.909,16.909,0,0,1-2.552,2.1,18.037,18.037,0,0,1-2.946,1.6,16.556,16.556,0,0,1-2.341.8V32.055a15.245,15.245,0,0,0,1.587-.588,16.3,16.3,0,0,0,2.638-1.428,14.762,14.762,0,0,0,2.261-1.864h0a14.993,14.993,0,0,0,1.228-1.383ZM51.475,16.345h4.319a14.963,14.963,0,0,0-.273-2.14,14.776,14.776,0,0,0-.892-2.894,17.38,17.38,0,0,0-.8-1.629H49.3a16.37,16.37,0,0,1,2.172,6.643ZM35.154,7.783h4.329V3.243a35.312,35.312,0,0,0-4.329,4.54Zm6.224,0h4.347A35.312,35.312,0,0,0,41.4,3.243v4.54Zm6.7,0h4.468A15.462,15.462,0,0,0,51.316,6.4h0a14.97,14.97,0,0,0-2.261-1.864A16.283,16.283,0,0,0,46.43,3.112l-.048-.021a14.523,14.523,0,0,0-2.846-.878c-.18-.038-.346-.069-.55-.1a34.58,34.58,0,0,1,5.107,5.671Z" transform="translate(802.186 126.273)" fill="#9d9ac0"/>
  </g>
</svg>
