<svg id="icon_-_png_-_Dark" data-name="icon - png - Dark" xmlns="http://www.w3.org/2000/svg" width="48" height="54.5" viewBox="0 0 48 54.5">
  <path id="Path_4408" data-name="Path 4408" d="M99.417,0A3.421,3.421,0,0,0,96,3.406V51.094A3.421,3.421,0,0,0,99.417,54.5h34.167A3.421,3.421,0,0,0,137,51.094V13.625L123.333,0Z" transform="translate(-89)" fill="#dbe3f2"/>
  <path id="Path_4409" data-name="Path 4409" d="M355.429,13.625h10.286L352,0V10.219A3.428,3.428,0,0,0,355.429,13.625Z" transform="translate(-317.714)" fill="#8f9ab3"/>
  <path id="Path_4410" data-name="Path 4410" d="M394.286,138.219,384,128h10.286Z" transform="translate(-346.286 -114.375)" fill="#c5d2e7"/>
  <path id="Path_4411" data-name="Path 4411" d="M73.143,258.734a1.714,1.714,0,0,1-1.714,1.7H33.714a1.714,1.714,0,0,1-1.714-1.7V241.7a1.714,1.714,0,0,1,1.714-1.7H71.429a1.714,1.714,0,0,1,1.714,1.7Z" transform="translate(-32 -214.453)" fill="#f7f9fd"/>
  <g id="Group_152422" data-name="Group 152422" transform="translate(6.516 31.208)">
    <path id="Path_4412" data-name="Path 4412" d="M92.816,295.246a.94.94,0,0,1,.931-.942h3.168a3.4,3.4,0,0,1,0,6.809H94.623v1.8a.856.856,0,0,1-.876.94.921.921,0,0,1-.931-.94Zm1.807.775v3.391h2.29a1.7,1.7,0,0,0,0-3.391Z" transform="translate(-92.816 -294.185)" fill="#373068"/>
    <path id="Path_4413" data-name="Path 4413" d="M178.962,295.382c0-.492.11-.967.823-.967.492,0,.6.123.972.475l4.536,5.639v-5.283a.961.961,0,0,1,.864-.942,1.041,1.041,0,0,1,.972.942v7.666a.911.911,0,0,1-.727.94,1.382,1.382,0,0,1-1.109-.475l-4.536-5.721v5.258a.848.848,0,0,1-.864.94.9.9,0,0,1-.933-.94v-7.531Z" transform="translate(-169.73 -294.185)" fill="#373068"/>
    <path id="Path_4414" data-name="Path 4414" d="M282.326,301.8a5.224,5.224,0,0,1-3.372,1.145c-2.88,0-4.922-1.635-4.922-4.876a4.871,4.871,0,0,1,5.043-4.888,4.505,4.505,0,0,1,3.125,1.2.885.885,0,0,1-1.191,1.308,2.9,2.9,0,0,0-1.934-.858,3.256,3.256,0,0,0-3.261,3.239,3.023,3.023,0,0,0,3.139,3.241,3.5,3.5,0,0,0,2.055-.613v-1.672h-2.055a.833.833,0,1,1,0-1.664h2.741a.937.937,0,0,1,.972.806v2.9A1.1,1.1,0,0,1,282.326,301.8Z" transform="translate(-254.616 -293.184)" fill="#373068"/>
  </g>
  <path id="Path_4415" data-name="Path 4415" d="M128.571,417.7H96v1.7h32.571a1.714,1.714,0,0,0,1.714-1.7V416A1.714,1.714,0,0,1,128.571,417.7Z" transform="translate(-89.143 -371.719)" fill="#c5d2e7"/>
</svg>
