<svg id="icon-nav-information-service" xmlns="http://www.w3.org/2000/svg" width="52" height="52" viewBox="0 0 52 52">
  <rect id="Rectangle_259" data-name="Rectangle 259" width="52" height="52" fill="rgba(0,0,0,0)"/>
  <path id="Path_26693" data-name="Path 26693" d="M43.83,24A19.828,19.828,0,1,0,63.658,43.828,19.828,19.828,0,0,0,43.83,24Z" transform="translate(-17.829 -17.828)" fill="none" stroke="#9d9ac0" stroke-width="2"/>
  <g id="Group_158946" data-name="Group 158946" transform="translate(22.95 15.323)">
    <g id="Group_158945" data-name="Group 158945" transform="translate(0.646 0.508)">
      <g id="Path_26695" data-name="Path 26695" transform="translate(0.404 -0.103)" fill="#f7bf06">
        <path d="M 2 3.771517515182495 C 1.172899961471558 3.771517515182495 0.5 3.037717342376709 0.5 2.135757446289062 C 0.5 1.233797430992126 1.172899961471558 0.4999974370002747 2 0.4999974370002747 C 2.827100038528442 0.4999974370002747 3.5 1.233797430992126 3.5 2.135757446289062 C 3.5 3.037717342376709 2.827100038528442 3.771517515182495 2 3.771517515182495 Z" stroke="none"/>
        <path d="M 2 0.9999973773956299 C 1.448600053787231 0.9999973773956299 1 1.509497404098511 1 2.135757446289062 C 1 2.762017488479614 1.448600053787231 3.271517515182495 2 3.271517515182495 C 2.551399946212769 3.271517515182495 3 2.762017488479614 3 2.135757446289062 C 3 1.509497404098511 2.551399946212769 0.9999973773956299 2 0.9999973773956299 M 2 -2.384185791015625e-06 C 3.104569911956787 -2.384185791015625e-06 4 0.9562075138092041 4 2.135757446289062 C 4 3.315307378768921 3.104569911956787 4.271517276763916 2 4.271517276763916 C 0.8954300880432129 4.271517276763916 0 3.315307378768921 0 2.135757446289062 C 0 0.9562075138092041 0.8954300880432129 -2.384185791015625e-06 2 -2.384185791015625e-06 Z" stroke="none" fill="#f7bf06"/>
      </g>
      <g id="Path_26696" data-name="Path 26696" transform="translate(1.051 7.163) rotate(-3)" fill="#f7bf06">
        <path d="M 1.929127931594849 12.98793601989746 C 1.537937879562378 12.98793601989746 1.219247817993164 12.94881534576416 1.216077923774719 12.94841575622559 L 1.169917821884155 12.94266605377197 L 1.122567892074585 12.94256591796875 C 0.8624306917190552 12.94256591796875 0.4084398746490479 12.76002216339111 0.2504387497901917 12.62368583679199 L 0.7664378881454468 2.777715682983398 L 0.7948378920555115 2.235925674438477 L 0.2891478836536407 2.039405584335327 C -0.4620228409767151 1.747474551200867 -0.7930200695991516 1.523776173591614 -0.9337466955184937 1.400977969169617 C -0.8029286861419678 1.305153608322144 -0.5440751314163208 1.160268902778625 -0.09192212671041489 1.009585618972778 C 0.4163397252559662 0.8401914238929749 0.8948500156402588 0.7559680938720703 1.005507707595825 0.7499955892562866 L 2.067327976226807 0.7499955892562866 C 2.194122314453125 0.7499955892562866 2.299173593521118 0.8448801636695862 2.315208435058594 0.96737140417099 C 2.263779163360596 1.366064310073853 2.008214473724365 3.423614501953125 1.901997923851013 5.729265689849854 C 1.658677816390991 11.01113605499268 2.466757774353027 12.14663600921631 2.732297897338867 12.519775390625 C 2.845721960067749 12.67915534973145 2.897881031036377 12.7876033782959 2.921811103820801 12.85204315185547 C 2.792701721191406 12.90896320343018 2.489524126052856 12.98793601989746 1.929127931594849 12.98793601989746 Z" stroke="none"/>
        <path d="M 1.043087124824524 1.499995231628418 C 1.02939236164093 1.501734733581543 1.011969089508057 1.504263877868652 0.9912204742431641 1.507603645324707 L 1.473324298858643 1.694969177246094 C 1.480947256088257 1.626543045043945 1.488305568695068 1.5615234375 1.495362043380737 1.499995231628418 L 1.043087124824524 1.499995231628418 M 1.169400334358215 9.419273376464844 L 1.025227785110474 12.17028331756592 C 1.066152095794678 12.18158721923828 1.104038715362549 12.18961906433105 1.13371753692627 12.19251441955566 L 1.21392834186554 12.19214534759521 L 1.307878375053406 12.20405578613281 C 1.310081005096436 12.20432472229004 1.485456943511963 12.22543430328369 1.727215051651001 12.23419189453125 C 1.48894989490509 11.65984916687012 1.272104024887085 10.79807090759277 1.169400334358215 9.419273376464844 M 0.9999983310699463 -4.76837158203125e-06 L 2.067328453063965 -4.76837158203125e-06 C 2.619608402252197 -4.76837158203125e-06 3.067328453063965 0.4477157592773438 3.067328453063965 0.999995231628418 C 3.067328453063965 0.999995231628418 1.865658402442932 10.00845527648926 3.343358278274536 12.08491516113281 C 4.82105827331543 14.16137504577637 1.122568368911743 13.69256591796875 1.122568368911743 13.69256591796875 C 0.570288360118866 13.69256591796875 -0.5055716037750244 13.2710657119751 -0.5055716037750244 12.71878528594971 L 0.01746833324432373 2.738465309143066 C -4.263801574707031 1.074615478515625 0.4477183520793915 -4.76837158203125e-06 0.9999983310699463 -4.76837158203125e-06 Z" stroke="none" fill="#f7bf06"/>
      </g>
    </g>
    <path id="Path_26694" data-name="Path 26694" d="M35.3,28.5a2.288,2.288,0,1,1-2.288,2.288A2.288,2.288,0,0,1,35.3,28.5Zm1.525,21.353H35.3a1.524,1.524,0,0,1-1.525-1.525V39.177a1.525,1.525,0,0,1,0-3.05H35.3a1.524,1.524,0,0,1,1.525,1.525V46.8a1.525,1.525,0,1,1,0,3.05Z" transform="translate(-32.251 -28.5)" fill="none" stroke="#f7bf06" stroke-width="1"/>
  </g>
</svg>
