<svg id="icon_-_jpg_-_Dark" data-name="icon - jpg - Dark" xmlns="http://www.w3.org/2000/svg" width="48" height="54.5" viewBox="0 0 48 54.5">
  <path id="Path_4400" data-name="Path 4400" d="M99.417,0A3.421,3.421,0,0,0,96,3.406V51.094A3.421,3.421,0,0,0,99.417,54.5h34.167A3.421,3.421,0,0,0,137,51.094V13.625L123.333,0Z" transform="translate(-89)" fill="#dbe3f2"/>
  <path id="Path_4401" data-name="Path 4401" d="M355.429,13.625h10.286L352,0V10.219A3.428,3.428,0,0,0,355.429,13.625Z" transform="translate(-317.714)" fill="#8f9ab3"/>
  <path id="Path_4402" data-name="Path 4402" d="M394.286,138.219,384,128h10.286Z" transform="translate(-346.286 -114.375)" fill="#c5d2e7"/>
  <path id="Path_4403" data-name="Path 4403" d="M73.143,258.734a1.714,1.714,0,0,1-1.714,1.7H33.714a1.714,1.714,0,0,1-1.714-1.7V241.7a1.714,1.714,0,0,1,1.714-1.7H71.429a1.714,1.714,0,0,1,1.714,1.7Z" transform="translate(-32 -214.453)" fill="#f7f9fd"/>
  <g id="Group_152421" data-name="Group 152421" transform="translate(7.006 31.209)">
    <path id="Path_4404" data-name="Path 4404" d="M102.169,295.946a.906.906,0,0,1,1.81,0v5.378c0,2.139-1.029,3.434-3.4,3.434a3.451,3.451,0,0,1-2.988-1.4c-.7-.831.617-2.028,1.33-1.158a2.045,2.045,0,0,0,1.795.845c.766-.027,1.44-.37,1.454-1.717v-5.378h0Z" transform="translate(-97.394 -294.887)" fill="#373068"/>
    <path id="Path_4405" data-name="Path 4405" d="M181.344,295.26a.94.94,0,0,1,.933-.94h3.166a3.4,3.4,0,0,1,0,6.809h-2.289v1.8a.857.857,0,0,1-.878.938.922.922,0,0,1-.933-.938V295.26Zm1.81.775v3.393h2.289a1.7,1.7,0,0,0,0-3.393Z" transform="translate(-172.349 -294.201)" fill="#373068"/>
    <path id="Path_4406" data-name="Path 4406" d="M273.462,301.818a5.215,5.215,0,0,1-3.372,1.145c-2.88,0-4.922-1.633-4.922-4.876a4.871,4.871,0,0,1,5.043-4.886,4.5,4.5,0,0,1,3.125,1.2.885.885,0,0,1-1.191,1.308,2.905,2.905,0,0,0-1.934-.858,3.256,3.256,0,0,0-3.261,3.239,3.024,3.024,0,0,0,3.139,3.243,3.516,3.516,0,0,0,2.055-.613v-1.674H270.09a.832.832,0,1,1,0-1.662h2.741a.936.936,0,0,1,.972.8v2.9A1.093,1.093,0,0,1,273.462,301.818Z" transform="translate(-247.192 -293.2)" fill="#373068"/>
  </g>
  <path id="Path_4407" data-name="Path 4407" d="M128.571,417.7H96v1.7h32.571a1.714,1.714,0,0,0,1.714-1.7V416A1.714,1.714,0,0,1,128.571,417.7Z" transform="translate(-89.143 -371.719)" fill="#c5d2e7"/>
</svg>
