<svg xmlns="http://www.w3.org/2000/svg" width="19.25" height="22.737" viewBox="0 0 19.25 22.737">
  <path id="icon-draft-rich" d="M58.979,30.374l-6.118-6.118-.027-.025c-.012-.011-.023-.022-.036-.032l-.025-.019-.043-.032-.021-.013-.053-.032-.015-.007c-.021-.011-.041-.021-.063-.03h-.01c-.023-.009-.046-.018-.07-.025h-.011q-.036-.01-.072-.018h-.024c-.02,0-.04-.007-.061-.009a.866.866,0,0,0-.087,0h-10.5a1.752,1.752,0,0,0-1.75,1.75V45a1.752,1.752,0,0,0,1.75,1.75h15.75A1.752,1.752,0,0,0,59.243,45V31a.872.872,0,0,0-.264-.626ZM53.118,40.625h-7a.875.875,0,0,1,0-1.75h7a.875.875,0,0,1,0,1.75Zm0-3.5h-7a.875.875,0,0,1,0-1.75h7a.875.875,0,0,1,0,1.75ZM52.243,31V26.112L57.131,31Z" transform="translate(-39.993 -24.013)" fill="#d98e28"/>
</svg>
