<svg xmlns="http://www.w3.org/2000/svg" width="21.267" height="14.5" viewBox="0 0 21.267 14.5">
  <path id="icon-quick-vew" d="M50.636-788.642a3.955,3.955,0,0,0,2.909-1.2,3.969,3.969,0,0,0,1.2-2.912,3.955,3.955,0,0,0-1.2-2.909,3.97,3.97,0,0,0-2.912-1.2,3.956,3.956,0,0,0-2.909,1.2,3.97,3.97,0,0,0-1.2,2.912,3.955,3.955,0,0,0,1.2,2.909A3.969,3.969,0,0,0,50.636-788.642Zm-.009-1.4a2.6,2.6,0,0,1-1.916-.791,2.626,2.626,0,0,1-.785-1.921,2.6,2.6,0,0,1,.791-1.916,2.626,2.626,0,0,1,1.921-.785,2.6,2.6,0,0,1,1.916.791,2.625,2.625,0,0,1,.785,1.921,2.6,2.6,0,0,1-.791,1.916A2.626,2.626,0,0,1,50.628-790.043Zm.006,4.543A12.966,12.966,0,0,1,49-785.613a10.445,10.445,0,0,1-4.746-1.893A12.22,12.22,0,0,1,40-792.75a12.22,12.22,0,0,1,4.253-5.244A10.832,10.832,0,0,1,50.633-800a10.832,10.832,0,0,1,6.38,2.006,12.22,12.22,0,0,1,4.253,5.244,12.22,12.22,0,0,1-4.253,5.244A10.831,10.831,0,0,1,50.633-785.5ZM50.633-792.75Zm0,5.8a9.725,9.725,0,0,0,5.381-1.583,10.272,10.272,0,0,0,3.734-4.217,10.281,10.281,0,0,0-3.73-4.217,9.7,9.7,0,0,0-5.377-1.583,9.724,9.724,0,0,0-5.381,1.583A10.444,10.444,0,0,0,41.5-792.75a10.454,10.454,0,0,0,3.754,4.217A9.705,9.705,0,0,0,50.629-786.95Z" transform="translate(-40 800)" fill="#0d102c"/>
</svg>
