<svg xmlns="http://www.w3.org/2000/svg" width="23.082" height="30.275" viewBox="0 0 23.082 30.275">
  <g id="icon-plan" transform="translate(0.75 0.75)">
    <line id="Line_361" data-name="Line 361" x2="2.149" transform="translate(18.046 3.689)" fill="none" stroke="#9d9ac0" stroke-linecap="round" stroke-linejoin="round" stroke-miterlimit="2.613" stroke-width="1.5"/>
    <path id="Path_4426" data-name="Path 4426" d="M397.066,82.7a1.394,1.394,0,0,1,1.387,1.4" transform="translate(-376.871 -79.007)" fill="none" stroke="#9d9ac0" stroke-linecap="round" stroke-linejoin="round" stroke-miterlimit="2.613" stroke-width="1.5"/>
    <line id="Line_362" data-name="Line 362" y2="22.279" transform="translate(21.582 5.092)" fill="none" stroke="#9d9ac0" stroke-linecap="round" stroke-linejoin="round" stroke-miterlimit="2.613" stroke-width="1.5"/>
    <path id="Path_4427" data-name="Path 4427" d="M398.454,453.047a1.4,1.4,0,0,1-1.387,1.4" transform="translate(-376.872 -425.676)" fill="none" stroke="#9d9ac0" stroke-linecap="round" stroke-linejoin="round" stroke-miterlimit="2.613" stroke-width="1.5"/>
    <line id="Line_363" data-name="Line 363" x1="18.808" transform="translate(1.387 28.775)" fill="none" stroke="#9d9ac0" stroke-linecap="round" stroke-linejoin="round" stroke-miterlimit="2.613" stroke-width="1.5"/>
    <path id="Path_4428" data-name="Path 4428" d="M82.631,454.451a1.4,1.4,0,0,1-1.387-1.4" transform="translate(-81.244 -425.676)" fill="none" stroke="#9d9ac0" stroke-linecap="round" stroke-linejoin="round" stroke-miterlimit="2.613" stroke-width="1.5"/>
    <line id="Line_364" data-name="Line 364" y1="22.279" transform="translate(0 5.092)" fill="none" stroke="#9d9ac0" stroke-linecap="round" stroke-linejoin="round" stroke-miterlimit="2.613" stroke-width="1.5"/>
    <path id="Path_4429" data-name="Path 4429" d="M81.244,84.1a1.4,1.4,0,0,1,1.387-1.4" transform="translate(-81.244 -79.008)" fill="none" stroke="#9d9ac0" stroke-linecap="round" stroke-linejoin="round" stroke-miterlimit="2.613" stroke-width="1.5"/>
    <line id="Line_365" data-name="Line 365" x2="1.853" transform="translate(1.387 3.689)" fill="none" stroke="#9d9ac0" stroke-linecap="round" stroke-linejoin="round" stroke-miterlimit="2.613" stroke-width="1.5"/>
    <path id="Path_4430" data-name="Path 4430" d="M290.563,46.156h-3.572v-.305" transform="translate(-273.835 -44.518)" fill="none" stroke="#9d9ac0" stroke-linecap="round" stroke-linejoin="round" stroke-miterlimit="2.613" stroke-width="1.5"/>
    <path id="Path_4431" data-name="Path 4431" d="M267.735,26.333A1.325,1.325,0,0,0,266.42,25" transform="translate(-254.579 -25)" fill="none" stroke="#9d9ac0" stroke-linecap="round" stroke-linejoin="round" stroke-miterlimit="2.613" stroke-width="1.5"/>
    <line id="Line_366" data-name="Line 366" x1="2.097" transform="translate(9.744)" fill="none" stroke="#9d9ac0" stroke-linecap="round" stroke-linejoin="round" stroke-miterlimit="2.613" stroke-width="1.5"/>
    <path id="Path_4432" data-name="Path 4432" d="M214.313,25a1.326,1.326,0,0,0-1.319,1.333" transform="translate(-204.569 -25)" fill="none" stroke="#9d9ac0" stroke-linecap="round" stroke-linejoin="round" stroke-miterlimit="2.613" stroke-width="1.5"/>
    <path id="Path_4433" data-name="Path 4433" d="M160.75,45.851v.305h-3.569" transform="translate(-152.325 -44.518)" fill="none" stroke="#9d9ac0" stroke-linecap="round" stroke-linejoin="round" stroke-miterlimit="2.613" stroke-width="1.5"/>
    <path id="Path_4434" data-name="Path 4434" d="M137.9,50.625a1.326,1.326,0,0,0-1.317,1.335" transform="translate(-133.043 -48.986)" fill="none" stroke="#9d9ac0" stroke-linecap="round" stroke-linejoin="round" stroke-miterlimit="2.613" stroke-width="1.5"/>
    <path id="Path_4435" data-name="Path 4435" d="M136.582,71.5v2.836h14.507V71.5" transform="translate(-133.043 -68.529)" fill="none" stroke="#9d9ac0" stroke-linecap="round" stroke-linejoin="round" stroke-miterlimit="2.613" stroke-width="1.5"/>
    <path id="Path_4436" data-name="Path 4436" d="M344.176,51.96a1.325,1.325,0,0,0-1.317-1.335" transform="translate(-326.13 -48.986)" fill="none" stroke="#9d9ac0" stroke-linecap="round" stroke-linejoin="round" stroke-miterlimit="2.613" stroke-width="1.5"/>
    <g id="Group_152700" data-name="Group 152700" transform="translate(3.604 11.235)">
      <line id="Line_367" data-name="Line 367" x2="1.191" y2="1.107" transform="translate(0 1.309)" fill="none" stroke="#f7bf06" stroke-linecap="round" stroke-width="1.5"/>
      <line id="Line_368" data-name="Line 368" x1="2.187" y2="2.417" transform="translate(1.191)" fill="none" stroke="#f7bf06" stroke-linecap="round" stroke-width="1.5"/>
    </g>
    <line id="Line_369" data-name="Line 369" x2="8.924" transform="translate(9.056 12.69)" fill="none" stroke="#9d9ac0" stroke-linecap="round" stroke-linejoin="round" stroke-miterlimit="2.613" stroke-width="1.5"/>
    <line id="Line_370" data-name="Line 370" x2="8.924" transform="translate(9.056 23.503)" fill="none" stroke="#9d9ac0" stroke-linecap="round" stroke-linejoin="round" stroke-miterlimit="2.613" stroke-width="1.5"/>
    <line id="Line_371" data-name="Line 371" x2="8.924" transform="translate(9.056 18.175)" fill="none" stroke="#9d9ac0" stroke-linecap="round" stroke-linejoin="round" stroke-miterlimit="2.613" stroke-width="1.5"/>
  </g>
</svg>
