<svg xmlns="http://www.w3.org/2000/svg" width="16" height="16.001" viewBox="0 0 16 16.001">
  <g id="Group_156180" data-name="Group 156180" transform="translate(-1.106 -1)">
    <path id="Subtraction_1" data-name="Subtraction 1" d="M8,0A8,8,0,1,1,0,8,8,8,0,0,1,8,0Z" transform="translate(1.105 1)" fill="#267ad2"/>
    <path id="Path_4449" data-name="Path 4449" d="M31.357,50.456l.009-.014.008-.012.008-.016.006-.011.007-.016.005-.013.005-.015,0-.014,0-.016,0-.015c0-.006,0-.012,0-.018s0-.008,0-.013a.364.364,0,0,0,0-.064s0-.008,0-.013,0-.012,0-.018l0-.015,0-.016,0-.014-.005-.015-.005-.013-.007-.016-.006-.011-.008-.016-.008-.012-.009-.014-.013-.016-.006-.007-1.713-1.93a.263.263,0,0,0-.4,0,.351.351,0,0,0,0,.455l1.225,1.381H27.711A3.972,3.972,0,0,0,24,54.112a.288.288,0,1,0,.571,0,3.361,3.361,0,0,1,3.14-3.539h2.736l-1.225,1.381a.351.351,0,0,0,0,.455.263.263,0,0,0,.4,0l1.713-1.93.006-.007Z" transform="translate(-18.551 -42.216)" fill="#fff" stroke="#fff" stroke-width="0.5"/>
  </g>
</svg>
