<svg xmlns="http://www.w3.org/2000/svg" width="32.964" height="36.769" viewBox="0 0 32.964 36.769">
  <g id="icon-health-insurance" transform="translate(-763 -357.202)">
    <g id="Group_157731" data-name="Group 157731" transform="translate(337.51 -8)">
      <path id="Path_13389" data-name="Path 13389" d="M619.55,631.252a4.951,4.951,0,0,1-2.514-1.574,5.827,5.827,0,0,1-1.1-2.824h0c-.163,0-.625-.149-1.411-.3-.774,0-1.874-.174-2.662-.174s-1.725.174-2.511.174c-.788.151-1.412.3-1.575.3a4.943,4.943,0,0,1-.937,2.824,5.914,5.914,0,0,1-2.512,1.574,22.387,22.387,0,0,0,.151,2.35h0a19.933,19.933,0,0,0,.636,2.349,14.671,14.671,0,0,0,6.749,7.824,15.014,15.014,0,0,0,4.7-3.75,15.3,15.3,0,0,0,2.2-4.074c.311-.95.463-1.724.625-2.349a20.713,20.713,0,0,0,.163-2.35Zm-8.623,8.123h0V636.1h-3.3v-2.05h3.3v-3.274h2.024v3.274h3.3v2.05h-3.3v3.273Zm7.2-10.472h0a3.642,3.642,0,0,0,1.724.924l.489.175h0c.312.15.612.3.612.6v.651s0,1.075-.151,2.5a20.1,20.1,0,0,1-.788,2.65,14.925,14.925,0,0,1-2.349,4.4,15.919,15.919,0,0,1-5.173,4.223l-.313.149h-.636l-.151-.149h-.163a18.735,18.735,0,0,1-4.548-3.6A17.308,17.308,0,0,1,603.7,636.4a20.031,20.031,0,0,1-.626-2.65h0a24.579,24.579,0,0,1-.162-2.5V630.6c0-.3.162-.449.475-.6l.624-.175a3.58,3.58,0,0,0,1.726-.924,4.9,4.9,0,0,0,.788-2.05v-.474A.839.839,0,0,1,607,625.6h.463c.162,0,.787-.151,1.573-.325a20.072,20.072,0,0,1,2.825-.3,15.965,15.965,0,0,1,2.811.3,2.905,2.905,0,0,1,1.574.325h.625a.84.84,0,0,1,.475.775v.474a3.287,3.287,0,0,0,.774,2.05Z" transform="translate(-162.495 -243.201)" fill="#9d9ac0"/>
    </g>
    <path id="Path_13392" data-name="Path 13392" d="M5.943,18a.882.882,0,0,1,0-1.763h6.5a.882.882,0,0,1,0,1.763Zm0-5.145a.882.882,0,0,1,0-1.763h13.3a.882.882,0,0,1,0,1.763Zm0-5.145a.882.882,0,0,1,0-1.76h13.3a.882.882,0,0,1,0,1.76Z" transform="translate(763 357.396)" fill="#9d9ac0" fill-rule="evenodd"/>
    <path id="Path_13393" data-name="Path 13393" d="M25.058,5.375h2.8a2,2,0,0,1,2,2l-.1,7.839-1.613-.276V7.372a.258.258,0,0,0-.089-.2.283.283,0,0,0-.2-.086h-2.8V13.9c-.562-.307-1.13-.663-1.7-1.026h0V2a.267.267,0,0,0-.086-.2.307.307,0,0,0-.2-.089H2a.27.27,0,0,0-.2.089.273.273,0,0,0-.089.2V25.961a.27.27,0,0,0,.089.2.283.283,0,0,0,.2.086h9.055q.175.882.393,1.714H6.515v3.185a.258.258,0,0,0,.089.2.273.273,0,0,0,.2.089h5.851c.255.6.538,1.167.835,1.714H6.8a2,2,0,0,1-2-2V27.976H2A2.009,2.009,0,0,1,0,25.97V2.012A2,2,0,0,1,2,0H23.055a2,2,0,0,1,2,2V5.381Z" transform="translate(763 357.202)" fill="#9d9ac0" fill-rule="evenodd"/>
    <g id="Group_158608" data-name="Group 158608" transform="translate(337.51 -8)">
      <path id="Path_13389-2" data-name="Path 13389" d="M619.55,631.252C618.436,630.927,619.55,631.4,619.55,631.252Zm-8.623,8.123h0V636.1h-3.3v-2.05h3.3v-3.274h2.024v3.274h3.3v2.05h-3.3v3.273Zm-6.912-9.548C604.8,629.677,603.078,630.151,604.015,629.827Z" transform="translate(-162.495 -243.201)" fill="#f7bf06"/>
    </g>
  </g>
</svg>
