<svg id="icon_-_xls_-_Dark" data-name="icon - xls - Dark" xmlns="http://www.w3.org/2000/svg" width="48" height="54.5" viewBox="0 0 48 54.5">
  <path id="Path_4392" data-name="Path 4392" d="M99.417,0A3.421,3.421,0,0,0,96,3.406V51.094A3.421,3.421,0,0,0,99.417,54.5h34.167A3.421,3.421,0,0,0,137,51.094V13.625L123.333,0Z" transform="translate(-89)" fill="#dbe3f2"/>
  <path id="Path_4393" data-name="Path 4393" d="M355.429,13.625h10.286L352,0V10.219A3.428,3.428,0,0,0,355.429,13.625Z" transform="translate(-317.714)" fill="#8f9ab3"/>
  <path id="Path_4394" data-name="Path 4394" d="M394.286,138.219,384,128h10.286Z" transform="translate(-346.286 -114.375)" fill="#c5d2e7"/>
  <path id="Path_4395" data-name="Path 4395" d="M73.143,258.734a1.714,1.714,0,0,1-1.714,1.7H33.714a1.714,1.714,0,0,1-1.714-1.7V241.7a1.714,1.714,0,0,1,1.714-1.7H71.429a1.714,1.714,0,0,1,1.714,1.7Z" transform="translate(-32 -214.453)" fill="#f7f9fd"/>
  <g id="Group_152420" data-name="Group 152420" transform="translate(7.846 31.019)">
    <path id="Path_4396" data-name="Path 4396" d="M109.416,298.359l2.385-2.969c.713-.927,2.1.257,1.317,1.143-.821.967-1.685,2.017-2.508,3.091l2.8,3.459a.9.9,0,1,1-1.493.993l-2.523-3.214-2.481,3.284c-.7.993-2.249-.123-1.467-1.049l2.755-3.473c-.864-1.076-1.7-2.124-2.535-3.091a.884.884,0,1,1,1.371-1.114Z" transform="translate(-105.226 -294.656)" fill="#373068"/>
    <path id="Path_4397" data-name="Path 4397" d="M197.36,296.175a.852.852,0,0,1,.864-.831.833.833,0,0,1,.809.831V303h3.729a.9.9,0,1,1,0,1.783h-4.536a.825.825,0,0,1-.864-.829v-7.776Z" transform="translate(-187.488 -294.925)" fill="#373068"/>
    <path id="Path_4398" data-name="Path 4398" d="M270.706,293.884c.315-2.643,4.33-3.118,6.223-1.674a.8.8,0,1,1-.878,1.334c-1.015-.639-3.317-.938-3.605.475-.37,2.234,5.592.955,5.5,4.578-.1,3.459-5.139,3.539-7.032,1.988a1,1,0,0,1-.192-1.335.813.813,0,0,1,1.221-.094c1.123.761,4.017,1.334,4.221-.6C275.982,296.541,270.28,297.751,270.706,293.884Z" transform="translate(-252.834 -291.407)" fill="#373068"/>
  </g>
  <path id="Path_4399" data-name="Path 4399" d="M128.571,417.7H96v1.7h32.571a1.714,1.714,0,0,0,1.714-1.7V416A1.714,1.714,0,0,1,128.571,417.7Z" transform="translate(-89.143 -371.719)" fill="#c5d2e7"/>
</svg>
