<svg xmlns="http://www.w3.org/2000/svg" width="29.388" height="24.011" viewBox="0 0 29.388 24.011">
  <g id="icon-fine" transform="translate(-0.001 -0.001)">
    <path id="Path_26283" data-name="Path 26283" d="M28.621,22.718,28.3,22.35l-1.514,1.514h0a.437.437,0,0,1-.615,0l-1.543-1.5-1.509,1.452a.436.436,0,0,1-.612.017l-1.6-1.481-1.454,1.5a.287.287,0,0,1-.026.029.439.439,0,0,1-.622,0l-1.526-1.526-1.574,1.5h0a.441.441,0,0,1-.612-.007l-1.5-1.512-.311.359a.441.441,0,0,1-.794-.263V16.566a2.17,2.17,0,0,0,.3.026,1.959,1.959,0,0,0,.576-.077V21.3a.437.437,0,0,1,.49.057.113.113,0,0,1,.024.024h0l1.526,1.54,1.571-1.495a.438.438,0,0,1,.612.007h0l1.514,1.512,1.464-1.509a.441.441,0,0,1,.612-.017h0l1.614,1.49,1.531-1.469a.438.438,0,0,1,.612,0l1.533,1.49,1.54-1.54a.439.439,0,0,1,.5-.086h0V9.377H20.4a1.981,1.981,0,0,0,.038-.428,2.071,2.071,0,0,0-.057-.452h8.572a.44.44,0,0,1,.44.44V22.431h0a.444.444,0,0,1-.153.332.434.434,0,0,1-.615-.045Zm-7.474-8.144a.344.344,0,0,1,0-.689h5.03a.344.344,0,1,1,0,.689Zm-1.6.471-1.277.2a1.428,1.428,0,0,0-.172-.335.826.826,0,0,0-.254-.187v.99a3.72,3.72,0,0,1,1.39.586,1.351,1.351,0,0,1,.462,1.052,1.438,1.438,0,0,1-.165.684,1.713,1.713,0,0,1-.423.521,1.761,1.761,0,0,1-.55.3,2.641,2.641,0,0,1-.713.11v.466h-.5v-.466a3.146,3.146,0,0,1-.818-.16,1.656,1.656,0,0,1-.541-.325,1.591,1.591,0,0,1-.349-.447,2.1,2.1,0,0,1-.184-.581l1.382-.16a1.264,1.264,0,0,0,.167.486.853.853,0,0,0,.344.265v-1.21a6.681,6.681,0,0,1-.983-.332,1.329,1.329,0,0,1-.5-.45,1.308,1.308,0,0,1-.213-.756,1.361,1.361,0,0,1,.426-1.019,1.932,1.932,0,0,1,1.27-.454V13.49h.5v.337a2.1,2.1,0,0,1,1.174.364,1.417,1.417,0,0,1,.529.854Zm-2.2-.34a.643.643,0,0,0-.306.179.379.379,0,0,0-.086.249.4.4,0,0,0,.088.261.649.649,0,0,0,.3.187v-.875Zm.5,3.375a.787.787,0,0,0,.423-.215.485.485,0,0,0,.136-.335.45.45,0,0,0-.115-.3,1.029,1.029,0,0,0-.447-.251v1.1ZM15,4.093h0A1.211,1.211,0,0,1,15.019,5.8l-.251.251,2.014,1.98-5.1,4.913L9.723,10.912,2.072,18.563a1.211,1.211,0,0,1-1.708-.022h0a1.211,1.211,0,0,1-.022-1.708l7.68-7.68-1.536-1.6,4.819-4.913,1.724,1.691.263-.263a1.207,1.207,0,0,1,1.7.022Zm-3.9-3.8h0a.965.965,0,0,1,.017,1.359L5.492,7.269a.965.965,0,0,1-1.359-.017h0a.965.965,0,0,1-.017-1.359L9.735.273A.962.962,0,0,1,11.094.29Zm7.989,7.989h0A.962.962,0,0,1,19.1,9.637L13.478,15.26a.965.965,0,0,1-1.359-.017h0a.962.962,0,0,1-.017-1.359l5.621-5.621a.96.96,0,0,1,1.359.014Zm5.24,9.921a.324.324,0,0,1,0,.648H21.192a.324.324,0,0,1,0-.648Zm1.837-2.16a.324.324,0,1,1,0,.648H21.192a.324.324,0,0,1,0-.648Z" transform="translate(0 0)" fill="#919ab1"/>
  </g>
</svg>
