<svg xmlns="http://www.w3.org/2000/svg" width="23.868" height="28.346" viewBox="0 0 23.868 28.346">
  <g id="icon-voucher-details" transform="translate(-384.75 -510.75)">
    <g id="application-approved-icon" transform="translate(389 527.158)">
      <path id="Path_26863" data-name="Path 26863" d="M12.006,12.158a.424.424,0,0,0,0-.846H3.574a.424.424,0,0,0,0,.846Zm5.7,6.9a.424.424,0,0,0,0-.846H3.538a.424.424,0,0,0,0,.846Zm-2.864-3.449a.424.424,0,0,0,0-.846H3.574a.424.424,0,0,0,0,.846Z" transform="translate(-3.14 -11.312)" fill="#919ab1" stroke="#919ab1" stroke-width="0.5" fill-rule="evenodd"/>
    </g>
    <g id="application-approved-icon-2" data-name="application-approved-icon" transform="translate(385 511)">
      <path id="Path_26863-2" data-name="Path 26863" d="M.267,27.649A.457.457,0,0,1,0,27.234V.453A.453.453,0,0,1,.453,0H22.915a.453.453,0,0,1,.453.453V24.866a.687.687,0,0,1,0,.07,3.051,3.051,0,0,1-.875,2.08,3.368,3.368,0,0,1-2.2.825.516.516,0,0,1-.059,0H.641a.457.457,0,0,1-.374-.2Zm22.2-2.794V.9H.9V26.942h19.33a2.506,2.506,0,0,0,1.632-.578,2.206,2.206,0,0,0,.6-1.509Z" fill="#919ab1" stroke="#919ab1" stroke-width="0.5" fill-rule="evenodd"/>
    </g>
    <path id="voucher-icon" d="M4.065,7.613a.961.961,0,0,1-.378.37,1.763,1.763,0,0,1-.8.133c-.373,0-.56-.1-.56-.3a.368.368,0,0,1,.023-.09L6.394.571a2.061,2.061,0,0,1,.188-.28A.941.941,0,0,1,6.9.1a1.458,1.458,0,0,1,.57-.1c.473,0,.708.1.708.308a.22.22,0,0,1-.023.1ZM2.216,4.361a3.752,3.752,0,0,1-.876-.09,2.021,2.021,0,0,1-.69-.32A2.114,2.114,0,0,1,0,2.134Q0,.786.685.383A2.787,2.787,0,0,1,2.216.008,2.887,2.887,0,0,1,3.757.383a1.949,1.949,0,0,1,.685,1.751A2.153,2.153,0,0,1,3.79,3.95,2.724,2.724,0,0,1,2.216,4.361Zm0-1.108a.185.185,0,0,0,.148-.068,1.389,1.389,0,0,0,.148-.81,5.83,5.83,0,0,0-.045-.9.665.665,0,0,0-.1-.3.193.193,0,0,0-.148-.058c-.2,0-.3.355-.3,1.068s.1,1.066.3,1.066Zm6,4.978a3.752,3.752,0,0,1-.873-.09,1.974,1.974,0,0,1-.69-.315,2.124,2.124,0,0,1-.65-1.816,1.932,1.932,0,0,1,.685-1.751A2.719,2.719,0,0,1,8.22,3.87a2.824,2.824,0,0,1,1.556.385,1.925,1.925,0,0,1,.683,1.751,2.137,2.137,0,0,1-.65,1.816,2.709,2.709,0,0,1-1.576.41Zm0-1.106a.208.208,0,0,0,.15-.058,1.451,1.451,0,0,0,.148-.823,5.853,5.853,0,0,0-.045-.9.678.678,0,0,0-.1-.3.208.208,0,0,0-.15-.058c-.2,0-.3.355-.3,1.068S8.022,7.125,8.22,7.125Z" transform="translate(392.408 514.374) rotate(17)" fill="#919ab1"/>
  </g>
</svg>
