<svg id="icon-mpay" xmlns="http://www.w3.org/2000/svg" width="52" height="52" viewBox="0 0 52 52">
  <rect id="Rectangle_259" data-name="Rectangle 259" width="52" height="52" fill="rgba(0,0,0,0)"/>
  <g id="icon-mpay-2" data-name="icon-mpay" transform="translate(3.152 5.181)">
    <g id="Group_158941" data-name="Group 158941" transform="translate(0 0)">
      <path id="online-card-payment-icon_1_" data-name="online-card-payment-icon (1)" d="M24.751,2.308A16.158,16.158,0,0,0,20.987,3.4,18.138,18.138,0,0,0,18.1,4.961,16.548,16.548,0,0,0,15.633,7h0a16.894,16.894,0,0,0-1.341,1.511h4.878a37.787,37.787,0,0,1,5.581-6.2ZM1.938,20.121h24.89a1.942,1.942,0,0,1,1.938,1.938V38.467a1.95,1.95,0,0,1-1.938,1.938H1.938A1.942,1.942,0,0,1,0,38.467V22.06a1.95,1.95,0,0,1,1.938-1.938ZM19.03,31.454a2.6,2.6,0,0,1,2.09,1.05,2.6,2.6,0,1,1,0,3.106,2.6,2.6,0,1,1-2.09-4.157ZM1.338,24.127H27.411V22.06a.6.6,0,0,0-.178-.423.608.608,0,0,0-.4-.178H1.938a.593.593,0,0,0-.6.6v2.067ZM27.411,29.27H1.338v9.2a.6.6,0,0,0,.174.427.593.593,0,0,0,.423.178H26.829a.6.6,0,0,0,.423-.181.574.574,0,0,0,.181-.423v-9.2Zm14.718-2.063h.042a18.57,18.57,0,0,0,.865-1.761l.023-.049a15.87,15.87,0,0,0,.956-3.1,16.422,16.422,0,0,0,.3-2.339H39.635a16.759,16.759,0,0,1-2.154,7.251ZM40.78,29.3h-4.6a31.02,31.02,0,0,1-3.835,4.451V30.755q.661-.733,1.243-1.466H32.346V27.206H35.07a15.243,15.243,0,0,0,2.479-7.255h-5.2V18.893a2.547,2.547,0,0,0-.227-1.039H37.5A16.909,16.909,0,0,0,34.795,10.6H28.579V16.3h-2.09V10.58H20.273a17.73,17.73,0,0,0-2.456,5.706H15.689a18.822,18.822,0,0,1,2.158-5.706H12.9a18.085,18.085,0,0,0-.869,1.757l-.023.049a15.972,15.972,0,0,0-.956,3.114c-.053.257-.1.521-.136.786H8.8c.057-.4.121-.8.2-1.194a18.414,18.414,0,0,1,1.084-3.522l.026-.057a19.71,19.71,0,0,1,1.746-3.2,18.478,18.478,0,0,1,2.3-2.789A18.266,18.266,0,0,1,16.948,3.23a19.725,19.725,0,0,1,3.219-1.75A18.557,18.557,0,0,1,27.536,0a19.241,19.241,0,0,1,3.779.378,17.972,17.972,0,0,1,3.522,1.084l.057.023a19.884,19.884,0,0,1,3.219,1.75,18.626,18.626,0,0,1,5.094,5.079,20.027,20.027,0,0,1,1.761,3.216,18.055,18.055,0,0,1,1.1,3.586,19.6,19.6,0,0,1,0,7.584,17.858,17.858,0,0,1-1.1,3.51l-.023.057a20.028,20.028,0,0,1-1.738,3.208,18.267,18.267,0,0,1-2.294,2.789,18.478,18.478,0,0,1-2.789,2.3A19.709,19.709,0,0,1,34.9,36.306a18.091,18.091,0,0,1-2.558.877V35.028a16.663,16.663,0,0,0,1.734-.642,17.809,17.809,0,0,0,2.883-1.561,16.131,16.131,0,0,0,2.471-2.037h0a16.384,16.384,0,0,0,1.341-1.511ZM39.593,17.862h4.72a16.35,16.35,0,0,0-.3-2.339,16.146,16.146,0,0,0-.975-3.163,18.992,18.992,0,0,0-.869-1.78H37.22a17.888,17.888,0,0,1,2.373,7.259ZM21.758,8.505h4.731V3.544a38.588,38.588,0,0,0-4.731,4.961Zm6.8,0h4.75a38.588,38.588,0,0,0-4.731-4.961V8.505Zm7.319,0h4.882A16.894,16.894,0,0,0,39.42,6.994h0a16.358,16.358,0,0,0-2.471-2.037A17.794,17.794,0,0,0,34.08,3.4l-.053-.023a15.87,15.87,0,0,0-3.11-.96c-.2-.042-.378-.076-.6-.11a37.787,37.787,0,0,1,5.581,6.2Z" transform="translate(0 0.001)" fill="#9d9ac0"/>
      <path id="online-card-payment-icon_1_2" data-name="online-card-payment-icon (1)" d="M6.623,49.565a.567.567,0,0,1-.611-.349.993.993,0,0,1,0-.866A.567.567,0,0,1,6.623,48h6.246a.853.853,0,0,1,0,1.564Zm0-3.754a.853.853,0,0,1,0-1.564h9.268a.567.567,0,0,1,.611.349.993.993,0,0,1,0,.866.567.567,0,0,1-.611.349Z" transform="translate(-2.347 -12.906)" fill="#f7bf06"/>
    </g>
  </g>
</svg>
