<svg xmlns="http://www.w3.org/2000/svg" width="27.943" height="36.756" viewBox="0 0 27.943 36.756">
  <g id="icon-noc-service-requests" transform="translate(0.75 0.75)">
    <line id="Line_361" data-name="Line 361" x2="2.633" transform="translate(22.111 4.52)" fill="none" stroke="#9d9ac0" stroke-linecap="round" stroke-linejoin="round" stroke-miterlimit="2.613" stroke-width="1.5"/>
    <path id="Path_4426" data-name="Path 4426" d="M397.066,82.7a1.708,1.708,0,0,1,1.7,1.719" transform="translate(-372.322 -78.176)" fill="none" stroke="#9d9ac0" stroke-linecap="round" stroke-linejoin="round" stroke-miterlimit="2.613" stroke-width="1.5"/>
    <line id="Line_362" data-name="Line 362" y2="27.297" transform="translate(26.443 6.239)" fill="none" stroke="#9d9ac0" stroke-linecap="round" stroke-linejoin="round" stroke-miterlimit="2.613" stroke-width="1.5"/>
    <path id="Path_4427" data-name="Path 4427" d="M398.766,453.047a1.71,1.71,0,0,1-1.7,1.72" transform="translate(-372.323 -419.511)" fill="none" stroke="#9d9ac0" stroke-linecap="round" stroke-linejoin="round" stroke-miterlimit="2.613" stroke-width="1.5"/>
    <line id="Line_363" data-name="Line 363" x1="23.044" transform="translate(1.699 35.256)" fill="none" stroke="#9d9ac0" stroke-linecap="round" stroke-linejoin="round" stroke-miterlimit="2.613" stroke-width="1.5"/>
    <path id="Path_4428" data-name="Path 4428" d="M82.943,454.767a1.71,1.71,0,0,1-1.7-1.72" transform="translate(-81.244 -419.511)" fill="none" stroke="#9d9ac0" stroke-linecap="round" stroke-linejoin="round" stroke-miterlimit="2.613" stroke-width="1.5"/>
    <line id="Line_364" data-name="Line 364" y1="27.297" transform="translate(0 6.239)" fill="none" stroke="#9d9ac0" stroke-linecap="round" stroke-linejoin="round" stroke-miterlimit="2.613" stroke-width="1.5"/>
    <path id="Path_4429" data-name="Path 4429" d="M81.244,84.416a1.709,1.709,0,0,1,1.7-1.719" transform="translate(-81.244 -78.177)" fill="none" stroke="#9d9ac0" stroke-linecap="round" stroke-linejoin="round" stroke-miterlimit="2.613" stroke-width="1.5"/>
    <line id="Line_365" data-name="Line 365" x2="2.27" transform="translate(1.699 4.52)" fill="none" stroke="#9d9ac0" stroke-linecap="round" stroke-linejoin="round" stroke-miterlimit="2.613" stroke-width="1.5"/>
    <path id="Path_4430" data-name="Path 4430" d="M291.368,46.225h-4.377v-.374" transform="translate(-270.871 -44.217)" fill="none" stroke="#9d9ac0" stroke-linecap="round" stroke-linejoin="round" stroke-miterlimit="2.613" stroke-width="1.5"/>
    <path id="Path_4431" data-name="Path 4431" d="M268.032,26.634A1.623,1.623,0,0,0,266.42,25" transform="translate(-251.912 -25)" fill="none" stroke="#9d9ac0" stroke-linecap="round" stroke-linejoin="round" stroke-miterlimit="2.613" stroke-width="1.5"/>
    <line id="Line_366" data-name="Line 366" x1="2.57" transform="translate(11.938)" fill="none" stroke="#9d9ac0" stroke-linecap="round" stroke-linejoin="round" stroke-miterlimit="2.613" stroke-width="1.5"/>
    <path id="Path_4432" data-name="Path 4432" d="M214.61,25a1.625,1.625,0,0,0-1.616,1.634" transform="translate(-202.672 -25)" fill="none" stroke="#9d9ac0" stroke-linecap="round" stroke-linejoin="round" stroke-miterlimit="2.613" stroke-width="1.5"/>
    <path id="Path_4433" data-name="Path 4433" d="M161.554,45.851v.374h-4.373" transform="translate(-151.232 -44.217)" fill="none" stroke="#9d9ac0" stroke-linecap="round" stroke-linejoin="round" stroke-miterlimit="2.613" stroke-width="1.5"/>
    <path id="Path_4434" data-name="Path 4434" d="M138.2,50.625a1.625,1.625,0,0,0-1.614,1.636" transform="translate(-132.246 -48.617)" fill="none" stroke="#9d9ac0" stroke-linecap="round" stroke-linejoin="round" stroke-miterlimit="2.613" stroke-width="1.5"/>
    <path id="Path_4435" data-name="Path 4435" d="M136.582,71.5v3.475h17.775V71.5" transform="translate(-132.246 -67.86)" fill="none" stroke="#9d9ac0" stroke-linecap="round" stroke-linejoin="round" stroke-miterlimit="2.613" stroke-width="1.5"/>
    <path id="Path_4436" data-name="Path 4436" d="M344.473,52.261a1.623,1.623,0,0,0-1.614-1.636" transform="translate(-322.362 -48.617)" fill="none" stroke="#9d9ac0" stroke-linecap="round" stroke-linejoin="round" stroke-miterlimit="2.613" stroke-width="1.5"/>
    <g id="Group_152700" data-name="Group 152700" transform="translate(4.415 13.765)">
      <line id="Line_367" data-name="Line 367" x2="1.459" y2="1.357" transform="translate(0 1.604)" fill="none" stroke="#f7bf06" stroke-linecap="round" stroke-width="1.5"/>
      <line id="Line_368" data-name="Line 368" x1="2.679" y2="2.961" transform="translate(1.459)" fill="none" stroke="#f7bf06" stroke-linecap="round" stroke-width="1.5"/>
    </g>
    <line id="Line_369" data-name="Line 369" x2="10.934" transform="translate(11.096 15.549)" fill="none" stroke="#9d9ac0" stroke-linecap="round" stroke-linejoin="round" stroke-miterlimit="2.613" stroke-width="1.5"/>
    <line id="Line_370" data-name="Line 370" x2="10.934" transform="translate(11.096 28.797)" fill="none" stroke="#9d9ac0" stroke-linecap="round" stroke-linejoin="round" stroke-miterlimit="2.613" stroke-width="1.5"/>
    <line id="Line_371" data-name="Line 371" x2="10.934" transform="translate(11.096 22.269)" fill="none" stroke="#9d9ac0" stroke-linecap="round" stroke-linejoin="round" stroke-miterlimit="2.613" stroke-width="1.5"/>
  </g>
</svg>
