<svg xmlns="http://www.w3.org/2000/svg" width="16" height="16" viewBox="0 0 16 16">
  <g id="icon-draft-classic" transform="translate(-122.999 -446)">
    <path id="icon-approved-classic" d="M8,0A8,8,0,1,1,0,8,8,8,0,0,1,8,0Z" transform="translate(122.999 446)" fill="#d98e28"/>
    <path id="Path_209" data-name="Path 209" d="M47.589,26.558,45.141,24.11l-.011-.01-.014-.013-.01-.008-.017-.013-.008-.005-.021-.013-.006,0-.025-.012h0L45,24.024h0l-.029-.007h-.01c-.008,0-.016,0-.024,0H40.693a.7.7,0,0,0-.7.7v7.7a.7.7,0,0,0,.7.7h6.3a.7.7,0,0,0,.7-.7v-5.6A.349.349,0,0,0,47.589,26.558Zm-2.345,4.1h-2.8a.35.35,0,1,1,0-.7h2.8a.35.35,0,0,1,0,.7Zm0-1.4h-2.8a.35.35,0,1,1,0-.7h2.8a.35.35,0,0,1,0,.7Zm-.35-2.45V24.853l1.956,1.956Z" transform="translate(87.156 425.438)" fill="#fff"/>
  </g>
</svg>
