<svg xmlns="http://www.w3.org/2000/svg" width="19.069" height="22.535" viewBox="0 0 19.069 22.535">
  <path id="icon-trash" d="M50.271,19.467H46.3V18.6A2.5,2.5,0,0,0,43.915,16H39.147a2.5,2.5,0,0,0-2.384,2.6v.867H32.791a.87.87,0,0,0,0,1.733h.795V36.8a1.668,1.668,0,0,0,1.589,1.733H47.887A1.668,1.668,0,0,0,49.476,36.8V21.2h.795a.87.87,0,0,0,0-1.733Zm-10.329,13a.8.8,0,1,1-1.589,0V25.534a.8.8,0,1,1,1.589,0Zm4.767,0a.8.8,0,1,1-1.589,0V25.534a.8.8,0,1,1,1.589,0Zm0-13H38.353V18.6a.834.834,0,0,1,.795-.867h4.767a.834.834,0,0,1,.795.867Z" transform="translate(-31.996 -16)" fill="#d9d9d9"/>
</svg>
