<svg xmlns="http://www.w3.org/2000/svg" width="20.223" height="23.716" viewBox="0 0 20.223 23.716">
  <g id="icon-undertacking" transform="translate(-375.095 -1538.748)">
    <path id="Path_13341" data-name="Path 13341" d="M58.951,30.364l-6.108-6.108-.027-.025c-.012-.011-.023-.022-.036-.032l-.025-.019-.043-.032-.021-.013c-.017-.011-.035-.022-.053-.032l-.015-.007c-.02-.011-.041-.021-.063-.03l-.01,0c-.023-.009-.046-.018-.07-.025l-.01,0c-.024-.007-.048-.013-.072-.018l-.024,0c-.02,0-.04-.007-.061-.009a.865.865,0,0,0-.087,0H41.74a1.749,1.749,0,0,0-1.747,1.747V44.968a1.749,1.749,0,0,0,1.747,1.747H57.467a1.749,1.749,0,0,0,1.747-1.747V31.006c0-.006,0-.011,0-.017A.871.871,0,0,0,58.951,30.364Zm-6.726.625v-4.88l4.88,4.88Z" transform="translate(335.603 1515.248)" fill="none" stroke="#0d102c" stroke-width="1"/>
    <path id="Path_13342" data-name="Path 13342" d="M3,8.828H9.262v1.414H3ZM3,7.414H9.262V6H3ZM3,13.07H6.985V11.656H3Z" transform="translate(374.908 1541.726)" fill="#0d102c"/>
    <path id="Path_26276" data-name="Path 26276" d="M13.661,10.4l.662-.783a.832.832,0,0,1,1.316,0l.663.783a1.245,1.245,0,0,1,0,1.556l-.663.783ZM13,11.184,8.053,17.032v2.339h1.978l4.945-5.848Z" transform="translate(376.657 1539.51)" fill="#0d102c"/>
  </g>
</svg>
