<svg id="icon-nav-appointment" xmlns="http://www.w3.org/2000/svg" width="52" height="52" viewBox="0 0 52 52">
  <rect id="Rectangle_259" data-name="Rectangle 259" width="52" height="52" fill="rgba(0,0,0,0)"/>
  <g id="icon-nav-appointment-2" data-name="icon-nav-appointment" transform="translate(-416.85 -1333.595)">
    <g id="icon-nav-appointment-3" data-name="icon-nav-appointment" transform="translate(422.469 1338.001)">
      <path id="Path_4367" data-name="Path 4367" d="M40.214,5.864h-3.03V2.833A2.023,2.023,0,0,0,35.164.813H31.123a2.023,2.023,0,0,0-2.02,2.02v3.03H14.958V2.833a2.023,2.023,0,0,0-2.02-2.02H8.894a2.023,2.023,0,0,0-2.02,2.02v3.03H3.843a3.034,3.034,0,0,0-3.03,3.03V40.213a3.034,3.034,0,0,0,3.03,3.03H40.216a3.034,3.034,0,0,0,3.03-3.03V8.894a3.034,3.034,0,0,0-3.033-3.03Zm-9.091-3.03h4.042V8.894H31.123Zm-22.228,0h4.042V8.894H8.894ZM41.228,40.214a1.011,1.011,0,0,1-1.011,1.011H3.843a1.011,1.011,0,0,1-1.011-1.011V17.988h38.4Zm0-24.246H2.833V8.894A1.011,1.011,0,0,1,3.845,7.883H6.874v3.033H14.96V7.885H29.1v3.03h8.086V7.885h3.023A1.011,1.011,0,0,1,41.225,8.9Z" transform="translate(-0.813 -0.813)" fill="#9e99c3"/>
      <rect id="Rectangle_140480" data-name="Rectangle 140480" width="4.176" height="2.087" transform="translate(23.448 22.19)" fill="#f7bf06"/>
      <rect id="Rectangle_140481" data-name="Rectangle 140481" width="4.176" height="2.087" transform="translate(31.502 22.19)" fill="#f7bf06"/>
      <rect id="Rectangle_140482" data-name="Rectangle 140482" width="4.176" height="2.087" transform="translate(15.394 27.233)" fill="#f7bf06"/>
      <rect id="Rectangle_140483" data-name="Rectangle 140483" width="4.176" height="2.087" transform="translate(23.448 27.233)" fill="#f7bf06"/>
      <rect id="Rectangle_140484" data-name="Rectangle 140484" width="4.176" height="2.087" transform="translate(31.502 27.233)" fill="#f7bf06"/>
      <rect id="Rectangle_140485" data-name="Rectangle 140485" width="4.176" height="2.087" transform="translate(15.394 32.276)" fill="#f7bf06"/>
      <rect id="Rectangle_140486" data-name="Rectangle 140486" width="4.176" height="2.087" transform="translate(23.448 32.276)" fill="#f7bf06"/>
      <rect id="Rectangle_140487" data-name="Rectangle 140487" width="4.176" height="2.087" transform="translate(31.502 32.276)" fill="#f7bf06"/>
    </g>
  </g>
</svg>
