<svg xmlns="http://www.w3.org/2000/svg" width="41.928" height="33.246" viewBox="0 0 41.928 33.246">
  <g id="icon-receipts" transform="translate(-398.925 -643.419)">
    <path id="Path_5112" data-name="Path 5112" d="M41.929,28.7a.749.749,0,0,0-.819-.649H35.377V3.247A2.939,2.939,0,0,0,34.164.941,4.63,4.63,0,0,0,31.3,0H4.1C1.838,0,0,1.457,0,3.247v1.3a.749.749,0,0,0,.819.649H6.552V30c0,1.79,1.837,3.247,4.094,3.247H37.834c2.258,0,4.094-1.456,4.094-3.247ZM6.552,3.9H1.639V3.247A2.25,2.25,0,0,1,4.1,1.3,2.25,2.25,0,0,1,6.552,3.247ZM37.834,31.948H13.92A2.823,2.823,0,0,0,14.741,30V29.35h9.09a.667.667,0,1,0,0-1.3H13.922a.938.938,0,0,0-.579.19.59.59,0,0,0-.24.459V30a2.25,2.25,0,0,1-2.457,1.948A2.25,2.25,0,0,1,8.19,30V3.247A2.823,2.823,0,0,0,7.369,1.3h23.91a2.763,2.763,0,0,1,1.731.563,1.765,1.765,0,0,1,.73,1.385v24.8H31.2a.667.667,0,1,0,0,1.3h9.09V30A2.25,2.25,0,0,1,37.834,31.948Z" transform="translate(398.924 643.419)" fill="#9d9ac0"/>
    <path id="Path_5113" data-name="Path 5113" d="M130.652,241.3h15.065a.65.65,0,0,0,0-1.3H130.652a.65.65,0,0,0,0,1.3Z" transform="translate(282.266 421.533)" fill="#f7bf06"/>
    <path id="Path_5115" data-name="Path 5115" d="M140.072,384.652c0-.359-.179-.649-.4-.649H130.4c-.221,0-.4.291-.4.649s.179.649.4.649h9.27C139.893,385.3,140.072,385.011,140.072,384.652Z" transform="translate(281.703 282)" fill="#f7bf06"/>
    <path id="Path_5116" data-name="Path 5116" d="M130.652,129.722H132.1a.649.649,0,0,0,0-1.3h-1.452a.649.649,0,0,0,0,1.3Z" transform="translate(279.766 524.712)" fill="#9d9ac0"/>
    <path id="Path_5118" data-name="Path 5118" d="M340.287,129.722h1.452a.649.649,0,1,0,0-1.3h-1.452a.649.649,0,0,0,0,1.3Z" transform="translate(87.619 524.712)" fill="#9d9ac0"/>
    <path id="Path_5119" data-name="Path 5119" d="M326.648,432h0a.649.649,0,1,0,.65.649A.649.649,0,0,0,326.647,432Z" transform="translate(99.848 239.468)" fill="#9d9ac0"/>
    <path id="Path_26154" data-name="Path 26154" d="M1813.317,3355.4a2.569,2.569,0,0,0-1.961,2.4,2.616,2.616,0,0,0,2.341,2.479c.065.01.13.02.2.025a1.482,1.482,0,0,1,1.392,1.355,1.524,1.524,0,0,1-1.59,1.368c-.023,0-.045.006-.069.006a1.73,1.73,0,0,1-1.445-.7l-.816.816a2.868,2.868,0,0,0,1.949,1.017v.418h1.154v-.519a2.57,2.57,0,0,0,1.961-2.4,2.642,2.642,0,0,0-2.538-2.5,1.96,1.96,0,0,1-.2-.042,1.319,1.319,0,0,1,0-2.626,1.937,1.937,0,0,1,.463-.061,1.73,1.73,0,0,1,1.445.7l.816-.816a2.867,2.867,0,0,0-1.949-1.017v-.418h-1.154Z" transform="translate(-1394.431 -2705.949)" fill="#9d9ac0"/>
  </g>
</svg>
