<svg xmlns="http://www.w3.org/2000/svg" width="22.5" height="15" viewBox="0 0 22.5 15">
  <path id="Path_26080" data-name="Path 26080" d="M30.436,55.188a13.263,13.263,0,0,0-2.592-3.6,12.067,12.067,0,0,0-17.186,0,13.263,13.263,0,0,0-2.592,3.6.75.75,0,0,0,0,.609,13.261,13.261,0,0,0,2.593,3.6,12.068,12.068,0,0,0,17.186,0,13.261,13.261,0,0,0,2.593-3.6A.75.75,0,0,0,30.436,55.188ZM19.25,52.118a3.375,3.375,0,1,1-3.375,3.375A3.375,3.375,0,0,1,19.25,52.118Z" transform="translate(-8 -47.992)" fill="#a187bf"/>
</svg>
