<svg xmlns="http://www.w3.org/2000/svg" width="31.9" height="30.535" viewBox="0 0 31.9 30.535">
  <g id="Group_156684" data-name="Group 156684" transform="translate(-710.255 -1081.015)">
    <path id="setting-bell-notification-icon" d="M18.347,1.859a10.57,10.57,0,0,1,2.2.963,9.783,9.783,0,0,0-1.917.933A8.835,8.835,0,0,0,17.5,3.374a.845.845,0,0,1-.6-.583,1.446,1.446,0,0,0-.667-.855,1.836,1.836,0,0,0-.93-.242,1.771,1.771,0,0,0-.921.239,1.417,1.417,0,0,0-.644.846.854.854,0,0,1-.616.589A8.974,8.974,0,0,0,6.5,10.415a21.615,21.615,0,0,0-.158,3.93l.019,1.233a10.7,10.7,0,0,1-1.1,5.079,10.3,10.3,0,0,1-3.366,3.658H28.652A10.961,10.961,0,0,1,25.9,21.667a9.7,9.7,0,0,0,1.723-.535,10.106,10.106,0,0,0,2.212,1.943,1.569,1.569,0,0,1,.657.9l.013.055a1.646,1.646,0,0,1-.508,1.58l-.075.059a1.577,1.577,0,0,1-.976.333l-8.493,0-.006.022a5.226,5.226,0,0,1-10.355-.02H1.6a1.567,1.567,0,0,1-1.093-.429,1.621,1.621,0,0,1-.449-.744l-.014-.057a1.634,1.634,0,0,1,.012-.809,1.576,1.576,0,0,1,.694-.93,8.8,8.8,0,0,0,3.007-3.168,9.09,9.09,0,0,0,.906-4.3l-.012-1.207a22.9,22.9,0,0,1,.183-4.254,10.664,10.664,0,0,1,7.441-8.273A3.066,3.066,0,0,1,13.508.481a3.58,3.58,0,0,1,3.579,0,3.1,3.1,0,0,1,1.259,1.382Zm5.51,2.162a8.043,8.043,0,1,1-5.688,2.356,8.019,8.019,0,0,1,5.688-2.356Zm4.713,3.33a6.667,6.667,0,1,0,1.952,4.713A6.647,6.647,0,0,0,28.57,7.351Z" transform="translate(710.255 1081.016)" fill="#9d9ac0"/>
    <path id="setting-bell-notification-icon-2" data-name="setting-bell-notification-icon" d="M30.564,9.99a.434.434,0,0,0-.28.181l-.388.547a3.52,3.52,0,0,0-.881-.235l-.121-.715a.451.451,0,0,0-.176-.281.415.415,0,0,0-.326-.068l-.9.16a.443.443,0,0,0-.281.174.419.419,0,0,0-.077.327l.114.654a3.327,3.327,0,0,0-.783.471l-.608-.419a.406.406,0,0,0-.319-.076.445.445,0,0,0-.281.183l-.517.737a.425.425,0,0,0-.075.326.415.415,0,0,0,.183.281l.546.388a3.558,3.558,0,0,0-.234.881l-.715.121a.445.445,0,0,0-.282.175.416.416,0,0,0-.069.326l.16.9a.446.446,0,0,0,.175.281.413.413,0,0,0,.327.076l.653-.113a3.779,3.779,0,0,0,.471.79l-.418.6a.4.4,0,0,0-.075.319.435.435,0,0,0,.183.281l.745.525a.418.418,0,0,0,.325.069.467.467,0,0,0,.29-.175l.386-.555a3.659,3.659,0,0,0,.883.236l.121.714a.434.434,0,0,0,.174.281.412.412,0,0,0,.327.068l.9-.159A.451.451,0,0,0,30,18.089a.418.418,0,0,0,.075-.326l-.113-.654a3.72,3.72,0,0,0,.789-.472l.6.418a.427.427,0,0,0,.607-.107l.524-.745a.417.417,0,0,0,.069-.325.466.466,0,0,0-.174-.29l-.555-.379a3.58,3.58,0,0,0,.234-.881l.715-.121a.441.441,0,0,0,.282-.176.407.407,0,0,0,.069-.326l-.16-.9a.446.446,0,0,0-.175-.28.416.416,0,0,0-.327-.077l-.653.115a3.458,3.458,0,0,0-.471-.783l.418-.609a.4.4,0,0,0,.075-.318.441.441,0,0,0-.183-.283l-.737-.515A.9.9,0,0,0,30.564,9.99Zm-1.951,2.016A1.916,1.916,0,1,1,26.7,13.922,1.916,1.916,0,0,1,28.613,12.006Z" transform="translate(705.295 1079.158)" fill="#f7bf06"/>
  </g>
</svg>
