<svg xmlns="http://www.w3.org/2000/svg" width="38.668" height="29.421" viewBox="0 0 38.668 29.421">
  <g id="icon-wrc" transform="translate(-29.073 -14.284)">
    <path id="Rectangle_141030" data-name="Rectangle 141030" d="M1.681,1.261a.421.421,0,0,0-.42.42V28.16H29V1.681a.421.421,0,0,0-.42-.42H1.681M1.681,0h26.9a1.681,1.681,0,0,1,1.681,1.681v27.74H0V1.681A1.681,1.681,0,0,1,1.681,0Z" transform="translate(33.276 14.284)" fill="#fff" opacity="0.5"/>
    <path id="Rectangle_141056" data-name="Rectangle 141056" d="M0,0H38.668V1.261H0Z" transform="translate(29.073 42.445)" fill="#9d9ac0"/>
    <g id="Group_155485" data-name="Group 155485" transform="translate(41.683 35.3)">
      <path id="Rectangle_141055" data-name="Rectangle 141055" d="M1.261,1.261V7.145H6.3V1.261H1.261M0,0H7.565V8.406H0Z" transform="translate(0 0)" fill="#9d9ac0"/>
      <path id="Rectangle_141057" data-name="Rectangle 141057" d="M1.261,1.261V7.145H6.3V1.261H1.261M0,0H7.565V8.406H0Z" transform="translate(5.884 0)" fill="#9d9ac0"/>
    </g>
    <g id="Group_155486" data-name="Group 155486" transform="translate(35.798 18.489)">
      <path id="Rectangle_141031" data-name="Rectangle 141031" d="M0,0H2.522V1.261H0Z" transform="translate(4.203 0)" fill="#9d9ac0"/>
      <path id="Rectangle_141043" data-name="Rectangle 141043" d="M0,0H2.522V1.261H0Z" transform="translate(4.203 7.565)" fill="#9d9ac0"/>
      <path id="Rectangle_141049" data-name="Rectangle 141049" d="M0,0H2.522V1.261H0Z" transform="translate(4.203 11.768)" fill="#9d9ac0"/>
      <path id="Rectangle_141041" data-name="Rectangle 141041" d="M0,0H2.522V1.261H0Z" transform="translate(4.203 3.362)" fill="#f7bf06"/>
      <path id="Rectangle_141033" data-name="Rectangle 141033" d="M0,0H2.522V1.261H0Z" transform="translate(9.247 0)" fill="#9d9ac0"/>
      <path id="Rectangle_141045" data-name="Rectangle 141045" d="M0,0H2.522V1.261H0Z" transform="translate(9.247 7.565)" fill="#9d9ac0"/>
      <path id="Rectangle_141051" data-name="Rectangle 141051" d="M0,0H2.522V1.261H0Z" transform="translate(9.247 11.768)" fill="#9d9ac0"/>
      <path id="Rectangle_141040" data-name="Rectangle 141040" d="M0,0H2.522V1.261H0Z" transform="translate(9.247 3.362)" fill="#9d9ac0"/>
      <path id="Rectangle_141034" data-name="Rectangle 141034" d="M0,0H2.522V1.261H0Z" transform="translate(13.45 0)" fill="#9d9ac0"/>
      <path id="Rectangle_141046" data-name="Rectangle 141046" d="M0,0H2.522V1.261H0Z" transform="translate(13.45 7.565)" fill="#9d9ac0"/>
      <path id="Rectangle_141052" data-name="Rectangle 141052" d="M0,0H2.522V1.261H0Z" transform="translate(13.45 11.768)" fill="#9d9ac0"/>
      <path id="Rectangle_141039" data-name="Rectangle 141039" d="M0,0H2.522V1.261H0Z" transform="translate(13.45 3.362)" fill="#9d9ac0"/>
      <path id="Rectangle_141035" data-name="Rectangle 141035" d="M0,0H2.522V1.261H0Z" transform="translate(18.493 0)" fill="#9d9ac0"/>
      <path id="Rectangle_141047" data-name="Rectangle 141047" d="M0,0H2.522V1.261H0Z" transform="translate(18.493 7.565)" fill="#9d9ac0"/>
      <path id="Rectangle_141053" data-name="Rectangle 141053" d="M0,0H2.522V1.261H0Z" transform="translate(18.493 11.768)" fill="#9d9ac0"/>
      <path id="Rectangle_141038" data-name="Rectangle 141038" d="M0,0H2.522V1.261H0Z" transform="translate(18.493 3.362)" fill="#9d9ac0"/>
      <path id="Rectangle_141036" data-name="Rectangle 141036" d="M0,0H2.522V1.261H0Z" transform="translate(22.696 0)" fill="#9d9ac0"/>
      <path id="Rectangle_141048" data-name="Rectangle 141048" d="M0,0H2.522V1.261H0Z" transform="translate(22.696 7.565)" fill="#9d9ac0"/>
      <path id="Rectangle_141054" data-name="Rectangle 141054" d="M0,0H2.522V1.261H0Z" transform="translate(22.696 11.768)" fill="#9d9ac0"/>
      <path id="Rectangle_141037" data-name="Rectangle 141037" d="M0,0H2.522V1.261H0Z" transform="translate(22.696 3.362)" fill="#9d9ac0"/>
      <path id="Rectangle_141032" data-name="Rectangle 141032" d="M0,0H2.522V1.261H0Z" transform="translate(0 0)" fill="#9d9ac0"/>
      <path id="Rectangle_141044" data-name="Rectangle 141044" d="M0,0H2.522V1.261H0Z" transform="translate(0 7.565)" fill="#9d9ac0"/>
      <path id="Rectangle_141050" data-name="Rectangle 141050" d="M0,0H2.522V1.261H0Z" transform="translate(0 11.768)" fill="#9d9ac0"/>
      <path id="Rectangle_141042" data-name="Rectangle 141042" d="M0,0H2.522V1.261H0Z" transform="translate(0 3.362)" fill="#9d9ac0"/>
    </g>
  </g>
</svg>
