<svg id="_44x44_-_icon_-_Rejected" data-name="44x44 - icon - Rejected" xmlns="http://www.w3.org/2000/svg" width="44" height="44" viewBox="0 0 44 44">
  <circle id="Ellipse_486" data-name="Ellipse 486" cx="22" cy="22" r="22" fill="#f7f9fd"/>
  <path id="Path_3654" data-name="Path 3654" d="M19.167,8.333h-7.5V.833A.833.833,0,0,0,10.833,0H9.167a.833.833,0,0,0-.833.833v7.5H.833A.833.833,0,0,0,0,9.167v1.667a.833.833,0,0,0,.833.833h7.5v7.5A.833.833,0,0,0,9.167,20h1.667a.833.833,0,0,0,.833-.833v-7.5h7.5A.833.833,0,0,0,20,10.833V9.167A.833.833,0,0,0,19.167,8.333Z" transform="translate(8 22.142) rotate(-45)" fill="#d92836"/>
</svg>
