<svg id="icon-nav-mlms" xmlns="http://www.w3.org/2000/svg" width="52" height="52" viewBox="0 0 52 52">
  <rect id="Rectangle_259" data-name="Rectangle 259" width="52" height="52" fill="rgba(0,0,0,0)"/>
  <g id="icon-nav-mlms-2" data-name="icon-nav-mlms" transform="translate(5.613 6.039)">
    <path id="Path_4396" data-name="Path 4396" d="M180.725,192.859l-6.271,5.923-3.01-3.1a.867.867,0,0,0-1.244,1.209l3.61,3.706a.883.883,0,0,0,1.227.026l6.9-6.506a.867.867,0,0,0,.035-1.227.888.888,0,0,0-1.247-.031Zm0,0" transform="translate(-154.878 -175.963)" fill="#f7bf06"/>
    <path id="Path_4397" data-name="Path 4397" d="M103.776,90.551a12.9,12.9,0,1,0,12.9,12.9,12.9,12.9,0,0,0-12.9-12.9Zm0,24.075a11.174,11.174,0,1,1,11.175-11.174,11.173,11.173,0,0,1-11.175,11.174Zm0,0" transform="translate(-82.582 -82.675)" fill="#9e99c3"/>
    <path id="Path_4398" data-name="Path 4398" d="M39,16.019l.286-5.135a.864.864,0,0,0-.476-.823L34.229,7.748,31.916,3.172a.879.879,0,0,0-.823-.476l-5.149.277L21.669.142a.865.865,0,0,0-.952,0L16.431,2.975,11.3,2.689a.863.863,0,0,0-.823.476L8.162,7.742,3.585,10.054a.878.878,0,0,0-.476.823l.285,5.135L.568,20.291a.865.865,0,0,0,0,.952l2.823,4.3L3.1,30.673a.864.864,0,0,0,.476.823l4.577,2.312,2.312,4.577a.878.878,0,0,0,.823.476l5.135-.286,4.286,2.832a.843.843,0,0,0,.952,0l4.286-2.832,5.135.286a.864.864,0,0,0,.823-.476l2.312-4.577L38.8,31.5a.879.879,0,0,0,.476-.823l-.286-5.135,2.832-4.286a.865.865,0,0,0,0-.952Zm-1.611,8.81a.813.813,0,0,0-.138.529l.268,4.857L33.193,32.4a.855.855,0,0,0-.381.381L30.63,37.1l-4.857-.268a.946.946,0,0,0-.529.138l-4.053,2.676L17.14,36.968a.857.857,0,0,0-.476-.148h-.043l-4.858.269L9.582,32.768a.852.852,0,0,0-.381-.381l-4.33-2.174.269-4.857A.946.946,0,0,0,5,24.828L2.325,20.776,5,16.723a.81.81,0,0,0,.138-.527l-.268-4.858,4.32-2.184a.854.854,0,0,0,.381-.381l2.182-4.32,4.858.269a.951.951,0,0,0,.529-.138l4.052-2.675,4.053,2.675a.812.812,0,0,0,.529.138l4.857-.269,2.182,4.32a.854.854,0,0,0,.381.381l4.32,2.182-.268,4.858a.949.949,0,0,0,.138.527l2.676,4.053Zm0,0" transform="translate(0 0)" fill="#9e99c3"/>
  </g>
</svg>
