<svg xmlns="http://www.w3.org/2000/svg" width="27.558" height="30.454" viewBox="0 0 27.558 30.454">
  <g id="Group_158978" data-name="Group 158978" transform="translate(0)">
    <g id="health-insurance_1_" data-name="health-insurance (1)" transform="translate(0)">
      <path id="Path_13383" data-name="Path 13383" d="M4.8,20.584a.8.8,0,1,1,0-1.607H9.189a.8.8,0,1,1,0,1.607ZM22.874,4.742h2.555a1.83,1.83,0,0,1,1.827,1.827c0,3.068,1.319,8.608-1.565,7.367V6.564a.243.243,0,0,0-.078-.181.257.257,0,0,0-.184-.081H22.874v6.215q-.77-.435-1.557-.937h0V1.816a.279.279,0,0,0-.265-.262H1.827a.234.234,0,0,0-.181.081.24.24,0,0,0-.081.181V23.532a.237.237,0,0,0,.081.179.257.257,0,0,0,.181.078H10.1q.159.809.36,1.565H5.947v2.907a.243.243,0,0,0,.078.184.279.279,0,0,0,.184.081h5.339c.234.544.491,1.066.762,1.565h-6.1a1.83,1.83,0,0,1-1.827-1.83v-2.9H1.827A1.83,1.83,0,0,1,0,23.532V1.827A1.83,1.83,0,0,1,1.827,0H21.041a1.83,1.83,0,0,1,1.833,1.827Z" transform="translate(0 0)" fill="#9d9ac0" fill-rule="evenodd"/>
    </g>
    <g id="health-insurance" transform="translate(4.799 4.442)">
      <path id="Path_13384" data-name="Path 13384" d="M26.1,1.779C26.931.915,27.511.169,28.789.023a3.257,3.257,0,0,1,3.389,4.592,7.644,7.644,0,0,1-1.059,1.48V6.031h-3.1l-.11.113-.5.511L26.391,4.694l-.339-.652-.325.659L24.8,6.58l-.917-1.331-.322-.467-.3.484-.43.694H20.947A5.223,5.223,0,0,1,19.817,3.1,2.94,2.94,0,0,1,22.943.033c1.526.02,2.167.78,3.162,1.746Zm4.392,5c-.046.049-.093.1-.14.146-.851.88-1.793,1.744-2.452,2.4l-1.8,1.785L24.618,9.676c-.906-.873-2.1-1.859-3.072-2.97h1.7l.11-.177.24-.389.954,1.384.359.52.279-.568.881-1.787.92,1.767.238.458.359-.369.745-.768,2.167,0Z" transform="translate(-19.815 -0.002)" fill="#9d9ac0" fill-rule="evenodd"/>
    </g>
    <g id="Group_157728" data-name="Group 157728" transform="translate(13.779 14.548)">
      <g id="health-insurance_1_2" data-name="health-insurance (1)" transform="translate(0 1)">
        <path id="Path_13383-2" data-name="Path 13383" d="M26.048,17.613c.332,6.728-2.153,10.7-6.555,12.36-4.253-1.554-6.768-5.355-6.587-12.463a9.41,9.41,0,0,0,6.555-2.016c1.892,1.2,4.291,2.327,6.581,2.119Zm-6.579-1.28a26.018,26.018,0,0,0,3.747,1.7,10.439,10.439,0,0,0,2.077.178c.294,5.956-1.9,9.474-5.8,10.933-3.765-1.373-5.99-4.739-5.828-11.032A8.311,8.311,0,0,0,19.47,16.333Z" transform="translate(-12.897 -15.494)" fill="#9d9ac0" stroke="#9d9ac0" stroke-width="0.8" fill-rule="evenodd"/>
      </g>
      <path id="Path_13391" data-name="Path 13391" d="M609.872,636.627h0V634.4h-2.245v-1.395h2.245v-2.228h1.377v2.228h2.245V634.4h-2.245v2.227Z" transform="translate(-603.97 -625.463)" fill="#f7bf06"/>
    </g>
  </g>
</svg>
