<svg xmlns="http://www.w3.org/2000/svg" width="26.143" height="25.552" viewBox="0 0 26.143 25.552">
  <path id="icon-payment-fine-validity" d="M14,.815A.918.918,0,0,1,15,0a.915.915,0,0,1,.994.815V4.376A.917.917,0,0,1,15,5.191.914.914,0,0,1,14,4.376Zm12.14,11.276-8.91,13.461-6.91-4.434H1.6a1.606,1.606,0,0,1-1.6-1.6V3.691a1.606,1.606,0,0,1,1.6-1.6H3.54a.551.551,0,0,1,0,1.1H1.6a.5.5,0,0,0-.353.147.5.5,0,0,0-.147.353v4.1H14.531l-.725,1.1H1.094V19.507a.5.5,0,0,0,.147.353A.513.513,0,0,0,1.594,20H10.6l5.2,3.3.064.045a1.064,1.064,0,0,0,1.459-.336l.285-.457h.015l1.342-2.17L25.073,11.4l1.064.685ZM2.885,15.669H5.161a.264.264,0,0,1,.264.262v1.683a.264.264,0,0,1-.264.257H2.885a.264.264,0,0,1-.264-.262V15.931a.262.262,0,0,1,.264-.262Zm8.723-4.8h.881l-1.151,1.742V11.14a.266.266,0,0,1,.264-.266Zm-4.374,0H9.51a.266.266,0,0,1,.277.264v1.683a.264.264,0,0,1-.264.262H7.234a.262.262,0,0,1-.262-.262V11.138a.264.264,0,0,1,.262-.264Zm-4.357,0H5.153a.266.266,0,0,1,.264.264v1.683a.264.264,0,0,1-.264.262H2.885a.264.264,0,0,1-.264-.262V11.138a.266.266,0,0,1,.264-.264Zm4.357,4.8H9.319l-1.125,1.7A1.317,1.317,0,0,0,8,17.878H7.234a.262.262,0,0,1-.262-.262V15.931a.26.26,0,0,1,.262-.262ZM5.085.815A.921.921,0,0,1,6.078,0a.918.918,0,0,1,.994.815V4.376a.918.918,0,0,1-.994.815.915.915,0,0,1-.994-.815V.815ZM20,4.208V3.687a.5.5,0,0,0-.145-.353.513.513,0,0,0-.347-.143H17.695a.551.551,0,1,1,0-1.1h1.813a1.606,1.606,0,0,1,1.6,1.6V4.921ZM8.659,3.191a.551.551,0,1,1,0-1.1H12.35a.551.551,0,0,1,0,1.1ZM25.318,9.168,16.4,22.633,9.3,18.084,18.205,4.613Zm-6.5,3.676a1.915,1.915,0,1,1-1.165-.9,1.915,1.915,0,0,1,1.165.9Zm3.949-2.085-5.972,8.885a1.251,1.251,0,0,0-1.723.379l-2.81-1.8A1.249,1.249,0,0,0,11.88,16.5l5.974-8.889a1.247,1.247,0,0,0,1.719-.379l2.81,1.8a1.251,1.251,0,0,0,.381,1.728Z" fill="#919ab1" fill-rule="evenodd"/>
</svg>
