<svg xmlns="http://www.w3.org/2000/svg" width="17.501" height="20.5" viewBox="0 0 17.501 20.5">
  <g id="icon-remarks" transform="translate(-375.095 -1538.748)">
    <path id="Path_13341" data-name="Path 13341" d="M56.267,29.463,51.023,24.22,51,24.2l-.031-.028-.022-.016-.037-.028-.018-.011-.045-.027-.013-.006c-.018-.009-.035-.018-.054-.025l-.009,0c-.02-.008-.04-.015-.06-.022l-.009,0c-.02-.006-.041-.011-.062-.016l-.02,0L50.568,24a.742.742,0,0,0-.075,0h-9a1.5,1.5,0,0,0-1.5,1.5V42a1.5,1.5,0,0,0,1.5,1.5h13.5a1.5,1.5,0,0,0,1.5-1.5V30.015s0-.01,0-.015a.747.747,0,0,0-.227-.537ZM50.493,30V25.811L54.682,30Z" transform="translate(335.603 1515.248)" fill="none" stroke="#919ab1" stroke-width="1"/>
    <path id="Path_13342" data-name="Path 13342" d="M3,8.246H9.176V9.369H3ZM3,7.123H9.176V6H3Zm0,4.492H6.93V10.492H3Zm8.428-1.757.4-.4a.559.559,0,0,1,.792,0l.4.4a.559.559,0,0,1,0,.792l-.4.4Zm-.4.4L8.053,13.232v1.19h1.19l2.976-2.976Z" transform="translate(375.096 1541.44)" fill="#919ab1"/>
  </g>
</svg>
