<svg xmlns="http://www.w3.org/2000/svg" width="15.999" height="16" viewBox="0 0 15.999 16">
  <path id="Subtraction" d="M7.65,16.022a8,8,0,1,1,8-8A8.009,8.009,0,0,1,7.65,16.022Zm-.073-4.847A.923.923,0,1,0,8.5,12.1.926.926,0,0,0,7.577,11.175Zm-2.687-.738a.739.739,0,1,0,.739.738A.741.741,0,0,0,4.891,10.437Zm5.673-.846a1.107,1.107,0,1,0,1.11,1.107A1.111,1.111,0,0,0,10.563,9.591ZM3.706,8.223a.554.554,0,1,0,.555.554A.555.555,0,0,0,3.706,8.223Zm7.44-2.2a1.292,1.292,0,1,0,1.3,1.292A1.3,1.3,0,0,0,11.147,6.022ZM4.519,6.008a.369.369,0,1,0,.369.368A.37.37,0,0,0,4.519,6.008ZM8.632,3.022A1.476,1.476,0,1,0,10.114,4.5,1.481,1.481,0,0,0,8.632,3.022Z" transform="translate(0.349 -0.022)" fill="#c5d2e7"/>
</svg>
