<svg xmlns="http://www.w3.org/2000/svg" width="20.35" height="19.873" viewBox="0 0 20.35 19.873">
  <g id="icon-expired" transform="translate(-191.825 -2191)">
    <g id="date-expired" transform="translate(191.825 2191)">
      <path id="Path_13354" data-name="Path 13354" d="M11.689.681A.765.765,0,0,1,12.517,0a.762.762,0,0,1,.828.681V3.653a.766.766,0,0,1-.828.681.764.764,0,0,1-.828-.681Zm-9.277,12.4h1.9a.222.222,0,0,1,.22.22v1.4a.222.222,0,0,1-.22.22h-1.9a.22.22,0,0,1-.219-.22V13.3a.22.22,0,0,1,.219-.22Zm7.271-4h1.9a.224.224,0,0,1,.151.06,6.792,6.792,0,0,0-1.905,1.786H9.683a.22.22,0,0,1-.219-.22V9.3a.22.22,0,0,1,.219-.22Zm-3.645,0H7.952a.22.22,0,0,1,.22.219v1.4a.222.222,0,0,1-.22.22H6.045a.219.219,0,0,1-.219-.219V9.3a.22.22,0,0,1,.219-.219Zm-3.645,0H4.307a.22.22,0,0,1,.22.219v1.4a.222.222,0,0,1-.22.22h-1.9a.22.22,0,0,1-.219-.219V9.3a.22.22,0,0,1,.219-.219Zm3.645,4H7.952a.222.222,0,0,1,.22.22v1.4a.222.222,0,0,1-.22.22H6.045a.22.22,0,0,1-.219-.22V13.3a.219.219,0,0,1,.219-.22ZM4.244.681A.765.765,0,0,1,5.072,0,.762.762,0,0,1,5.9.681V3.653a.767.767,0,0,1-.828.681.765.765,0,0,1-.828-.681V.681ZM.913,6.5H16.7V3.078a.411.411,0,0,0-.123-.295.416.416,0,0,0-.295-.123H14.769a.459.459,0,0,1,0-.918h1.512A1.337,1.337,0,0,1,17.62,3.081V8.515a6.934,6.934,0,0,0-.931-.25V7.417H.913v8.864a.414.414,0,0,0,.123.295.419.419,0,0,0,.29.123H8.831a7.049,7.049,0,0,0,.321.928H1.339A1.337,1.337,0,0,1,0,16.288V3.081A1.34,1.34,0,0,1,1.339,1.743H2.954a.459.459,0,0,1,0,.918H1.339a.411.411,0,0,0-.295.123.426.426,0,0,0-.123.295V6.5h0Zm6.313-3.84a.459.459,0,1,1,0-.918h3.081a.459.459,0,1,1,0,.918Z" fill="#919ab1"/>
      <path id="Path_13355" data-name="Path 13355" d="M67.046,59.12a5.039,5.039,0,1,1-3.568,1.474A5.039,5.039,0,0,1,67.046,59.12Zm-.54,7.052h1.075v.953H66.506Zm1.075-.663H66.506c-.108-1.307-.331-2.137-.331-3.444a.873.873,0,0,1,1.744,0c0,1.305-.227,2.137-.331,3.444Z" transform="translate(-51.729 -49.326)" fill="#d98e28" fill-rule="evenodd"/>
    </g>
  </g>
</svg>
