<svg xmlns="http://www.w3.org/2000/svg" width="15.831" height="18.715" viewBox="0 0 15.831 18.715">
  <g id="icon-normal-undertaking" transform="translate(-39.947 0.15)">
    <g id="Group_152140" data-name="Group 152140" transform="translate(40.097)">
      <g id="Group_152139" data-name="Group 152139" transform="translate(0)">
        <path id="Path_4402" data-name="Path 4402" d="M54.74,2.44H53.187V.887A.89.89,0,0,0,52.3,0H40.984A.89.89,0,0,0,40.1.887v14.2a.89.89,0,0,0,.887.887h1.553v1.553a.89.89,0,0,0,.887.887h7.543a2.589,2.589,0,0,0,1.534-.608l2.479-2.334a2.356,2.356,0,0,0,.646-1.5V3.328A.89.89,0,0,0,54.74,2.44Zm-12.2.888V15.309H40.984a.225.225,0,0,1-.222-.222V.887a.225.225,0,0,1,.222-.222H52.3a.225.225,0,0,1,.222.222V2.441h-9.1A.89.89,0,0,0,42.537,3.328ZM54.525,14.989l-2.479,2.333a1.178,1.178,0,0,1-.19.139V15.42a.556.556,0,0,1,.555-.555h2.22A.932.932,0,0,1,54.525,14.989Zm.437-1.011a1.035,1.035,0,0,1-.03.222H52.41a1.223,1.223,0,0,0-1.22,1.22v2.3a1.16,1.16,0,0,1-.222.027H43.425a.225.225,0,0,1-.222-.222V3.328a.225.225,0,0,1,.222-.222H54.74a.225.225,0,0,1,.222.222Z" transform="translate(-40.097)" fill="#0d102c" stroke="#0d102c" stroke-width="0.3"/>
      </g>
    </g>
    <g id="Group_152142" data-name="Group 152142" transform="translate(45.533 5.547)">
      <g id="Group_152141" data-name="Group 152141">
        <path id="Path_4403" data-name="Path 4403" d="M198,154.216h-6.434a.333.333,0,0,0,0,.666H198a.333.333,0,0,0,0-.666Z" transform="translate(-191.235 -154.216)" fill="#0d102c" stroke="#0d102c" stroke-width="0.3"/>
      </g>
    </g>
    <g id="Group_152144" data-name="Group 152144" transform="translate(45.533 9.984)">
      <g id="Group_152143" data-name="Group 152143">
        <path id="Path_4404" data-name="Path 4404" d="M198,277.59h-6.434a.333.333,0,0,0,0,.666H198a.333.333,0,0,0,0-.666Z" transform="translate(-191.235 -277.59)" fill="#0d102c" stroke="#0d102c" stroke-width="0.3"/>
      </g>
    </g>
    <g id="Group_152146" data-name="Group 152146" transform="translate(45.533 12.203)">
      <g id="Group_152145" data-name="Group 152145">
        <path id="Path_4405" data-name="Path 4405" d="M195.119,339.277h-3.55a.333.333,0,1,0,0,.666h3.55a.333.333,0,0,0,0-.666Z" transform="translate(-191.236 -339.277)" fill="#0d102c" stroke="#0d102c" stroke-width="0.3"/>
      </g>
    </g>
    <g id="Group_152148" data-name="Group 152148" transform="translate(45.533 7.765)">
      <g id="Group_152147" data-name="Group 152147">
        <path id="Path_4406" data-name="Path 4406" d="M198,215.9h-6.434a.333.333,0,0,0,0,.666H198a.333.333,0,0,0,0-.666Z" transform="translate(-191.235 -215.903)" fill="#0d102c" stroke="#0d102c" stroke-width="0.3"/>
      </g>
    </g>
  </g>
</svg>
