<svg xmlns="http://www.w3.org/2000/svg" width="25.152" height="25.549" viewBox="0 0 25.152 25.549">
  <g id="icon-quantity" transform="translate(-0.019 0.004)">
    <path id="Path_26661" data-name="Path 26661" d="M6.267,13.592,6.119,17.9,4.5,16.8l-1.624.917.335-4.62-2.3-.316v9.684l8.47.963V13.937l-3.11-.345Zm14.1-12.357a.355.355,0,0,1,.252.046.354.354,0,0,1,.218.324l.073,9.977,3.719.489h0a.417.417,0,0,1,.47.37l.073,10.227a.352.352,0,0,1-.17.318l-4.177,2.491a.356.356,0,0,1-.212.071.474.474,0,0,1-.056,0L9.718,24.336a.457.457,0,0,1-.077-.012L.354,23.13a.352.352,0,0,1-.335-.351v-10.4h0a.35.35,0,0,1,.21-.333l4.89-2.152V2.75h0a.35.35,0,0,1,.21-.333L10.766.026h0A.353.353,0,0,1,10.953,0l9.414,1.235Zm.206,11.012L17.3,14.2l3.245.414,3.108-1.958-3.085-.405ZM5.119,11.565v-.9L1.651,12.186l1.99.254,1.478-.875ZM16.7,4.536v9.2l3.121-1.863.38-.322-.067-9.181L16.7,4.536Zm-.894,9.428V4.446l-4.434-.59-.152,4.418L9.6,7.168l-1.624.917.335-4.62L5.822,3.147v9.684l9.985,1.133ZM15.265,1.276l-3.41,1.936,4.434.565L19.4,1.818l-4.133-.543ZM8.745,2.812,12.05.852,10.961.708,6.755,2.556l1.99.256ZM20.961,15.369v9.2l3.5-2.089L24.4,13.2l-3.434,2.164ZM20.067,24.8V15.28l-4.434-.59-.152,4.418L13.857,18l-1.624.917.335-4.62-2.3-.225v9.684l9.8,1.039Z" transform="translate(0 0)" fill="#919ab1"/>
  </g>
</svg>
