<svg xmlns="http://www.w3.org/2000/svg" width="29" height="29" viewBox="0 0 29 29">
  <g id="icon-certificate" transform="translate(-46 -537)">
    <g id="icon-doc-no" transform="translate(1 34)">
      <g id="icon" transform="translate(-37 49)">
        <rect id="Rectangle_141879" data-name="Rectangle 141879" width="29" height="29" transform="translate(82 454)" fill="none"/>
      </g>
    </g>
    <path id="Path_26877" data-name="Path 26877" d="M1.164,0H23.816a1.166,1.166,0,0,1,1.164,1.164V15.652a1.166,1.166,0,0,1-1.164,1.164h-.488l-1.018-1.964a3.223,3.223,0,0,0,.122-.512l.016-.108a3.14,3.14,0,0,0,.332-.45c.018-.031.037-.061.055-.093a3.048,3.048,0,0,0,.353-1.02.418.418,0,0,1,.01-.069l.512-.512V4.726L20.251,1.267H4.726L1.267,4.726v7.363l3.459,3.459H12.3l-.626,1.209-.031.057H1.164A1.156,1.156,0,0,1,0,15.652V1.164A1.166,1.166,0,0,1,1.164,0ZM17.486,8.41a.794.794,0,0,1,.3.043,1.37,1.37,0,0,1,.256.128,2.243,2.243,0,0,1,.268.211l.006.006a2.581,2.581,0,0,0,.4.3,1.191,1.191,0,0,0,.483.083,1.083,1.083,0,0,1,.986.4h0a1.446,1.446,0,0,1,.25.821v.027a1.213,1.213,0,0,0,.063.353,1.56,1.56,0,0,0,.238.425h0A2.143,2.143,0,0,1,21.15,12a.946.946,0,0,1-.108.695V12.7a1.489,1.489,0,0,1-.351.382.807.807,0,0,0-.194.2,1.012,1.012,0,0,0-.068.431,1.376,1.376,0,0,1-.134.654v.006a1.366,1.366,0,0,1-.311.4,1.29,1.29,0,0,1-.45.248,1.086,1.086,0,0,1-.431.031.7.7,0,0,0-.3.018H18.8a2.184,2.184,0,0,0-.458.3,1.579,1.579,0,0,1-.479.3h0a1.229,1.229,0,0,1-.752,0H17.1a1.549,1.549,0,0,1-.475-.3,2.06,2.06,0,0,0-.466-.309.7.7,0,0,0-.3-.018,1.144,1.144,0,0,1-.433-.031h-.008a1.306,1.306,0,0,1-.443-.244,1.274,1.274,0,0,1-.311-.407,1.364,1.364,0,0,1-.134-.652,1.117,1.117,0,0,0-.067-.431h0a.794.794,0,0,0-.2-.2,1.452,1.452,0,0,1-.351-.382l-.006-.01a.922.922,0,0,1-.1-.689,2.184,2.184,0,0,1,.421-.794,1.433,1.433,0,0,0,.238-.425,1.243,1.243,0,0,0,.066-.357V10.4a1.449,1.449,0,0,1,.25-.821l.006-.006a1.074,1.074,0,0,1,.978-.4,1.139,1.139,0,0,0,.485-.083h0a2.633,2.633,0,0,0,.4-.3,2.017,2.017,0,0,1,.274-.213,1.16,1.16,0,0,1,.256-.128.97.97,0,0,1,.3-.041Zm3.726,10.148-.919-.165-.462.827a.032.032,0,0,1-.012.016c-.194.238-.37.231-.522.108a1.531,1.531,0,0,1-.345-.61l-.027-.073-.974-1.839A.114.114,0,0,1,18,16.665a.033.033,0,0,1,.016-.006,1.285,1.285,0,0,0,.336-.2c.128-.1.262-.213.4-.336a.11.11,0,0,1,.089-.031A2.251,2.251,0,0,0,19.586,16a1.285,1.285,0,0,0,.61-.437.115.115,0,0,1,.163-.023.119.119,0,0,1,.031.041l1.126,2.175.1.211a.033.033,0,0,1,.006.018.572.572,0,0,1,0,.409.348.348,0,0,1-.382.165l-.029-.008Zm-6.528-.165-.919.165a.135.135,0,0,1-.031,0,.351.351,0,0,1-.382-.165.56.56,0,0,1,0-.409l.006-.018.1-.211,1.126-2.17a.119.119,0,0,1,.031-.041.114.114,0,0,1,.163.02,1.29,1.29,0,0,0,.611.437,2.156,2.156,0,0,0,.748.091.12.12,0,0,1,.089.031c.138.122.272.242.4.336a1.261,1.261,0,0,0,.336.2l.014.006a.114.114,0,0,1,.049.157l-.974,1.837-.029.071a1.489,1.489,0,0,1-.345.61c-.153.122-.328.132-.522-.108,0-.006-.008-.008-.012-.014l-.458-.817Zm4.224-7.743a2.007,2.007,0,1,0,.59,1.421,2.007,2.007,0,0,0-.59-1.421ZM6.3,10.4a.257.257,0,0,1-.207-.13.589.589,0,0,1-.087-.317.572.572,0,0,1,.087-.317A.255.255,0,0,1,6.3,9.5H9.776a.257.257,0,0,1,.207.13.631.631,0,0,1,0,.634.255.255,0,0,1-.207.13Zm-.219,2.779c.858-1.126,1.588-.613,2.617.1.051.037.1.071.155.108a.424.424,0,0,0,.456.008,2.553,2.553,0,0,0,.5-.38h0a3.7,3.7,0,0,1,.456-.362.059.059,0,0,1,.079.018l.233.368a.059.059,0,0,1-.018.079,3.451,3.451,0,0,0-.388.313h0a2.836,2.836,0,0,1-.738.526.88.88,0,0,1-.893-.116l-.157-.11a3.581,3.581,0,0,0-1.036-.586.755.755,0,0,0-.825.366.057.057,0,0,1-.081.01L6.1,13.257a.059.059,0,0,1-.012-.083ZM6.3,4.641a.261.261,0,0,1-.209-.13A.582.582,0,0,1,6,4.2a.565.565,0,0,1,.087-.315.256.256,0,0,1,.209-.13h8.41a.261.261,0,0,1,.209.13.624.624,0,0,1,0,.63.258.258,0,0,1-.209.132H6.305Zm0,3.027a.255.255,0,0,1-.207-.132h0a.587.587,0,0,1-.087-.315A.577.577,0,0,1,6.094,6.9a.256.256,0,0,1,.209-.13h6.718a.257.257,0,0,1,.207.13h0a.587.587,0,0,1,.087.315.565.565,0,0,1-.087.315h0a.255.255,0,0,1-.207.13H6.305Z" transform="translate(48.092 542.072)" fill="#919ab1" fill-rule="evenodd"/>
  </g>
</svg>
