<svg id="icon-location" xmlns="http://www.w3.org/2000/svg" width="19" height="19" viewBox="0 0 19 19">
  <rect id="Rectangle_112" data-name="Rectangle 112" width="19" height="19" fill="none"/>
  <path id="Path_124" data-name="Path 124" d="M169.775,167.983h-1.187a.594.594,0,0,0,0,1.188h1.188a.594.594,0,0,0,0-1.187Z" transform="translate(-155.526 -155.516)" fill="#919ab1"/>
  <path id="Path_125" data-name="Path 125" d="M169.775,127.983h-1.187a.594.594,0,0,0,0,1.188h1.188a.594.594,0,1,0,0-1.188Z" transform="translate(-155.526 -118.484)" fill="#919ab1"/>
  <path id="Path_126" data-name="Path 126" d="M38.244,28.733h-4.75V25.171a1.189,1.189,0,0,0-1.187-1.187H25.182a1.189,1.189,0,0,0-1.187,1.188V38.827a.594.594,0,0,0,.594.594H32.9a.594.594,0,0,0,.594-.594V29.921h4.75v8.906a.594.594,0,1,0,1.188,0V29.921a1.189,1.189,0,0,0-1.188-1.188ZM26.963,26.952h2.375a.594.594,0,0,1,0,1.188H26.963a.594.594,0,0,1,0-1.187Zm2.375,10.094H26.963a.594.594,0,0,1,0-1.187h2.375a.594.594,0,1,1,0,1.188Zm1.188-2.969H28.15a.594.594,0,0,1,0-1.187h2.375a.594.594,0,0,1,0,1.188Z" transform="translate(-22.213 -22.203)" fill="#919ab1"/>
</svg>
