<svg xmlns="http://www.w3.org/2000/svg" width="18" height="20" viewBox="0 0 18 20"><defs><style>.a-cal{fill:#5ba2ec;}</style></defs><path class="a-cal" d="M40.5,13.538H38.25v-.769a.75.75,0,1,0-1.5,0v.769h-7.5v-.769a.75.75,0,1,0-1.5,0v.769H25.5A1.521,1.521,0,0,0,24,15.077V30.462A1.521,1.521,0,0,0,25.5,32h15A1.521,1.521,0,0,0,42,30.462V15.077A1.521,1.521,0,0,0,40.5,13.538Zm-15,1.538h2.25v.769a.75.75,0,1,0,1.5,0v-.769h7.5v.769a.75.75,0,1,0,1.5,0v-.769H40.5v3.077h-15V15.077Zm0,15.385V19.692h15V30.462Z" transform="translate(-24 -12)"/></svg>