<svg xmlns="http://www.w3.org/2000/svg" width="29" height="29" viewBox="0 0 29 29">
  <g id="icon-declaration" transform="translate(-82 -454)">
    <g id="icon-declaration-2" data-name="icon-declaration" transform="translate(-11.858 353.575)">
      <g id="Group_152154" data-name="Group 152154" transform="translate(96.305 102.926)">
        <g id="Group_152153" data-name="Group 152153" transform="translate(0 0)">
          <path id="Path_4408" data-name="Path 4408" d="M116.865,109.693v14.539c0,.2-.01.4,0,.592v.025c.076-.13.152-.259.222-.392l-3,2.116-.425.3h.456l-3-2.116-.425-.3a.442.442,0,0,0-.456,0l-3,2.116-.425.3h.456l-3-2.116-.425-.3a.442.442,0,0,0-.456,0l-3,2.116-.425.3h.456l-3-2.116-.425-.3c.076.13.152.259.222.392V105.237a.774.774,0,0,1,0-.124s.01-.076,0-.021,0-.033.01-.043a1.563,1.563,0,0,1,.064-.232c.01-.021.061-.138.021-.058a1.343,1.343,0,0,1,.064-.124,2.247,2.247,0,0,1,.127-.2c.03-.043,0,.01-.012.015a.535.535,0,0,1,.04-.046l.094-.1a.88.88,0,0,1,.105-.091c.04-.03-.01,0-.015.01a.275.275,0,0,1,.048-.033,1.781,1.781,0,0,1,.221-.133c.028-.012.105-.048.036-.021.043-.018.087-.033.133-.048a1.866,1.866,0,0,1,.255-.061c-.079.015.012,0,.043,0h.127a1.647,1.647,0,0,1,.165.01h0l.094.018a1.211,1.211,0,0,1,.494.213c.015.01.107.076.058.04l.105.091c.033.033.066.066.1.1a.644.644,0,0,0,.046.051c.048.058-.03-.043.015.018a2.024,2.024,0,0,1,.155.259s.03.069.015.033.012.033.012.033a1.4,1.4,0,0,1,.048.165c.012.046.021.094.03.142s0,.012,0,0a.931.931,0,0,0,.01.1c0,.031,0,.069,0,.105v3.612a1.269,1.269,0,0,0,.3.824,1.249,1.249,0,0,0,.977.41h16.081a.453.453,0,1,0,0-.906h-15.18c-.318,0-.638-.01-.951,0-.119,0,.036.015-.025,0-.028,0-.142-.043-.061-.01-.028-.012-.145-.086-.073-.03a.708.708,0,0,1-.1-.094c-.033-.04.01.01.012.015l-.04-.066c-.036-.064,0,.036-.012-.04a.7.7,0,0,0-.018-.079h0v-3.217a3.209,3.209,0,0,0-.222-1.407,2.264,2.264,0,0,0-4.242.447,5.156,5.156,0,0,0-.064,1.142v18.94a.531.531,0,0,0,.251.425l.293.213,2.515,1.775.585.414a.442.442,0,0,0,.456,0l3-2.116.425-.3h-.455l3,2.116.425.3a.442.442,0,0,0,.456,0l3-2.116.425-.3h-.456l3,2.116.425.3a.442.442,0,0,0,.456,0l3.334-2.352a.583.583,0,0,0,.3-.392.382.382,0,0,1,.01-.105v-12.2c0-.956.021-1.926,0-2.887v-.043a.458.458,0,0,0-.453-.453.475.475,0,0,0-.445.448Z" transform="translate(-96.305 -103.03)" fill="#919ab1" stroke="#919ab1" stroke-width="0.3"/>
        </g>
      </g>
      <g id="Group_152156" data-name="Group 152156" transform="translate(98.147 102.91)">
        <g id="Group_152155" data-name="Group 152155" transform="translate(0 0)">
          <path id="Path_4409" data-name="Path 4409" d="M179.328,105.178v3.659h0a.754.754,0,0,1-.018.079c-.015.112.025-.036,0,.021a.767.767,0,0,1-.048.086c.043-.073-.03.03-.054.054-.082.082.043-.025-.015.01l-.069.036c-.061.03.064-.015,0,0a.527.527,0,0,0-.1.025H159.957c-.028,0-.094-.028-.04-.01s-.021-.012-.033-.018-.094-.061-.021,0a.734.734,0,0,1-.069-.066c-.01-.01-.058-.073-.028-.03s-.012-.025-.018-.036-.033-.1-.01-.018a.328.328,0,0,0-.021-.076c-.021-.082,0,.043,0-.043v-.025c.018-.445,0-.893,0-1.337v-2.307a2.255,2.255,0,0,0-2.268-2.261v.906h20.634c.018,0,.127.012.086,0a.584.584,0,0,1,.1.021l.137.036.133.048a.273.273,0,1,0,.036.021,1.9,1.9,0,0,1,.236.145c.069.048-.03-.03.03.028.028.028.058.051.087.079s.064.066.094.1a.537.537,0,0,0,.04.046c-.028-.033-.021-.033,0,0a1.979,1.979,0,0,1,.133.213c.01.015.054.112.036.072s.028.079.033.094c.025.079.043.165.061.236,0,0,.012.073,0,.021s0,.03,0,.043v.142a.453.453,0,0,0,.906,0,2.289,2.289,0,0,0-1.2-2,2.377,2.377,0,0,0-1.121-.269H157.439a.453.453,0,0,0,0,.906,1.373,1.373,0,0,1,1.154.638c.036.061.069.122.1.185s-.018-.051.01.021c.012.03.021.061.03.091q.031.105.054.213c0,.01.012.087,0,.025a1.211,1.211,0,0,1,.01.148v3.5a1.673,1.673,0,0,0,.115.707,1.218,1.218,0,0,0,1.1.7c.42.01.84,0,1.256,0h17.721a1.231,1.231,0,0,0,1.249-1.229c.01-1.1,0-2.2,0-3.3v-.33a.455.455,0,0,0-.908,0Z" transform="translate(-156.986 -102.91)" fill="#919ab1" stroke="#919ab1" stroke-width="0.3"/>
        </g>
      </g>
      <g id="Group_152158" data-name="Group 152158" transform="translate(100.199 114.199)">
        <g id="Group_152157" data-name="Group 152157" transform="translate(0 0)">
          <path id="Path_4410" data-name="Path 4410" d="M225.438,477.647h11.226c.516,0,1.038.018,1.556,0h.021a.453.453,0,1,0,0-.9H227.015c-.516,0-1.038-.018-1.556,0h-.021a.453.453,0,1,0,0,.906Z" transform="translate(-224.985 -476.734)" fill="#919ab1" stroke="#919ab1" stroke-width="0.3"/>
        </g>
      </g>
      <g id="Group_152160" data-name="Group 152160" transform="translate(100.199 118.671)">
        <g id="Group_152159" data-name="Group 152159" transform="translate(0 0)">
          <path id="Path_4411" data-name="Path 4411" d="M225.438,625.905h8.331a.453.453,0,1,0,0-.906h-8.331a.453.453,0,1,0,0,.906Z" transform="translate(-224.985 -624.999)" fill="#919ab1" stroke="#919ab1" stroke-width="0.3"/>
        </g>
      </g>
    </g>
    <rect id="Rectangle_141879" data-name="Rectangle 141879" width="29" height="29" transform="translate(82 454)" fill="none"/>
  </g>
</svg>
