<svg id="icon-organization-2" xmlns="http://www.w3.org/2000/svg" width="24.111" height="22.665" viewBox="0 0 24.111 22.665">
  <path id="Path_26662" data-name="Path 26662" d="M7.064,13.5a.283.283,0,0,1-.565,0V6.575H.565V20.523h.979a.283.283,0,0,1,0,.565H.283A.283.283,0,0,1,0,20.805V6.424A.422.422,0,0,1,.122,6.13a.415.415,0,0,1,.294-.122H6.5V.5A.489.489,0,0,1,6.644.147v0A.494.494,0,0,1,7,0H17.071a.494.494,0,0,1,.351.145l.022.024A.5.5,0,0,1,17.569.5V6.008H23.7a.414.414,0,0,1,.292.122l0,0a.414.414,0,0,1,.122.292V20.805a.283.283,0,0,1-.283.283H22.035a.283.283,0,0,1,0-.565h1.511V6.575H17.567v6.838a.283.283,0,1,1-.565,0V.565H7.064V13.5Zm12-.047h3.12c.026,0,.047.016.047.033V14.4c0,.02-.022.035-.047.035h-3.12c-.026,0-.047-.016-.047-.035v-.922c0-.018.022-.033.047-.033Zm-17.157,0h3.12c.026,0,.047.016.047.033V14.4c0,.02-.022.035-.047.035H1.905c-.026,0-.047-.016-.047-.035v-.922c0-.018.022-.033.047-.033ZM8.331,1.662h7.405a.227.227,0,0,1,.226.226V4.3a.227.227,0,0,1-.226.226H8.331A.227.227,0,0,1,8.106,4.3V1.888a.224.224,0,0,1,.226-.226Zm10.78,18.945a4.616,4.616,0,0,0-.773-1.095,9.814,9.814,0,0,1,1.593.714c.789.494.848,1.093.912,1.952H16.934v-.02l-.073-.614.281.243,1.374-1.195.6.014ZM5.117,19.638l.5,1.46.249-.867L5.741,20.1a.206.206,0,0,1-.037-.212c.067-.131.2-.106.332-.106s.3-.026.341.143a.227.227,0,0,1-.043.177l-.122.133.249.867.449-1.46a.9.9,0,0,0,.263.151,2.288,2.288,0,0,0-.1.245,2.978,2.978,0,0,0-.147.74h0a.067.067,0,0,1,0,.02l-.108,1.385H3.226a.327.327,0,0,1-.343-.32l.075-.765a1.22,1.22,0,0,1,.222-.651.951.951,0,0,1,.3-.251c.357-.206,1.319-.263,1.642-.555Zm-.243-2.07a.262.262,0,0,0-.112.031.092.092,0,0,0-.033.039.169.169,0,0,0-.012.067.634.634,0,0,0,.13.312l0,0,.277.441a2.386,2.386,0,0,0,.369.487.755.755,0,0,0,.52.21.771.771,0,0,0,.551-.218,2.453,2.453,0,0,0,.381-.52l.312-.514c.063-.143.082-.23.063-.271-.012-.026-.065-.031-.149-.026A.248.248,0,0,1,7,17.579l.155-.467a2.433,2.433,0,0,1-1.425-.4c-.151-.1-.2-.208-.349-.2a.511.511,0,0,0-.288.157.719.719,0,0,0-.165.326l.092.561a.158.158,0,0,1-.147.012Zm2.474-.139a.234.234,0,0,1,.147.118.542.542,0,0,1-.059.438h0L7.431,18l-.316.52a2.58,2.58,0,0,1-.414.561.954.954,0,0,1-.683.271.924.924,0,0,1-.649-.261,2.444,2.444,0,0,1-.4-.526l-.277-.441a.829.829,0,0,1-.161-.412.324.324,0,0,1,.029-.153.281.281,0,0,1,.1-.118.278.278,0,0,1,.077-.037,6.769,6.769,0,0,1-.012-.775,1.166,1.166,0,0,1,.033-.181,1.058,1.058,0,0,1,.469-.6,1.376,1.376,0,0,1,.253-.124,1.578,1.578,0,0,1,1.619.322,1.067,1.067,0,0,1,.271.681l-.022.7Zm2.792-1.954a.362.362,0,0,0-.145.045.134.134,0,0,0-.049.057.25.25,0,0,0-.018.1.976.976,0,0,0,.192.465l0,0h0l.414.659a3.5,3.5,0,0,0,.551.726,1.105,1.105,0,0,0,.775.312,1.142,1.142,0,0,0,.82-.326,3.591,3.591,0,0,0,.567-.775l.465-.765c.094-.214.122-.343.092-.4-.02-.039-.1-.049-.237-.035h-.031a.445.445,0,0,1-.186-.045l.21-.7a3.628,3.628,0,0,1-2.127-.6c-.228-.145-.294-.31-.522-.294a.769.769,0,0,0-.43.234,1.116,1.116,0,0,0-.247.487l.147.846a.287.287,0,0,1-.243.01Zm.385,3.087.742,2.18.373-1.293-.182-.2a.3.3,0,0,1-.055-.316c.1-.2.3-.159.494-.159s.447-.037.51.212a.333.333,0,0,1-.065.263l-.182.2.373,1.293.671-2.18c.485.436,1.731.524,2.264.82a1.433,1.433,0,0,1,.389.308.1.1,0,0,1,.014-.041c.059-.116.181-.094.294-.094s.267-.022.3.128a.211.211,0,0,1-.037.157l-.108.12.222.769-.285.226.094,1.234a.49.49,0,0,1-.512.479H7.888a.49.49,0,0,1-.512-.479l.112-1.454a1.8,1.8,0,0,1,.332-.973,1.4,1.4,0,0,1,.443-.375c.532-.3,1.778-.389,2.262-.824Zm3.328-3.3a.339.339,0,0,1,.22.177.81.81,0,0,1-.088.653h0c0,.006-.006.012-.008.018l-.473.777a3.83,3.83,0,0,1-.618.836,1.417,1.417,0,0,1-1.018.4,1.384,1.384,0,0,1-.971-.389,3.742,3.742,0,0,1-.6-.785L9.88,16.3a1.228,1.228,0,0,1-.239-.616.5.5,0,0,1,.043-.228.428.428,0,0,1,.153-.177.514.514,0,0,1,.114-.057,10.761,10.761,0,0,1-.018-1.156,1.621,1.621,0,0,1,.051-.269,1.574,1.574,0,0,1,.7-.891,1.808,1.808,0,0,1,.377-.182,2.352,2.352,0,0,1,2.415.481,1.612,1.612,0,0,1,.406,1.014l-.029,1.048Zm1.438,3.6.365-.01.3-.008a2.682,2.682,0,0,1,.616-2.941,1.908,1.908,0,0,0,1.02,1.138,5.4,5.4,0,0,1,.765.7c.043-.181-.124-.4-.326-.624a.984.984,0,0,1,.481.471,1.305,1.305,0,0,1,.092.846,1.738,1.738,0,0,1-.108.406h.5a2.975,2.975,0,0,0-.893-3.544,1.475,1.475,0,0,0-.965-.212,1.571,1.571,0,0,0-1.062.269,2.683,2.683,0,0,0-1.06,1.921,2.5,2.5,0,0,0,.265,1.583Zm3.771-7.429h3.12c.026,0,.047.016.047.035v.922c0,.02-.022.035-.047.035h-3.12c-.026,0-.047-.016-.047-.035v-.922c0-.02.022-.035.047-.035Zm0-2.017h3.12c.026,0,.047.016.047.035v.922c0,.02-.022.035-.047.035h-3.12c-.026,0-.047-.016-.047-.035V9.452c0-.02.022-.035.047-.035ZM1.905,11.434h3.12c.026,0,.047.016.047.035v.922c0,.02-.022.035-.047.035H1.905c-.026,0-.047-.016-.047-.035v-.922c0-.02.022-.035.047-.035Zm0-2.017h3.12c.026,0,.047.016.047.035v.922c0,.02-.022.035-.047.035H1.905c-.026,0-.047-.016-.047-.035V9.452c0-.02.022-.035.047-.035Zm12.158.214h1.666a.048.048,0,0,1,.047.047v1.666a.048.048,0,0,1-.047.047H14.063a.048.048,0,0,1-.047-.047V9.678a.048.048,0,0,1,.047-.047Zm-2.863,0h1.666a.048.048,0,0,1,.047.047v1.666a.048.048,0,0,1-.047.047H11.2a.048.048,0,0,1-.047-.047V9.678A.048.048,0,0,1,11.2,9.63Zm-2.863,0H10a.048.048,0,0,1,.047.047v1.666A.048.048,0,0,1,10,11.39H8.337a.048.048,0,0,1-.047-.047V9.678a.048.048,0,0,1,.047-.047ZM14.063,6.4h1.666a.048.048,0,0,1,.047.047V8.112a.048.048,0,0,1-.047.047H14.063a.048.048,0,0,1-.047-.047V6.446a.046.046,0,0,1,.047-.047ZM11.2,6.4h1.666a.048.048,0,0,1,.047.047V8.112a.048.048,0,0,1-.047.047H11.2a.048.048,0,0,1-.047-.047V6.446A.046.046,0,0,1,11.2,6.4Zm-2.863,0H10a.048.048,0,0,1,.047.047V8.112A.048.048,0,0,1,10,8.159H8.337a.048.048,0,0,1-.047-.047V6.446A.046.046,0,0,1,8.337,6.4Z" fill="#919ab1"/>
</svg>
