<svg xmlns="http://www.w3.org/2000/svg" width="16" height="16" viewBox="0 0 16 16">
  <g id="icon-payment-pending-classic" transform="translate(-1.105 -1)">
    <path id="Subtraction_1" data-name="Subtraction 1" d="M8,0A8,8,0,1,1,0,8,8,8,0,0,1,8,0Z" transform="translate(1.105 1)" fill="#d88e27"/>
    <g id="Group_158641" data-name="Group 158641" transform="translate(-133.752 -784.512)">
      <path id="monthly-subscription-icon" d="M17.451,22.283a.46.46,0,0,1-.237.888,5.512,5.512,0,1,1,5.235-9.306l-.025-.243a.458.458,0,1,1,.911-.093l.132,1.271a.516.516,0,0,1-.448.555l-1.277.045a.457.457,0,0,1-.029-.914l.051,0a4.592,4.592,0,1,0-5.953,6.984A4.762,4.762,0,0,0,17.451,22.283Zm1.469.155a.46.46,0,0,0,.049.919,5.288,5.288,0,0,0,1-.148.46.46,0,0,0-.224-.893A4.622,4.622,0,0,1,18.919,22.439Zm2.338-.807a.46.46,0,0,0,.528.755,5.227,5.227,0,0,0,.768-.651.46.46,0,0,0-.661-.641,4.224,4.224,0,0,1-.635.538Zm1.572-1.92a.46.46,0,0,0,.842.373,6.024,6.024,0,0,0,.322-.95.46.46,0,0,0-.9-.214A5.434,5.434,0,0,1,22.83,19.712Zm.36-2.453a.46.46,0,0,0,.917-.069l0-.05a5.711,5.711,0,0,0-.218-.978.46.46,0,0,0-.877.281,4.8,4.8,0,0,1,.181.816Z" transform="translate(124.24 775.663)" fill="#fff" fill-rule="evenodd"/>
      <path id="Path_26219" data-name="Path 26219" d="M59.99,20.212a1.332,1.332,0,0,1-1.33,1.33h-.443v.443a.222.222,0,0,1-.443,0v-.443H57.33A1.332,1.332,0,0,1,56,20.212a.222.222,0,1,1,.443,0,.888.888,0,0,0,.887.887h1.33a.887.887,0,0,0,0-1.774H57.441a1.33,1.33,0,1,1,0-2.66h.333v-.443a.222.222,0,1,1,.443,0v.443h.222A1.332,1.332,0,0,1,59.769,18a.222.222,0,1,1-.443,0,.888.888,0,0,0-.887-.887h-1a.887.887,0,0,0,0,1.774H58.66a1.332,1.332,0,0,1,1.33,1.33Z" transform="translate(84.751 774.565)" fill="#fff" stroke="#fff" stroke-width="0.5"/>
    </g>
  </g>
</svg>
