<svg xmlns="http://www.w3.org/2000/svg" width="21.874" height="21.874" viewBox="0 0 21.874 21.874">
  <g id="icon-banned" transform="translate(-147.189 -2190)">
    <g id="box" transform="translate(154.552 2198.004)">
      <path id="Path_13369" data-name="Path 13369" d="M.268,1.866,5.835.012a.3.3,0,0,1,.2,0h0l5.64,1.932a.31.31,0,0,1,.21.322.166.166,0,0,1,0,.022v6.56h0a.311.311,0,0,1-.171.278l-5.6,2.846a.312.312,0,0,1-.331,0L.168,9.039A.312.312,0,0,1,0,8.763H0V2.175a.312.312,0,0,1,.268-.309ZM1.5,6.672a.217.217,0,0,1,.434,0v.883a.159.159,0,0,1,0,.022.215.215,0,0,0,.011.073.037.037,0,0,0,.012.016l.541.251a.216.216,0,0,1-.181.392l-.554-.257a.143.143,0,0,1-.029-.016.467.467,0,0,1-.189-.224A.625.625,0,0,1,1.5,7.568v-.9Zm4.139,4.519V4.917L.624,2.643V8.575l5.014,2.616Zm5.621-8.473-5,2.2V11.2l5-2.539V2.718ZM5.93.635,1.188,2.215,5.952,4.376l4.765-2.1L5.93.635Z" transform="translate(-2 -3)" fill="#919ab1" stroke="#919ab1" stroke-width="0.4"/>
    </g>
    <g id="Group_157715" data-name="Group 157715" transform="translate(147.189 2190)">
      <g id="Group_157696" data-name="Group 157696" transform="translate(0 0)">
        <path id="Path_13351" data-name="Path 13351" d="M613.435,482.255a10.922,10.922,0,1,1,1.541.018A10.928,10.928,0,0,1,613.435,482.255ZM615.1,461.92a9.464,9.464,0,0,0-3.929,18.353,9.522,9.522,0,0,0,2.4.518,9.464,9.464,0,0,0,3.929-18.353A9.518,9.518,0,0,0,615.1,461.92Z" transform="translate(-603.397 -460.418)" fill="#d98e28"/>
      </g>
      <g id="Group_157697" data-name="Group 157697" transform="translate(1.208 5.537)">
        <path id="Path_13352" data-name="Path 13352" d="M.046.643,20.5,0l-.047,1.554L0,2.2Z" transform="matrix(0.903, -0.43, 0.43, 0.903, 0, 8.815)" fill="#d98e28"/>
      </g>
    </g>
  </g>
</svg>
