<svg id="icon_-_doc_-_Dark" data-name="icon - doc - Dark" xmlns="http://www.w3.org/2000/svg" width="48" height="54.5" viewBox="0 0 48 54.5">
  <path id="Path_4384" data-name="Path 4384" d="M99.417,0A3.421,3.421,0,0,0,96,3.406V51.094A3.421,3.421,0,0,0,99.417,54.5h34.167A3.421,3.421,0,0,0,137,51.094V13.625L123.333,0Z" transform="translate(-89)" fill="#dbe3f2"/>
  <path id="Path_4385" data-name="Path 4385" d="M355.429,13.625h10.286L352,0V10.219A3.428,3.428,0,0,0,355.429,13.625Z" transform="translate(-317.714)" fill="#8f9ab3"/>
  <path id="Path_4386" data-name="Path 4386" d="M394.286,138.219,384,128h10.286Z" transform="translate(-346.286 -114.375)" fill="#c5d2e7"/>
  <path id="Path_4387" data-name="Path 4387" d="M73.143,258.734a1.714,1.714,0,0,1-1.714,1.7H33.714a1.714,1.714,0,0,1-1.714-1.7V241.7a1.714,1.714,0,0,1,1.714-1.7H71.429a1.714,1.714,0,0,1,1.714,1.7Z" transform="translate(-32 -214.453)" fill="#f7f9fd"/>
  <g id="Group_152419" data-name="Group 152419" transform="translate(5.544 31.111)">
    <path id="Path_4388" data-name="Path 4388" d="M84.69,304.9a.857.857,0,0,1-.946-.845v-7.734a.929.929,0,0,1,.946-.845h3.139c6.264,0,6.125,9.423.122,9.423Zm.864-7.763v6.1h2.275c3.7,0,3.864-6.1,0-6.1Z" transform="translate(-83.744 -295.131)" fill="#373068"/>
    <path id="Path_4389" data-name="Path 4389" d="M184.929,302.172a4.774,4.774,0,0,1-5.169-4.9,5.038,5.038,0,0,1,10.075,0A4.765,4.765,0,0,1,184.929,302.172Zm-.151-8.129a3.228,3.228,0,1,0,3.262,3.227A3.127,3.127,0,0,0,184.778,294.043Z" transform="translate(-169.473 -292.272)" fill="#373068"/>
    <path id="Path_4390" data-name="Path 4390" d="M288.848,298.056a4.6,4.6,0,0,1,4.812-4.888,4.5,4.5,0,0,1,3.139,1.213.923.923,0,0,1,.041,1.32.935.935,0,0,1-1.262-.041,2.374,2.374,0,0,0-1.918-.748,2.951,2.951,0,0,0-3.123,3.146,3,3,0,0,0,3.123,3.241,3.213,3.213,0,0,0,2.139-.872.924.924,0,0,1,1.26.164.935.935,0,0,1-.151,1.279,4.5,4.5,0,0,1-3.25,1.064C290.343,302.934,288.848,300.684,288.848,298.056Z" transform="translate(-266.873 -293.073)" fill="#373068"/>
  </g>
  <path id="Path_4391" data-name="Path 4391" d="M128.571,417.7H96v1.7h32.571a1.714,1.714,0,0,0,1.714-1.7V416A1.714,1.714,0,0,1,128.571,417.7Z" transform="translate(-89.143 -371.719)" fill="#c5d2e7"/>
</svg>
