<svg xmlns="http://www.w3.org/2000/svg" width="20.05" height="20.06" viewBox="0 0 20.05 20.06">
  <g id="icon-licence-mol" transform="translate(-0.425 0.001)">
    <path id="Path_4695" data-name="Path 4695" d="M175.9,192.753l-3.464,3.272-1.663-1.711a.479.479,0,1,0-.687.668l1.994,2.047a.488.488,0,0,0,.678.014l3.811-3.594a.479.479,0,0,0,.019-.678A.49.49,0,0,0,175.9,192.753Zm0,0" transform="translate(-162.883 -184.866)" fill="#c5d2e7"/>
    <path id="Path_4696" data-name="Path 4696" d="M96.556,90.551a5.68,5.68,0,1,0,5.681,5.68A5.686,5.686,0,0,0,96.556,90.551Zm0,10.6a4.92,4.92,0,1,1,4.921-4.92A4.926,4.926,0,0,1,96.556,101.151Zm0,0" transform="translate(-86.104 -86.201)" fill="#c5d2e7"/>
    <path id="Path_4697" data-name="Path 4697" d="M19.047,7.731l.138-2.479a.417.417,0,0,0-.23-.4L16.748,3.739,15.632,1.531a.424.424,0,0,0-.4-.23l-2.483.134L10.682.068a.418.418,0,0,0-.46,0L8.152,1.435,5.674,1.3a.416.416,0,0,0-.4.23L4.16,3.734,1.953,4.851a.424.424,0,0,0-.23.4l.138,2.479L.494,9.8a.418.418,0,0,0,0,.46L1.857,12.33l-.138,2.479a.417.417,0,0,0,.23.4l2.207,1.116,1.116,2.207a.424.424,0,0,0,.4.23l2.479-.138,2.069,1.367a.407.407,0,0,0,.46,0l2.069-1.367,2.479.138a.417.417,0,0,0,.4-.23l1.116-2.207,2.207-1.116a.424.424,0,0,0,.23-.4l-.138-2.479,1.367-2.069a.418.418,0,0,0,0-.46Zm-.778,4.256a.393.393,0,0,0-.067.255l.129,2.345L16.246,15.64a.413.413,0,0,0-.184.184l-1.054,2.086-2.345-.13a.457.457,0,0,0-.255.067L10.452,19.14,8.5,17.848a.414.414,0,0,0-.23-.071H8.245l-2.345.13L4.846,15.82a.412.412,0,0,0-.184-.184l-2.09-1.049.13-2.345a.457.457,0,0,0-.067-.255L1.342,10.03,2.634,8.074A.391.391,0,0,0,2.7,7.819l-.13-2.345L4.658,4.42a.412.412,0,0,0,.184-.184L5.895,2.15l2.345.13A.459.459,0,0,0,8.5,2.213L10.452.921l1.957,1.292a.392.392,0,0,0,.255.067l2.345-.13,1.054,2.086a.412.412,0,0,0,.184.184l2.086,1.053L18.2,7.819a.458.458,0,0,0,.067.255l1.292,1.957Zm0,0" transform="translate(0 0)" fill="#c5d2e7"/>
  </g>
</svg>
