<svg xmlns="http://www.w3.org/2000/svg" width="30.792" height="41.056" viewBox="0 0 30.792 41.056">
    <path fill="#dbe3f2" d="M98.566,0A2.574,2.574,0,0,0,96,2.566V38.49a2.574,2.574,0,0,0,2.566,2.566h25.66a2.574,2.574,0,0,0,2.566-2.566V10.264L116.528,0Z" transform="translate(-96)"/>
    <path fill="#8f9ab3" d="M354.566,10.264h7.7L352,0V7.7A2.574,2.574,0,0,0,354.566,10.264Z" transform="translate(-331.472)"/>
    <path fill="#c5d2e7" d="M391.7,135.7,384,128h7.7Z" transform="translate(-360.906 -117.736)"/>
    <rect fill="#8f9ab3" width="21" height="3" rx="1.5" transform="translate(4.868 16.925)"/>
    <rect fill="#8f9ab3" width="21" height="3" rx="1.5" transform="translate(4.868 23.925)"/>
    <rect fill="#8f9ab3" width="21" height="3" rx="1.5" transform="translate(4.868 30.925)"/>
</svg>
