<svg xmlns="http://www.w3.org/2000/svg" width="21.133" height="24.787" viewBox="0 0 21.133 24.787">
	<path fill="#c5d2e7" d="M26.877,12.42v-.566a.782.782,0,0,0-1.471-.37l-7.95-3.159c0-.012,0-.02,0-.031a.2.2,0,0,0-.2-.2.2.2,0,0,0-.161.087l-.33-.13a.187.187,0,0,0-.146,0l-1.039.413a.834.834,0,0,1-.024-.173.75.75,0,0,1,.751-.747.2.2,0,0,0,.2-.2V6.567h.767a.2.2,0,0,0,.169-.1l.968-1.676a.2.2,0,0,0,0-.2L17.448,2.92a.2.2,0,0,0-.169-.1h-.161v-.61a.2.2,0,1,0-.393,0v.61H15.9V1.7a.2.2,0,1,0-.393,0V2.822h-.161a.2.2,0,0,0-.169.1L14.206,4.6a.2.2,0,0,0,0,.2l.968,1.676a.2.2,0,0,0,.169.1h.771v.606A1.145,1.145,0,0,0,15.166,8.3a1.08,1.08,0,0,0,.051.319L8.01,11.48a.78.78,0,0,0-1.463.378v.559a.6.6,0,0,0-.417.57V25.682a.606.606,0,0,0,.606.606H26.657a.606.606,0,0,0,.606-.606v-12.7A.6.6,0,0,0,26.877,12.42ZM15.465,6.17,14.611,4.69l.854-1.479h1.7l.854,1.479L17.168,6.17ZM25.7,11.854a.389.389,0,0,1,.779,0v.523H25.7v-.523Zm-9-3.407.311.122a.743.743,0,0,1-1.231.24Zm-8.58,3.411L15.4,8.967a1.136,1.136,0,0,0,1.979-.248l7.931,3.151v.519a.606.606,0,0,0-.433.252l-.865,1.247a.212.212,0,0,1-.173.09H9.556a.212.212,0,0,1-.173-.09l-.865-1.247a.6.6,0,0,0-.4-.248v-.535Zm-1.176,0a.389.389,0,0,1,.779,0v.523H6.944ZM26.869,25.678a.212.212,0,0,1-.212.212H6.74a.212.212,0,0,1-.212-.212V12.983a.212.212,0,0,1,.212-.212H8.026a.212.212,0,0,1,.173.09l.865,1.247a.61.61,0,0,0,.5.26H23.844a.6.6,0,0,0,.5-.26l.865-1.247a.218.218,0,0,1,.173-.09h1.29a.212.212,0,0,1,.212.212V25.678Z" transform="translate(-6.13 -1.5)" />
	<path fill="#c5d2e7" d="M20.6,12.17H0V0H20.6V12.169ZM18.025,1.447a.787.787,0,0,0-.787.787V9.758a.787.787,0,0,0,1.573,0V2.234A.787.787,0,0,0,18.025,1.447Zm-3.147,0a.787.787,0,0,0-.787.787V9.758a.787.787,0,0,0,1.573,0V2.234A.787.787,0,0,0,14.878,1.447Zm-3.147,0a.787.787,0,0,0-.787.787V9.758a.787.787,0,0,0,1.574,0V2.234A.788.788,0,0,0,11.731,1.447Zm-3.146,0a.788.788,0,0,0-.787.787V9.758a.787.787,0,0,0,1.574,0V2.234A.787.787,0,0,0,8.584,1.447Zm-3.147,0a.787.787,0,0,0-.787.787V9.758a.787.787,0,1,0,1.573,0V2.234A.787.787,0,0,0,5.437,1.447Zm-3.147,0a.787.787,0,0,0-.787.787V9.758a.787.787,0,1,0,1.573,0V2.234A.787.787,0,0,0,2.29,1.447Z" transform="translate(0.268 12.394)" />
</svg>
