<svg xmlns="http://www.w3.org/2000/svg" width="15.661" height="15.661" viewBox="0 0 15.661 15.661">
  <g id="Group_158705" data-name="Group 158705" transform="translate(-0.122 -1.12)">
    <path id="Path_124" data-name="Path 124" d="M169.58,167.983h-1.057a.529.529,0,1,0,0,1.057h1.057a.529.529,0,1,0,0-1.057Z" transform="translate(-156.23 -156.22)" fill="#6f4c98"/>
    <path id="Path_125" data-name="Path 125" d="M169.58,127.983h-1.057a.529.529,0,1,0,0,1.057h1.057a.529.529,0,1,0,0-1.057Z" transform="translate(-156.23 -118.863)" fill="#6f4c98"/>
    <path id="Path_126" data-name="Path 126" d="M38.451,28.8H33.632V25.188a1.206,1.206,0,0,0-1.2-1.2H25.2a1.206,1.206,0,0,0-1.2,1.2V39.042a.6.6,0,0,0,.6.6h8.433a.6.6,0,0,0,.6-.6V30.007h4.819v9.035a.6.6,0,0,0,1.2,0V30.007A1.206,1.206,0,0,0,38.451,28.8ZM27.006,26.995h2.409a.6.6,0,1,1,0,1.2H27.006a.6.6,0,0,1,0-1.2Zm2.409,10.24H27.006a.6.6,0,1,1,0-1.2h2.409a.6.6,0,1,1,0,1.2Zm1.2-3.012H28.211a.6.6,0,1,1,0-1.2H30.62a.6.6,0,1,1,0,1.2Z" transform="translate(-23.873 -22.863)" fill="#6f4c98"/>
  </g>
</svg>
