<svg xmlns="http://www.w3.org/2000/svg" width="38" height="38" viewBox="0 0 38 38">
  <g id="Group_158962" data-name="Group 158962" transform="translate(-765 -154)">
    <g id="icon-establishment-card" transform="translate(765 154)">
      <path id="Path_4585" data-name="Path 4585" d="M10.794,11.5a.709.709,0,0,1,.709-.709h2.837V9.375H11.5A2.128,2.128,0,0,0,9.375,11.5V14.34h1.419Z" transform="translate(-6.538 -6.537)" fill="#9d9ac0"/>
      <path id="Path_4586" data-name="Path 4586" d="M10.794,66.9V64.062H9.375V66.9A2.128,2.128,0,0,0,11.5,69.028h2.837V67.609H11.5A.709.709,0,0,1,10.794,66.9Z" transform="translate(-6.538 -39.753)" fill="#9d9ac0"/>
      <path id="Path_4587" data-name="Path 4587" d="M51.984,11.5V14.34H53.4V11.5a2.128,2.128,0,0,0-2.128-2.128H48.438v1.419h2.837a.708.708,0,0,1,.709.709Z" transform="translate(-30.362 -6.537)" fill="#9d9ac0"/>
      <path id="Path_4588" data-name="Path 4588" d="M37.214,21.884,28.458,16.7V5.025a1.9,1.9,0,0,0-1.9-1.9H5.025a1.9,1.9,0,0,0-1.9,1.9V32.891a1.9,1.9,0,0,0,1.9,1.9H22.758v.633a5.706,5.706,0,0,0,5.7,5.7h11.4a1.265,1.265,0,0,0,1.267-1.267V28.891a8.187,8.187,0,0,0-3.911-7.008ZM4.392,32.891V5.025a.633.633,0,0,1,.633-.633H26.558a.632.632,0,0,1,.633.633v23.9L22.5,24.349a3.167,3.167,0,0,0-4.514,4.445l4.036,4.731H5.025a.633.633,0,0,1-.633-.633Zm35.467,6.967h-11.4a4.438,4.438,0,0,1-4.434-4.434V34.158a.636.636,0,0,0-.152-.412l-4.962-5.813h0a1.9,1.9,0,0,1,0-2.689,1.944,1.944,0,0,1,2.695.006l8.308,8.094.887-.909-2.343-2.28V18.17l8.1,4.8a6.922,6.922,0,0,1,3.3,5.923Z" transform="translate(-3.125 -3.124)" fill="#9d9ac0"/>
      <path id="Path_4589" data-name="Path 4589" d="M81.668,54.109l-.747,1.206a7.755,7.755,0,0,1,3.7,6.636h1.419a9.169,9.169,0,0,0-4.368-7.842Z" transform="translate(-50.164 -34.004)" fill="#9d9ac0"/>
      <path id="Path_4590" data-name="Path 4590" d="M17.188,43.75h1.419v1.419H17.188Z" transform="translate(-10.553 -24.375)" fill="#9d9ac0"/>
      <path id="Path_4591" data-name="Path 4591" d="M23.438,43.75h8v1.419h-8Z" transform="translate(-14.126 -24.375)" fill="#9d9ac0"/>
      <path id="Path_4592" data-name="Path 4592" d="M48.438,43.75h1.419v1.419H48.438Z" transform="translate(-29.724 -24.375)" fill="#9d9ac0"/>
      <path id="Path_26162" data-name="Path 26162" d="M24.507,33.091a.505.505,0,0,0,0,1.01H36.628a.505.505,0,0,0,0-1.01h-1.01v-4.04h1.01a.505.505,0,0,0,.28-.925l-6.061-4.04a.505.505,0,0,0-.56,0l-6.061,4.04a.505.505,0,0,0,.28.925h1.01v4.04Z" transform="translate(-17.172 -18.043)" fill="none" stroke="#9d9ac0" stroke-width="1"/>
    </g>
    <g id="Group_158609" data-name="Group 158609" transform="translate(778.606 164.257) rotate(90)">
      <g id="Group_152145" data-name="Group 152145">
        <path id="Path_4405" data-name="Path 4405" d="M194.232,339.277h-2.739c-.142,0-.257.271-.257.607s.115.607.257.607h2.739c.142,0,.257-.271.257-.607S194.373,339.277,194.232,339.277Z" transform="translate(-191.236 -339.277)" fill="#f7bf06"/>
      </g>
    </g>
    <g id="Group_158610" data-name="Group 158610" transform="translate(781.606 164.257) rotate(90)">
      <g id="Group_152145-2" data-name="Group 152145">
        <path id="Path_4405-2" data-name="Path 4405" d="M194.232,339.277h-2.739c-.142,0-.257.271-.257.607s.115.607.257.607h2.739c.142,0,.257-.271.257-.607S194.373,339.277,194.232,339.277Z" transform="translate(-191.236 -339.277)" fill="#f7bf06"/>
      </g>
    </g>
  </g>
</svg>
