<svg xmlns="http://www.w3.org/2000/svg" width="19.18" height="22.535" viewBox="0 0 19.18 22.535">
  <path id="Path_4423" data-name="Path 4423" d="M50.377,19.467h-4V18.6a2.508,2.508,0,0,0-2.4-2.6H39.189a2.508,2.508,0,0,0-2.4,2.6v.867h-4a.87.87,0,0,0,0,1.733h.8V36.8a1.672,1.672,0,0,0,1.6,1.733H47.979a1.672,1.672,0,0,0,1.6-1.733V21.2h.8a.87.87,0,0,0,0-1.733Zm-10.389,13a.8.8,0,1,1-1.6,0V25.534a.8.8,0,1,1,1.6,0Zm4.795,0a.8.8,0,1,1-1.6,0V25.534a.8.8,0,1,1,1.6,0Zm0-13H38.39V18.6a.836.836,0,0,1,.8-.867h4.795a.836.836,0,0,1,.8.867Z" transform="translate(-31.996 -16)" fill="#a187bf"/>
</svg>
