<svg xmlns="http://www.w3.org/2000/svg" width="27.943" height="32.236" viewBox="0 0 27.943 32.236">
  <g id="Group_158956" data-name="Group 158956" transform="translate(-576.25 -407.053)">
    <g id="icon-noc-service-requests" transform="translate(577 403.282)">
      <line id="Line_361" data-name="Line 361" x2="2.633" transform="translate(22.111 4.52)" fill="none" stroke="#9d9ac0" stroke-linecap="round" stroke-linejoin="round" stroke-miterlimit="2.613" stroke-width="1.5"/>
      <path id="Path_4426" data-name="Path 4426" d="M397.066,82.7a1.708,1.708,0,0,1,1.7,1.719" transform="translate(-372.322 -78.176)" fill="none" stroke="#9d9ac0" stroke-linecap="round" stroke-linejoin="round" stroke-miterlimit="2.613" stroke-width="1.5"/>
      <line id="Line_362" data-name="Line 362" y2="27.297" transform="translate(26.443 6.239)" fill="none" stroke="#9d9ac0" stroke-linecap="round" stroke-linejoin="round" stroke-miterlimit="2.613" stroke-width="1.5"/>
      <path id="Path_4427" data-name="Path 4427" d="M398.766,453.047a1.71,1.71,0,0,1-1.7,1.72" transform="translate(-372.323 -419.511)" fill="none" stroke="#9d9ac0" stroke-linecap="round" stroke-linejoin="round" stroke-miterlimit="2.613" stroke-width="1.5"/>
      <line id="Line_363" data-name="Line 363" x1="23.044" transform="translate(1.5 35.256)" fill="none" stroke="#9d9ac0" stroke-linecap="round" stroke-linejoin="round" stroke-miterlimit="2.613" stroke-width="1.5"/>
      <path id="Path_4428" data-name="Path 4428" d="M82.943,454.767a1.71,1.71,0,0,1-1.7-1.72" transform="translate(-81.244 -419.511)" fill="none" stroke="#9d9ac0" stroke-linecap="round" stroke-linejoin="round" stroke-miterlimit="2.613" stroke-width="1.5"/>
      <line id="Line_364" data-name="Line 364" y1="27.297" transform="translate(0 6.239)" fill="none" stroke="#9d9ac0" stroke-linecap="round" stroke-linejoin="round" stroke-miterlimit="2.613" stroke-width="1.5"/>
      <path id="Path_4429" data-name="Path 4429" d="M81.244,84.416a1.709,1.709,0,0,1,1.7-1.719" transform="translate(-81.244 -78.177)" fill="none" stroke="#9d9ac0" stroke-linecap="round" stroke-linejoin="round" stroke-miterlimit="2.613" stroke-width="1.5"/>
      <line id="Line_365" data-name="Line 365" x2="14.801" transform="translate(1.699 4.521)" fill="none" stroke="#9d9ac0" stroke-linecap="round" stroke-linejoin="round" stroke-miterlimit="2.613" stroke-width="1.5"/>
      <g id="Group_158957" data-name="Group 158957" transform="translate(0 -2.181)">
        <g id="Group_152700" data-name="Group 152700" transform="translate(11.153 16.127)">
          <line id="Line_367" data-name="Line 367" x2="1.459" y2="1.357" transform="translate(0 1.604)" fill="none" stroke="#f7bf06" stroke-linecap="round" stroke-width="1.2"/>
          <line id="Line_368" data-name="Line 368" x1="2.679" y2="2.961" transform="translate(1.459)" fill="none" stroke="#f7bf06" stroke-linecap="round" stroke-width="1.2"/>
        </g>
        <g id="_3844474_gear_setting_settings_wheel_icon" data-name="3844474_gear_setting_settings_wheel_icon" transform="translate(2.854 7.697)">
          <path id="XMLID_242_" d="M16.617,6.916,16.086,6a1.063,1.063,0,0,0-1.452-.389l-.28.162a1.6,1.6,0,0,1-2.392-1.381V4.063A1.063,1.063,0,0,0,10.9,3H9.835A1.063,1.063,0,0,0,8.772,4.063v.323A1.6,1.6,0,0,1,6.38,5.768L6.1,5.606A1.063,1.063,0,0,0,4.648,6l-.532.921a1.063,1.063,0,0,0,.389,1.452l.28.162a1.6,1.6,0,0,1,0,2.762l-.28.162a1.063,1.063,0,0,0-.389,1.452l.532.921a1.063,1.063,0,0,0,1.452.389l.28-.162a1.6,1.6,0,0,1,2.392,1.381v.323a1.063,1.063,0,0,0,1.063,1.063H10.9a1.063,1.063,0,0,0,1.063-1.063v-.323a1.6,1.6,0,0,1,2.392-1.381l.28.162a1.063,1.063,0,0,0,1.452-.389l.532-.921a1.063,1.063,0,0,0-.389-1.452l-.28-.162a1.6,1.6,0,0,1,0-2.762l.28-.162A1.063,1.063,0,0,0,16.617,6.916Z" fill="none" stroke="#9d9ac0" stroke-linecap="round" stroke-linejoin="round" stroke-miterlimit="10" stroke-width="1.2"/>
        </g>
      </g>
      <g id="Group_158961" data-name="Group 158961" transform="translate(0.903 -1)">
        <line id="Line_370" data-name="Line 370" x2="10.934" transform="translate(3.097 31.797)" fill="none" stroke="#9d9ac0" stroke-linecap="round" stroke-linejoin="round" stroke-miterlimit="2.613" stroke-width="1.5"/>
        <line id="Line_419" data-name="Line 419" x1="10.934" transform="translate(10.882 27.797)" fill="none" stroke="#9d9ac0" stroke-linecap="round" stroke-linejoin="round" stroke-miterlimit="2.613" stroke-width="1.5"/>
        <line id="Line_417" data-name="Line 417" x2="4.54" transform="translate(17.276 31.797)" fill="none" stroke="#9d9ac0" stroke-linecap="round" stroke-linejoin="round" stroke-miterlimit="2.613" stroke-width="1.5"/>
        <line id="Line_418" data-name="Line 418" x1="4.54" transform="translate(3.097 27.797)" fill="none" stroke="#9d9ac0" stroke-linecap="round" stroke-linejoin="round" stroke-miterlimit="2.613" stroke-width="1.5"/>
      </g>
    </g>
  </g>
</svg>
