<svg xmlns="http://www.w3.org/2000/svg" width="21" height="19.498" viewBox="0 0 21 19.498">
  <path id="icon-comment" d="M36.112,39.563A7.5,7.5,0,0,0,30.4,28.577a7.5,7.5,0,1,0-13.51,6.486l-.58,2.03a1.312,1.312,0,0,0,1.622,1.623l2.03-.58a7.485,7.485,0,0,0,2.643.833A7.5,7.5,0,0,0,33.04,42.635l2.03.58a1.313,1.313,0,0,0,1.622-1.623Zm-1.452-.479a.75.75,0,0,0-.077.589l.573,2.007-2.007-.573a.75.75,0,0,0-.589.077,6,6,0,0,1-8.282-2.2,7.491,7.491,0,0,0,6.6-8.8,6,6,0,0,1,3.783,8.9Z" transform="translate(-15.999 -24.025)" fill="#c8b6dd"/>
</svg>
