<svg xmlns="http://www.w3.org/2000/svg" width="30.839" height="17.613" viewBox="0 0 30.839 17.613">
  <path id="icon-view" d="M38.75,56.441A15.74,15.74,0,0,0,35.2,52.213,17.816,17.816,0,0,0,23.42,47.992a17.816,17.816,0,0,0-11.778,4.221,15.74,15.74,0,0,0-3.553,4.228.766.766,0,0,0,0,.715,15.739,15.739,0,0,0,3.553,4.228A17.818,17.818,0,0,0,23.42,65.6,17.818,17.818,0,0,0,35.2,61.384a15.739,15.739,0,0,0,3.553-4.228A.766.766,0,0,0,38.75,56.441ZM23.42,52.836c2.555,0,4.626,1.774,4.626,3.963s-2.071,3.963-4.626,3.963-4.626-1.774-4.626-3.963S20.866,52.839,23.42,52.836Z" transform="translate(-8 -47.992)" fill="#d9d9d9"/>
</svg>
