<svg id="icon-transfer-location" xmlns="http://www.w3.org/2000/svg" width="19" height="19" viewBox="0 0 19 19">
  <rect id="Rectangle_112" data-name="Rectangle 112" width="19" height="19" fill="none"/>
  <path id="map-icon" d="M7.688,9.878a.219.219,0,0,1-.251.008,8.813,8.813,0,0,1-2.18-1.945A6.927,6.927,0,0,1,3.79,4.777a4.187,4.187,0,0,1,.532-2.961,3.647,3.647,0,0,1,.81-.9A3.948,3.948,0,0,1,7.612,0,3.512,3.512,0,0,1,9.97.962a3.512,3.512,0,0,1,.629.767,4.689,4.689,0,0,1,.447,3.393A7.468,7.468,0,0,1,7.688,9.878Zm-2.566.1v3.757l4.072,1.756V10.652a8.8,8.8,0,0,0,.871-.76v5.562l3.377-1.7V6.19l-1.3.5a8.322,8.322,0,0,0,.321-1.055l1.256-.485a.435.435,0,0,1,.555.253.43.43,0,0,1,.03.157v8.468a.436.436,0,0,1-.27.405L9.822,16.549a.436.436,0,0,1-.394,0L4.7,14.5.632,16.549a.435.435,0,0,1-.585-.192.443.443,0,0,1-.047-.2V7.191a.436.436,0,0,1,.313-.419l2.212-.854a7.919,7.919,0,0,0,.292.82l-1.945.75v7.969l3.377-1.7v-4.7a10.3,10.3,0,0,0,.873.917ZM7.449,1.919A1.853,1.853,0,1,1,5.6,3.772,1.853,1.853,0,0,1,7.449,1.919Z" transform="translate(2.54 1.572)" fill="#919ab1" fill-rule="evenodd"/>
</svg>
