<svg xmlns="http://www.w3.org/2000/svg" width="30.736" height="30.859" viewBox="0 0 30.736 30.859">
  <g id="icon-payment-pending-rich" transform="translate(-137.368 -788)">
    <path id="monthly-subscription-icon" d="M25.23,40.182a1.287,1.287,0,1,1-.664,2.487A15.431,15.431,0,1,1,39.222,16.617l-.07-.682a1.282,1.282,0,1,1,2.551-.261l.368,3.557a1.445,1.445,0,0,1-1.254,1.552l-3.574.127a1.281,1.281,0,0,1-.081-2.56l.143-.005A12.857,12.857,0,1,0,20.638,37.9a13.332,13.332,0,0,0,4.592,2.285Zm4.112.435a1.289,1.289,0,0,0,.138,2.574,14.8,14.8,0,0,0,2.79-.416,1.289,1.289,0,0,0-.628-2.5A12.939,12.939,0,0,1,29.342,40.617Zm6.546-2.258a1.289,1.289,0,0,0,1.477,2.112,14.633,14.633,0,0,0,2.151-1.822,1.289,1.289,0,0,0-1.85-1.8,11.827,11.827,0,0,1-1.777,1.505Zm4.4-5.374a1.289,1.289,0,0,0,2.357,1.043,16.863,16.863,0,0,0,.9-2.658,1.289,1.289,0,0,0-2.506-.6A15.214,15.214,0,0,1,40.289,32.984ZM41.3,26.117a1.289,1.289,0,0,0,2.566-.193l-.01-.139a15.987,15.987,0,0,0-.61-2.739,1.289,1.289,0,0,0-2.454.788,13.448,13.448,0,0,1,.508,2.284Z" transform="translate(124.24 775.663)" fill="#d98e28" fill-rule="evenodd"/>
    <path id="Path_26219" data-name="Path 26219" d="M67.171,27.792a3.728,3.728,0,0,1-3.724,3.724H62.206v1.241a.621.621,0,0,1-1.241,0V31.515H59.724A3.728,3.728,0,0,1,56,27.792a.621.621,0,1,1,1.241,0,2.485,2.485,0,0,0,2.482,2.482h3.724a2.482,2.482,0,0,0,0-4.965H60.034a3.724,3.724,0,0,1,0-7.447h.931V16.621a.621.621,0,1,1,1.241,0v1.241h.621a3.728,3.728,0,0,1,3.724,3.724.621.621,0,0,1-1.241,0A2.485,2.485,0,0,0,62.827,19.1H60.034a2.482,2.482,0,0,0,0,4.965h3.413a3.728,3.728,0,0,1,3.724,3.724Z" transform="translate(90.841 779.181)" fill="#d98e28" stroke="#d98e28" stroke-width="0.5"/>
  </g>
</svg>
