<svg xmlns="http://www.w3.org/2000/svg" width="25.008" height="23.243" viewBox="0 0 25.008 23.243">
  <g id="icon-contaminated" transform="translate(-273.991 -2189)">
    <g id="Group_157720" data-name="Group 157720" transform="translate(-652.452 2034.552)">
      <path id="Path_13347" data-name="Path 13347" d="M945.3,164.156a6.783,6.783,0,1,0-12.253-.027,6.782,6.782,0,1,0,5.9,10.422,6.782,6.782,0,1,0,6.354-10.394Zm-10.153-7.983a5.376,5.376,0,1,1,.284,7.6A5.376,5.376,0,0,1,935.149,156.173Zm2.274,16.436a5.376,5.376,0,1,1-4.464-6.155A5.376,5.376,0,0,1,937.423,172.609Zm8.265,4.639a5.376,5.376,0,1,1,5.376-5.376A5.376,5.376,0,0,1,945.688,177.248Z" fill="#919ab1"/>
      <path id="Path_13348" data-name="Path 13348" d="M1035.467,231.529l.919-1.171a6.311,6.311,0,0,0-5.292-1.256,7.436,7.436,0,0,0-2.449.964l.827,1.238A5.3,5.3,0,0,1,1035.467,231.529Z" transform="translate(-93.477 -68.156)" fill="#d98e28"/>
      <path id="Path_13349" data-name="Path 13349" d="M994.95,303.843l-1.482-.137a6.311,6.311,0,0,0,1.818,5.127,7.427,7.427,0,0,0,2.139,1.534l.591-1.367A5.3,5.3,0,0,1,994.95,303.843Z" transform="translate(-61.276 -136.517)" fill="#d98e28"/>
      <path id="Path_13350" data-name="Path 13350" d="M1100.667,306.216a5.3,5.3,0,0,1-3.24,5.05l.542,1.387a6.312,6.312,0,0,0,3.77-3.921,7.434,7.434,0,0,0,.414-2.6Z" transform="translate(-156.389 -138.736)" fill="#d98e28"/>
    </g>
  </g>
</svg>
