<svg xmlns="http://www.w3.org/2000/svg" width="33.06" height="33.059" viewBox="0 0 33.06 33.059">
  <g id="Group_158964" data-name="Group 158964" transform="translate(-693 -790.671)">
    <g id="noun_Calendar_857970" transform="translate(692.188 789.858)">
      <path id="Path_4367" data-name="Path 4367" d="M31.51,4.748H29.149V2.387A1.576,1.576,0,0,0,27.576.813H24.427a1.576,1.576,0,0,0-1.574,1.574V4.748H11.833V2.387A1.576,1.576,0,0,0,10.259.813H7.109A1.576,1.576,0,0,0,5.535,2.387V4.748H3.174A2.364,2.364,0,0,0,.813,7.109v24.4a2.364,2.364,0,0,0,2.361,2.361H31.512a2.364,2.364,0,0,0,2.361-2.361V7.109A2.364,2.364,0,0,0,31.51,4.748ZM24.427,2.387h3.149V7.109H24.427Zm-17.318,0h3.149V7.109H7.109ZM32.3,31.51a.788.788,0,0,1-.788.788H3.174a.788.788,0,0,1-.788-.788V14.194H32.3Zm0-18.89H2.387V7.109a.788.788,0,0,1,.788-.788H5.535V8.684h6.3V6.323h11.02V8.684h6.3V6.323H31.51a.788.788,0,0,1,.788.788Z" fill="#9e99c3"/>
    </g>
    <g id="noun_vessel_1495033" transform="translate(692 790.193)">
      <g id="Group_155803" data-name="Group 155803" transform="translate(9 16)">
        <g id="Group_155750" data-name="Group 155750" transform="translate(0 0)">
          <g id="noun_Truck_3167603" transform="translate(1 1.807)">
            <path id="Path_4551" data-name="Path 4551" d="M.323,282.43a.29.29,0,0,0-.2.083.28.28,0,0,0-.084.2v7.493a.28.28,0,0,0,.084.2.29.29,0,0,0,.2.083H9.345a.289.289,0,0,0,.2-.082.28.28,0,0,0,.084-.2v-7.493a.28.28,0,0,0-.084-.2.289.289,0,0,0-.2-.083Zm.286.565h8.45v6.93H.609Zm11.776.716a.3.3,0,0,0-.041,0H10.367a.29.29,0,0,0-.2.084.28.28,0,0,0-.083.2v6.8H.294a.284.284,0,0,0-.258.281v1.13a.285.285,0,0,0,.288.281H3.235a1.44,1.44,0,0,0,2.813,0h4.32a.285.285,0,0,0,.288-.281h1.734a1.436,1.436,0,0,0,2.871,0h2.022a.285.285,0,0,0,.286-.281v-1.209a.566.566,0,0,0,.289-.485v-.565a.566.566,0,0,0-.289-.486v-1.776a.279.279,0,0,0-.035-.161l0-.006-.012-.018,0-.005,0,0-3.456-3.387a.289.289,0,0,0-.231-.115H12.436a.286.286,0,0,0-.051,0Zm-1.73.569H12.1v3.105a.285.285,0,0,0,.286.283h4.6v1.439a.575.575,0,0,0-.574.565v.565a.574.574,0,0,0,.46.553.582.582,0,0,0,.114.011v.847H15.137a1.44,1.44,0,0,0-1.106-.83h0a1.424,1.424,0,0,0-.2-.017h0a1.439,1.439,0,0,0-1.312.847H10.655Zm2.022,0h1l3.024,2.824H12.677Zm4.316,5.393h.288v.565h-.288ZM.609,291.367H3.5a1.388,1.388,0,0,0-.267.565H.609Zm4.033,0a.848.848,0,1,1-.845.674A.848.848,0,0,1,4.642,291.367Zm1.139,0h4.3v.565H6.047a1.389,1.389,0,0,0-.266-.565Zm8.042,0a.864.864,0,0,1,.159.015c.023,0,.045.011.067.017s.053.014.079.024.048.02.072.031.045.023.067.036.045.027.066.042.034.026.05.04a.8.8,0,0,1,.069.062c.005.005.009.012.015.018a.888.888,0,0,1,.22.563.861.861,0,0,1-1.722,0,.866.866,0,0,1,.314-.651l.031-.025a.86.86,0,0,1,.084-.053l.045-.024a.833.833,0,0,1,.088-.038l.058-.018a.771.771,0,0,1,.086-.022.913.913,0,0,1,.154-.014Zm-9.181.423a.423.423,0,1,0,.43.423A.432.432,0,0,0,4.642,291.791Zm9.181,0a.423.423,0,1,0,.432.423A.43.43,0,0,0,13.823,291.791Zm-9.181.281a.142.142,0,1,1,0,.283.142.142,0,1,1,0-.283Zm9.181,0a.142.142,0,1,1,0,.283.142.142,0,1,1,0-.283Z" transform="translate(-1.035 -283.43)" fill="#f7bf06" stroke="#f7bf06" stroke-width="0.1"/>
          </g>
          <g id="Path_26703" data-name="Path 26703" transform="translate(12.626 7.905)" fill="none">
            <path d="M.439-1H2.194a.439.439,0,0,1,.439.439.439.439,0,0,1-.439.439H.439A.439.439,0,0,1,0-.561.439.439,0,0,1,.439-1Z" stroke="none"/>
            <path d="M 0.438765287399292 -1.000001430511475 L 2.193845272064209 -1.000001430511475 C 2.436165332794189 -1.000001430511475 2.632615327835083 -0.8035614490509033 2.632615327835083 -0.5612314343452454 C 2.632615327835083 -0.3189014196395874 2.436165332794189 -0.1224614381790161 2.193845272064209 -0.1224614381790161 L 0.438765287399292 -0.1224614381790161 C 0.1964454650878906 -0.1224614381790161 -4.529953002929688e-06 -0.3189014196395874 -4.529953002929688e-06 -0.5612314343452454 C -4.529953002929688e-06 -0.8035614490509033 0.1964454650878906 -1.000001430511475 0.438765287399292 -1.000001430511475 Z" stroke="none" fill="#f7bf06"/>
          </g>
        </g>
      </g>
    </g>
  </g>
</svg>
