<svg xmlns="http://www.w3.org/2000/svg" width="20.692" height="20.702" viewBox="0 0 20.692 20.702">
  <g id="icon-service" transform="translate(-365.653 -2191)">
    <g id="icon-service-name" transform="translate(335.996 2163.514)">
      <g id="Group_157694" data-name="Group 157694" transform="translate(29.657 27.486)">
        <g id="Group_153944" data-name="Group 153944" transform="translate(0 0)">
          <g id="quality">
            <path id="Path_4397" data-name="Path 4397" d="M96.738,90.551a5.862,5.862,0,1,0,5.863,5.862A5.868,5.868,0,0,0,96.738,90.551Zm0,10.939a5.077,5.077,0,1,1,5.078-5.077A5.084,5.084,0,0,1,96.738,101.49Zm0,0" transform="translate(-86.39 -86.06)" fill="#919ab1"/>
            <path id="Path_4398" data-name="Path 4398" d="M19.643,7.978l.142-2.558a.43.43,0,0,0-.237-.41L17.27,3.858,16.118,1.58a.438.438,0,0,0-.41-.237l-2.563.138L11.01.07a.431.431,0,0,0-.475,0L8.4,1.481,5.842,1.339a.43.43,0,0,0-.41.237L4.28,3.854,2,5.006a.437.437,0,0,0-.237.41l.142,2.558L.5,10.11a.431.431,0,0,0,0,.475L1.9,12.724,1.76,15.283a.43.43,0,0,0,.237.41l2.278,1.152,1.152,2.278a.437.437,0,0,0,.41.237L8.4,19.217l2.136,1.411a.42.42,0,0,0,.475,0l2.136-1.411,2.558.142a.431.431,0,0,0,.41-.237l1.152-2.278,2.278-1.152a.438.438,0,0,0,.237-.41l-.142-2.558,1.411-2.136a.431.431,0,0,0,0-.475Zm-.8,4.392a.405.405,0,0,0-.069.263l.134,2.42-2.153,1.087a.426.426,0,0,0-.19.19l-1.087,2.153-2.42-.134a.471.471,0,0,0-.263.069l-2.019,1.333L8.754,18.419a.427.427,0,0,0-.237-.073H8.495l-2.42.134L4.987,16.327a.425.425,0,0,0-.19-.19L2.64,15.054l.134-2.42A.471.471,0,0,0,2.7,12.37L1.372,10.351,2.7,8.332a.4.4,0,0,0,.069-.263L2.64,5.649,4.793,4.561a.425.425,0,0,0,.19-.19L6.07,2.219l2.42.134a.474.474,0,0,0,.263-.069L10.773.95l2.019,1.333a.4.4,0,0,0,.263.069l2.42-.134,1.087,2.153a.425.425,0,0,0,.19.19l2.153,1.087-.134,2.42a.472.472,0,0,0,.069.263l1.333,2.019Zm0,0" transform="translate(-0.425 0.001)" fill="#919ab1"/>
          </g>
        </g>
      </g>
      <g id="arrows-out-line-horizontal-fill" transform="translate(35.727 33.651)">
        <rect id="Rectangle_100" data-name="Rectangle 100" width="8" height="8" transform="translate(0.274 0.269)" fill="none"/>
        <path id="Path_102" data-name="Path 102" d="M10.948,36.209H8.684l.684-.684a.3.3,0,0,0-.422-.422L7.752,36.3l-.006.007-.014.015-.01.013-.008.011-.009.014-.006.011-.007.015-.005.012-.005.014,0,.013,0,.015,0,.014c0,.006,0,.011,0,.017s0,.008,0,.012a.3.3,0,0,0,0,.059s0,.008,0,.012,0,.011,0,.017l0,.014,0,.015,0,.013.005.014.005.012.007.015.006.011.009.014.008.011.01.013.014.015.006.007,1.194,1.194a.3.3,0,1,0,.422-.422l-.684-.684h2.264a.3.3,0,0,0,0-.6Zm4.813.563.01-.013.008-.011.009-.014.006-.011.007-.015.005-.012.005-.014,0-.013,0-.015,0-.014c0-.006,0-.011,0-.017s0-.008,0-.012a.3.3,0,0,0,0-.059s0-.008,0-.012,0-.011,0-.017l0-.014,0-.015,0-.013-.005-.014-.005-.012-.007-.015-.006-.011-.009-.014-.008-.011-.01-.013-.014-.015-.006-.007-1.194-1.194a.3.3,0,1,0-.422.422l.684.684H12.545a.3.3,0,0,0,0,.6H14.81l-.684.684a.3.3,0,0,0,.422.422l1.194-1.194.006-.007Z" transform="translate(-7.39 -32.042)" fill="#d98e28"/>
      </g>
    </g>
  </g>
</svg>
