<svg xmlns="http://www.w3.org/2000/svg" width="29.106" height="29.106" viewBox="0 0 29.106 29.106">
  <g id="Group_158948" data-name="Group 158948" transform="translate(-415 -611.672)">
    <path id="Path_26693" data-name="Path 26693" d="M37.554,24A13.553,13.553,0,1,0,51.107,37.553,13.553,13.553,0,0,0,37.554,24Z" transform="translate(391.999 588.672)" fill="none" stroke="#919ab1" stroke-width="2"/>
    <g id="Group_158946" data-name="Group 158946" transform="translate(427.424 618.927)">
      <g id="Group_158945" data-name="Group 158945" transform="translate(0 0.277)">
        <g id="Path_26695" data-name="Path 26695" transform="translate(0.762 0)" fill="#919ab1">
          <path d="M 1.367036461830139 2.41965913772583 C 0.8889464735984802 2.41965913772583 0.4999964535236359 1.989079117774963 0.4999964535236359 1.459829092025757 C 0.4999964535236359 0.9305790662765503 0.8889464735984802 0.4999991059303284 1.367036461830139 0.4999991059303284 C 1.845126509666443 0.4999991059303284 2.234076499938965 0.9305790662765503 2.234076499938965 1.459829092025757 C 2.234076499938965 1.989079117774963 1.845126509666443 2.41965913772583 1.367036461830139 2.41965913772583 Z" stroke="none"/>
          <path d="M 1.367036461830139 0.9999990463256836 C 1.168076515197754 0.9999990463256836 0.9999964237213135 1.210579037666321 0.9999964237213135 1.459829092025757 C 0.9999964237213135 1.709079146385193 1.168076515197754 1.91965913772583 1.367036461830139 1.91965913772583 C 1.565996408462524 1.91965913772583 1.734076499938965 1.709079146385193 1.734076499938965 1.459829092025757 C 1.734076499938965 1.210579037666321 1.565996408462524 0.9999990463256836 1.367036461830139 0.9999990463256836 M 1.367036461830139 -9.5367431640625e-07 C 2.122026443481445 -9.5367431640625e-07 2.734076499938965 0.6535890102386475 2.734076499938965 1.459829092025757 C 2.734076499938965 2.266069173812866 2.122026443481445 2.91965913772583 1.367036461830139 2.91965913772583 C 0.612046480178833 2.91965913772583 -3.576278686523438e-06 2.266069173812866 -3.576278686523438e-06 1.459829092025757 C -3.576278686523438e-06 0.6535890102386475 0.612046480178833 -9.5367431640625e-07 1.367036461830139 -9.5367431640625e-07 Z" stroke="none" fill="#919ab1"/>
        </g>
        <g id="Path_26696" data-name="Path 26696" transform="translate(0 5.03) rotate(-3)" fill="#919ab1">
          <path d="M 2.52394437789917 8.640127182006836 C 2.272914409637451 8.640127182006836 2.067804336547852 8.615177154541016 2.065764427185059 8.614917755126953 L 2.020004272460938 8.609277725219727 L 1.972644448280334 8.60911750793457 C 1.890550136566162 8.608906745910645 1.729599714279175 8.557263374328613 1.620786905288696 8.502982139587402 L 1.966254353523254 1.911037445068359 L 1.994654417037964 1.369247436523438 L 1.488964438438416 1.172727465629578 C 1.300193309783936 1.099364876747131 1.154683470726013 1.033696413040161 1.043061017990112 0.9772472381591797 C 1.339595079421997 0.8627970218658447 1.723922729492188 0.7645522952079773 1.901891708374023 0.7499974966049194 L 2.537408590316772 0.7499974966049194 C 2.482041120529175 1.197567462921143 2.333799123764038 2.483055114746094 2.268284320831299 3.905137538909912 C 2.122943162918091 7.060160160064697 2.505456209182739 8.12468433380127 2.832087516784668 8.625514030456543 C 2.751089334487915 8.634143829345703 2.649623155593872 8.640127182006836 2.52394437789917 8.640127182006836 Z" stroke="none"/>
          <path d="M 1.888864398002625 -2.86102294921875e-06 L 2.618404388427734 -2.86102294921875e-06 C 2.995894432067871 -2.86102294921875e-06 3.301924467086792 0.3060178756713867 3.301924467086792 0.6835174560546875 C 3.301924467086792 0.6835174560546875 2.480554342269897 6.840957641601562 3.490594387054443 8.260257720947266 C 4.50063419342041 9.679557800292969 1.972644448280334 9.35911750793457 1.972644329071045 9.35911750793457 C 1.595144391059875 9.35911750793457 0.8597743511199951 9.071017265319824 0.8597743511199951 8.693517684936523 L 1.217284440994263 1.871787548065186 C -1.70904541015625 0.7345170974731445 1.511364340782166 -2.86102294921875e-06 1.888864398002625 -2.86102294921875e-06 Z" stroke="none" fill="#919ab1"/>
        </g>
      </g>
      <path id="Path_26694" data-name="Path 26694" d="M34.336,28.5a1.564,1.564,0,1,1-1.564,1.564A1.564,1.564,0,0,1,34.336,28.5Zm1.043,14.6H34.337a1.042,1.042,0,0,1-1.043-1.043V35.8a1.043,1.043,0,0,1,0-2.085h1.043a1.042,1.042,0,0,1,1.043,1.043V41.01a1.043,1.043,0,1,1,0,2.085Z" transform="translate(-32.208 -28.5)" fill="none" stroke="#919ab1" stroke-width="1"/>
    </g>
  </g>
</svg>
