<svg xmlns="http://www.w3.org/2000/svg" width="29.494" height="22.097" viewBox="0 0 29.494 22.097">
  <g id="icon-nav-josoor-logo" transform="translate(-68.809 0)">
    <path id="Path_26751" data-name="Path 26751" d="M85.106,18.406l.3.071a8.007,8.007,0,0,0,1.091.165c.254.019.512.029.765.029.159,0,.307,0,.446-.01.1-.1.176-.194.266-.3L88,18.329A11.825,11.825,0,0,0,90.726,10.7V2.157a.173.173,0,0,1,.173-.173h5.246a.173.173,0,0,1,.173.173V10.8a9.474,9.474,0,0,1-3.141,7.129,8.777,8.777,0,0,1-1.907,1.288,8.589,8.589,0,0,1-2.931.842q-.286.032-.573.046h0q-.27.012-.546.01-.165,0-.329-.007-.248-.007-.5-.025a11.512,11.512,0,0,1-3.122-.748,7.428,7.428,0,0,1-1.614-.983,7.922,7.922,0,0,1-2.009-2.442,9.887,9.887,0,0,1-.593-1.326,11.44,11.44,0,0,1-.682-3.493l0-.815a.173.173,0,0,0-.173-.172h-9.21a.173.173,0,0,0-.173.173v.819a12.008,12.008,0,0,0,3.309,8.089A10.294,10.294,0,0,0,79.681,22.1h.045a12.206,12.206,0,0,0,1.316-.076,11.221,11.221,0,0,1-2.271-1.668q-.15-.142-.294-.29a.066.066,0,0,0-.04-.02,8.017,8.017,0,0,1-4.918-2.266,9.822,9.822,0,0,1-2.638-5.5.173.173,0,0,1,.172-.2H76.3a.173.173,0,0,1,.172.152,14.2,14.2,0,0,0,.7,2.945,12.33,12.33,0,0,0,.563,1.335,10.739,10.739,0,0,0,1.055,1.713,9.957,9.957,0,0,0,6.487,3.724c.078.012.159.021.239.031s.17.022.256.032c.124.013.251.025.379.035l.133.01q.456.032.914.035h.079c.161,0,.32,0,.478-.01q.455-.018.9-.07.481-.056.948-.15a10.447,10.447,0,0,0,4.891-2.453A11.459,11.459,0,0,0,98.3,10.8V.173A.173.173,0,0,0,98.129,0H88.915a.173.173,0,0,0-.173.173V10.7a9.839,9.839,0,0,1-2.257,6.349c-.075.089-.152.173-.229.258A8.8,8.8,0,0,1,85.16,18.33l-.049.039c-.021.018-.026.033-.005.037Z" fill="#efa97b"/>
    <path id="Path_26753" data-name="Path 26753" d="M1.752,0H2.32A1.752,1.752,0,0,1,4.072,1.752V2.32A1.752,1.752,0,0,1,2.32,4.072H1.752A1.752,1.752,0,0,1,0,2.32V1.752A1.752,1.752,0,0,1,1.752,0Z" transform="translate(81.017 10.985) rotate(-45)" fill="#efa97b"/>
  </g>
</svg>
