<svg xmlns="http://www.w3.org/2000/svg" width="29" height="29" viewBox="0 0 29 29">
  <g id="icon-return-rich" transform="translate(-4104 -3397)">
    <g id="Group_158650" data-name="Group 158650" transform="translate(48)">
      <rect id="Rectangle_141442" data-name="Rectangle 141442" width="29" height="29" transform="translate(4056 3397)" fill="none"/>
    </g>
    <path id="icon-return-lg" d="M46.825,55.618c.011-.014.019-.028.028-.043l.024-.035c.009-.015.018-.032.026-.048l.019-.035.021-.05c.007-.017.012-.026.017-.039s.011-.032.015-.048.009-.03.014-.045.007-.032.011-.048.007-.031.009-.046a.205.205,0,0,1,.008-.057c.008-.019,0-.026,0-.04a1.128,1.128,0,0,0,0-.2v-.04a.146.146,0,0,0-.008-.057A.145.145,0,0,1,47,54.744c0-.015-.007-.033-.011-.048s-.009-.03-.014-.045-.009-.032-.015-.048-.011-.026-.017-.039-.013-.033-.021-.05l-.019-.035c-.008-.017-.017-.033-.026-.048l-.024-.035c-.009-.014-.018-.028-.028-.043l-.04-.051-.018-.022-5.313-5.988a.817.817,0,0,0-1.253,0,1.09,1.09,0,0,0,0,1.417L44,53.991h-8.49C29.158,54,24.008,59.8,24,66.965a.891.891,0,1,0,1.771,0c.006-6.061,4.369-10.971,9.741-10.981H44l-3.8,4.284a1.09,1.09,0,0,0,0,1.417.817.817,0,0,0,1.253,0L46.767,55.7l.022-.022A.23.23,0,0,1,46.825,55.618Z" transform="translate(4082.743 3353.974)" fill="#1992ea" stroke="#1992ea" stroke-width="1"/>
  </g>
</svg>
