<svg xmlns="http://www.w3.org/2000/svg" width="20.692" height="20.702" viewBox="0 0 20.692 20.702">
  <g id="icon-service-name" transform="translate(-29.657 -27.486)">
    <g id="Group_157694" data-name="Group 157694" transform="translate(29.657 27.486)">
      <g id="Group_153944" data-name="Group 153944" transform="translate(0 0)">
        <g id="quality">
          <path id="Path_4397" data-name="Path 4397" d="M96.738,90.551a5.862,5.862,0,1,0,5.863,5.862A5.868,5.868,0,0,0,96.738,90.551Zm0,10.939a5.077,5.077,0,1,1,5.078-5.077A5.084,5.084,0,0,1,96.738,101.49Zm0,0" transform="translate(-86.39 -86.06)" fill="#919ab1"/>
          <path id="Path_4398" data-name="Path 4398" d="M19.643,7.978l.142-2.558a.43.43,0,0,0-.237-.41L17.27,3.858,16.118,1.58a.438.438,0,0,0-.41-.237l-2.563.138L11.01.07a.431.431,0,0,0-.475,0L8.4,1.481,5.842,1.339a.43.43,0,0,0-.41.237L4.28,3.854,2,5.006a.437.437,0,0,0-.237.41l.142,2.558L.5,10.11a.431.431,0,0,0,0,.475L1.9,12.724,1.76,15.283a.43.43,0,0,0,.237.41l2.278,1.152,1.152,2.278a.437.437,0,0,0,.41.237L8.4,19.217l2.136,1.411a.42.42,0,0,0,.475,0l2.136-1.411,2.558.142a.431.431,0,0,0,.41-.237l1.152-2.278,2.278-1.152a.438.438,0,0,0,.237-.41l-.142-2.558,1.411-2.136a.431.431,0,0,0,0-.475Zm-.8,4.392a.405.405,0,0,0-.069.263l.134,2.42-2.153,1.087a.426.426,0,0,0-.19.19l-1.087,2.153-2.42-.134a.471.471,0,0,0-.263.069l-2.019,1.333L8.754,18.419a.427.427,0,0,0-.237-.073H8.495l-2.42.134L4.987,16.327a.425.425,0,0,0-.19-.19L2.64,15.054l.134-2.42A.471.471,0,0,0,2.7,12.37L1.372,10.351,2.7,8.332a.4.4,0,0,0,.069-.263L2.64,5.649,4.793,4.561a.425.425,0,0,0,.19-.19L6.07,2.219l2.42.134a.474.474,0,0,0,.263-.069L10.773.95l2.019,1.333a.4.4,0,0,0,.263.069l2.42-.134,1.087,2.153a.425.425,0,0,0,.19.19l2.153,1.087-.134,2.42a.472.472,0,0,0,.069.263l1.333,2.019Zm0,0" transform="translate(-0.425 0.001)" fill="#919ab1"/>
        </g>
      </g>
    </g>
    <g id="arrows-out-line-horizontal-fill" transform="translate(35.727 33.651)">
      <rect id="Rectangle_100" data-name="Rectangle 100" width="8" height="8" transform="translate(0.274 0.269)" fill="none"/>
      <path id="Path_102" data-name="Path 102" d="M10.414,36.014h-1.9l.573-.573a.25.25,0,1,0-.354-.354l-1,1,0,.005-.011.013-.008.011-.007.009-.007.012-.005.009-.006.012,0,.01,0,.012,0,.011,0,.012,0,.012s0,.01,0,.014,0,.007,0,.01a.251.251,0,0,0,0,.049s0,.007,0,.01,0,.01,0,.014l0,.012,0,.012,0,.011,0,.012,0,.01.006.012.005.009.007.012.007.009.008.011.011.013,0,.005,1,1a.25.25,0,0,0,.354-.354l-.573-.573h1.9a.25.25,0,0,0,0-.5Zm4.03.471.008-.011.007-.009.007-.012.005-.009.006-.012,0-.01,0-.012,0-.011,0-.012,0-.012s0-.01,0-.014,0-.007,0-.01a.251.251,0,0,0,0-.049s0-.007,0-.01,0-.01,0-.014l0-.012,0-.012,0-.011,0-.012,0-.01-.006-.012-.005-.009-.007-.012-.007-.009-.008-.011-.011-.013,0-.005-1-1a.25.25,0,1,0-.354.354l.573.573h-1.9a.25.25,0,0,0,0,.5h1.9l-.573.573a.25.25,0,0,0,.354.354l1-1,0-.005Z" transform="translate(-6.727 -31.794)" fill="#919ab1"/>
    </g>
  </g>
</svg>
