<svg xmlns="http://www.w3.org/2000/svg" width="17.001" height="20.999" viewBox="0 0 17.001 20.999"><defs><style>.a-location{fill:#5ba2ec;stroke:rgba(0,0,0,0);stroke-miterlimit:10;}</style></defs><path class="a-location" d="M-12312.416-3800.131a22.852,22.852,0,0,1-3.77-3.42c-2.5-2.817-3.815-5.788-3.815-8.593a7.94,7.94,0,0,1,8-7.856,7.939,7.939,0,0,1,8,7.856c0,2.8-1.32,5.776-3.815,8.593a22.9,22.9,0,0,1-3.767,3.42.735.735,0,0,1-.417.13A.728.728,0,0,1-12312.416-3800.131Zm-6.129-12.012c0,5.12,5.04,9.378,6.546,10.534,1.5-1.156,6.546-5.423,6.546-10.534a6.5,6.5,0,0,0-6.546-6.428A6.5,6.5,0,0,0-12318.545-3812.143Zm2.906,0a3.61,3.61,0,0,1,3.64-3.571,3.608,3.608,0,0,1,3.636,3.571,3.608,3.608,0,0,1-3.636,3.571A3.61,3.61,0,0,1-12315.639-3812.143Zm1.457,0A2.166,2.166,0,0,0-12312-3810a2.163,2.163,0,0,0,2.18-2.143,2.163,2.163,0,0,0-2.18-2.143A2.166,2.166,0,0,0-12314.182-3812.143Z" transform="translate(12320.501 3820.499)"/></svg>