<svg xmlns="http://www.w3.org/2000/svg" width="15.188" height="15.188" viewBox="0 0 15.188 15.188">
  <path id="icon-download-white" d="M47.122,34.881,45.856,32.35A.633.633,0,0,0,45.29,32H33.9a.633.633,0,0,0-.566.35l-1.266,2.531a.633.633,0,0,0-.067.283V45.923a1.267,1.267,0,0,0,1.266,1.266H45.923a1.267,1.267,0,0,0,1.266-1.266V35.164a.633.633,0,0,0-.067-.283Zm-4.395,6.905-2.685,2.685-.013.012L40,44.513l-.016.012-.033.025-.014.008-.04.024-.01,0-.046.022-.007,0-.051.018-.007,0-.053.013-.016,0-.046.007a.621.621,0,0,1-.126,0l-.046-.007-.016,0-.053-.013-.007,0-.052-.018-.007,0-.046-.022-.01,0-.04-.024-.014-.008-.033-.025-.016-.012-.031-.028-.014-.013-2.685-2.685a.633.633,0,0,1,.9-.9l1.6,1.6V37.7a.633.633,0,1,1,1.266,0v4.8l1.6-1.6a.633.633,0,0,1,.9.9Zm-9.07-7.255.633-1.266H44.9l.633,1.266Z" transform="translate(-32 -32)" fill="#fff"/>
</svg>
