<svg xmlns="http://www.w3.org/2000/svg" width="14.857" height="14.892" viewBox="0 0 14.857 14.892">
  <g id="icon-load-filter" transform="translate(-8.788 -8.789)">
    <g id="saved-icon" transform="translate(8.788 8.789)">
      <path id="Path_26521" data-name="Path 26521" d="M.6,0H14.257a.6.6,0,0,1,.6.6V14.292a.6.6,0,0,1-1.025.423L7.413,9.186.991,14.746A.6.6,0,0,1,0,14.293H0V.6A.6.6,0,0,1,.6,0ZM13.657,1.2H1.2V12.982L7.015,7.947a.6.6,0,0,1,.789,0l5.854,5.043V1.2Z" fill="#fff" style="fill:white;"/>
    </g>
  </g>
</svg>
