<svg xmlns="http://www.w3.org/2000/svg" width="18.302" height="18.302" viewBox="0 0 18.302 18.302">
  <path id="Path_26077" data-name="Path 26077" d="M50.221,35.472,48.7,32.422A.763.763,0,0,0,48.014,32H34.288a.763.763,0,0,0-.682.422l-1.525,3.05a.763.763,0,0,0-.081.341V48.776A1.527,1.527,0,0,0,33.525,50.3H48.777A1.527,1.527,0,0,0,50.3,48.776V35.813a.762.762,0,0,0-.081-.341Zm-5.3,8.321L41.69,47.028l-.016.015c-.013.012-.025.024-.039.035l-.02.015-.04.03-.017.01c-.016.01-.031.02-.048.028l-.012.006c-.018.009-.036.018-.055.026l-.008,0c-.02.008-.041.016-.062.022l-.008,0c-.021.006-.042.012-.064.016l-.019,0-.055.008a.748.748,0,0,1-.152,0l-.055-.008-.019,0c-.022,0-.043-.01-.064-.016l-.008,0c-.021-.006-.042-.014-.062-.022l-.008,0c-.019-.008-.037-.017-.055-.026l-.012-.006c-.016-.009-.032-.019-.048-.028l-.017-.01-.04-.03-.02-.015c-.013-.011-.025-.023-.038-.034l-.017-.016-3.235-3.235a.763.763,0,0,1,1.078-1.079l1.934,1.934V38.863a.763.763,0,1,1,1.525,0v5.785l1.934-1.934a.763.763,0,0,1,1.078,1.079ZM34,35.05l.763-1.525H47.543l.763,1.525Z" transform="translate(-32 -32)" fill="#a187bf"/>
</svg>
