<svg xmlns="http://www.w3.org/2000/svg" width="32.659" height="38.724" viewBox="0 0 32.659 38.724">
  <g id="icon-invoices" transform="translate(-1107.222 -896.82)">
    <g id="file" transform="translate(1107.222 896.82)">
      <g id="Group_152140" data-name="Group 152140" transform="translate(0)">
        <g id="Group_152139" data-name="Group 152139" transform="translate(0)">
          <path id="Path_4402" data-name="Path 4402" d="M70.889,5.132H67.623V1.866A1.872,1.872,0,0,0,65.758,0H41.963A1.872,1.872,0,0,0,40.1,1.866V31.725a1.872,1.872,0,0,0,1.866,1.866h3.266v3.266A1.871,1.871,0,0,0,47.1,38.724H62.958a5.445,5.445,0,0,0,3.225-1.279L71.4,32.538a4.955,4.955,0,0,0,1.359-3.145V7A1.872,1.872,0,0,0,70.889,5.132ZM45.229,7V32.192H41.963a.473.473,0,0,1-.466-.467V1.866a.473.473,0,0,1,.466-.466H65.758a.473.473,0,0,1,.466.466V5.132H47.1A1.871,1.871,0,0,0,45.229,7Zm25.207,24.52-5.213,4.907a2.477,2.477,0,0,1-.4.292V32.425a1.17,1.17,0,0,1,1.166-1.166h4.668A1.959,1.959,0,0,1,70.436,31.519Zm.919-2.126a2.176,2.176,0,0,1-.063.467h-5.3a2.571,2.571,0,0,0-2.566,2.566v4.842a2.44,2.44,0,0,1-.466.056H47.1a.472.472,0,0,1-.466-.466V7a.472.472,0,0,1,.466-.466H70.889A.473.473,0,0,1,71.356,7Z" transform="translate(-40.097)" fill="#9d9ac0"/>
        </g>
      </g>
      <g id="Group_152142" data-name="Group 152142" transform="translate(11.431 11.664)">
        <g id="Group_152141" data-name="Group 152141">
          <path id="Path_4403" data-name="Path 4403" d="M205.465,154.216h-13.53a.7.7,0,0,0,0,1.4h13.53a.7.7,0,0,0,0-1.4Z" transform="translate(-191.235 -154.216)" fill="#f7bf06"/>
        </g>
      </g>
      <g id="Group_152146" data-name="Group 152146" transform="translate(11.431 20.995)">
        <g id="Group_152145" data-name="Group 152145">
          <path id="Path_4405" data-name="Path 4405" d="M199.4,339.277h-7.465a.7.7,0,1,0,0,1.4H199.4a.7.7,0,0,0,0-1.4Z" transform="translate(-191.236 -339.277)" fill="#f7bf06"/>
        </g>
      </g>
      <g id="Group_152148" data-name="Group 152148" transform="translate(11.431 16.329)">
        <g id="Group_152147" data-name="Group 152147">
          <path id="Path_4406" data-name="Path 4406" d="M205.465,215.9h-13.53a.7.7,0,1,0,0,1.4h13.53a.7.7,0,0,0,0-1.4Z" transform="translate(-191.235 -215.903)" fill="#f7bf06"/>
        </g>
      </g>
    </g>
    <path id="Path_6290" data-name="Path 6290" d="M1813.317,3355.4a2.569,2.569,0,0,0-1.961,2.4,2.616,2.616,0,0,0,2.341,2.479c.065.01.13.02.2.025a1.482,1.482,0,0,1,1.392,1.355,1.524,1.524,0,0,1-1.59,1.368c-.023,0-.045.006-.069.006a1.73,1.73,0,0,1-1.445-.7l-.816.816a2.868,2.868,0,0,0,1.949,1.017v.418h1.154v-.519a2.57,2.57,0,0,0,1.961-2.4,2.642,2.642,0,0,0-2.538-2.5,1.96,1.96,0,0,1-.2-.042,1.319,1.319,0,0,1,0-2.626,1.937,1.937,0,0,1,.463-.061,1.73,1.73,0,0,1,1.445.7l.816-.816a2.867,2.867,0,0,0-1.949-1.017v-.418h-1.154Z" transform="translate(-691.148 -2432.855)" fill="#9d9ac0"/>
  </g>
</svg>
