<svg xmlns="http://www.w3.org/2000/svg" width="33.393" height="39.601" viewBox="0 0 33.393 39.601">
  <g id="icon-bI-reports" transform="translate(-0.003)">
    <g id="file" transform="translate(0.003)">
      <g id="Group_152140" data-name="Group 152140">
        <g id="Group_152139" data-name="Group 152139">
          <path id="Path_4402" data-name="Path 4402" d="M71.586,5.249h-3.34V1.909A1.914,1.914,0,0,0,66.339,0H42.006A1.914,1.914,0,0,0,40.1,1.909V32.444a1.914,1.914,0,0,0,1.909,1.909h3.34v3.339A1.914,1.914,0,0,0,47.257,39.6H63.475a5.568,5.568,0,0,0,3.3-1.307L72.1,33.275a5.065,5.065,0,0,0,1.39-3.216V7.156A1.914,1.914,0,0,0,71.586,5.249ZM45.345,7.156V32.922h-3.34a.483.483,0,0,1-.477-.477V1.909a.483.483,0,0,1,.477-.477H66.339a.483.483,0,0,1,.477.477v3.34H47.253a1.914,1.914,0,0,0-1.908,1.908ZM71.123,32.232l-5.331,5.016a2.532,2.532,0,0,1-.408.3v-4.39a1.2,1.2,0,0,1,1.192-1.192H71.35a2,2,0,0,1-.227.267Zm.939-2.175a2.226,2.226,0,0,1-.064.477H66.576a2.63,2.63,0,0,0-2.629,2.625v4.952a2.5,2.5,0,0,1-.477.058H47.253a.483.483,0,0,1-.477-.477V7.156a.483.483,0,0,1,.477-.477H71.586a.483.483,0,0,1,.477.477Z" transform="translate(-40.1)" fill="#9d9ac0"/>
        </g>
      </g>
      <g id="Group_152146" data-name="Group 152146" transform="translate(10.192 30.58)">
        <g id="Group_152145" data-name="Group 152145" transform="translate(0 0)">
          <path id="Path_4405" data-name="Path 4405" d="M199.08,339.277h-9.129a.715.715,0,1,0,0,1.431h9.129a.715.715,0,0,0,0-1.431Z" transform="translate(-189.236 -339.277)" fill="#f7bf06"/>
        </g>
      </g>
      <g id="Group_152148" data-name="Group 152148" transform="translate(10.192 25.806)">
        <g id="Group_152147" data-name="Group 152147" transform="translate(0 0)">
          <path id="Path_4406" data-name="Path 4406" d="M205.281,215.9H189.95a.715.715,0,0,0,0,1.431h15.331a.715.715,0,0,0,0-1.431Z" transform="translate(-189.235 -215.9)" fill="#f7bf06"/>
        </g>
      </g>
    </g>
    <path id="Path_26031" data-name="Path 26031" d="M19.131,107.464v-2.048c0-.422-.085-.56-.337-.565h-.909c-.234,0-.326.149-.326.549v4.212c0,.346.106.536.317.528h.931c.231,0,.317-.16.324-.552C19.133,108.882,19.131,108.173,19.131,107.464Zm1.752-.633v2.716c0,.458.078.59.344.6q.442.006.884,0c.242,0,.331-.136.333-.528q.007-2.776,0-5.556c0-.4-.09-.528-.331-.536H21.2c-.234,0-.317.153-.317.552-.007.915-.005,1.834-.005,2.753Zm-5.072-.627v-3.351c0-.544-.076-.664-.4-.668h-.816c-.251,0-.344.149-.344.556V109.6c0,.391.093.536.329.544.3.008.607,0,.909,0,.231,0,.317-.149.317-.552V106.2Z" transform="translate(-3.97 -89.369)" fill="#9d9ac0"/>
    <path id="Path_26032" data-name="Path 26032" d="M39.335,97.068l-3,2.248V95.464a3.968,3.968,0,0,1,3,1.6Zm-.82,5.858c-.663-1.028-1.326-2.057-2-3.1l3.1-2.321A4.082,4.082,0,0,1,38.515,102.926ZM35.8,95.756v2.273c0,.475-.007.95,0,1.426a.692.692,0,0,0,.106.35c.589.929,1.189,1.85,1.783,2.774l.211.336a3.772,3.772,0,0,1-4.108-.211,3.841,3.841,0,0,1-1.426-4.277A3.8,3.8,0,0,1,35.8,95.756Z" transform="translate(-11.398 -82.642)" fill="#9d9ac0"/>
  </g>
</svg>
