<svg xmlns="http://www.w3.org/2000/svg" width="19.796" height="18.622" viewBox="0 0 19.796 18.622">
  <g id="icon-submitted-rich" transform="translate(-209.329 -642.409)">
    <path id="Path_26267" data-name="Path 26267" d="M52.454,36H37.567A1.569,1.569,0,0,0,36,37.567V43.9a.784.784,0,1,0,1.567,0V37.567H52.454V52.455h-6.7a.784.784,0,1,0,0,1.567h6.7a1.569,1.569,0,0,0,1.567-1.567V37.567A1.569,1.569,0,0,0,52.454,36Z" transform="translate(174.804 606.709)" fill="#57a05a" stroke="#57a05a" stroke-width="0.6"/>
    <path id="Path_26268" data-name="Path 26268" d="M34.74,144.23a.784.784,0,0,0-1.108,0l-5.714,5.714-2.58-2.58a.784.784,0,0,0-1.108,1.108l3.134,3.134a.784.784,0,0,0,1.108,0l6.268-6.268A.784.784,0,0,0,34.74,144.23Z" transform="translate(185.629 507.719)" fill="#57a05a" stroke="#57a05a" stroke-width="0.6"/>
  </g>
</svg>
