<svg xmlns="http://www.w3.org/2000/svg" width="16.179" height="16.179" viewBox="0 0 16.179 16.179">
  <g id="icon-save-filter" transform="translate(-8.25 -7.929)">
    <path id="Path_26519" data-name="Path 26519" d="M17.88,7.547l-3.8-3.8a2.98,2.98,0,0,0-2.106-.874H4.855c-1.646,0-1.98.334-1.98,1.98V16.774c0,1.646.334,1.98,1.98,1.98H16.774c1.646,0,1.98-.334,1.98-1.98V9.653a2.98,2.98,0,0,0-.874-2.106ZM8.828,17.767V15.781H12.8v1.987Zm8.939-.993a.993.993,0,0,1-.993.993H13.788v-1.98a.993.993,0,0,0-.993-.993H8.835a.993.993,0,0,0-.993.993v1.98H4.855a.993.993,0,0,1-.993-.993V4.855a.993.993,0,0,1,.993-.993H6.841V7.828a.993.993,0,0,0,.993.993h3.973c.549,0,.874.067.874-.481s-.326-.505-.874-.505H7.828V3.862h4.148a1.043,1.043,0,0,1,.706.288l4.8,4.8a.993.993,0,0,1,.288.706Z" transform="translate(5.525 5.204)" fill="#fff" style="fill:white;" stroke="#fff" stroke-width="0.3"/>
  </g>
</svg>
