<svg xmlns="http://www.w3.org/2000/svg" width="28.096" height="15.146" viewBox="0 0 28.096 15.146">
  <path id="icon-voucher" d="M7.256,6.226a.654.654,0,0,0,1.3.1.743.743,0,0,0,0-.1V4.92a.654.654,0,0,0-1.3-.1.743.743,0,0,0,0,.1V6.226ZM1.316,0H26.778A1.319,1.319,0,0,1,28.1,1.317V2.744a.54.54,0,0,1-.537.54H27.48a1.434,1.434,0,0,0-1.02.428,1.482,1.482,0,0,0-.434,1.033v.037a1.456,1.456,0,0,0,.439,1.04l.025.025a1.525,1.525,0,0,0,1.04.4h.025a.535.535,0,0,1,.537.533h0V8.581a.537.537,0,0,1-.537.537h-.027a1.52,1.52,0,0,0-1.061.421h0a1.459,1.459,0,0,0-.441,1.036v.037a1.493,1.493,0,0,0,.434,1.036,1.438,1.438,0,0,0,1.02.428h.071a.535.535,0,0,1,.542.528h0v1.223a1.312,1.312,0,0,1-.386.931l-.039.034a1.306,1.306,0,0,1-.892.354H1.316a1.319,1.319,0,0,1-.928-.368h0A1.322,1.322,0,0,1,0,13.844V12.621a.537.537,0,0,1,.537-.537H.612a1.443,1.443,0,0,0,1.022-.423,1.491,1.491,0,0,0,.434-1.033v-.018H2.057A1.475,1.475,0,0,0,.58,9.13a.537.537,0,0,1-.528-.54L0,6.8A.535.535,0,0,1,.52,6.249H.562A1.52,1.52,0,0,0,1.627,5.83l.025-.023A1.454,1.454,0,0,0,2.066,4.79V4.751a1.45,1.45,0,0,0-.439-1.038L1.6,3.686A1.523,1.523,0,0,0,.564,3.292H.507A.533.533,0,0,1,0,2.755H0V1.317A1.319,1.319,0,0,1,.386.389h0A1.319,1.319,0,0,1,1.316,0ZM16.043,10.781a.878.878,0,0,1-.345.338,1.612,1.612,0,0,1-.729.121c-.341,0-.512-.091-.512-.272a.336.336,0,0,1,.021-.082l3.695-6.542a1.884,1.884,0,0,1,.171-.256.86.86,0,0,1,.288-.176,1.333,1.333,0,0,1,.521-.089c.432,0,.647.094.647.281a.2.2,0,0,1-.021.094Zm-1.69-2.972a3.43,3.43,0,0,1-.8-.082,1.847,1.847,0,0,1-.631-.293,1.933,1.933,0,0,1-.594-1.66q0-1.232.626-1.6a2.547,2.547,0,0,1,1.4-.343,2.639,2.639,0,0,1,1.408.343,1.782,1.782,0,0,1,.626,1.6,1.968,1.968,0,0,1-.6,1.66A2.49,2.49,0,0,1,14.353,7.808Zm0-1.013a.169.169,0,0,0,.135-.062,1.27,1.27,0,0,0,.135-.741,5.33,5.33,0,0,0-.041-.819.608.608,0,0,0-.094-.277.176.176,0,0,0-.135-.053c-.183,0-.272.325-.272.976s.089.974.272.974Zm5.487,4.55a3.43,3.43,0,0,1-.8-.082,1.8,1.8,0,0,1-.631-.288,1.941,1.941,0,0,1-.594-1.66,1.766,1.766,0,0,1,.626-1.6,2.485,2.485,0,0,1,1.4-.354,2.581,2.581,0,0,1,1.422.352,1.76,1.76,0,0,1,.624,1.6,1.953,1.953,0,0,1-.594,1.66,2.476,2.476,0,0,1-1.44.375Zm0-1.011a.19.19,0,0,0,.137-.053,1.327,1.327,0,0,0,.135-.752,5.35,5.35,0,0,0-.041-.819.62.62,0,0,0-.094-.277.19.19,0,0,0-.137-.053c-.181,0-.27.325-.27.976S19.66,10.335,19.841,10.335Zm6.937-9.258H8.562v1.23a.686.686,0,0,1,0,.1.654.654,0,0,1-1.3-.1V1.077H1.318a.229.229,0,0,0-.176.066h0a.229.229,0,0,0-.069.169v.951a2.593,2.593,0,0,1,1.264.645l.034.03a2.515,2.515,0,0,1,.766,1.8V4.8A2.515,2.515,0,0,1,2.4,6.567L2.373,6.6a2.563,2.563,0,0,1-1.285.67l.025.835A2.533,2.533,0,0,1,3.143,10.6v.027A2.559,2.559,0,0,1,2.4,12.406a2.529,2.529,0,0,1-1.319.7v.727a.229.229,0,0,0,.069.171h0a.242.242,0,0,0,.169.069H7.256V12.749a.686.686,0,0,1,0-.1.654.654,0,0,1,1.3.1v1.326H26.771a.229.229,0,0,0,.153-.055L26.94,14a.245.245,0,0,0,.071-.171v-.718a2.515,2.515,0,0,1-1.319-.7,2.552,2.552,0,0,1-.745-1.779v-.062a2.515,2.515,0,0,1,.771-1.8,2.584,2.584,0,0,1,1.294-.686V7.271a2.559,2.559,0,0,1-1.264-.64l-.034-.03a2.515,2.515,0,0,1-.759-1.8V4.738A2.556,2.556,0,0,1,25.7,2.972a2.515,2.515,0,0,1,1.319-.7V1.317a.242.242,0,0,0-.229-.229ZM7.256,10.147a.654.654,0,0,0,1.3.1.743.743,0,0,0,0-.1V8.842a.654.654,0,0,0-1.3-.1.72.72,0,0,0,0,.1v1.306Z" transform="translate(0.001)" fill="#919ab1"/>
</svg>
