<svg xmlns="http://www.w3.org/2000/svg" width="28.959" height="26.453" viewBox="0 0 28.959 26.453">
  <g id="Group_157617" data-name="Group 157617" transform="translate(-1.453 0.678)" opacity="0.5">
    <path id="Path_107" data-name="Path 107" d="M25.064,43.12a1.062,1.062,0,1,0,0,2.124H50.557a1.062,1.062,0,0,0,0-2.124H48.432v-8.5h2.124a1.062,1.062,0,0,0,.589-1.946L38.4,24.179a1.062,1.062,0,0,0-1.178,0l-12.746,8.5a1.062,1.062,0,0,0,.589,1.946h2.124v8.5Zm14.87-7.435a1.062,1.062,0,1,1,2.124,0v6.373a1.062,1.062,0,0,1-2.124,0Zm-6.373,0a1.062,1.062,0,0,1,2.124,0v6.373a1.062,1.062,0,0,1-2.124,0Z" transform="translate(-21.878 -24)" fill="none" stroke="#fff" stroke-width="1.3"/>
    <path id="Path_26083" data-name="Path 26083" d="M85.122,455h-27.4a.643.643,0,1,0,0,1.275h27.4a.643.643,0,1,0,0-1.275Z" transform="translate(-55.492 -430.5)" fill="#f7bf06"/>
  </g>
</svg>
