<svg id="icon-visa" xmlns="http://www.w3.org/2000/svg" width="36" height="36" viewBox="0 0 36 36">
  <path id="Path_4584" data-name="Path 4584" d="M26.7,25.269a6.384,6.384,0,1,0-6.384-6.384A6.384,6.384,0,0,0,26.7,25.269Zm-4.512-4.327a9.241,9.241,0,0,0,1.9.546,9.257,9.257,0,0,0,.546,1.906,5,5,0,0,1-2.451-2.453ZM23.9,17.758q-.043.561-.043,1.126c0,.376.014.752.043,1.123-1.421-.33-2.171-.853-2.171-1.123s.75-.793,2.171-1.123ZM26.7,13.919c.27,0,.793.75,1.123,2.171-.371-.028-.747-.043-1.123-.043s-.752.014-1.123.043c.33-1.421.853-2.171,1.123-2.171Zm0,3.547c.486,0,.935.025,1.353.066.041.419.066.867.066,1.353s-.025.935-.066,1.353c-.419.041-.867.066-1.353.066s-.935-.025-1.353-.066c-.041-.419-.066-.867-.066-1.353s.025-.935.066-1.353C25.762,17.49,26.211,17.466,26.7,17.466Zm4.966,1.419c0,.27-.75.793-2.171,1.123.028-.371.043-.747.043-1.123s-.014-.752-.043-1.123C30.912,18.092,31.663,18.615,31.663,18.884ZM26.7,23.85c-.27,0-.793-.75-1.123-2.171.371.028.747.043,1.123.043s.752-.014,1.123-.043C27.489,23.1,26.966,23.85,26.7,23.85Zm2.057-.454a9.241,9.241,0,0,0,.546-1.9,9.257,9.257,0,0,0,1.906-.546A5,5,0,0,1,28.754,23.4Zm2.454-6.569a9.241,9.241,0,0,0-1.9-.546,9.257,9.257,0,0,0-.546-1.906A5,5,0,0,1,31.208,16.827Zm-6.569-2.454a9.241,9.241,0,0,0-.546,1.9,9.257,9.257,0,0,0-1.906.546A5,5,0,0,1,24.639,14.373Z" transform="translate(-14.228 -8.244)" fill="#8f9ab3"/>
  <path id="Path_4585" data-name="Path 4585" d="M10.794,11.5a.709.709,0,0,1,.709-.709h2.837V9.375H11.5A2.128,2.128,0,0,0,9.375,11.5V14.34h1.419Z" transform="translate(-6.538 -6.537)" fill="#8f9ab3"/>
  <path id="Path_4586" data-name="Path 4586" d="M10.794,66.9V64.062H9.375V66.9A2.128,2.128,0,0,0,11.5,69.028h2.837V67.609H11.5A.709.709,0,0,1,10.794,66.9Z" transform="translate(-6.538 -41.225)" fill="#8f9ab3"/>
  <path id="Path_4587" data-name="Path 4587" d="M51.984,11.5V14.34H53.4V11.5a2.128,2.128,0,0,0-2.128-2.128H48.438v1.419h2.837a.708.708,0,0,1,.709.709Z" transform="translate(-31.457 -6.537)" fill="#8f9ab3"/>
  <path id="Path_4588" data-name="Path 4588" d="M35.42,20.9l-8.3-4.914V4.925a1.8,1.8,0,0,0-1.8-1.8H4.925a1.8,1.8,0,0,0-1.8,1.8v26.4a1.8,1.8,0,0,0,1.8,1.8h16.8v.6a5.406,5.406,0,0,0,5.4,5.4h10.8a1.2,1.2,0,0,0,1.2-1.2V27.535A7.756,7.756,0,0,0,35.42,20.9ZM4.325,31.325V4.925a.6.6,0,0,1,.6-.6h20.4a.6.6,0,0,1,.6.6v22.64l-4.448-4.332A3,3,0,0,0,17.2,27.443l3.824,4.482H4.925a.6.6,0,0,1-.6-.6Zm33.6,6.6h-10.8a4.2,4.2,0,0,1-4.2-4.2v-1.2a.6.6,0,0,0-.144-.39l-4.7-5.507h0a1.8,1.8,0,0,1,0-2.547,1.842,1.842,0,0,1,2.553.006L28.5,31.755l.84-.861-2.22-2.16V17.378L34.8,21.924a6.558,6.558,0,0,1,3.126,5.611Z" transform="translate(-3.125 -3.124)" fill="#8f9ab3"/>
  <path id="Path_4589" data-name="Path 4589" d="M81.668,54.109l-.747,1.206a7.755,7.755,0,0,1,3.7,6.636h1.419a9.169,9.169,0,0,0-4.368-7.842Z" transform="translate(-52.164 -35.337)" fill="#8f9ab3"/>
  <path id="Path_4590" data-name="Path 4590" d="M17.188,43.75h1.419v1.419H17.188Z" transform="translate(-10.916 -25.434)" fill="#8f9ab3"/>
  <path id="Path_4591" data-name="Path 4591" d="M23.438,43.75h8v1.419h-8Z" transform="translate(-14.747 -25.434)" fill="#8f9ab3"/>
  <path id="Path_4592" data-name="Path 4592" d="M48.438,43.75h1.419v1.419H48.438Z" transform="translate(-30.747 -25.434)" fill="#8f9ab3"/>
</svg>
