<svg id="icon-light-mode" xmlns="http://www.w3.org/2000/svg" width="103.851" height="103.851" viewBox="0 0 103.851 103.851">
  <circle id="Ellipse_1" data-name="Ellipse 1" cx="32.694" cy="32.694" r="32.694" transform="translate(19.232 19.232)" fill="#080521"/>
  <path id="Path_5" data-name="Path 5" d="M123.846,31.539a3.846,3.846,0,0,0,3.846-3.846V23.846a3.846,3.846,0,0,0-7.693,0v3.846A3.846,3.846,0,0,0,123.846,31.539Z" transform="translate(-71.921 -20)" fill="#080521"/>
  <path id="Path_6" data-name="Path 6" d="M53.136,58.575a3.846,3.846,0,1,0,5.44-5.439l-2.72-2.72a3.846,3.846,0,0,0-5.439,5.439Z" transform="translate(-35.207 -35.207)" fill="#080521"/>
  <path id="Path_7" data-name="Path 7" d="M27.693,120H23.846a3.846,3.846,0,0,0,0,7.693h3.846a3.846,3.846,0,0,0,0-7.693Z" transform="translate(-20 -71.921)" fill="#080521"/>
  <path id="Path_8" data-name="Path 8" d="M53.136,186.18l-2.72,2.72a3.846,3.846,0,0,0,5.439,5.439l2.72-2.72a3.846,3.846,0,0,0-5.439-5.439Z" transform="translate(-35.208 -105.698)" fill="#080521"/>
  <path id="Path_9" data-name="Path 9" d="M123.846,212A3.846,3.846,0,0,0,120,215.846v3.846a3.846,3.846,0,1,0,7.693,0v-3.846A3.846,3.846,0,0,0,123.846,212Z" transform="translate(-71.921 -119.688)" fill="#080521"/>
  <path id="Path_10" data-name="Path 10" d="M191.62,186.18a3.846,3.846,0,0,0-5.439,5.439l2.72,2.72a3.846,3.846,0,0,0,5.439-5.439Z" transform="translate(-105.697 -105.697)" fill="#080521"/>
  <path id="Path_11" data-name="Path 11" d="M219.693,120h-3.846a3.846,3.846,0,0,0,0,7.693h3.846a3.846,3.846,0,0,0,0-7.693Z" transform="translate(-119.688 -71.921)" fill="#080521"/>
  <path id="Path_12" data-name="Path 12" d="M188.9,59.7a3.835,3.835,0,0,0,2.72-1.127l2.719-2.72a3.846,3.846,0,1,0-5.439-5.439l-2.72,2.72A3.846,3.846,0,0,0,188.9,59.7Z" transform="translate(-105.697 -35.207)" fill="#080521"/>
</svg>
