<svg xmlns="http://www.w3.org/2000/svg" width="31.59" height="36.902" viewBox="0 0 31.59 36.902">
  <g id="icon-employee-services" transform="translate(-654.422 -156.594)">
    <g id="icon-marsad" transform="translate(654.422 156.594)">
      <g id="Group_158598" data-name="Group 158598" transform="translate(0 0)">
        <g id="data-collection" transform="translate(4.648 21.833)">
          <path id="Path_26151" data-name="Path 26151" d="M7.406,32.217a.77.77,0,1,1,0-1.537H22.961a.77.77,0,1,1,0,1.537Z" transform="translate(-6.58 -30.68)" fill="#f7bf06" fill-rule="evenodd"/>
        </g>
        <g id="data-collection-2" data-name="data-collection">
          <path id="Path_26151-2" data-name="Path 26151" d="M31.583,24.86V16.638a2.122,2.122,0,0,0-2.119-2.119H26.5V9.129A2.122,2.122,0,0,0,24.385,7.01H2.119A2.122,2.122,0,0,0,0,9.129V36.3a2.122,2.122,0,0,0,2.119,2.119h2.96v3.369A2.122,2.122,0,0,0,7.2,43.912H29.471a2.122,2.122,0,0,0,2.119-2.119V31.282ZM6.894,38.423v3.369A.282.282,0,0,0,6.986,42,.306.306,0,0,0,7.2,42.1H29.471A.282.282,0,0,0,29.682,42a.306.306,0,0,0,.092-.212V16.638a.282.282,0,0,0-.092-.212.294.294,0,0,0-.212-.092h-2.96V36.3a2.122,2.122,0,0,1-2.119,2.119Zm17.49-29.6H2.119a.282.282,0,0,0-.212.092.306.306,0,0,0-.092.212V36.3a.294.294,0,0,0,.092.212.306.306,0,0,0,.212.092H24.392a.282.282,0,0,0,.212-.092A.294.294,0,0,0,24.7,36.3V9.129a.314.314,0,0,0-.311-.3Z" transform="translate(0 -7.01)" fill="#9d9ac0" fill-rule="evenodd"/>
        </g>
      </g>
      <path id="Path_26153" data-name="Path 26153" d="M7.406,32.217a.77.77,0,1,1,0-1.537H15.9a.77.77,0,1,1,0,1.537Z" transform="translate(-1.932 -5.363)" fill="#f7bf06" fill-rule="evenodd"/>
    </g>
    <g id="manager-icon" transform="translate(660.394 161.51)">
      <path id="Path_26164" data-name="Path 26164" d="M6.234,11.074l.8,2.365.4-1.4-.2-.218a.331.331,0,0,1-.06-.343c.108-.213.329-.173.537-.173s.487-.041.554.231a.355.355,0,0,1-.069.284l-.2.218.4,1.4.728-2.365c.526.473,2.08.567,2.659.89a1.54,1.54,0,0,1,.482.407,1.7,1.7,0,0,1,.479,1.1.532.532,0,0,1-.556.519H3.171a.531.531,0,0,1-.556-.519,1.707,1.707,0,0,1,.479-1.1,1.481,1.481,0,0,1,.482-.407c.578-.323,2.134-.418,2.658-.89ZM3.5,10.918a.4.4,0,0,0-.034-.055c-.056-.093-.113-.184-.17-.289s-.113-.22-.164-.319-.1-.22-.141-.333-.078-.211-.12-.347a.453.453,0,0,0-.432-.31H1.216A.264.264,0,0,1,1.1,9.244a.267.267,0,0,1-.084-.063A.324.324,0,0,1,.956,9.1a.255.255,0,0,1-.021-.113V7.439A.362.362,0,0,1,.95,7.333a.383.383,0,0,1,.071-.1A.194.194,0,0,1,1.1,7.178a.259.259,0,0,1,.113-.021H2.343A.464.464,0,0,0,2.8,6.781c.028-.12.056-.233.084-.333s.071-.22.114-.333a2.942,2.942,0,0,1,.141-.325c.05-.114.106-.211.155-.31a.449.449,0,0,0-.078-.537l-.877-.885c-.006-.006-.006-.006-.015-.006a.3.3,0,0,1-.063-.084.2.2,0,0,1-.015-.1.227.227,0,0,1,.021-.106.3.3,0,0,1,.071-.1L3.417,2.588a.294.294,0,0,1,.1-.071A.224.224,0,0,1,3.623,2.5a.227.227,0,0,1,.106.021.431.431,0,0,1,.093.063h.006l.8.8a.454.454,0,0,0,.581.05c.093-.056.184-.113.289-.17s.22-.113.319-.164.22-.1.333-.141.211-.078.347-.12a.453.453,0,0,0,.31-.432V1.175a.264.264,0,0,1,.021-.114A.655.655,0,0,1,6.884.977.2.2,0,0,1,6.967.921.257.257,0,0,1,7.081.9H8.293a.264.264,0,0,1,.114.021A.194.194,0,0,1,8.49.977a.546.546,0,0,1,.056.084.257.257,0,0,1,.021.114V2.4a.454.454,0,0,0,.31.432c.134.043.248.084.347.12.114.043.226.093.333.141l.319.164c.106.056.2.113.289.17a.451.451,0,0,0,.581-.05l.8-.8h.006a.3.3,0,0,1,.093-.063.221.221,0,0,1,.106-.021.227.227,0,0,1,.106.021.289.289,0,0,1,.1.071l1.082,1.076a.294.294,0,0,1,.071.1.221.221,0,0,1,.021.106.2.2,0,0,1-.015.1.34.34,0,0,1-.063.084c-.006,0-.006,0-.015.006l-.877.885a.448.448,0,0,0-.078.537c.05.1.106.2.155.31a3.461,3.461,0,0,1,.141.325c.043.113.078.22.114.333s.056.211.084.333a.464.464,0,0,0,.453.375h1.124a.264.264,0,0,1,.114.021.184.184,0,0,1,.084.056.4.4,0,0,1,.071.1.451.451,0,0,1,.015.106V8.981a.264.264,0,0,1-.021.114.374.374,0,0,1-.063.084.234.234,0,0,1-.084.063.259.259,0,0,1-.113.021H12.934a.454.454,0,0,0-.432.31c-.043.134-.084.248-.12.347-.043.114-.093.226-.141.333-.106.209-.209.409-.333.608a.4.4,0,0,0-.034.055h1.071c.045-.09.09-.188.138-.288.056-.128.113-.254.164-.382.006-.021.021-.05.029-.071h.906a1.233,1.233,0,0,0,.459-.084,1.2,1.2,0,0,0,.39-.262,1.1,1.1,0,0,0,.262-.39,1.271,1.271,0,0,0,.084-.459V7.438a1.221,1.221,0,0,0-.093-.453A1.127,1.127,0,0,0,15.03,6.6L15.024,6.6a1.179,1.179,0,0,0-.382-.263,1.133,1.133,0,0,0-.459-.093h-.772a.135.135,0,0,0-.015-.056c-.043-.134-.084-.269-.134-.4s-.106-.263-.163-.382a.475.475,0,0,1-.028-.056l.638-.644a1.056,1.056,0,0,0,.268-.375,1.248,1.248,0,0,0,.093-.459,1.108,1.108,0,0,0-.093-.459,1.25,1.25,0,0,0-.262-.382H13.71L12.627,1.955a1.223,1.223,0,0,0-.39-.262,1.159,1.159,0,0,0-.459-.093,1.137,1.137,0,0,0-.459.093,1.123,1.123,0,0,0-.39.262l-.552.546-.043-.021c-.114-.063-.242-.12-.375-.184s-.254-.113-.382-.164c-.021-.006-.05-.021-.071-.029V1.2A1.228,1.228,0,0,0,9.421.736,1.184,1.184,0,0,0,9.16.345a1.23,1.23,0,0,0-.39-.262A1.263,1.263,0,0,0,8.309,0H7.068a1.261,1.261,0,0,0-.459.084,1.3,1.3,0,0,0-.39.262,1.165,1.165,0,0,0-.262.39,1.238,1.238,0,0,0-.084.459V2.1c-.021.006-.05.021-.071.029-.128.05-.254.106-.382.164s-.262.12-.375.184L5,2.5,4.45,1.953a1.112,1.112,0,0,0-.39-.262A1.181,1.181,0,0,0,3.6,1.6a1.108,1.108,0,0,0-.459.093,1.216,1.216,0,0,0-.39.262L1.668,3.029H1.662a1.289,1.289,0,0,0-.262.382,1.148,1.148,0,0,0-.093.458,1.208,1.208,0,0,0,.093.459,1.071,1.071,0,0,0,.269.375l.637.644a.4.4,0,0,1-.028.056c-.056.12-.106.248-.164.382s-.093.262-.134.4a.188.188,0,0,0-.015.056H1.2a1.1,1.1,0,0,0-.459.093,1.149,1.149,0,0,0-.382.262L.349,6.6A1.121,1.121,0,0,0,.1,6.981a1.2,1.2,0,0,0-.1.457V8.98a1.261,1.261,0,0,0,.084.459,1.123,1.123,0,0,0,.262.39,1.152,1.152,0,0,0,.39.262,1.242,1.242,0,0,0,.459.084H2.1c.006.021.021.05.029.071.05.128.106.254.164.382.049.1.093.2.138.288H3.5v0ZM5.87,7.691a.442.442,0,0,0-.226.059.178.178,0,0,0-.065.075.255.255,0,0,0-.021.12,1.07,1.07,0,0,0,.214.521v0h0l.449.715a3.831,3.831,0,0,0,.6.793,1.234,1.234,0,0,0,.862.347A1.261,1.261,0,0,0,8.6,9.961a3.994,3.994,0,0,0,.622-.848l.506-.833a.82.82,0,0,0,.108-.444c-.014-.05-.069-.075-.163-.079H9.609l-.071,0a.132.132,0,0,1-.039,0,.75.75,0,0,1-.139-.008l.173-.767a3.939,3.939,0,0,1-2.307-.652c-.247-.156-.32-.337-.567-.319a.835.835,0,0,0-.467.253,1.209,1.209,0,0,0-.268.527l.1.9a.62.62,0,0,1-.153,0Zm3.976-.161a.322.322,0,0,1,.237.245,1.016,1.016,0,0,1-.123.613h0L9.952,8.4l-.512.843a4.161,4.161,0,0,1-.666.9,1.51,1.51,0,0,1-1.085.43,1.476,1.476,0,0,1-1.032-.414,3.985,3.985,0,0,1-.648-.846L5.56,8.6A1.321,1.321,0,0,1,5.3,7.95a.525.525,0,0,1,.044-.234A.433.433,0,0,1,5.5,7.537a.554.554,0,0,1,.109-.055A11.5,11.5,0,0,1,5.59,6.2,1.627,1.627,0,0,1,6.4,4.938a2.032,2.032,0,0,1,.409-.2,2.553,2.553,0,0,1,2.62.519,1.748,1.748,0,0,1,.44,1.1l-.029,1.17Z" fill="#9d9ac0" fill-rule="evenodd"/>
    </g>
  </g>
</svg>
