<?xml version="1.0" encoding="UTF-8"?>
<svg width="309px" height="44px" viewBox="0 0 309 44" version="1.1" xmlns="http://www.w3.org/2000/svg" xmlns:xlink="http://www.w3.org/1999/xlink">
    <!-- Generator: Sketch 58 (84663) - https://sketch.com -->
    <title>Group</title>
    <desc>Created with Sketch.</desc>
    <g id="Symbols" stroke="none" stroke-width="1" fill="none" fill-rule="evenodd">
        <g id="Menu" transform="translate(-556.000000, -55.000000)">
            <g id="menu-(logged-out)">
                <g transform="translate(2.000000, 35.500000)">
                    <g id="Group" transform="translate(554.000000, 19.500000)">
                        <polyline id="Fill-24" fill="#000000" points="302.124767 19.2142652 308.90443 12.3954666 308.896871 4.92430279 294.648365 19.2142652 294.648365 24.5269239 308.896871 38.7788845 308.90443 31.3457226 302.124767 24.5269239"></polyline>
                        <polyline id="Fill-25" fill="#000000" points="271.97448 19.2142652 265.196077 12.3954666 265.202377 4.92430279 279.450883 19.2142652 279.450883 24.5269239 265.202377 38.7788845 265.196077 31.3457226 271.97448 24.5269239"></polyline>
                        <polyline id="Fill-26" fill="#000000" points="284.426709 36.967544 277.644526 43.7031873 270.210962 43.6994313 284.426709 29.5458167 289.70958 29.5458167 303.88879 43.6994313 296.491763 43.7031873 289.70958 36.967544"></polyline>
                        <polyline id="Fill-27" fill="#000000" points="284.426709 6.73648103 277.644526 0 270.210962 0.0087584263 284.426709 14.1536169 284.426709 14.1573705 289.70958 14.1573705 289.70958 14.1536169 303.88879 0.0087584263 296.491763 0 289.70958 6.73648103"></polyline>
                        <polygon id="Fill-28" fill="#0D0D0D" points="55.0864948 25.8525896 56.687861 25.8525896 56.687861 24.0059761 55.0864948 24.0059761"></polygon>
                        <path d="M2.2426687,7.04370497 C2.60174767,6.40887759 2.83231417,6.04223238 2.94696746,5.96190728 C3.98262682,6.57989231 4.63778847,6.95690205 4.91497224,7.07868526 L5.76164267,5.6898384 L3.63362726,4.30876494 C3.22415123,4.95395686 2.99358473,5.33355772 2.9343682,5.44238528 C2.07257865,4.97986818 1.39851812,4.60674514 0.921006077,4.30876494 L0.0629963117,5.85307973 C0.288523107,5.97745408 0.653901715,6.17438012 1.1528325,6.446449 C1.64672359,6.72240458 2.00832242,6.9167395 2.2426687,7.04370497" id="Fill-29" fill="#000000"></path>
                        <path d="M4.48232867,14.1877473 C4.30887883,14.1877473 4.06164808,14.1628603 3.73675323,14.1130864 C3.41315277,14.0633124 2.96658415,13.9388776 2.38022012,13.743337 C2.01519881,13.6485295 1.70324797,13.4672101 1.44695641,13.2147851 C1.722664,13.0133191 2.17311583,12.8248892 2.80348952,12.6329039 C3.41962478,12.4480292 3.85324939,12.2856714 4.09530253,12.1458303 C4.44090782,11.7701555 4.70626019,11.4252931 4.89524285,11.1100581 L5.44795243,14.1877473 L4.48232867,14.1877473 Z M24.8790215,17.5732055 L25.7607014,15.7850164 L21.1774751,15.7850164 L20.5750148,15.7850164 C20.3498783,15.7443197 20.1700206,15.6814247 20.049277,15.6012645 C18.7324169,14.7947296 17.9513567,14.2360747 17.7274779,13.9240665 C17.5991878,13.7797781 17.5363005,13.6132916 17.5363005,13.4283065 C17.5363005,13.0743684 18.0217905,12.7450949 18.9814506,12.43432 C19.7713151,12.1876732 20.3297543,12.0618834 20.6391598,12.0618834 C21.0428963,12.0618834 21.4164468,12.1321777 21.7711312,12.2789325 C22.5647689,12.6858997 23.1609405,13.0262722 23.5621615,13.2963505 L23.6225333,13.0176396 C23.1609405,11.7252105 22.4943351,10.8644133 21.6113975,10.4315482 C21.4051271,10.3279566 21.2089188,10.2798605 21.0177414,10.2798605 C20.7045626,10.2798605 20.3297543,10.351388 19.8882855,10.4944431 C19.113514,10.7238246 18.3538354,11.210952 17.5991878,11.9681576 C16.9288092,12.6674012 16.4055869,13.4283065 16.0282631,14.248407 L16.0282631,14.6220769 L16.0282631,14.9871141 C16.216925,15.5186379 16.3665968,15.7850164 16.4697319,15.7850164 L14.4900398,15.7850164 L13.5794317,15.7850164 L11.6047705,15.7850164 L10.9796708,15.7850164 L8.62391255,15.7850164 L8.15728879,15.7850164 C7.59507634,15.7850164 7.19888636,15.6629262 6.997647,15.4187459 C6.92972872,15.3385857 6.89702733,15.2423935 6.89702733,15.1388018 C6.4995796,11.8399013 6.20652479,9.36850063 6.02037838,7.7245999 C5.26824629,8.56689862 4.84815914,9.09842242 4.7651479,9.32410421 C4.74376622,9.77423457 4.7651479,10.124473 4.82677745,10.3686533 C4.63811556,10.4722449 4.14885238,10.6498306 3.35395692,10.8977106 C2.70118676,11.099961 2.24210948,11.326876 1.97043635,11.5735228 C1.04850855,12.3492269 0.467429912,13.4653035 0.215880717,14.9242192 C0.505162291,15.1486677 0.840980466,15.3225537 1.21830426,15.4495768 C1.40570841,15.529737 1.68870125,15.6111304 2.06854054,15.6962235 C3.38791606,16.0427623 4.10357352,16.2178815 4.23563685,16.2178815 C4.37901989,16.2178815 4.49221703,16.1537533 4.57774375,16.0316632 C4.7022606,15.8072146 4.81545774,15.5926319 4.92488164,15.3854486 C5.11102804,15.0796066 5.30597867,14.8872221 5.52356872,14.802129 C5.60280672,14.9649159 5.65563205,15.1388018 5.67575599,15.3225537 C5.75750948,16.1068904 5.83297423,16.5570208 5.89711928,16.6754112 C6.04176007,17.0268829 6.27192758,17.2846288 6.58510633,17.4486489 C6.74987105,17.5288091 6.89702733,17.5732055 7.02280192,17.5732055 L8.09062826,17.5732055 L8.62391255,17.5732055 L10.9796708,17.5732055 L11.6047705,17.5732055 L13.5794317,17.5732055 L14.4900398,17.5732055 L24.8790215,17.5732055 Z" id="Fill-31" fill="#000000"></path>
                        <path d="M45.1342115,7.10874756 C45.3509188,6.69847113 45.5159691,6.38429548 45.6142434,6.18223742 L43.1334486,4.92430279 L42.1910238,6.65042073 C43.0969107,7.1999201 43.9158628,7.65455073 44.6516597,8.00199203 C44.7524538,7.81718283 44.9149843,7.52148811 45.1342115,7.10874756" id="Fill-33" fill="#000000"></path>
                        <path d="M71.0621763,15.5602383 C70.8970396,15.6751015 70.7766015,15.7265919 70.6884458,15.7265919 L61.4618967,15.7265919 C62.4874827,15.153596 63.5155519,14.5885217 64.52748,14.0142055 C65.8100833,13.3091829 66.8989924,12.9566716 67.8103485,12.9566716 C68.2461605,12.9566716 68.6558983,13.0253255 69.0494948,13.1560319 C69.2531221,13.2220453 69.6479603,13.4913798 70.225318,13.9508327 C70.9516713,14.496103 71.3105022,14.9238696 71.3105022,15.2288512 C71.3105022,15.3423942 71.2297963,15.4532966 71.0621763,15.5602383 M81.4833598,16.3507195 C81.547772,15.9323353 81.6033434,15.5152075 81.6702817,15.0930541 C81.7334309,14.7387468 81.7650056,14.4158496 81.7650056,14.1218499 L81.195399,8.06972776 L81.3204346,8.17149689 C81.6993303,7.49806166 82.0592812,6.78944699 82.3901835,6.03685799 C81.7435348,5.7026532 81.2484444,5.4388073 80.9124902,5.25160236 C80.7659839,5.1724486 80.6965197,5.04429488 80.6965197,4.87467966 L80.752091,4.56183382 C80.7748248,4.3771417 80.7748248,4.2376803 80.752091,4.15224448 L80.4426595,4.15224448 C79.8983127,5.01288465 79.5055241,5.67878142 79.2731348,6.16124248 C79.2125115,6.26678084 79.1821998,6.40875506 79.1821998,6.60224204 C79.1821998,6.76431881 79.2125115,6.88116484 79.2731348,6.94398529 C79.4436378,7.15129278 79.5800403,7.30080545 79.6861311,7.37995922 C79.9740918,9.30854704 80.1887994,10.7873404 80.317624,11.8339291 C80.3744583,12.1869801 80.4426595,12.6732104 80.5020199,13.2775431 C80.6321074,14.2801575 80.6965197,14.8744389 80.6965197,15.0629003 C80.6965197,15.3330282 80.6750489,15.5038998 80.6472632,15.5817972 C80.6207405,15.6421048 80.6055847,15.6873356 80.6055847,15.7287971 C80.2153221,15.7137202 78.7401548,15.7174894 76.1510341,15.7514124 L74.0468999,15.7514124 L73.2234332,15.7514124 L72.4403821,15.7514124 C72.4997424,15.6458741 72.6702455,15.3782589 72.9443134,14.942285 C73.153969,14.6219007 73.2575338,14.438465 73.2575338,14.3693625 C73.2575338,13.5979274 72.6803494,12.8692102 71.5247175,12.1794416 C70.4941211,11.5550063 69.5923493,11.2383913 68.8092982,11.2383913 C67.7029227,11.2383913 66.1153497,11.8452368 64.0592089,13.0551587 C61.5572342,14.5389777 59.8155769,15.4385666 58.8266591,15.7514124 L57.6280857,15.7514124 L57.6280857,15.7815662 C57.0963687,15.7702586 56.7806223,15.6760279 56.6821094,15.5038998 C56.9763851,15.1483361 57.1734108,14.5666187 57.2795016,13.7449272 C57.3439139,13.2260303 57.3982223,12.6908001 57.4424268,12.146775 C56.8311417,12.7398 56.2627981,13.3190046 55.7399221,13.8881579 C55.7399221,14.2223627 55.7310812,14.5502854 55.7058214,14.8631313 C55.6641429,15.4762588 55.4443834,15.7853355 55.0440169,15.7853355 L52.0507408,15.7853355 L52.0507408,15.7514124 L49.1534516,15.7514124 L48.5257477,15.7514124 L46.1942761,15.7514124 L45.7522311,15.7514124 C44.9982286,15.6873356 44.6168069,15.3983615 44.6168069,14.8744389 L45.4617444,11.5550063 L45.4617444,10.6441098 C45.1346311,10.8740327 44.7317386,11.2094939 44.2694859,11.6592883 C43.811022,12.1115955 43.5571619,12.4319798 43.5129574,12.616672 C43.4914867,12.6769796 43.4296004,13.1921073 43.3209836,14.1520038 C43.2351006,14.9045928 43.0885942,15.4385666 42.8549419,15.7514124 L38.5645794,15.7514124 L37.9659242,15.7514124 L35.6685532,15.7514124 L35.0370603,15.7514124 L32.7384263,15.7514124 L32.329219,15.7514124 C31.17485,15.7514124 30.5458831,15.446105 30.4397923,14.8430287 C30.1404647,12.8792614 29.9143903,10.8614686 29.7438872,8.79593217 C29.4723453,5.07319228 29.3018422,2.97373284 29.2386929,2.49252819 C28.526369,3.32678377 28.0944279,3.87332168 27.9504475,4.12460349 C27.9315027,4.14470603 27.9150839,4.27914179 27.9150839,4.53168 L28.9570471,17.5732055 L32.1385081,17.5732055 L32.7384263,17.5732055 L35.0370603,17.5732055 L35.6685532,17.5732055 L37.9659242,17.5732055 L38.5645794,17.5732055 L43.107539,17.5732055 C43.2527824,17.1962828 43.4397042,16.8382062 43.6683047,16.5002322 C44.1949697,17.2163853 44.5347128,17.5732055 44.6774302,17.5732055 L45.6221435,17.5732055 L46.1942761,17.5732055 L48.5257477,17.5732055 L49.1534516,17.5732055 L51.1098165,17.5732055 L52.0507408,17.5732055 L54.7004848,17.5732055 C54.8482541,17.5732055 55.126111,17.3621288 55.5542632,16.9437446 C55.7399221,17.2163853 55.8839024,17.4262056 55.9925192,17.5732055 L57.4083262,17.5732055 L57.6280857,17.5732055 L58.4982828,17.5732055 L58.5399614,17.5732055 L58.7938215,17.5732055 L73.2234332,17.5732055 L74.0468999,17.5732055 L76.1510341,17.5732055 L76.7572672,17.5732055 L80.9731135,17.5732055 C81.2294996,17.233975 81.3949508,16.8306678 81.4833598,16.3507195" id="Fill-35" fill="#000000"></path>
                        <path d="M86.9744718,14.3665293 L86.3193101,3.07768924 C85.3756254,4.54101162 84.9056729,5.53468661 84.9056729,6.06860153 L86.0585054,17.5428287 C86.6746093,16.3464638 86.9744718,15.2872853 86.9744718,14.3665293" id="Fill-37" fill="#000000"></path>
                        <path d="M96.5747317,7.04370497 C96.9312908,6.40887759 97.1631173,6.04223238 97.270211,5.96190728 C98.3058704,6.57989231 98.9660717,6.95690205 99.2419955,7.07868526 L100.088666,5.6898384 L97.9631704,4.30876494 C97.5549543,4.95395686 97.3180882,5.33355772 97.2563518,5.44238528 C96.3958222,4.97986818 95.7255414,4.60674514 95.2429897,4.30876494 L94.3812001,5.85307973 C94.6142865,5.97745408 94.9771452,6.17438012 95.4735562,6.446449 C95.9737469,6.72240458 96.3340858,6.9167395 96.5747317,7.04370497" id="Fill-39" fill="#000000"></path>
                        <path d="M116.211816,19.5852342 C115.918253,20.100194 115.706586,20.4770265 115.579333,20.7264602 C114.532334,20.035824 113.820476,19.5852342 113.446278,19.3894422 C113.171614,19.7676158 112.865452,20.3254889 112.531571,21.0644025 L114.703684,22.3330274 C114.995987,21.8395243 115.203875,21.4854894 115.328608,21.2601945 C116.248354,21.7751543 116.941313,22.1774666 117.403706,22.4671315 C117.636793,22.1090735 117.915236,21.5672929 118.251637,20.8243562 C117.055967,20.066668 116.371827,19.6536273 116.211816,19.5852342" id="Fill-41" fill="#000000"></path>
                        <path d="M152.691846,7.10874756 C152.909813,6.69847113 153.068564,6.38429548 153.173138,6.18223742 L150.691083,4.92430279 L149.749918,6.65042073 C150.654545,7.1999201 151.474757,7.65455073 152.213074,8.00199203 C152.316388,7.81718283 152.473879,7.52148811 152.691846,7.10874756" id="Fill-43" fill="#000000"></path>
                        <path d="M134.471839,15.7265919 C134.2827,15.7265919 133.981622,15.6350783 133.578898,15.4482381 C132.850649,15.0796417 132.301245,14.7733254 131.94098,14.5280181 C132.151992,14.1174779 132.50711,13.8467502 132.998614,13.7272742 C133.365312,13.6217793 133.640657,13.5722095 133.83237,13.5722095 C134.044668,13.5722095 134.205501,13.6217793 134.308434,13.7272742 C134.506579,13.9115724 134.653258,14.179758 134.743324,14.5432704 C134.838537,14.9004276 134.93375,15.2423325 135.01867,15.5740693 C134.848831,15.6770221 134.669985,15.7265919 134.471839,15.7265919 L134.471839,15.7265919 Z M98.6547559,14.1877473 C98.4865381,14.1877473 98.2329174,14.1640454 97.9133035,14.1130864 C97.5885137,14.0633124 97.1407955,13.9388776 96.5597971,13.743337 C96.1884239,13.6485295 95.876574,13.4707654 95.6242473,13.2147851 C95.9011597,13.0156893 96.3527598,12.8248892 96.9764597,12.6329039 C97.6027475,12.4480292 98.0349379,12.2856714 98.2691489,12.1458303 C98.6146424,11.7737107 98.8902608,11.4288484 99.0753004,11.1100581 L99.6252433,14.1877473 L98.6547559,14.1877473 Z M159.738247,17.6297084 L161.997133,17.6297084 L162.633705,17.6297084 L164.612751,17.6297084 L165.526642,17.6297084 L170.524679,17.6297084 C170.859982,15.9577718 171.027634,14.9952919 171.027634,14.7497107 C171.027634,14.048936 170.90158,13.3791691 170.653254,12.736689 C170.563755,12.5097124 170.499468,12.3459916 170.461652,12.2467669 C170.290218,11.8076975 170.030547,11.3425816 169.677597,10.8489385 C169.025898,11.9193253 168.7032,12.532038 168.7032,12.6759139 C168.7032,12.636224 168.898584,13.0380841 169.295653,13.8839749 C169.695244,14.7286254 169.894409,15.3152917 169.894409,15.6464542 C169.894409,15.7680045 169.888107,15.8312602 169.864156,15.8312602 L165.526642,15.8312602 L164.612751,15.8312602 L162.633705,15.8312602 L161.997133,15.8312602 L159.738247,15.8312602 L159.11302,15.8312602 L156.845311,15.8312602 L156.213781,15.8312602 L153.891868,15.8312602 L153.445637,15.8312602 C152.694356,15.7680045 152.321236,15.4827334 152.321236,14.9655245 L153.165798,11.6886278 L153.165798,10.7894037 C152.831755,11.0163803 152.432164,11.3500234 151.973328,11.7915735 C151.506928,12.2393251 151.256081,12.5543636 151.215744,12.736689 C151.198096,12.7999448 151.133809,13.3084715 151.027924,14.2523467 C150.947249,14.9952919 150.783379,15.5224233 150.555222,15.8312602 L146.281995,15.8312602 L145.680718,15.8312602 L143.385276,15.8312602 L142.758788,15.8312602 L140.4936,15.8312602 L139.865852,15.8312602 L137.725457,15.8312602 L136.972915,15.8312602 L136.780052,15.8312602 C136.409454,15.3587025 136.14348,14.9543617 135.994737,14.6244395 C135.72246,14.048936 135.551027,13.5428899 135.480437,13.1075414 C135.404805,12.6759139 135.364467,12.3348289 135.364467,12.086767 C135.325391,11.9032013 135.175386,11.8076975 134.932102,11.8076975 C134.779577,11.8076975 134.424105,11.9032013 133.859384,12.086767 C132.850953,12.395604 132.013955,12.9227354 131.342088,13.6694015 C131.155528,13.8728122 130.992918,14.2076956 130.854259,14.6690906 C130.718121,15.1329662 130.573159,15.4455241 130.41307,15.6018031 C130.259285,15.7543611 130.102978,15.8312602 129.955495,15.8312602 L127.222647,15.8312602 L126.591117,15.8312602 L124.327189,15.8312602 L123.700701,15.8312602 L121.436773,15.8312602 L120.805243,15.8312602 L118.635856,15.8312602 L117.914827,15.8312602 L117.788773,15.8312602 C117.768605,15.6464542 117.742134,15.4182373 117.720704,15.1515708 C117.703057,14.8849044 117.694233,14.7286254 117.694233,14.6864549 L117.694233,12.9562237 C117.694233,12.8966889 117.661459,12.6436658 117.598432,12.2095576 C117.536666,11.781651 117.507673,11.4802559 117.507673,11.3140545 C117.444646,11.3351397 117.193799,11.6328139 116.765216,12.2095576 C116.342935,12.7875417 116.124862,13.1596344 116.124862,13.3307971 C116.124862,13.3456808 116.172763,13.6718821 116.276127,14.3007188 C116.379491,14.9283152 116.433694,15.3661443 116.433694,15.6154465 C116.433694,15.7196324 116.422349,15.79033 116.404702,15.8312602 L111.595746,15.8312602 L110.969258,15.8312602 L108.701549,15.8312602 L108.0738,15.8312602 L105.806091,15.8312602 L105.1733,15.8312602 L102.822395,15.8312602 L102.344651,15.8312602 C101.779929,15.8312602 101.389162,15.7097099 101.184955,15.4628884 C101.116886,15.3822683 101.090415,15.2855242 101.090415,15.1850592 C100.693345,11.8635114 100.394597,9.37793194 100.211819,7.7245999 C99.4517141,8.57173102 99.0332152,9.10630425 98.9575829,9.33328082 C98.92733,9.78599364 98.9575829,10.1382414 99.0130466,10.3850629 C98.8264868,10.4929698 98.3336161,10.6666131 97.5344345,10.910954 C96.8865175,11.1193259 96.4201181,11.3425816 96.1516233,11.5956046 C95.2289088,12.3757591 94.6440188,13.5019597 94.3931716,14.9655245 C94.6805744,15.192501 95.0196594,15.3661443 95.3940394,15.4938962 C95.5843808,15.5745163 95.865481,15.657617 96.2486848,15.741958 C97.568469,16.0904848 98.2894973,16.2666087 98.4155512,16.2666087 C98.5642948,16.2666087 98.6777433,16.2021127 98.7621994,16.0793221 C98.8882533,15.8535858 99.0017018,15.637772 99.1126292,15.4294001 C99.2966679,15.1218034 99.495833,14.9283152 99.7076035,14.8427339 C99.7945807,15.0064547 99.8412207,15.1850592 99.8651709,15.3661443 C99.949627,16.1549809 100.017696,16.6076937 100.079463,16.7267634 C100.229467,17.0802515 100.460145,17.3394761 100.771498,17.5044372 C100.946713,17.5850573 101.090415,17.6297084 101.22025,17.6297084 L102.282885,17.6297084 L102.822395,17.6297084 L105.1733,17.6297084 L105.806091,17.6297084 L108.0738,17.6297084 L108.701549,17.6297084 L110.969258,17.6297084 L111.595746,17.6297084 L115.711405,17.6297084 C116.172763,16.9909493 116.450081,16.6387015 116.530756,16.5704845 C116.825722,17.0504841 117.03245,17.4039722 117.158504,17.6297084 L117.914827,17.6297084 L118.635856,17.6297084 L120.805243,17.6297084 L121.436773,17.6297084 L123.700701,17.6297084 L124.327189,17.6297084 L126.591117,17.6297084 L127.222647,17.6297084 L130.017261,17.6297084 C130.102978,17.6297084 130.191216,17.5664527 130.27063,17.4399412 C130.373994,17.2352902 130.471055,17.0318795 130.556772,16.8235075 C130.724424,16.5332752 130.889554,16.388159 131.060987,16.388159 L135.712376,18.8042812 C135.781706,18.6777696 135.872464,18.4842814 135.994737,18.2163747 C136.11953,17.9472276 136.21407,17.7524991 136.275837,17.6297084 L136.972915,17.6297084 L137.725457,17.6297084 L139.865852,17.6297084 L140.4936,17.6297084 L142.758788,17.6297084 L143.385276,17.6297084 L145.680718,17.6297084 L146.281995,17.6297084 L150.811111,17.6297084 C150.958594,17.258856 151.143893,16.9041276 151.375832,16.5704845 C151.898956,17.2774607 152.229217,17.6297084 152.383003,17.6297084 L153.324625,17.6297084 L153.891868,17.6297084 L156.213781,17.6297084 L156.845311,17.6297084 L159.11302,17.6297084 L159.738247,17.6297084 Z" id="Fill-45" fill="#000000"></path>
                        <path d="M167.877359,8.12608578 C168.818524,8.67957675 169.479985,9.04939255 169.861743,9.23306773 L170.742431,7.85365481 L168.575358,6.5901175 C168.261637,7.062249 168.03107,7.40987585 167.883659,7.63792893 L165.935813,6.46314741 C165.685087,6.8773411 165.401604,7.37659243 165.092922,7.96336683 L167.186919,9.18129352 C167.499381,8.70669658 167.731208,8.35537157 167.877359,8.12608578" id="Fill-47" fill="#000000"></path>
                        <path d="M184.161654,19.6972112 C183.681622,20.3845331 183.347741,20.8990574 183.157492,21.2420736 L185.201093,22.4671315 C185.455598,21.9680816 185.75672,21.4703212 186.113279,20.9532179 L184.385921,19.6972112 L184.161654,19.6972112 Z" id="Fill-49" fill="#000000"></path>
                        <path d="M207.177482,8.42596222 L209.126588,9.54083665 C209.462988,9.06726167 209.761591,8.58012075 210.034995,8.06338138 C209.800649,7.94128783 209.44157,7.74643146 208.948938,7.47881227 C208.460087,7.21735941 208.095968,7.02126977 207.859102,6.89670969 C207.529002,7.42824827 207.317334,7.75753087 207.236699,7.88332423 C206.330812,7.38755042 205.664311,7.02126977 205.228376,6.77091633 C204.99529,7.10636528 204.711806,7.60583889 204.374146,8.28166985 L206.475703,9.48903939 C206.673512,9.11165933 206.904078,8.75771136 207.177482,8.42596222" id="Fill-51" fill="#000000"></path>
                        <path d="M249.20094,15.320033 C249.158702,15.3846265 249.095985,15.418823 249.011508,15.418823 L245.815482,14.3144012 C245.8782,14.1066888 246.090671,13.8445153 246.436256,13.5253475 C246.788242,13.2099794 247.078789,13.0326639 247.315579,12.9908682 C247.401336,12.969337 247.496052,12.9566716 247.606127,12.9566716 C247.821158,12.9566716 248.005471,13.0098662 248.175703,13.1162555 C248.545608,13.3239679 248.802877,13.6849314 248.97567,14.1890138 L249.20094,14.7551567 L249.20094,15.320033 Z M250.329886,14.0780592 C250.020576,13.1918785 249.80431,12.57589 249.703721,12.2251359 C249.684861,12.144574 249.64211,11.9177614 249.579243,11.5459373 C249.559125,11.2521963 249.507573,11.0600872 249.424587,10.9559764 C249.043607,10.9373852 248.55198,11.0080318 247.945933,11.1716344 C247.255643,11.3364764 246.567867,11.8024959 245.880092,12.5647352 C245.2665,13.2253427 244.833969,13.9119778 244.558607,14.6357953 C244.331025,15.2108832 244.143679,15.5529614 243.996567,15.6533539 C243.968906,15.6533539 243.950045,15.6756633 243.932442,15.7165639 C243.913582,15.7562252 243.867059,15.7785346 243.807964,15.7785346 L240.986449,15.7785346 L240.386689,15.7785346 L238.098295,15.7785346 L237.470873,15.7785346 L235.212656,15.7785346 L234.581462,15.7785346 L232.295582,15.7785346 L231.698337,15.7785346 L231.610322,15.7785346 C231.231856,15.6756633 230.583059,15.1588278 229.660157,14.2342253 C228.952264,13.4880984 228.235569,12.7456896 227.528934,12.0032809 C225.942146,10.5395335 224.751427,9.45628601 223.956776,8.75477793 C227.054909,7.56370148 229.358391,6.67628137 230.882311,6.09623582 C231.241915,5.21253394 231.479556,4.52094117 231.610322,4.03137281 C229.724283,4.65107959 227.913685,5.37985477 226.174758,6.222656 C225.092171,6.73949146 224.274888,7.12494908 223.734223,7.36911355 C223.437487,7.64054513 223.228765,8.00865096 223.105544,8.48334635 C222.997411,8.85640984 222.906881,9.22203684 222.820123,9.59633974 C222.781145,9.81943418 222.757255,10.0276557 222.757255,10.2135677 C222.757255,10.295369 222.87419,10.4726051 223.105544,10.7403185 C223.587112,11.3129275 224.085027,11.8210871 224.613117,12.2561213 C224.752684,12.1557288 224.880935,12.051618 224.986553,11.943789 C226.010044,12.812618 226.772003,13.4657889 227.274947,13.9218931 C228.155098,14.7101601 228.591402,15.1737008 228.591402,15.3137545 C228.591402,15.3769646 228.534821,15.4699206 228.405313,15.593862 C228.282092,15.7165639 228.161385,15.7785346 228.063311,15.7785346 L222.508298,15.7785346 L221.877104,15.7785346 L219.620144,15.7785346 L218.999008,15.7785346 L216.737019,15.7785346 L216.10834,15.7785346 L213.855152,15.7785346 L213.223957,15.7785346 L210.870181,15.7785346 L210.495488,15.7785346 C210.222641,15.7785346 210.03278,15.6967333 209.929676,15.5343702 L210.428848,12.2846278 L210.428848,11.449263 C209.640484,12.2152206 209.083473,12.8349274 208.771648,13.3059046 C208.707523,13.3877059 208.674832,13.5252808 208.674832,13.7074746 L208.674832,15.7785346 L204.564524,15.7785346 L203.969793,15.7785346 L201.683914,15.7785346 L201.05272,15.7785346 L198.79576,15.7785346 L198.164566,15.7785346 L195.910121,15.7785346 L195.283956,15.7785346 L192.90126,15.7785346 L192.552972,15.7785346 C191.779696,15.7785346 191.391172,15.6372415 191.391172,15.3484581 C191.391172,15.3658099 191.538283,15.0584353 191.831247,14.4201374 C192.125469,13.7806 192.268808,13.2253427 192.268808,12.7494079 C192.268808,12.6861978 192.260007,12.6452971 192.238632,12.6267059 C192.217257,12.6081147 192.208455,12.5870447 192.208455,12.5647352 C191.936866,12.7345349 191.669048,12.905574 191.391172,13.0877678 C191.060486,13.2959892 190.839191,13.4918166 190.733573,13.6777286 C190.630469,13.8648801 190.531138,14.1821699 190.450667,14.6357953 C190.370196,15.0881813 190.267092,15.4116682 190.165246,15.593862 C188.367223,15.8008441 186.9879,15.9247854 186.024762,15.9681649 L182.768202,15.9681649 C179.834783,15.9681649 178.374989,15.1848555 178.374989,13.6095609 C178.374989,13.1881603 178.509526,12.7122255 178.781116,12.1966294 C179.051448,11.6760757 179.185985,11.4368689 179.185985,11.4752907 L179.185985,11.1456067 L178.906852,11.1456067 C178.427798,11.5955138 178.019156,12.1817564 177.680926,12.905574 C177.351498,13.6293915 177.183012,14.275126 177.183012,14.8502139 C177.183012,16.1912593 177.884619,17.0377788 179.285317,17.3897723 C179.787003,17.5124742 180.933715,17.5732055 182.735511,17.5732055 L188.539481,17.5732055 C189.085175,17.5732055 189.570515,17.472813 190.014363,17.2608733 C190.280923,16.9968782 190.465755,16.7700655 190.546226,16.5853929 C191.00642,17.2410426 191.49679,17.5732055 192.019851,17.5732055 L192.390772,17.5732055 L192.90126,17.5732055 L195.283956,17.5732055 L195.910121,17.5732055 L198.164566,17.5732055 L198.79576,17.5732055 L201.05272,17.5732055 L201.683914,17.5732055 L203.969793,17.5732055 L204.564524,17.5732055 L207.764504,17.5732055 C208.159314,16.9968782 208.414558,16.6448847 208.522691,16.5172251 C208.707523,16.8332756 208.832002,17.05637 208.893612,17.2050996 C209.06587,17.4505035 209.249445,17.5732055 209.458167,17.5732055 L210.333289,17.5732055 L210.870181,17.5732055 L213.223957,17.5732055 L213.855152,17.5732055 L216.10834,17.5732055 L216.737019,17.5732055 L218.999008,17.5732055 L219.620144,17.5732055 L221.877104,17.5732055 L222.508298,17.5732055 L227.874707,17.5732055 C227.960208,17.5732055 228.085944,17.5050377 228.264489,17.3724205 C228.444291,17.2385638 228.680675,17.0043146 228.969867,16.6733912 C229.220082,16.4093961 229.372222,16.2730606 229.407428,16.2730606 C229.431318,16.2730606 229.875166,16.7080948 230.755317,17.5732055 L231.698337,17.5732055 L232.295582,17.5732055 L234.581462,17.5732055 L235.212656,17.5732055 L237.470873,17.5732055 L238.098295,17.5732055 L240.386689,17.5732055 L240.986449,17.5732055 L243.432013,17.5732055 C243.596727,17.5732055 243.775272,17.5013195 243.962619,17.3575475 C244.468077,16.7403196 244.812594,16.2358782 244.998683,15.8417447 L249.796766,17.3897723 C250.087216,17.2050996 250.36132,16.6994189 250.615307,15.8727301 C250.698292,15.5269337 250.739785,15.3373034 250.739785,15.3137545 C250.739785,15.2778115 250.605248,14.8613686 250.329886,14.0780592 L250.329886,14.0780592 Z" id="Fill-53" fill="#000000"></path>
                        <polygon id="Fill-55" fill="#0D0D0D" points="-1.90381044e-12 37.5478088 1.80547429 37.5478088 1.80547429 24.0059761 -1.90381044e-12 24.0059761"></polygon>
                        <path d="M8.85602149,27.3914343 C7.42852507,27.3914343 6.34120873,27.9680194 5.65706879,29.1995232 L5.62179085,29.1995232 L5.62179085,27.6238661 L4.10105989,27.6238661 L4.10105989,37.5478088 L5.7200651,37.5478088 L5.7200651,31.9424763 C5.7200651,30.1575021 6.67004948,28.8296868 8.62167522,28.8296868 C9.86396248,28.8296868 10.6186583,29.6001793 10.6186583,30.831683 L10.6186583,37.5478088 L12.2313639,37.5478088 L12.2313639,31.023022 C12.2313639,28.8913262 11.4376103,27.3914343 8.85602149,27.3914343" id="Fill-57" fill="#0D0D0D"></path>
                        <path d="M18.3947737,36.0393409 C16.2677171,36.0393409 15.296558,34.2713941 15.296558,32.4352062 C15.296558,30.52825 16.0560378,28.6528868 18.2998388,28.6528868 C20.5590346,28.6528868 21.4519365,30.4549541 21.4519365,32.3644378 C21.4519365,34.1766149 20.6167653,36.0393409 18.3947737,36.0393409 L18.3947737,36.0393409 Z M21.3830206,28.9924166 L21.3492913,28.9924166 C20.6484726,27.8569639 19.1793768,27.4826389 18.1999795,27.4826389 C15.2243108,27.4826389 13.7577134,29.7809947 13.7577134,32.5035856 C13.7577134,35.2274242 15.2393016,37.5781856 18.2374564,37.5781856 C19.59662,37.5781856 20.8196173,37.111527 21.3492913,36.0459483 L21.3830206,36.0459483 L21.3830206,37.351095 L22.9907811,37.351095 L22.9907811,24.0363529 L21.3830206,24.0363529 L21.3830206,28.9924166 Z" id="Fill-58" fill="#0D0D0D"></path>
                        <path d="M31.4941241,33.1364801 C31.4941241,34.8696355 30.5466595,36.1495807 28.591254,36.1495807 C27.3577862,36.1495807 26.5942709,35.4075113 26.5942709,34.2134768 L26.5942709,27.6992032 L24.9815654,27.6992032 L24.9815654,34.0316947 C24.9815654,36.093552 25.7778388,37.5478088 28.3657272,37.5478088 C29.786924,37.5478088 30.8692007,36.9862764 31.5546005,35.7984673 L31.5923983,35.7984673 L31.5923983,37.3212037 L33.1156491,37.3212037 L33.1156491,27.6992032 L31.4941241,27.6992032 L31.4941241,33.1364801 Z" id="Fill-59" fill="#0D0D0D"></path>
                        <path d="M39.5697473,31.7271304 C38.070435,31.388208 36.363235,31.1672808 36.363235,30.0375395 C36.363235,29.0609409 37.4833094,28.7973346 38.4534526,28.7973346 C39.4954116,28.7973346 40.6356449,29.1952546 40.7313992,30.4342042 L42.3441048,30.4342042 C42.1929137,28.0680238 40.5235114,27.3914343 38.3173806,27.3914343 C36.5875019,27.3914343 34.654775,28.1985717 34.654775,30.1517689 C34.654775,33.8861916 41.0728393,32.197856 41.0728393,34.693329 C41.0728393,35.9159602 39.7083391,36.1343768 38.6966184,36.1343768 C37.3900749,36.1343768 36.1125097,35.6862461 36.0583328,34.2640273 L34.4456273,34.2640273 C34.5401217,36.6653553 36.4035526,37.5478088 38.6084235,37.5478088 C40.6016268,37.5478088 42.7825592,36.8109664 42.7825592,34.4912308 C42.7825592,32.6296682 41.1900124,32.0848818 39.5697473,31.7271304" id="Fill-60" fill="#0D0D0D"></path>
                        <path d="M46.3351732,24.6215139 L44.7237275,24.6215139 L44.7237275,27.6018324 L43.0505455,27.6018324 L43.0505455,29.0430917 L44.7237275,29.0430917 L44.7237275,35.3717645 C44.7237275,37.2003623 45.3826689,37.5478088 47.0571109,37.5478088 L48.2968783,37.5478088 L48.2968783,36.1052626 L47.5484821,36.1052626 C46.5418011,36.1052626 46.3351732,35.9894471 46.3351732,35.2224912 L46.3351732,29.0430917 L48.2968783,29.0430917 L48.2968783,27.6018324 L46.3351732,27.6018324 L46.3351732,24.6215139 Z" id="Fill-61" fill="#0D0D0D"></path>
                        <path d="M51.1053799,29.7188835 L51.0650622,29.7188835 L51.0650622,27.6232945 L49.5455912,27.6232945 L49.5455912,37.5478088 L51.1620765,37.5478088 L51.1620765,33.1357722 C51.1620765,30.59975 52.1133209,29.1230788 54.7138086,29.1230788 L54.7138086,27.3947315 C52.9688108,27.3343806 51.8877941,28.1022496 51.1053799,29.7188835" id="Fill-62" fill="#0D0D0D"></path>
                        <polygon id="Fill-63" fill="#0D0D0D" points="55.5488877 37.5478088 57.1653731 37.5478088 57.1653731 27.6992032 55.5488877 27.6992032"></polygon>
                        <path d="M65.1551237,33.9209525 C65.1551237,34.7969413 64.2798046,36.0393409 62.1421031,36.0393409 C61.1491471,36.0393409 60.230821,35.6802098 60.230821,34.6646937 C60.230821,32.3655263 63.8965362,33.2342355 65.1551237,32.3461138 L65.1551237,33.9209525 Z M66.9162203,35.0817869 L66.9162203,30.0889895 C66.9162203,27.8136 64.9968102,27.4218111 63.2323131,27.4218111 C61.0320445,27.4218111 59.1655316,28.2606412 59.0723319,30.6678828 L60.6882132,30.6678828 C60.7662994,29.2401135 61.7675665,28.8244656 63.1365945,28.8244656 C64.1441589,28.8244656 65.3179713,29.0354289 65.3179713,30.4431064 C65.3179713,31.6611682 63.7839546,31.5104801 62.0169387,31.8683642 C60.3418629,32.1735075 58.6919763,32.6582208 58.6919763,34.8557548 C58.6919763,36.8084208 60.156723,37.5781856 61.9426308,37.5781856 C63.3053616,37.5781856 64.5056226,37.1273771 65.3985765,36.0788395 C65.3985765,37.1273771 65.9288072,37.5781856 66.7613072,37.5781856 C67.2373814,37.5781856 67.6404071,37.486517 67.9250441,37.3157372 L67.9250441,36.0788395 C67.7499798,36.1315803 67.5849911,36.1642294 67.4300781,36.1642294 C66.9162203,36.1642294 66.9162203,35.8327157 66.9162203,35.0817869 L66.9162203,35.0817869 Z" id="Fill-64" fill="#0D0D0D"></path>
                        <polygon id="Fill-65" fill="#0D0D0D" points="69.0187591 37.5478088 70.6365044 37.5478088 70.6365044 24.0059761 69.0187591 24.0059761"></polygon>
                        <path d="M82.6753977,36.0393409 L79.6202632,36.0393409 L79.6202632,25.5751975 L82.7151247,25.5751975 C86.0983274,25.5751975 87.3144863,27.5166064 87.3144863,30.7282731 C87.3144863,35.6980777 83.9325651,36.0393409 82.6753977,36.0393409 M82.3907041,24.0363529 L77.7736496,24.0363529 L77.7736496,37.5781856 L82.3907041,37.5781856 C86.8803055,37.5781856 88.8533309,35.0243436 88.8533309,30.4850259 C88.8533309,26.1423527 86.5379312,24.0363529 82.3907041,24.0363529" id="Fill-66" fill="#000000"></path>
                        <path d="M91.6232512,31.4228071 C91.7123242,29.9038595 92.739137,28.6528868 94.3783261,28.6528868 C95.9680302,28.6528868 97.064122,29.8848091 97.1630919,31.4228071 L91.6232512,31.4228071 Z M94.3176467,27.4218111 C91.6825718,27.4218111 89.7766377,29.54698 89.7766377,32.47301 C89.8659202,35.4203796 91.3266817,37.5781856 94.4118894,37.5781856 C96.6005515,37.5781856 98.1146345,36.4358916 98.5436867,34.2730646 L96.9713221,34.2730646 C96.6972743,35.5521828 95.7945286,36.1685194 94.4664509,36.1685194 C92.3546709,36.1685194 91.4035639,34.668474 91.4618456,32.9801384 L98.696211,32.9801384 C98.7904537,30.6302764 97.7376638,27.4218111 94.3176467,27.4218111 L94.3176467,27.4218111 Z" id="Fill-67" fill="#000000"></path>
                        <polygon id="Fill-68" fill="#000000" points="103.752783 35.9089233 103.711206 35.9089233 100.957007 27.6992032 99.1527928 27.6992032 102.797759 37.5478088 104.530158 37.5478088 108.119688 27.6992032 106.430127 27.6992032"></polygon>
                        <path d="M110.397156,31.4228071 C110.492414,29.9038595 111.51799,28.6528868 113.157179,28.6528868 C114.743172,28.6528868 115.841738,29.8848091 115.936996,31.4228071 L110.397156,31.4228071 Z M113.096502,27.4218111 C110.458952,27.4218111 108.550542,29.54698 108.550542,32.47301 C108.649745,35.4203796 110.105543,37.5781856 113.191985,37.5781856 C115.376922,37.5781856 116.894723,36.4358916 117.325014,34.2730646 L115.746452,34.2730646 C115.471165,35.5521828 114.579581,36.1685194 113.245306,36.1685194 C111.13477,36.1685194 110.178705,34.668474 110.234507,32.9801384 L117.470098,32.9801384 C117.56434,30.6302764 116.515273,27.4218111 113.096502,27.4218111 L113.096502,27.4218111 Z" id="Fill-69" fill="#000000"></path>
                        <polygon id="Fill-70" fill="#000000" points="119.245718 37.5478088 120.862204 37.5478088 120.862204 24.0059761 119.245718 24.0059761"></polygon>
                        <path d="M127.628413,36.0393409 C125.928585,36.0393409 124.554526,34.7225428 124.554526,32.3644378 C124.554526,29.9974868 125.928585,28.6528868 127.628413,28.6528868 C129.333311,28.6528868 130.709905,29.9974868 130.709905,32.3644378 C130.709905,34.7225428 129.333311,36.0393409 127.628413,36.0393409 M127.47518,27.4218111 C124.362531,27.4218111 122.707913,29.6549331 122.707913,32.5144339 C122.707913,35.3450635 124.362531,37.5781856 127.47518,37.5781856 C130.595391,37.5781856 132.248749,35.3450635 132.248749,32.5144339 C132.248749,29.6549331 130.595391,27.4218111 127.47518,27.4218111" id="Fill-71" fill="#000000"></path>
                        <path d="M139.09733,36.3471099 C136.831586,36.3471099 135.941976,34.556416 135.941976,32.648196 C135.941976,30.8360189 136.773819,28.9606557 139.001052,28.9606557 C141.128155,28.9606557 142.097355,30.739976 142.097355,32.5736364 C142.097355,34.4843839 141.341251,36.3471099 139.09733,36.3471099 M139.150853,27.4218111 C137.795253,27.4218111 136.570841,27.8995592 136.047342,28.9875511 L136.008611,28.9875511 L136.008611,27.6524042 L134.403132,27.6524042 L134.403132,41.2714126 L136.008611,41.2714126 L136.008611,36.1881719 L136.047342,36.1881719 C136.73951,37.3449595 138.211304,37.7297061 139.188335,37.7297061 C142.166905,37.7297061 143.636199,35.4059388 143.636199,32.6056974 C143.636199,29.823292 142.143166,27.4218111 139.150853,27.4218111" id="Fill-72" fill="#000000"></path>
                        <path d="M156.620548,27.3914343 C155.345503,27.3914343 154.20527,28.0065441 153.540028,29.0839493 C153.138112,27.856298 152.059615,27.3914343 150.845046,27.3914343 C149.456608,27.3914343 148.415908,27.947473 147.668772,29.0839493 L147.628455,29.0839493 L147.628455,27.6238661 L146.112763,27.6238661 L146.112763,37.5478088 L147.727989,37.5478088 L147.727989,31.3723119 C147.727989,30.5992511 148.453706,28.8296868 150.352415,28.8296868 C151.789991,28.8296868 152.193167,29.7542777 152.193167,31.0422843 L152.193167,37.5478088 L153.808393,37.5478088 L153.808393,31.3723119 C153.808393,29.831327 154.798695,28.8296868 156.372343,28.8296868 C157.95229,28.8296868 158.273571,29.8120647 158.273571,31.0422843 L158.273571,37.5478088 L159.886277,37.5478088 L159.886277,30.273076 C159.886277,28.2171453 158.577214,27.3914343 156.620548,27.3914343" id="Fill-73" fill="#000000"></path>
                        <path d="M163.64118,31.4228071 C163.730233,29.9038595 164.763,28.6528868 166.39935,28.6528868 C167.984988,28.6528868 169.085783,29.8848091 169.18102,31.4228071 L163.64118,31.4228071 Z M166.646398,27.4218111 C164.010271,27.4218111 162.102335,29.54698 162.102335,32.47301 C162.195375,35.4203796 163.652998,37.5781856 166.741919,37.5781856 C168.928974,37.5781856 170.443662,36.4358916 170.875367,34.2730646 L169.302374,34.2730646 C169.022014,35.5521828 168.125111,36.1685194 166.798983,36.1685194 C164.682638,36.1685194 163.72743,34.668474 163.784494,32.9801384 L171.021749,32.9801384 C171.11727,30.6302764 170.066541,27.4218111 166.646398,27.4218111 L166.646398,27.4218111 Z" id="Fill-74" fill="#000000"></path>
                        <path d="M177.63196,27.3914343 C176.206983,27.3914343 175.120927,27.9680194 174.439307,29.1995232 L174.400249,29.1995232 L174.400249,27.6238661 L172.879518,27.6238661 L172.879518,37.5478088 L174.493484,37.5478088 L174.493484,31.9424763 C174.493484,30.1575021 175.440948,28.8296868 177.397614,28.8296868 C178.632341,28.8296868 179.392077,29.6001793 179.392077,30.831683 L179.392077,37.5478088 L181.009822,37.5478088 L181.009822,31.023022 C181.009822,28.8913262 180.216069,27.3914343 177.63196,27.3914343" id="Fill-75" fill="#000000"></path>
                        <path d="M185.842395,24.6215139 L184.22969,24.6215139 L184.22969,27.6018324 L182.557768,27.6018324 L182.557768,29.0430917 L184.22969,29.0430917 L184.22969,35.3717645 C184.22969,37.2003623 184.889891,37.5478088 186.563073,37.5478088 L187.800321,37.5478088 L187.800321,36.1052626 L187.064524,36.1052626 C186.050283,36.1052626 185.842395,35.9894471 185.842395,35.2224912 L185.842395,29.0430917 L187.800321,29.0430917 L187.800321,27.6018324 L185.842395,27.6018324 L185.842395,24.6215139 Z" id="Fill-76" fill="#000000"></path>
                        <path d="M201.104732,36.0393409 L196.572454,36.0393409 L196.572454,31.4228071 L200.703266,31.4228071 C202.229595,31.4228071 203.65114,31.9094823 203.65114,33.6485019 C203.65114,35.1260429 202.685348,36.0393409 201.104732,36.0393409 L201.104732,36.0393409 Z M196.572454,25.5751975 L200.158499,25.5751975 C201.729194,25.5751975 203.035602,25.8178911 203.035602,27.7175088 C203.035602,29.1635054 202.196395,29.8839625 200.158499,29.8839625 L196.572454,29.8839625 L196.572454,25.5751975 Z M202.890579,30.4304729 L202.890579,30.39495 C204.174463,29.8785994 204.926997,28.7989573 204.926997,27.353937 C204.926997,26.0091419 204.211327,25.0627106 203.315151,24.5298673 C202.504143,24.0363529 200.8745,24.0363529 199.685954,24.0363529 L194.725841,24.0363529 L194.725841,37.5781856 L201.332122,37.5781856 C204.04099,37.5781856 205.497753,35.6662929 205.497753,33.6896979 C205.497753,32.0264655 204.57234,30.7869704 202.890579,30.4304729 L202.890579,30.4304729 Z" id="Fill-77" fill="#000000"></path>
                        <path d="M213.541118,33.1364801 C213.541118,34.8696355 212.591133,36.1495807 210.636988,36.1495807 C209.40478,36.1495807 208.643784,35.4075113 208.643784,34.2134768 L208.643784,27.6992032 L207.027299,27.6992032 L207.027299,34.0316947 C207.027299,36.093552 207.827352,37.5478088 210.406421,37.5478088 C211.835177,37.5478088 212.913674,36.9862764 213.602854,35.7984673 L213.639392,35.7984673 L213.639392,37.3212037 L215.157603,37.3212037 L215.157603,27.6992032 L213.541118,27.6992032 L213.541118,33.1364801 Z" id="Fill-78" fill="#000000"></path>
                        <path d="M218.620132,29.7188835 L218.578555,29.7188835 L218.578555,27.6232945 L217.060343,27.6232945 L217.060343,37.5478088 L218.674309,37.5478088 L218.674309,33.1357722 C218.674309,30.59975 219.621774,29.1230788 222.227301,29.1230788 L222.227301,27.3947315 C220.478523,27.3343806 219.394987,28.1022496 218.620132,29.7188835" id="Fill-79" fill="#000000"></path>
                        <path d="M224.271658,31.4228071 C224.36811,29.9038595 225.396938,28.6528868 227.031685,28.6528868 C228.619443,28.6528868 229.719992,29.8848091 229.811498,31.4228071 L224.271658,31.4228071 Z M226.967039,27.4218111 C224.337267,27.4218111 222.425044,29.54698 222.425044,32.47301 C222.520469,35.4203796 223.976634,37.5781856 227.055028,37.5781856 C229.246092,37.5781856 230.759264,36.4358916 231.190536,34.2730646 L229.614161,34.2730646 C229.339038,35.5521828 228.443032,36.1685194 227.116993,36.1685194 C225.006483,36.1685194 224.044795,34.668474 224.103042,32.9801384 L231.345448,32.9801384 C231.432198,30.6302764 230.381281,27.4218111 226.967039,27.4218111 L226.967039,27.4218111 Z" id="Fill-80" fill="#000000"></path>
                        <path d="M238.736797,33.9209525 C238.736797,34.7969413 237.858135,36.0393409 235.724059,36.0393409 C234.734142,36.0393409 233.812494,35.6802098 233.812494,34.6646937 C233.812494,32.3655263 237.477592,33.2342355 238.736797,32.3461138 L238.736797,33.9209525 Z M240.497756,35.0817869 L240.497756,30.0889895 C240.497756,27.8136 238.584382,27.4218111 236.817125,27.4218111 C234.608999,27.4218111 232.751048,28.2606412 232.655317,30.6678828 L234.26638,30.6678828 C234.341958,29.2401135 235.353438,28.8244656 236.716355,28.8244656 C237.725316,28.8244656 238.911885,29.0354289 238.911885,30.4431064 C238.911885,31.6611682 237.363803,31.5104801 235.599066,31.8683642 C233.926281,32.1735075 232.27365,32.6582208 232.27365,34.8557548 C232.27365,36.8084208 233.737337,37.5781856 235.523488,37.5781856 C236.888924,37.5781856 238.08431,37.1273771 238.979905,36.0788395 C238.979905,37.1273771 239.511468,37.5781856 240.34786,37.5781856 C240.827778,37.5781856 241.222042,37.486517 241.506717,37.3157372 L241.506717,36.0788395 C241.334148,36.1315803 241.162839,36.1642294 241.014203,36.1642294 C240.497756,36.1642294 240.497756,35.8327157 240.497756,35.0817869 L240.497756,35.0817869 Z" id="Fill-81" fill="#000000"></path>
                        <path d="M248.939627,33.1364801 C248.939627,34.8696355 247.987123,36.1495807 246.030457,36.1495807 C244.79573,36.1495807 244.037254,35.4075113 244.037254,34.2134768 L244.037254,27.6992032 L242.420769,27.6992032 L242.420769,34.0316947 C242.420769,36.093552 243.218302,37.5478088 245.804931,37.5478088 C247.227387,37.5478088 248.314704,36.9862764 248.996324,35.7984673 L249.037901,35.7984673 L249.037901,37.3212037 L250.553593,37.3212037 L250.553593,27.6992032 L248.939627,27.6992032 L248.939627,33.1364801 Z" id="Fill-82" fill="#000000"></path>
                    </g>
                </g>
            </g>
        </g>
    </g>
</svg>