<?xml version="1.0" encoding="utf-8"?>
<!-- Generator: Adobe Illustrator 25.3.1, SVG Export Plug-In . SVG Version: 6.00 Build 0)  -->
<svg version="1.0" id="Layer_1" xmlns="http://www.w3.org/2000/svg" xmlns:xlink="http://www.w3.org/1999/xlink" x="0px" y="0px"
	 viewBox="0 0 32 27.9" style="enable-background:new 0 0 32 27.9;" xml:space="preserve">
<style type="text/css">
	.st02{fill:#9D9AC0;}
	.st12{fill:#F7BF06;}
</style>
<g transform="translate(-5.007 -37.146)">
	<path class="st02" d="M35.8,55.5c0.1-0.8-0.2-1.6-0.7-2.1l0,0L32.5,51c-0.9-0.8-2.1-1.4-3.4-1.6L26.8,49l-6.7-7.3
		c-0.5-0.5-1.1-0.8-1.7-0.9l-2-0.3c-0.5-0.1-0.9,0.1-1.2,0.5s-0.3,0.9-0.1,1.3l2.7,5.3l-5.3-0.9c-0.6-0.1-1.1-0.5-1.4-1.1L10,42.7
		c-0.2-0.4-0.5-0.7-1-0.8l-1.4-0.2c-0.2,0-0.3,0-0.5,0.1C7,41.9,6.9,42,6.8,42.2l-0.9,5.5c-0.2,1.2,0.3,2.3,1.3,3l3.4,2.4
		c0.3,0.2,0.7,0.5,1.1,0.6c0.5,0.2,1,0.4,1.6,0.5l3.3,0.5l-4.4,4.6c-0.5,0.5-0.5,1.3,0,1.7c0.1,0.1,0.2,0.2,0.4,0.2
		c0.1,0,0.2,0.1,0.3,0.1l2,0.3c0.7,0.1,1.4,0,2-0.4l8.8-5.1l7.4,1.2c0.6,0.1,1.2,0,1.7-0.4C35.4,56.7,35.7,56.2,35.8,55.5L35.8,55.5
		z M16.2,41.7l2,0.3c0.4,0.1,0.7,0.3,1,0.6l5.6,6.1l-5.5-0.9L16.2,41.7z M16.3,60.2c-0.4,0.2-0.8,0.3-1.2,0.2l-2-0.3L18,55l5.7,0.9
		L16.3,60.2z M34.1,56c-0.2,0.2-0.5,0.2-0.8,0.2l-19.8-3.3c-0.8-0.1-1.5-0.4-2.2-0.9l-3.4-2.4c-0.6-0.4-0.9-1.1-0.7-1.7L8,43
		l0.8,0.1L9.9,46c0.4,1,1.3,1.7,2.3,1.9l16.7,2.8c1,0.2,2,0.6,2.7,1.3l2.6,2.4c0.3,0.2,0.4,0.6,0.3,1C34.5,55.6,34.4,55.8,34.1,56z"
		/>
	<path class="st12" d="M33,63.8H9c-0.4,0-0.6,0.3-0.6,0.6C8.4,64.8,8.7,65,9,65h24c0.4,0,0.6-0.3,0.6-0.6
		C33.6,64.1,33.3,63.8,33,63.8L33,63.8z"/>
</g>
</svg>
