<svg xmlns="http://www.w3.org/2000/svg" width="33.061" height="32.923" viewBox="0 0 33.061 32.923">
  <g id="Group_156641" data-name="Group 156641" transform="translate(-744.693 -107.746)">
    <path id="Path_6203" data-name="Path 6203" d="M777.068,135.988h-1.646v-8.232h-1.1v8.232h-8.552a2.4,2.4,0,0,0-1.713.709,1.307,1.307,0,0,1-.937.388h-3.934a1.307,1.307,0,0,1-.936-.388,2.407,2.407,0,0,0-1.714-.709h-8.552V120.075a1.1,1.1,0,0,1,1.1-1.1v-1.1a2.2,2.2,0,0,0-2.194,2.195v15.913h-1.646a.548.548,0,0,0-.549.548v1.646a2.2,2.2,0,0,0,2.2,2.195h28.533a2.2,2.2,0,0,0,2.194-2.195v-1.646a.548.548,0,0,0-.548-.548Zm-.548,2.195a1.1,1.1,0,0,1-1.1,1.1H746.889a1.1,1.1,0,0,1-1.1-1.1v-1.1h10.747a1.312,1.312,0,0,1,.936.389,2.416,2.416,0,0,0,1.714.709h3.934a2.414,2.414,0,0,0,1.713-.709,1.313,1.313,0,0,1,.937-.389h10.746Z" transform="translate(0 0.292)" fill="#9d9ac0"/>
    <path id="Path_6205" data-name="Path 6205" d="M757.71,113.613h-5.488a2.2,2.2,0,0,0-2.195,2.195v19.206h1.1V115.808a1.1,1.1,0,0,1,1.1-1.1h5.488Z" transform="translate(0.154 0.169)" fill="#9d9ac0"/>
    <path id="Path_6212" data-name="Path 6212" d="M756.427,125.346h1.646v1.1h-1.646Z" transform="translate(0.339 0.508)" fill="#9d9ac0"/>
    <path id="Path_6213" data-name="Path 6213" d="M756.427,127.48h10.425v1.1H756.427Z" transform="translate(0.339 2.764)" fill="#9d9ac0"/>
    <path id="Path_6218" data-name="Path 6218" d="M756.427,121.08h1.1v1.1h-1.1Z" transform="translate(0.339 0.385)" fill="#9d9ac0"/>
    <path id="Path_6219" data-name="Path 6219" d="M752.16,117.879h5.488v1.1H752.16Z" transform="translate(0.215 0.292)" fill="#9d9ac0"/>
    <path id="Path_6220" data-name="Path 6220" d="M774.473,107.746H761.3a2.748,2.748,0,0,0-2.744,2.744v13.718a2.748,2.748,0,0,0,2.744,2.744h6.585v3.292a.548.548,0,0,0,.936.388l3.681-3.68h1.967a2.746,2.746,0,0,0,2.743-2.744V110.49a2.746,2.746,0,0,0-2.743-2.744Zm1.646,16.462a1.65,1.65,0,0,1-1.646,1.646h-2.2a.549.549,0,0,0-.388.161l-2.9,2.9V126.4a.548.548,0,0,0-.548-.549H761.3a1.648,1.648,0,0,1-1.646-1.646V110.49a1.648,1.648,0,0,1,1.646-1.646h13.169a1.648,1.648,0,0,1,1.646,1.646Z" transform="translate(0.538 0)" fill="#9d9ac0"/>
    <path id="Path_6280" data-name="Path 6280" d="M769.026-82.12h-.51a2.491,2.491,0,0,0-2.489,2.488v.8h1.1v-.8a1.393,1.393,0,0,1,1.391-1.391h.51a1.392,1.392,0,0,1,1.285.859,1.392,1.392,0,0,1-.3,1.516l-1.06,1.06a2.479,2.479,0,0,0-.728,1.759v.843h1.1v-.843a1.379,1.379,0,0,1,.407-.984l1.059-1.059a2.487,2.487,0,0,0,.539-2.712,2.487,2.487,0,0,0-2.3-1.536Z" transform="translate(-0.345 195.148)" fill="#f7bf0f"/>
    <path id="Path_6281" data-name="Path 6281" d="M768.16-74.12h1.1v1.1h-1.1Z" transform="translate(-0.283 195.379)" fill="#f7bf0f"/>
  </g>
</svg>
