<svg xmlns="http://www.w3.org/2000/svg" width="25.758" height="37.015" viewBox="0 0 25.758 37.015"><defs><style>.a{fill:#dbe3f2 !important;}.b{fill:#f7bf06 !important;}</style></defs><g transform="translate(-16 -2.034)"><path class="a" d="M35.721,5.643H33.552a4.83,4.83,0,0,0-9.345,0H22.037a1.61,1.61,0,0,0-1.61,1.61v.4H18.415A2.334,2.334,0,0,0,16,9.9v26.91a2.334,2.334,0,0,0,2.415,2.242H39.344a2.334,2.334,0,0,0,2.415-2.242V9.9a2.334,2.334,0,0,0-2.415-2.242H37.331v-.4A1.61,1.61,0,0,0,35.721,5.643ZM28.879,3.63a3.22,3.22,0,0,1,2.278.942,3.3,3.3,0,0,1,.7,1.071H25.893A3.22,3.22,0,0,1,28.879,3.63ZM22.037,7.253H35.721V9.668H22.037ZM39.344,9.265a.745.745,0,0,1,.8.632v26.91a.745.745,0,0,1-.8.632H18.415a.745.745,0,0,1-.8-.632V9.9a.745.745,0,0,1,.8-.632h2.012v.4a1.61,1.61,0,0,0,1.61,1.61H35.721a1.61,1.61,0,0,0,1.61-1.61v-.4Z" transform="translate(0 0)"/><path class="b" d="M46.126,46.118a.8.8,0,0,0-1.111.258l-2.479,3.972-1.1-1.095A.8.8,0,0,0,40.3,50.388L42.114,52.2a.8.8,0,0,0,.567.237h.093a.8.8,0,0,0,.592-.374l3.019-4.83a.8.8,0,0,0-.258-1.115Z" transform="translate(-14.406 -26.268)"/><path class="a" d="M38.44,38a6.44,6.44,0,1,0,6.44,6.44A6.44,6.44,0,0,0,38.44,38Zm0,11.269a4.83,4.83,0,1,1,4.83-4.83A4.83,4.83,0,0,1,38.44,49.269Z" transform="translate(-9.56 -21.49)"/></g></svg>