<svg xmlns="http://www.w3.org/2000/svg" width="27" height="27" viewBox="0 0 27 27">
  <path id="Instagram" d="M90.5-18h-12A7.5,7.5,0,0,0,71-10.5v12A7.5,7.5,0,0,0,78.5,9h12A7.5,7.5,0,0,0,98,1.5v-12A7.5,7.5,0,0,0,90.5-18ZM95.375,1.5A4.89,4.89,0,0,1,90.5,6.375h-12A4.89,4.89,0,0,1,73.625,1.5v-12A4.89,4.89,0,0,1,78.5-15.375h12A4.89,4.89,0,0,1,95.375-10.5Zm-2.25-13.125a1.5,1.5,0,0,1-1.5,1.5,1.5,1.5,0,0,1-1.5-1.5,1.5,1.5,0,0,1,1.5-1.5A1.5,1.5,0,0,1,93.125-11.625ZM84.5-11.25A6.75,6.75,0,0,0,77.75-4.5,6.75,6.75,0,0,0,84.5,2.25,6.75,6.75,0,0,0,91.25-4.5a6.735,6.735,0,0,0-1.973-4.777A6.735,6.735,0,0,0,84.5-11.25Zm0,10.875A4.125,4.125,0,0,1,80.375-4.5,4.125,4.125,0,0,1,84.5-8.625,4.125,4.125,0,0,1,88.625-4.5,4.125,4.125,0,0,1,84.5-.375Z" transform="translate(-71 18)" fill="#fff"/>
</svg>
