<svg xmlns="http://www.w3.org/2000/svg" width="36" height="35.435" viewBox="0 0 36 35.435"><defs><style>.a{fill:#9e99c3;}.b{fill:#f7bf06;}</style></defs><g transform="translate(-96.311 -102.911)"><g transform="translate(96.311 102.916)"><g transform="translate(0 0)"><path class="a" d="M125.8,112.593v20.861c0,.282-.013.568,0,.849v.035c.108-.186.217-.373.321-.563q-2.151,1.521-4.3,3.037l-.611.429h.654q-2.151-1.521-4.3-3.037l-.611-.429a.633.633,0,0,0-.654,0q-2.151,1.521-4.3,3.037l-.611.429h.654q-2.151-1.521-4.3-3.037l-.611-.429a.633.633,0,0,0-.654,0q-2.151,1.521-4.3,3.037l-.611.429h.654q-2.151-1.521-4.3-3.037l-.611-.429c.108.186.217.373.321.563V106.193c0-.061,0-.121.009-.178,0-.009.013-.108,0-.03s.009-.048.013-.061a2.235,2.235,0,0,1,.091-.334c.013-.03.087-.2.03-.082.03-.061.056-.121.091-.178a3.207,3.207,0,0,1,.182-.286c.043-.061-.009.013-.017.022a.754.754,0,0,1,.056-.065c.043-.048.087-.1.134-.143s.1-.087.147-.13-.013.009-.022.013a.394.394,0,0,1,.069-.048,2.55,2.55,0,0,1,.316-.191c.039-.017.156-.069.052-.03.061-.026.126-.048.191-.069a2.677,2.677,0,0,1,.368-.087c-.113.022.017,0,.061,0,.061,0,.121,0,.182,0a2.359,2.359,0,0,1,.247.013c.078.009.017,0,0,0l.134.026a1.738,1.738,0,0,1,.715.3c.022.013.147.108.082.056.052.043.1.087.152.13s.1.1.139.143c.022.026.043.052.065.074.069.082-.043-.061.022.026a2.906,2.906,0,0,1,.221.373s.043.1.022.048.017.048.017.048a2.011,2.011,0,0,1,.069.23c.017.065.03.134.043.2s0,.017,0,0c0,.048.009.1.013.139s0,.1,0,.152v5.186a1.821,1.821,0,0,0,.433,1.187,1.793,1.793,0,0,0,1.4.589h23.075a.65.65,0,1,0,0-1.3H104.616c-.455,0-.91-.013-1.365,0-.169,0,.052.022-.035,0-.039-.009-.2-.061-.087-.013-.039-.017-.208-.121-.1-.043a1.017,1.017,0,0,1-.139-.134c-.048-.056.013.013.017.022l-.056-.1c-.052-.091,0,.052-.017-.056,0-.039-.022-.074-.026-.113.009.065.009.056.009,0,0-.117,0-.23,0-.347v-4.276a4.605,4.605,0,0,0-.321-2.019,3.248,3.248,0,0,0-6.087.641,7.4,7.4,0,0,0-.091,1.638V133.9c0,.134-.009.273,0,.407a.761.761,0,0,0,.36.607c.139.1.282.2.42.3q1.807,1.274,3.609,2.548l.841.594a.633.633,0,0,0,.654,0q2.151-1.521,4.3-3.037l.611-.429h-.654q2.151,1.521,4.3,3.037l.611.429a.633.633,0,0,0,.654,0q2.151-1.521,4.3-3.037l.611-.429h-.654q2.151,1.521,4.3,3.037l.611.429a.633.633,0,0,0,.654,0q2.392-1.69,4.783-3.375a.838.838,0,0,0,.438-.563c.009-.056.009-.1.013-.147,0-.156,0-.312,0-.468V116.782c0-1.378.03-2.764,0-4.142v-.061a.657.657,0,0,0-.65-.65A.682.682,0,0,0,125.8,112.593Z" transform="translate(-96.311 -103.018)"/></g></g><g transform="translate(98.94 102.911)"><g transform="translate(0 0)"><path class="a" d="M189.046,106.164v4.5c0,.238,0,.472,0,.711v.03c0,.121,0,.039.009,0a1.059,1.059,0,0,1-.026.113c-.022.16.035-.052,0,.03a1.1,1.1,0,0,1-.069.121c.061-.1-.043.043-.078.078-.117.117.061-.035-.022.013a1.093,1.093,0,0,1-.1.052c-.087.043.091-.022,0,0-.048.009-.091.026-.139.035.035,0,.117,0,0-.009-.152,0-.3,0-.451,0h-26.7c-.043,0-.091,0-.139,0h-.065c.126,0,.013,0-.026-.009-.017,0-.134-.039-.056-.013s-.03-.017-.048-.026-.134-.087-.03-.009a1.038,1.038,0,0,1-.1-.1c-.013-.013-.082-.1-.039-.043s-.017-.035-.026-.052c-.017-.035-.048-.143-.013-.026-.009-.035-.022-.074-.03-.108-.03-.117-.009.061,0-.061v-.017c.026-.637,0-1.282,0-1.919v-3.3a3.3,3.3,0,0,0-.906-2.253,3.342,3.342,0,0,0-2.348-.992v1.3H187.1c.052,0,.1,0,.152,0,.026,0,.182.017.121.009s.113.022.143.03l.195.052c.065.022.126.043.191.069-.1-.043.013.009.052.03a2.723,2.723,0,0,1,.338.208c.1.069-.043-.043.043.039.039.039.082.074.126.113s.091.1.134.143a.761.761,0,0,0,.056.065c-.039-.048-.03-.048,0,0a2.855,2.855,0,0,1,.191.312c.013.022.078.16.052.1s.039.113.048.134c.035.113.061.225.087.338,0,.009.017.1,0,.03s0,.043,0,.061c0,.065.009.134.009.2a.65.65,0,0,0,1.3,0,3.286,3.286,0,0,0-1.716-2.864,3.41,3.41,0,0,0-1.607-.386H159.018c-.442,0-.884-.009-1.326,0h-.056a.65.65,0,0,0,0,1.3,1.969,1.969,0,0,1,1.651.91c.052.087.1.173.143.264s-.026-.074.013.03c.017.043.03.087.043.13q.045.149.078.3c0,.013.017.126.009.035a1.745,1.745,0,0,1,.013.212v5.026a2.4,2.4,0,0,0,.165,1.014,1.746,1.746,0,0,0,1.577,1.009c.6.013,1.2,0,1.8,0h25.428a1.766,1.766,0,0,0,1.794-1.763c.013-1.577,0-3.154,0-4.731v-.481a.652.652,0,0,0-1.3,0Z" transform="translate(-156.985 -102.911)"/></g></g><g transform="translate(101.886 119.107)"><g transform="translate(0 0)"><path class="b" d="M225.635,478.045h16.108c.741,0,1.49.026,2.231,0h.03a.65.65,0,0,0,0-1.3H227.9c-.741,0-1.49-.026-2.231,0h-.03a.65.65,0,1,0,0,1.3Z" transform="translate(-224.985 -476.733)"/></g></g><g transform="translate(101.886 125.531)"><g transform="translate(0 0)"><path class="b" d="M225.635,626.3h11.953a.65.65,0,1,0,0-1.3H225.635a.65.65,0,1,0,0,1.3Z" transform="translate(-224.985 -625)"/></g></g></g></svg>