<svg xmlns="http://www.w3.org/2000/svg" width="21.616" height="21.277" viewBox="0 0 21.616 21.277">
  <g id="noun_invoice_3233516" transform="translate(-96.311 -102.911)">
    <g id="Group_152154" data-name="Group 152154" transform="translate(96.311 102.914)">
      <g id="Group_152153" data-name="Group 152153" transform="translate(0 0)">
        <path id="Path_4408" data-name="Path 4408" d="M114.019,108.767v12.526c0,.169-.008.341,0,.51v.021c.065-.112.13-.224.193-.338l-2.583,1.824-.367.258h.393l-2.583-1.824-.367-.258a.38.38,0,0,0-.393,0l-2.583,1.824-.367.258h.393l-2.583-1.824-.367-.258a.38.38,0,0,0-.393,0l-2.583,1.824-.367.258h.393l-2.583-1.824-.367-.258c.065.112.13.224.192.338v-16.9c0-.036,0-.073.005-.107,0-.005.008-.065,0-.018s.005-.029.008-.036a1.343,1.343,0,0,1,.055-.2c.008-.018.052-.12.018-.049.018-.036.034-.073.055-.107a1.926,1.926,0,0,1,.109-.172c.026-.036-.005.008-.01.013a.453.453,0,0,1,.034-.039c.026-.029.052-.057.081-.086s.057-.052.088-.078-.008.005-.013.008a.236.236,0,0,1,.042-.029,1.531,1.531,0,0,1,.19-.114c.023-.01.094-.042.031-.018.036-.016.075-.029.114-.042a1.608,1.608,0,0,1,.221-.052c-.068.013.01,0,.036,0s.073,0,.109,0a1.415,1.415,0,0,1,.148.008c.047.005.01,0,0,0l.081.016a1.043,1.043,0,0,1,.429.179c.013.008.088.065.049.034l.091.078c.029.029.057.057.083.086s.026.031.039.044c.042.049-.026-.036.013.016a1.745,1.745,0,0,1,.133.224s.026.06.013.029.01.029.01.029a1.206,1.206,0,0,1,.042.138c.01.039.018.081.026.122s0,.01,0,0c0,.029.005.057.008.083s0,.06,0,.091v3.114a1.093,1.093,0,0,0,.26.713,1.077,1.077,0,0,0,.843.354H114.4a.39.39,0,0,0,0-.78H101.3c-.273,0-.546-.008-.819,0-.1,0,.031.013-.021,0-.023-.005-.122-.036-.052-.008-.023-.01-.125-.073-.062-.026a.61.61,0,0,1-.083-.081c-.029-.034.008.008.01.013l-.034-.057c-.031-.055,0,.031-.01-.034,0-.023-.013-.044-.016-.068.005.039.005.034.005,0,0-.07,0-.138,0-.208v-2.568a2.765,2.765,0,0,0-.193-1.212,1.95,1.95,0,0,0-3.655.385,4.441,4.441,0,0,0-.055.983v16.074c0,.081-.005.164,0,.245a.457.457,0,0,0,.216.364l.252.179,2.167,1.53.5.356a.38.38,0,0,0,.393,0l2.583-1.824.367-.258H102.4l2.583,1.824.367.258a.38.38,0,0,0,.393,0l2.583-1.824.367-.258H108.3l2.583,1.824.367.258a.38.38,0,0,0,.393,0q1.436-1.015,2.872-2.026a.5.5,0,0,0,.263-.338c.005-.034.005-.057.008-.088,0-.094,0-.187,0-.281V111.283c0-.827.018-1.66,0-2.487v-.036a.4.4,0,0,0-.39-.39A.409.409,0,0,0,114.019,108.767Z" transform="translate(-96.311 -103.018)" fill="#919ab1"/>
      </g>
    </g>
    <g id="Group_152156" data-name="Group 152156" transform="translate(97.89 102.911)">
      <g id="Group_152155" data-name="Group 152155" transform="translate(0 0)">
        <path id="Path_4409" data-name="Path 4409" d="M176.236,104.864v2.7c0,.143,0,.284,0,.427v.018c0,.073,0,.023.005,0a.637.637,0,0,1-.016.068c-.013.1.021-.031,0,.018a.661.661,0,0,1-.042.073c.036-.062-.026.026-.047.047-.07.07.036-.021-.013.008a.658.658,0,0,1-.06.031c-.052.026.055-.013,0,0-.029.005-.055.016-.083.021.021,0,.07,0,0-.005-.091,0-.18,0-.271,0h-16.03c-.026,0-.055,0-.083,0h-.039c.075,0,.008,0-.016-.005s-.081-.023-.034-.008-.018-.01-.029-.016-.081-.052-.018-.005a.622.622,0,0,1-.06-.057c-.008-.008-.049-.062-.023-.026s-.01-.021-.016-.031-.029-.086-.008-.016c-.005-.021-.013-.044-.018-.065-.018-.07-.005.036,0-.036V108c.016-.382,0-.77,0-1.152v-1.982a1.984,1.984,0,0,0-.544-1.353,2.007,2.007,0,0,0-1.41-.6v.78h17.692c.031,0,.06,0,.091,0,.016,0,.109.01.073.005s.068.013.086.018l.117.031c.039.013.075.026.114.042-.062-.026.008.005.031.018a1.634,1.634,0,0,1,.2.125c.06.042-.026-.026.026.023.023.023.049.044.075.068s.055.057.081.086a.46.46,0,0,0,.034.039c-.023-.029-.018-.029,0,0a1.713,1.713,0,0,1,.114.187c.008.013.047.1.031.062s.023.068.029.081c.021.068.036.135.052.2,0,.005.01.062,0,.018s0,.026,0,.036c0,.039.005.081.005.122a.39.39,0,1,0,.78,0,1.973,1.973,0,0,0-1.03-1.72,2.047,2.047,0,0,0-.965-.232H158.205c-.265,0-.531-.005-.8,0h-.034a.39.39,0,0,0,0,.78,1.182,1.182,0,0,1,.991.546c.031.052.06.1.086.159s-.016-.044.008.018c.01.026.018.052.026.078q.027.09.047.179c0,.008.01.075.005.021a1.048,1.048,0,0,1,.008.127v3.018a1.441,1.441,0,0,0,.1.609,1.049,1.049,0,0,0,.947.606c.362.008.723,0,1.082,0h15.268A1.06,1.06,0,0,0,177.019,108c.008-.947,0-1.894,0-2.841v-.289a.392.392,0,0,0-.783,0Z" transform="translate(-156.985 -102.911)" fill="#919ab1"/>
      </g>
    </g>
    <g id="Group_152158" data-name="Group 152158" transform="translate(99.659 112.636)">
      <g id="Group_152157" data-name="Group 152157" transform="translate(0 0)">
        <path id="Path_4410" data-name="Path 4410" d="M225.375,477.521h9.672c.445,0,.895.016,1.34,0h.018a.39.39,0,0,0,0-.78h-9.672c-.445,0-.895-.016-1.34,0h-.018a.39.39,0,1,0,0,.78Z" transform="translate(-224.985 -476.733)" fill="#919ab1"/>
      </g>
    </g>
    <g id="Group_152160" data-name="Group 152160" transform="translate(99.659 116.493)">
      <g id="Group_152159" data-name="Group 152159" transform="translate(0 0)">
        <path id="Path_4411" data-name="Path 4411" d="M225.375,625.78h7.177a.39.39,0,1,0,0-.78h-7.177a.39.39,0,1,0,0,.78Z" transform="translate(-224.985 -625)" fill="#919ab1"/>
      </g>
    </g>
  </g>
</svg>
