<svg xmlns="http://www.w3.org/2000/svg" width="215.471" height="44.237" viewBox="0 0 215.471 44.237">
  <g id="KEZAD_Group_Logo_Latin_RGB_Neg" transform="translate(-27.9 -28.5)">
    <g id="Group_158707" data-name="Group 158707" transform="translate(27.9 28.5)">
      <path id="Path_26455" data-name="Path 26455" d="M60.994,42.531c0,.065.065.065.13.065s.065,0,.13-.065c0,0,1.234-3.443,1.494-4.352,0,0,0-.39-.065-1.364a53.449,53.449,0,0,0-1.429-8.185.14.14,0,0,0-.13-.13c-.065,0-.065,0-.13.13a53.45,53.45,0,0,0-1.429,8.185c-.065.974-.065,1.364-.065,1.364.325.974,1.494,4.352,1.494,4.352" transform="translate(-38.973 -28.5)" fill="#fff"/>
      <path id="Path_26456" data-name="Path 26456" d="M56.617,57.317a4.318,4.318,0,1,0,6.106,0,4.313,4.313,0,0,0-6.106,0" transform="translate(-37.519 -38.154)" fill="#fff"/>
      <path id="Path_26457" data-name="Path 26457" d="M55.892,44.969,55.5,43.8a13.211,13.211,0,0,0-3.7,1.559l.585,1.1a11.91,11.91,0,0,1,3.508-1.494" transform="translate(-36.275 -33.861)" fill="#fff"/>
      <path id="Path_26458" data-name="Path 26458" d="M69.892,45.359a13.211,13.211,0,0,0-3.7-1.559l-.39,1.169a10.413,10.413,0,0,1,3.508,1.494Z" transform="translate(-41.18 -33.861)" fill="#fff"/>
      <path id="Path_26459" data-name="Path 26459" d="M51.9,78.4a13.211,13.211,0,0,0,3.7,1.559l.39-1.169A10.413,10.413,0,0,1,52.485,77.3Z" transform="translate(-36.31 -45.6)" fill="#fff"/>
      <path id="Path_26460" data-name="Path 26460" d="M65.9,78.794l.39,1.169a13.211,13.211,0,0,0,3.7-1.559l-.585-1.1A10.413,10.413,0,0,1,65.9,78.794" transform="translate(-41.215 -45.6)" fill="#fff"/>
      <path id="Path_26461" data-name="Path 26461" d="M44.759,70.492l1.1-.585A11.909,11.909,0,0,1,44.369,66.4l-1.169.39a11.778,11.778,0,0,0,1.559,3.7" transform="translate(-33.261 -41.78)" fill="#fff"/>
      <path id="Path_26462" data-name="Path 26462" d="M43.2,56.2l1.169.39a10.413,10.413,0,0,1,1.494-3.508l-1.1-.585A11.778,11.778,0,0,0,43.2,56.2" transform="translate(-33.261 -36.91)" fill="#fff"/>
      <path id="Path_26463" data-name="Path 26463" d="M79.363,66.89l-1.169-.39A10.413,10.413,0,0,1,76.7,70.008l1.1.585a13.21,13.21,0,0,0,1.559-3.7" transform="translate(-45 -41.815)" fill="#fff"/>
      <path id="Path_26464" data-name="Path 26464" d="M76.7,53.085a11.91,11.91,0,0,1,1.494,3.508l1.169-.39A13.21,13.21,0,0,0,77.8,52.5Z" transform="translate(-45 -36.91)" fill="#fff"/>
      <path id="Path_26465" data-name="Path 26465" d="M61.254,74.965c0-.065-.065-.065-.13-.065s-.065,0-.13.065c0,0-1.234,3.443-1.494,4.352,0,0,0,.39.065,1.364a53.449,53.449,0,0,0,1.429,8.185.14.14,0,0,0,.13.13c.065,0,.065,0,.13-.13a53.45,53.45,0,0,0,1.429-8.185c.065-.974.065-1.364.065-1.364-.325-.909-1.494-4.352-1.494-4.352" transform="translate(-38.973 -44.759)" fill="#fff"/>
      <path id="Path_26466" data-name="Path 26466" d="M37.579,63.248c.909-.26,4.352-1.494,4.352-1.494.065,0,.065-.065.065-.13s0-.065-.065-.13c0,0-3.443-1.234-4.352-1.494,0,0-.39,0-1.364.065a53.449,53.449,0,0,0-8.185,1.429.14.14,0,0,0-.13.13c0,.065,0,.065.13.13a53.449,53.449,0,0,0,8.185,1.429c.974.065,1.364.065,1.364.065" transform="translate(-27.9 -39.538)" fill="#fff"/>
      <path id="Path_26467" data-name="Path 26467" d="M88.366,61.594a53.45,53.45,0,0,0-8.185-1.429c-.974-.065-1.364-.065-1.364-.065-.909.26-4.352,1.494-4.352,1.494-.065,0-.065.065-.065.13s0,.065.065.13c0,0,3.443,1.234,4.352,1.494,0,0,.39,0,1.364-.065a53.449,53.449,0,0,0,8.185-1.429.14.14,0,0,0,.13-.13c0-.065,0-.13-.13-.13" transform="translate(-44.194 -39.573)" fill="#fff"/>
      <path id="Path_26468" data-name="Path 26468" d="M43.417,46.206c.585.715.844.974.844.974.715.52,4.222,2.144,4.222,2.144h.13c0-.065.065-.065,0-.13,0,0-1.624-3.508-2.144-4.222,0,0-.26-.26-.974-.844A23.742,23.742,0,0,0,40.1,40.684a.09.09,0,0,0-.13,0c-.065.065-.065.065,0,.13a27.7,27.7,0,0,0,3.443,5.392" transform="translate(-32.114 -32.759)" fill="#fff"/>
      <path id="Path_26469" data-name="Path 26469" d="M75.881,74.318c-.585-.715-.844-.974-.844-.974-.715-.52-4.222-2.144-4.222-2.144h-.13c0,.065-.065.065,0,.13,0,0,1.624,3.508,2.144,4.222,0,0,.26.26.974.844a23.742,23.742,0,0,0,5.392,3.443.09.09,0,0,0,.13,0c.065-.065.065-.065,0-.13a27.7,27.7,0,0,0-3.443-5.392" transform="translate(-42.882 -43.462)" fill="#fff"/>
      <path id="Path_26470" data-name="Path 26470" d="M48.624,71.284c-.065,0-.065-.065-.13,0,0,0-3.508,1.624-4.222,2.144,0,0-.26.26-.844.974a23.742,23.742,0,0,0-3.443,5.392.09.09,0,0,0,0,.13c.065.065.065.065.13,0a23.742,23.742,0,0,0,5.392-3.443c.715-.585.974-.844.974-.844.52-.715,2.144-4.222,2.144-4.222a.09.09,0,0,0,0-.13" transform="translate(-32.124 -43.482)" fill="#fff"/>
      <path id="Path_26471" data-name="Path 26471" d="M70.684,49.213c.065,0,.065.065.13,0,0,0,3.508-1.624,4.222-2.144,0,0,.26-.26.844-.974A23.742,23.742,0,0,0,79.324,40.7a.09.09,0,0,0,0-.13c-.065-.065-.065-.065-.13,0A23.741,23.741,0,0,0,73.8,44.017c-.715.585-.974.844-.974.844-.52.715-2.144,4.222-2.144,4.222-.065,0,0,.065,0,.13" transform="translate(-42.882 -32.714)" fill="#fff"/>
    </g>
    <g id="Group_158708" data-name="Group 158708" transform="translate(82.076 42.986)">
      <path id="Path_26472" data-name="Path 26472" d="M123.382,51.69l-5,6.5a26.26,26.26,0,0,1,5.522,7.405c.13.26,0,.39-.26.39h-3.248a.356.356,0,0,1-.39-.26,19.154,19.154,0,0,0-5.262-6.431v6.3a.307.307,0,0,1-.325.325h-2.793a.307.307,0,0,1-.325-.325V51.625a.307.307,0,0,1,.325-.325h2.793a.307.307,0,0,1,.325.325v6.366l4.677-6.5a.561.561,0,0,1,.39-.195h3.313C123.447,51.3,123.512,51.495,123.382,51.69Z" transform="translate(-111.3 -50.975)" fill="#fff"/>
      <path id="Path_26473" data-name="Path 26473" d="M137.443,63.188h7.34a.307.307,0,0,1,.325.325v2.144a.307.307,0,0,1-.325.325H134.325a.307.307,0,0,1-.325-.325V51.625a.307.307,0,0,1,.325-.325h10.264a.307.307,0,0,1,.325.325v2.144a.307.307,0,0,1-.325.325h-7.081v2.923h6.106a.412.412,0,0,1,.39.325V57.8c.065,1.559-.715,2.144-2.4,2.144h-4.027v3.248Z" transform="translate(-119.254 -50.975)" fill="#fff"/>
      <path id="Path_26474" data-name="Path 26474" d="M158.677,63.028h7.665a.307.307,0,0,1,.325.325v.195c-.065,1.689-.65,2.533-2.144,2.533h-10.2a.307.307,0,0,1-.325-.325V64.132a.7.7,0,0,1,.13-.39l7.73-9.549h-7.146a.307.307,0,0,1-.325-.325V51.725a.307.307,0,0,1,.325-.325h11.238a.412.412,0,0,1,.39.325l.065.325a3.322,3.322,0,0,1-1.1,2.988Z" transform="translate(-126.262 -51.01)" fill="#fff"/>
      <path id="Path_26475" data-name="Path 26475" d="M190.5,65.958h-2.988c-.195,0-.325-.065-.39-.325-.195-.715-.39-1.494-.585-2.209h-6.821c-.195.715-.39,1.494-.585,2.209a.412.412,0,0,1-.39.325h-2.923c-.26,0-.39-.13-.325-.39a53.116,53.116,0,0,1,5.716-14.161.439.439,0,0,1,.39-.26,11.5,11.5,0,0,1,2.988,0,.439.439,0,0,1,.39.26,52.71,52.71,0,0,1,5.716,14.1C190.822,65.763,190.692,65.958,190.5,65.958Zm-4.807-5.392a42.954,42.954,0,0,0-2.533-6.106,42.951,42.951,0,0,0-2.533,6.106Z" transform="translate(-133.787 -50.888)" fill="#fff"/>
      <path id="Path_26476" data-name="Path 26476" d="M216.851,58.511c0,4.417-3.053,7.535-7.99,7.535h-6.236a.307.307,0,0,1-.325-.325v-14.1a.307.307,0,0,1,.325-.325h6.236C213.8,51.3,216.851,54.288,216.851,58.511Zm-7.99,4.482a4.162,4.162,0,0,0,4.417-4.547c0-2.728-1.884-4.157-4.417-4.157h-3.118v8.7Z" transform="translate(-143.187 -50.975)" fill="#fff"/>
      <path id="Path_26477" data-name="Path 26477" d="M243.92,60.089v-2.4a.307.307,0,0,1,.325-.325H249.7a.307.307,0,0,1,.325.325v6.106a.393.393,0,0,1-.195.39,10.169,10.169,0,0,1-6.041,1.949c-4.937,0-7.99-3.183-7.99-7.665s3.313-7.665,8.51-7.665a12.254,12.254,0,0,1,4.222.65.356.356,0,0,1,.26.39l-.065.65c-.195,1.494-.974,1.819-2.274,1.624a17.449,17.449,0,0,0-2.274-.195c-2.728,0-4.742,1.559-4.742,4.547a4.143,4.143,0,0,0,4.417,4.482,6.554,6.554,0,0,0,3.183-.715V60.414h-2.793C243.985,60.414,243.92,60.284,243.92,60.089Z" transform="translate(-154.925 -50.8)" fill="#fff"/>
      <path id="Path_26478" data-name="Path 26478" d="M275.632,65.591c.13.26,0,.39-.26.39h-2.923a.356.356,0,0,1-.39-.26,14.915,14.915,0,0,0-3.053-4.222h-2.663v4.157a.307.307,0,0,1-.325.325h-2.793a.307.307,0,0,1-.325-.325V51.625a.307.307,0,0,1,.325-.325h5.651c4.027,0,6.366,1.754,6.366,4.807a4.226,4.226,0,0,1-3.183,4.417A17.975,17.975,0,0,1,275.632,65.591Zm-9.289-11.368v4.352h2.533c1.884,0,2.923-.78,2.923-2.144,0-1.429-.78-2.209-3.118-2.209Z" transform="translate(-164.421 -50.975)" fill="#fff"/>
      <path id="Path_26479" data-name="Path 26479" d="M285,58.465c0-4.482,3.053-7.665,7.99-7.665s7.99,3.183,7.99,7.665-3.053,7.665-7.99,7.665S285,62.947,285,58.465Zm12.407,0c0-3.053-1.884-4.677-4.417-4.677s-4.417,1.624-4.417,4.677,1.884,4.677,4.417,4.677S297.407,61.583,297.407,58.465Z" transform="translate(-172.165 -50.8)" fill="#fff"/>
      <path id="Path_26480" data-name="Path 26480" d="M313.8,59.48V51.555a.412.412,0,0,1,.325-.39,5.251,5.251,0,0,1,1.039-.065c1.429,0,2.144.585,2.144,2.339V59.35c0,2.468,1.1,3.833,3.313,3.833,2.144,0,3.313-1.3,3.313-3.833v-7.8a.307.307,0,0,1,.325-.325h2.728a.307.307,0,0,1,.325.325V59.48c0,4.482-2.533,6.756-6.756,6.756C316.268,66.236,313.8,63.962,313.8,59.48Z" transform="translate(-182.257 -50.905)" fill="#fff"/>
      <path id="Path_26481" data-name="Path 26481" d="M352.732,56.562c0,3.508-2.793,5.457-6.691,5.457h-2.6v3.7a.307.307,0,0,1-.325.325h-2.793a.307.307,0,0,1-.325-.325v-14.1a.307.307,0,0,1,.325-.325h6.236C350.458,51.3,352.732,53.119,352.732,56.562Zm-6.691,2.468c2.274,0,3.183-.974,3.183-2.468,0-1.559-.974-2.274-2.988-2.274h-2.858V59.03Z" transform="translate(-191.437 -50.975)" fill="#fff"/>
    </g>
  </g>
</svg>
