<?xml version="1.0" encoding="utf-8"?>
<!-- Generator: Adobe Illustrator 26.2.1, SVG Export Plug-In . SVG Version: 6.00 Build 0)  -->
<svg version="1.1" id="Layer_1" xmlns="http://www.w3.org/2000/svg" xmlns:xlink="http://www.w3.org/1999/xlink" x="0px" y="0px"
	 viewBox="0 0 354.8 124.9" style="enable-background:new 0 0 354.8 124.9;" xml:space="preserve">
<style type="text/css">
	.st0{fill:#2D3955;}
</style>
<g>
	<path class="st0" d="M61.8,50c0,0.1,0.1,0.1,0.2,0.1c0.1,0,0.1,0,0.2-0.1c0,0,1.9-5.3,2.3-6.7c0,0,0-0.6-0.1-2.1
		c-0.6-6.7-2.2-12.6-2.2-12.6c0-0.1-0.1-0.2-0.2-0.2c-0.1,0-0.1,0-0.2,0.2c0,0-1.6,5.9-2.2,12.6c-0.1,1.5-0.1,2.1-0.1,2.1
		C60,44.7,61.8,50,61.8,50"/>
	<path class="st0" d="M57.3,57.8c-2.6,2.6-2.6,6.8,0,9.4c2.6,2.6,6.8,2.6,9.4,0c2.6-2.6,2.6-6.8,0-9.4
		C64.1,55.2,59.9,55.2,57.3,57.8"/>
	<path class="st0" d="M58.1,45.5l-0.6-1.8c-2,0.5-3.9,1.3-5.7,2.4l0.9,1.7C54.4,46.7,56.2,45.9,58.1,45.5"/>
	<path class="st0" d="M72.1,46.1c-1.8-1.1-3.7-1.9-5.7-2.4l-0.6,1.8c1.9,0.4,3.7,1.2,5.4,2.3L72.1,46.1z"/>
	<path class="st0" d="M51.9,78.9c1.8,1.1,3.7,1.9,5.7,2.4l0.6-1.8c-1.9-0.4-3.7-1.2-5.4-2.3L51.9,78.9z"/>
	<path class="st0" d="M65.9,79.5l0.6,1.8c2-0.5,3.9-1.3,5.7-2.4l-0.9-1.7C69.6,78.3,67.8,79,65.9,79.5"/>
	<path class="st0" d="M45.6,72.6l1.7-0.9c-1.1-1.7-1.8-3.5-2.3-5.4l-1.8,0.6C43.7,68.9,44.5,70.9,45.6,72.6"/>
	<path class="st0" d="M43.2,58l1.8,0.6c0.4-1.9,1.2-3.7,2.3-5.4l-1.7-0.9C44.5,54.1,43.7,56,43.2,58"/>
	<path class="st0" d="M80.8,66.9L79,66.4c-0.4,1.9-1.2,3.7-2.3,5.4l1.7,0.9C79.5,70.9,80.3,68.9,80.8,66.9"/>
	<path class="st0" d="M76.7,53.2c1.1,1.7,1.8,3.5,2.3,5.4l1.8-0.6c-0.5-2-1.3-3.9-2.4-5.7L76.7,53.2z"/>
	<path class="st0" d="M62.2,74.9c0-0.1-0.1-0.1-0.2-0.1c-0.1,0-0.1,0-0.2,0.1c0,0-1.9,5.3-2.3,6.7c0,0,0,0.6,0.1,2.1
		c0.6,6.7,2.2,12.6,2.2,12.6c0,0.1,0.1,0.2,0.2,0.2c0.1,0,0.1,0,0.2-0.2c0,0,1.6-5.9,2.2-12.6c0.1-1.5,0.1-2.1,0.1-2.1
		C64,80.2,62.2,74.9,62.2,74.9"/>
	<path class="st0" d="M42.8,64.9c1.4-0.4,6.7-2.3,6.7-2.3c0.1,0,0.1-0.1,0.1-0.2c0-0.1,0-0.1-0.1-0.2c0,0-5.3-1.9-6.7-2.3
		c0,0-0.6,0-2.1,0.1c-6.7,0.6-12.6,2.2-12.6,2.2c-0.1,0-0.2,0.1-0.2,0.2c0,0.1,0,0.1,0.2,0.2c0,0,5.9,1.6,12.6,2.2
		C42.2,64.9,42.8,64.9,42.8,64.9"/>
	<path class="st0" d="M95.9,62.3c0,0-5.9-1.6-12.6-2.2C81.8,60,81.2,60,81.2,60c-1.4,0.4-6.7,2.3-6.7,2.3c-0.1,0-0.1,0.1-0.1,0.2
		c0,0.1,0,0.1,0.1,0.2c0,0,5.3,1.9,6.7,2.3c0,0,0.6,0,2.1-0.1c6.7-0.6,12.6-2.2,12.6-2.2c0.1,0,0.2-0.1,0.2-0.2
		C96.1,62.4,96.1,62.3,95.9,62.3"/>
	<path class="st0" d="M45.3,49c0.9,1.1,1.3,1.5,1.3,1.5c1.1,0.8,6.5,3.3,6.5,3.3c0.1,0,0.2,0,0.2,0c0-0.1,0.1-0.1,0-0.2
		c0,0-2.5-5.4-3.3-6.5c0,0-0.4-0.4-1.5-1.3c-5-4-8.3-5.3-8.3-5.3c-0.1-0.1-0.2,0-0.2,0c-0.1,0.1-0.1,0.1,0,0.2
		C40,40.7,41.3,44,45.3,49"/>
	<path class="st0" d="M78.7,75.9c-0.9-1.1-1.3-1.5-1.3-1.5c-1.1-0.8-6.5-3.3-6.5-3.3c-0.1,0-0.2,0-0.2,0c0,0.1-0.1,0.1,0,0.2
		c0,0,2.5,5.4,3.3,6.5c0,0,0.4,0.4,1.5,1.3c5,4,8.3,5.3,8.3,5.3c0.1,0.1,0.2,0,0.2,0c0.1-0.1,0.1-0.1,0-0.2
		C84,84.2,82.7,80.9,78.7,75.9"/>
	<path class="st0" d="M53.3,71.2c-0.1,0-0.1-0.1-0.2,0c0,0-5.4,2.5-6.5,3.3c0,0-0.4,0.4-1.3,1.5c-4,5-5.3,8.3-5.3,8.3
		c-0.1,0.1,0,0.2,0,0.2c0.1,0.1,0.1,0.1,0.2,0c0,0,3.3-1.3,8.3-5.3c1.1-0.9,1.5-1.3,1.5-1.3c0.8-1.1,3.3-6.5,3.3-6.5
		C53.4,71.3,53.3,71.2,53.3,71.2"/>
	<path class="st0" d="M70.7,53.7c0.1,0,0.1,0.1,0.2,0c0,0,5.4-2.5,6.5-3.3c0,0,0.4-0.4,1.3-1.5c4-5,5.3-8.3,5.3-8.3
		c0.1-0.1,0-0.2,0-0.2c-0.1-0.1-0.1-0.1-0.2,0c0,0-3.3,1.3-8.3,5.3c-1.1,0.9-1.5,1.3-1.5,1.3c-0.8,1.1-3.3,6.5-3.3,6.5
		C70.6,53.6,70.7,53.7,70.7,53.7"/>
	<g>
		<path class="st0" d="M119.5,37.6h-3.3c-0.2,0-0.4,0.1-0.3,0.4c0,0.5,0.1,1.1,0.2,1.6c0.2,0.9,0.7,1.7,1.9,1.7l1.7,0
			c1.9,0,3.2,0.8,3.2,3.2v1.4h-7.5c-0.2,0-0.4,0.1-0.4,0.4v2.9c0,0.2,0.1,0.4,0.4,0.4h10.7c0.2,0,0.4-0.1,0.4-0.4l0-1.8v-3.1
			C126.5,39.8,124.1,37.6,119.5,37.6"/>
		<path class="st0" d="M131.7,32.5c-0.9,0.2-1.7,0.7-1.7,1.9c0,3.3,0.1,8.8,0.2,14.7c0,0.2,0.1,0.4,0.4,0.4h2.6
			c0.2,0,0.4-0.1,0.4-0.4c0.2-11.8,0.2-14.3,0.2-16.7c0-0.1-0.1-0.1-0.4-0.1C132.8,32.4,132.1,32.4,131.7,32.5"/>
		<path class="st0" d="M141.8,35.8c1.2,0,1.9-0.8,1.9-1.8c0-0.9-0.7-1.8-1.9-1.8c-1.2,0-1.9,0.8-1.9,1.8
			C139.9,35,140.6,35.8,141.8,35.8"/>
		<path class="st0" d="M154.1,51.3c-1,0-1.7,0.7-1.7,1.5c0,0.8,0.6,1.5,1.7,1.5c1.1,0,1.6-0.7,1.6-1.5
			C155.7,52,155.1,51.3,154.1,51.3"/>
		<path class="st0" d="M157.8,51.3c-1.1,0-1.7,0.7-1.7,1.5c0,0.8,0.6,1.5,1.7,1.5c1,0,1.6-0.7,1.6-1.5
			C159.4,52,158.8,51.3,157.8,51.3"/>
		<path class="st0" d="M204.6,38.5h-2.3l5.2-5.5c0.2-0.2,0.1-0.4-0.2-0.4h-3.4c-0.2,0-0.3,0.1-0.4,0.2l-5.1,5.5
			c-0.1,0.1-0.2,0.3-0.2,0.5c0.1,2,0.3,3.4,2.2,3.4h4.2c2.2,0,3.9,0.8,3.9,3.3v0.5h-48.8c-1.6,0-2.1-0.5-2.1-1.8l0.2-6
			c0-0.2-0.1-0.4-0.4-0.4c-0.5,0-1.1,0.1-1.6,0.2c-0.9,0.2-1.7,0.7-1.7,1.9l0.2,4.3c0,1.3-0.4,1.8-1.9,1.8h-7
			c-1.6,0-2.1-0.5-2.1-1.8v-1.3l0.1-4.7c0-0.2-0.1-0.4-0.4-0.4c-0.5,0-1.2,0.1-1.6,0.2c-0.9,0.2-1.7,0.7-1.7,1.9l0.2,9.8
			c0,1.3-0.4,1.8-1.9,1.8h-1.2c-0.2,0-0.4,0.2-0.3,0.4l0.6,2.9c0,0.2,0.2,0.3,0.4,0.3h0.4c3.5,0,5.4-1.2,5.4-5.5v-0.3
			c0.6,0.2,1.3,0.3,2.2,0.3h6.9c1.9,0,3.3-0.4,4.1-1.3c0.5,0.9,1.5,1.3,3.3,1.3h52.1c0.2,0,0.4-0.1,0.4-0.4v-4
			C212.2,40.7,209.6,38.5,204.6,38.5"/>
		<path class="st0" d="M230.6,35.3c1,0,1.6-0.7,1.6-1.5s-0.6-1.5-1.6-1.5c-1.1,0-1.7,0.7-1.7,1.5S229.5,35.3,230.6,35.3"/>
		<path class="st0" d="M226.9,35.3c1.1,0,1.6-0.7,1.6-1.5s-0.6-1.5-1.6-1.5c-1,0-1.7,0.7-1.7,1.5S225.8,35.3,226.9,35.3"/>
		<path class="st0" d="M254.8,45.9h-8.4c-0.2-0.6-0.3-1.2-0.3-1.7c0-2.5,1.2-3.3,3.1-3.3c1.3,0,2.6,0.3,3.3,0.3c1.3,0,1.8-0.9,2-2.6
			c0-0.2-0.1-0.4-0.3-0.4c-1.5-0.5-3.2-0.9-5-0.9c-4.8,0-6.7,2.8-6.7,6.2c0,0.7,0.1,1.6,0.3,2.3h-7.9l0-5.8l0.1-3.8
			c0-0.2-0.1-0.4-0.4-0.4c-0.5,0-1.1,0.1-1.6,0.2c-0.9,0.2-1.6,0.6-1.7,1.6h-3.5c-3,0-6,2.2-6,5.9c0,4,3,5.9,6.1,5.9h26.9
			c0.2,0,0.4-0.1,0.4-0.4v-2.9C255.2,46,255,45.9,254.8,45.9 M228.5,45.9c-2.3,0-3.1-0.8-3.1-2.3c0-1.2,0.7-2.3,2.4-2.3h3.5l0,4.6
			H228.5z"/>
		<path class="st0" d="M303,51.5c-1.2,0-1.9,0.8-1.9,1.8c0,0.9,0.7,1.8,1.9,1.8c1.2,0,1.9-0.8,1.9-1.8
			C304.9,52.3,304.2,51.5,303,51.5"/>
		<path class="st0" d="M320.1,39.7c-2.9,0-5.4,1.6-6.2,4.4l0,0.1c-0.4,1.3-0.5,1.7-2.1,1.7h-0.2h-0.2h-2.1c0.1-0.7,0.1-1.4,0.1-2
			c0-4.3-2.6-6.6-7.5-6.6c-1.8,0-3.6,0.3-5,0.9c-0.2,0.1-0.3,0.2-0.3,0.4c0.2,1.7,0.7,2.6,2,2.6c0.7,0,2-0.3,3.3-0.3
			c2.2,0,4,0.8,4,3.1c0,0.5-0.1,1.2-0.2,1.8h-9.7h-0.2h-0.2c-1.5,0-1.7-0.4-2.1-1.5c-0.7-2.9-3.3-4.6-6.2-4.6
			c-2.9,0-5.4,1.6-6.2,4.4l0,0.1c-0.4,1.3-0.6,1.7-2.1,1.7h-0.2h-0.2H273h-0.2h-2.2V38c0-0.2-0.1-0.4-0.4-0.4H264
			c-3.4,0-6.4,2.1-6.4,6s3,5.9,6.4,5.9h3.1c0,1.3-0.4,1.9-1.9,1.9h-5.8c-0.2,0-0.4,0.2-0.3,0.4l0.6,2.9c0,0.2,0.2,0.3,0.4,0.3h5
			c3.5,0,5.5-1.2,5.5-5.5v0h2.2h0.2h5.5h0.2h0.3c1.2,0,2.1-0.1,2.7-0.5c1.1,1.9,3.3,2.9,5.6,2.9c2.4,0,4.5-1,5.6-2.9
			c0.6,0.4,1.5,0.5,2.7,0.5h0.3h0.2h15.4h0.2h0.3c1.2,0,2.1-0.1,2.7-0.5c1.1,1.9,3.3,2.9,5.6,2.9c3.4,0,6.4-2.2,6.4-6.1
			C326.5,41.9,323.6,39.7,320.1,39.7 M267,45.9h-3c-2.1,0-2.8-1-2.8-2.3c0-1.2,0.8-2.4,2.8-2.4h3V45.9z M287.2,48.3
			c-2.1,0-2.8-1.1-2.8-2.5s0.8-2.5,2.8-2.5c2.1,0,2.8,1.2,2.8,2.5S289.3,48.3,287.2,48.3 M320.1,48.3c-2.1,0-2.8-1.1-2.8-2.5
			s0.8-2.5,2.8-2.5c2.1,0,2.8,1.2,2.8,2.5S322.2,48.3,320.1,48.3"/>
	</g>
	<g>
		<path class="st0" d="M131.4,67l-6.5,8.5c2.6,2.3,5.4,6,7.3,9.7c0.1,0.3,0,0.5-0.3,0.5h-4.2c-0.2,0-0.4-0.1-0.5-0.3
			c-1.8-3.4-3.8-5.9-6.9-8.4v8.3c0,0.3-0.2,0.4-0.4,0.4H116c-0.3,0-0.4-0.2-0.4-0.4V66.8c0-0.3,0.2-0.4,0.4-0.4h3.7
			c0.3,0,0.4,0.2,0.4,0.4v8.4l6.1-8.5c0.1-0.2,0.3-0.3,0.5-0.3h4.3C131.4,66.4,131.6,66.7,131.4,67z"/>
		<path class="st0" d="M139.3,81.9h9.6c0.3,0,0.4,0.2,0.4,0.4v2.8c0,0.3-0.2,0.4-0.4,0.4h-13.7c-0.3,0-0.4-0.2-0.4-0.4V66.8
			c0-0.3,0.2-0.4,0.4-0.4h13.4c0.3,0,0.4,0.2,0.4,0.4v2.8c0,0.3-0.2,0.4-0.4,0.4h-9.3V74h8c0.3,0,0.4,0.1,0.5,0.4l0,0.6
			c0.1,2-0.9,2.8-3.2,2.8h-5.3V81.9z"/>
		<path class="st0" d="M158,81.7h10c0.3,0,0.4,0.2,0.4,0.4v0.3c-0.1,2.2-0.9,3.3-2.8,3.3h-13.3c-0.3,0-0.4-0.2-0.4-0.4v-2.1
			c0-0.2,0.1-0.4,0.2-0.6l10.1-12.5h-9.4c-0.3,0-0.4-0.2-0.4-0.4v-2.8c0-0.3,0.2-0.4,0.4-0.4h14.7c0.2,0,0.4,0.1,0.5,0.4l0.1,0.4
			c0.3,1.5-0.3,2.6-1.4,3.9L158,81.7z"/>
		<path class="st0" d="M189.7,85.7h-3.9c-0.2,0-0.4-0.1-0.5-0.4c-0.2-1-0.5-1.9-0.8-2.9h-8.9c-0.3,1-0.5,1.9-0.8,2.9
			c-0.1,0.3-0.2,0.4-0.5,0.4h-3.9c-0.3,0-0.5-0.2-0.4-0.5c1.7-6.4,3.9-12.6,7.5-18.5c0.1-0.2,0.2-0.3,0.5-0.3c1.3-0.2,2.6-0.2,3.9,0
			c0.2,0,0.4,0.1,0.5,0.4c3.6,5.8,5.7,12.1,7.5,18.5C190.2,85.5,190,85.7,189.7,85.7z M183.5,78.7c-0.9-2.8-2-5.5-3.3-8
			c-1.3,2.5-2.4,5.2-3.3,8H183.5z"/>
		<path class="st0" d="M211.9,75.8c0,5.7-4,9.8-10.4,9.8h-8.1c-0.3,0-0.4-0.2-0.4-0.4V66.8c0-0.3,0.2-0.4,0.4-0.4h8.1
			C207.9,66.4,211.9,70.3,211.9,75.8z M201.5,81.7c3.3,0,5.8-2,5.8-5.9c0-3.6-2.4-5.5-5.8-5.5h-4v11.4H201.5z"/>
		<path class="st0" d="M231.9,78.1V75c0-0.3,0.2-0.4,0.4-0.4h7.2c0.3,0,0.4,0.2,0.4,0.4v8c0,0.2-0.1,0.4-0.2,0.6
			c-2.1,1.6-5,2.6-7.9,2.6c-6.4,0-10.4-4.2-10.4-10s4.3-10,11.1-10c2.4,0,4.1,0.3,5.5,0.8c0.2,0.1,0.3,0.3,0.3,0.5l-0.1,0.8
			c-0.3,2-1.2,2.4-3,2.1c-0.7-0.1-1.8-0.2-3-0.2c-3.5,0-6.2,2-6.2,6c0,3.8,2.4,5.8,5.8,5.8c1.5,0,2.9-0.3,4.2-1v-2.4h-3.6
			C232.1,78.5,231.9,78.4,231.9,78.1z"/>
		<path class="st0" d="M261,85.1c0.2,0.3,0,0.5-0.3,0.5h-3.8c-0.2,0-0.4-0.1-0.5-0.3c-1-2.1-2.3-3.8-4-5.5h-3.5v5.4
			c0,0.3-0.2,0.4-0.4,0.4h-3.7c-0.3,0-0.4-0.2-0.4-0.4V66.8c0-0.3,0.2-0.4,0.4-0.4h7.4c5.3,0,8.3,2.3,8.3,6.3c0,3.2-1.6,5-4.1,5.8
			C258.4,80.5,259.8,82.7,261,85.1z M248.8,70.3v5.7h3.3c2.5,0,3.8-1,3.8-2.8c0-1.9-1-2.9-4-2.9H248.8z"/>
		<path class="st0" d="M263.1,76c0-5.9,4-10,10.4-10S284,70.2,284,76s-4,10-10.4,10S263.1,81.9,263.1,76z M279.3,76
			c0-4-2.4-6.1-5.8-6.1s-5.8,2.1-5.8,6.1s2.4,6.1,5.8,6.1S279.3,80,279.3,76z"/>
		<path class="st0" d="M287.6,77.2V66.8c0-0.3,0.1-0.4,0.4-0.5c0.4-0.1,0.8-0.1,1.3-0.1c1.8,0,2.8,0.8,2.8,3V77c0,3.2,1.5,5,4.3,5
			c2.8,0,4.3-1.7,4.3-5V66.8c0-0.3,0.2-0.4,0.4-0.4h3.6c0.3,0,0.4,0.2,0.4,0.4v10.4c0,5.9-3.3,8.9-8.9,8.9
			C290.8,86.1,287.6,83.1,287.6,77.2z"/>
		<path class="st0" d="M326.5,73.3c0,4.6-3.6,7.1-8.7,7.1h-3.4v4.9c0,0.3-0.2,0.4-0.4,0.4h-3.7c-0.3,0-0.4-0.2-0.4-0.4V66.8
			c0-0.3,0.2-0.4,0.4-0.4h8.1C323.5,66.4,326.5,68.8,326.5,73.3z M317.8,76.5c2.9,0,4.2-1.2,4.2-3.2c0-2-1.2-3-3.9-3h-3.7v6.2H317.8
			z"/>
	</g>
</g>
</svg>
