<svg xmlns="http://www.w3.org/2000/svg" width="18" height="18" viewBox="0 0 18 18"><defs><style>.a{fill:#6f4c98;}</style></defs><g transform="translate(-10 -10)"><path class="a" d="M11.528,39.72V38.192h1.527V36.664H11.528A1.532,1.532,0,0,0,10,38.192V39.72Z" transform="translate(0 -20.687)"/><path class="a" d="M42.221,10H33.055a1.531,1.531,0,0,0-1.527,1.528v4.583H30v1.528h1.528v3.055a1.532,1.532,0,0,0,1.527,1.527h3.057v1.528H37.64V22.22h4.582a1.533,1.533,0,0,0,1.528-1.527V11.528A1.532,1.532,0,0,0,42.221,10Zm0,10.693H33.055V11.528h9.166Z" transform="translate(-15.75)"/><path class="a" d="M50,38.192h1.529V39.72h1.528V38.192a1.533,1.533,0,0,0-1.528-1.528H50Z" transform="translate(-31.034 -20.687)"/><path class="a" d="M30,83.332h3.055V84.86H30Z" transform="translate(-15.517 -56.86)"/><path class="a" d="M51.529,76.668V78.2H50v1.528h1.529A1.533,1.533,0,0,0,53.057,78.2V76.668Z" transform="translate(-31.034 -51.723)"/><path class="a" d="M13.055,78.195H11.528V76.668H10v1.527a1.532,1.532,0,0,0,1.528,1.528h1.527Z" transform="translate(0 -51.723)"/><path class="a" d="M10,56.664h1.528V59.72H10Z" transform="translate(0 -36.203)"/></g></svg>