<svg xmlns="http://www.w3.org/2000/svg" width="33.92" height="40.221" viewBox="0 0 33.92 40.221">
  <g id="file" transform="translate(-40.098)">
    <g id="Group_152140" data-name="Group 152140" transform="translate(40.097)">
      <g id="Group_152139" data-name="Group 152139" transform="translate(0)">
        <path id="Path_4402" data-name="Path 4402" d="M72.08,5.33H68.688V1.938A1.944,1.944,0,0,0,66.75,0H42.035A1.944,1.944,0,0,0,40.1,1.938V32.952a1.944,1.944,0,0,0,1.938,1.938h3.392v3.392a1.944,1.944,0,0,0,1.938,1.938H63.842a5.656,5.656,0,0,0,3.349-1.328l5.415-5.1a5.147,5.147,0,0,0,1.412-3.267V7.269A1.944,1.944,0,0,0,72.08,5.33ZM45.427,7.269V33.437H42.035a.491.491,0,0,1-.485-.485V1.938a.491.491,0,0,1,.485-.485H66.75a.491.491,0,0,1,.485.485V5.331H47.366A1.944,1.944,0,0,0,45.427,7.269ZM71.609,32.737l-5.415,5.1a2.573,2.573,0,0,1-.415.3V33.679a1.215,1.215,0,0,1,1.212-1.211H71.84A2.035,2.035,0,0,1,71.609,32.737Zm.954-2.208a2.26,2.26,0,0,1-.066.485H66.991a2.671,2.671,0,0,0-2.665,2.665v5.03a2.534,2.534,0,0,1-.485.059H47.366a.491.491,0,0,1-.485-.485V7.269a.491.491,0,0,1,.485-.485H72.08a.491.491,0,0,1,.485.485Z" transform="translate(-40.097)" fill="#9e99c3"/>
      </g>
    </g>
    <g id="Group_152142" data-name="Group 152142" transform="translate(51.97 12.115)">
      <g id="Group_152141" data-name="Group 152141">
        <path id="Path_4403" data-name="Path 4403" d="M206.015,154.216H191.962a.727.727,0,1,0,0,1.454h14.053a.727.727,0,0,0,0-1.454Z" transform="translate(-191.235 -154.216)" fill="#f7bf06"/>
      </g>
    </g>
    <g id="Group_152144" data-name="Group 152144" transform="translate(51.97 21.807)">
      <g id="Group_152143" data-name="Group 152143">
        <path id="Path_4404" data-name="Path 4404" d="M206.015,277.59H191.962a.727.727,0,1,0,0,1.454h14.053a.727.727,0,0,0,0-1.454Z" transform="translate(-191.235 -277.59)" fill="#f7bf06"/>
      </g>
    </g>
    <g id="Group_152146" data-name="Group 152146" transform="translate(51.97 26.652)">
      <g id="Group_152145" data-name="Group 152145">
        <path id="Path_4405" data-name="Path 4405" d="M199.716,339.277h-7.753a.727.727,0,1,0,0,1.454h7.753a.727.727,0,0,0,0-1.454Z" transform="translate(-191.236 -339.277)" fill="#f7bf06"/>
      </g>
    </g>
    <g id="Group_152148" data-name="Group 152148" transform="translate(51.97 16.961)">
      <g id="Group_152147" data-name="Group 152147">
        <path id="Path_4406" data-name="Path 4406" d="M206.015,215.9H191.962a.727.727,0,1,0,0,1.454h14.053a.727.727,0,0,0,0-1.454Z" transform="translate(-191.235 -215.903)" fill="#f7bf06"/>
      </g>
    </g>
  </g>
</svg>
