<svg xmlns="http://www.w3.org/2000/svg" width="24" height="24" viewBox="0 0 24 24"><defs><style>.a{fill:none;}.b{fill:#c5d2e7;stroke:#c5d2e7;}</style></defs><rect class="a" width="24" height="24"/><g transform="translate(2.882 2.882)"><path class="b" d="M115.623,32.173a4.875,4.875,0,0,0-6.894,0l-1.856,1.856a.75.75,0,1,0,1.061,1.061l1.856-1.856a3.375,3.375,0,1,1,4.773,4.773l-2.652,2.652a3.379,3.379,0,0,1-4.773,0,.75.75,0,1,0-1.061,1.061,4.881,4.881,0,0,0,6.894,0l2.652-2.652a4.875,4.875,0,0,0,0-6.894Z" transform="translate(-98.816 -30.745)"/><path class="b" d="M39.862,101.05l-1.856,1.856a3.375,3.375,0,1,1-4.773-4.773l2.652-2.652a3.379,3.379,0,0,1,4.773,0,.75.75,0,1,0,1.061-1.061,4.881,4.881,0,0,0-6.894,0l-2.652,2.652a4.875,4.875,0,1,0,6.894,6.894l1.856-1.856a.75.75,0,0,0-1.061-1.061Z" transform="translate(-30.745 -87.159)"/></g></svg>