<svg xmlns="http://www.w3.org/2000/svg" width="27" height="27" viewBox="0 0 27 27">
  <path id="LinkedIn" d="M130.5-18h-21a3,3,0,0,0-3,3V6a3,3,0,0,0,3,3h21a3,3,0,0,0,3-3V-15A3,3,0,0,0,130.5-18ZM114.75,3.75a.75.75,0,0,1-.75.75h-2.25a.75.75,0,0,1-.75-.75V-6.75a.75.75,0,0,1,.75-.75H114a.75.75,0,0,1,.75.75ZM112.875-9a2.25,2.25,0,0,1-2.25-2.25,2.25,2.25,0,0,1,2.25-2.25,2.25,2.25,0,0,1,2.25,2.25A2.25,2.25,0,0,1,112.875-9ZM129,3.75a.75.75,0,0,1-.75.75H126a.75.75,0,0,1-.75-.75V-1.875A2.25,2.25,0,0,0,123-4.125a2.25,2.25,0,0,0-2.25,2.25V3.75a.75.75,0,0,1-.75.75h-2.25a.75.75,0,0,1-.75-.75V-6.75a.75.75,0,0,1,.75-.75H120a.75.75,0,0,1,.75.75v.9a4.5,4.5,0,0,1,4.17-2.01A4.65,4.65,0,0,1,129-3.15Z" transform="translate(-106.5 18)" fill="#fff"/>
</svg>
