<svg xmlns="http://www.w3.org/2000/svg" width="19.5" height="19.5" viewBox="0 0 19.5 19.5">
  <path id="Path_126" data-name="Path 126" d="M41.994,29.983h-6v-4.5a1.5,1.5,0,0,0-1.5-1.5h-9a1.5,1.5,0,0,0-1.5,1.5v17.25a.75.75,0,0,0,.75.75h10.5a.75.75,0,0,0,.75-.75V31.483h6v11.25a.75.75,0,0,0,1.5,0V31.483A1.5,1.5,0,0,0,41.994,29.983Zm-14.25-2.25h3a.75.75,0,0,1,0,1.5h-3a.75.75,0,0,1,0-1.5Zm3,12.75h-3a.75.75,0,0,1,0-1.5h3a.75.75,0,0,1,0,1.5Zm1.5-3.75h-3a.75.75,0,0,1,0-1.5h3a.75.75,0,0,1,0,1.5Z" transform="translate(-23.994 -23.983)" fill="#919ab1"/>
</svg>
