<svg xmlns="http://www.w3.org/2000/svg" width="36.392" height="27" viewBox="0 0 36.392 27">
  <path id="mail-icon" d="M31.843,0a4.537,4.537,0,0,1,4.548,4.5l0,18A4.538,4.538,0,0,1,31.843,27H4.549A4.538,4.538,0,0,1,0,22.5V4.5A4.539,4.539,0,0,1,4.549,0Zm0,3H4.548A1.512,1.512,0,0,0,3.031,4.5v18A1.512,1.512,0,0,0,4.548,24H31.842a1.512,1.512,0,0,0,1.516-1.5V4.5A1.512,1.512,0,0,0,31.842,3ZM29.3,4.987a1.525,1.525,0,0,1,2.1.294,1.451,1.451,0,0,1-.3,2.055l-12,8.805a1.526,1.526,0,0,1-1.8,0l-12-8.805a1.453,1.453,0,0,1-.3-2.055,1.527,1.527,0,0,1,2.1-.294l11.1,8.144Z" fill="#fff"/>
</svg>
