<svg xmlns="http://www.w3.org/2000/svg" width="240" height="39.516" viewBox="0 0 240 39.516">
  <g id="Maqta-Gateway-Logo-Neg" transform="translate(-13.087 -230.485)">
    <g id="Group_159222" data-name="Group 159222" transform="translate(73.94 255.262)">
      <path id="Path_26754" data-name="Path 26754" d="M219.916,316.908H222.5l4.2,6.528,4.2-6.528h2.584v13.806h-2.427v-9.9l-4.359,6.51h-.078l-4.32-6.469v9.861h-2.386Z" transform="translate(-219.916 -316.258)" fill="#fff"/>
      <path id="Path_26755" data-name="Path 26755" d="M485.742,322.48v-.039a7.032,7.032,0,0,1,7.119-7.14,7.457,7.457,0,0,1,5.305,1.873l-1.538,1.834a5.406,5.406,0,0,0-3.866-1.478,4.671,4.671,0,0,0-4.477,4.872v.039a4.611,4.611,0,0,0,4.694,4.929,5.63,5.63,0,0,0,3.333-1.045v-2.584h-3.529v-2.11h5.876v5.8a8.789,8.789,0,0,1-5.758,2.151,6.85,6.85,0,0,1-7.16-7.1" transform="translate(-407.531 -315.124)" fill="#fff"/>
      <path id="Path_26756" data-name="Path 26756" d="M335.67,327.676a7.152,7.152,0,0,1-4.2,1.3,7.009,7.009,0,0,1-7.2-7.1v-.039a7.22,7.22,0,0,1,14.438-.039v.039a7.014,7.014,0,0,1-1.4,4.24l1.578,1.341-1.56,1.736Zm-1.8-1.6-2.366-2.012,1.558-1.775,2.386,2.169a4.712,4.712,0,0,0,.71-2.584v-.039a4.73,4.73,0,0,0-4.693-4.911,4.667,4.667,0,0,0-4.657,4.872v.039a4.73,4.73,0,0,0,4.7,4.909,4.389,4.389,0,0,0,2.366-.669" transform="translate(-293.566 -314.698)" fill="#fff"/>
      <path id="Path_26757" data-name="Path 26757" d="M628.625,316.857h10.248v2.171h-7.819v3.594h6.93V324.8h-6.93v3.711h7.917v2.173H628.625Z" transform="translate(-508.375 -316.222)" fill="#fff"/>
      <path id="Path_26758" data-name="Path 26758" d="M744.636,316.517h2.253l6.079,13.921H750.4L749,327.1h-6.536l-1.421,3.338h-2.488Zm3.475,8.431-2.388-5.527-2.371,5.527Z" transform="translate(-585.962 -315.982)" fill="#fff"/>
      <path id="Path_26759" data-name="Path 26759" d="M279.97,316.517h2.253l6.08,13.921h-2.566l-1.4-3.338H277.8l-1.421,3.338H273.89Zm3.475,8.431-2.388-5.527-2.371,5.527Z" transform="translate(-258.01 -315.982)" fill="#fff"/>
      <path id="Path_26760" data-name="Path 26760" d="M542.913,316.517h2.253l6.08,13.921h-2.566l-1.4-3.338h-6.536l-1.421,3.338h-2.488Zm3.475,8.431L544,319.42l-2.371,5.527Z" transform="translate(-443.59 -315.982)" fill="#fff"/>
      <path id="Path_26761" data-name="Path 26761" d="M421.468,316.517h2.253l6.08,13.921h-2.566l-1.4-3.338H419.3l-1.421,3.338h-2.488Zm3.475,8.431-2.388-5.527-2.371,5.527Z" transform="translate(-357.876 -315.982)" fill="#fff"/>
      <path id="Path_26762" data-name="Path 26762" d="M383.138,319.108h-4.385v-2.251H389.97v2.251h-4.383v11.57h-2.449Z" transform="translate(-332.02 -316.222)" fill="#fff"/>
      <path id="Path_26763" data-name="Path 26763" d="M587.018,319.108h-4.385v-2.251H593.85v2.251h-4.383v11.57h-2.449Z" transform="translate(-475.914 -316.222)" fill="#fff"/>
      <path id="Path_26764" data-name="Path 26764" d="M789.05,325.607l-5.435-8.29h2.834l3.833,6.061,3.872-6.061h2.757l-5.435,8.23V331H789.05Z" transform="translate(-617.763 -316.546)" fill="#fff"/>
      <path id="Path_26765" data-name="Path 26765" d="M676.233,330.354h2.093l3.4-9.929,3.4,9.929h2.091l4.818-13.918H689.48l-3.3,10.246-3.4-10.285h-2.052l-3.4,10.285-3.3-10.246h-2.625Z" transform="translate(-538.576 -315.898)" fill="#fff"/>
    </g>
    <path id="Path_26766" data-name="Path 26766" d="M13.087,245.06v15.021H52.908v-.038A60.168,60.168,0,0,0,13.087,245.06" transform="translate(0 -10.287)" fill="#fff"/>
    <path id="Path_26767" data-name="Path 26767" d="M89.509,328.76V313.74H49.687v.038A60.176,60.176,0,0,0,89.509,328.76" transform="translate(-25.832 -58.76)" fill="#fff"/>
    <g id="Group_159223" data-name="Group 159223" transform="translate(72.405 230.485)">
      <rect id="Rectangle_141857" data-name="Rectangle 141857" width="2.189" height="15.2" transform="translate(155.818 0.006)" fill="#fff"/>
      <rect id="Rectangle_141858" data-name="Rectangle 141858" width="2.189" height="15.2" transform="translate(101.913 0.006)" fill="#fff"/>
      <path id="Path_26768" data-name="Path 26768" d="M775.66,248.548v7.725h-8.9V248.6l-.151-.026c-.568-.1-1.1-.173-1.572-.225a15.222,15.222,0,0,0-1.662-.083,5.357,5.357,0,0,0-2.172.422,4.778,4.778,0,0,0-1.622,1.146,5.011,5.011,0,0,0-1.01,1.669,5.72,5.72,0,0,0-.346,1.984,5.885,5.885,0,0,0,.262,1.744,4.183,4.183,0,0,0,.849,1.524,4.28,4.28,0,0,0,1.513,1.078,5.552,5.552,0,0,0,2.243.41h1.474c-.107,1.924-1.313,2.86-3.684,2.86a9.267,9.267,0,0,1-1.4-.109c-.468-.073-.938-.164-1.4-.271l-.24-.057.169,2.4.142.024c.338.056.749.1,1.221.145.51.042,1.112.061,1.483.061a6.551,6.551,0,0,0,2.668-.481,5.187,5.187,0,0,0,1.848-1.242,4.754,4.754,0,0,0,1.011-1.686,6.643,6.643,0,0,0,.345-1.641h11.121v-9.691Zm-11.09,7.725h-1.217a2.719,2.719,0,0,1-2.1-.794,3.47,3.47,0,0,1-.734-2.4,3.1,3.1,0,0,1,.257-1.307,3.015,3.015,0,0,1,.639-.921,2.558,2.558,0,0,1,.853-.541,2.5,2.5,0,0,1,.887-.182c.079,0,.184,0,.316.011l.437.02c.15.006.3.02.438.039.083.011.159.024.228.038Z" transform="translate(-598.038 -243.032)" fill="#fff"/>
      <path id="Path_26769" data-name="Path 26769" d="M598.4,256.2V248.51l-.15-.026c-.55-.094-1.075-.17-1.564-.225a14.726,14.726,0,0,0-1.656-.083,5.537,5.537,0,0,0-2.057.378,4.942,4.942,0,0,0-1.643,1.062,4.821,4.821,0,0,0-1.087,1.653,5.674,5.674,0,0,0-.39,2.134,5.614,5.614,0,0,0,.317,1.916,4.121,4.121,0,0,0,.945,1.515,4.262,4.262,0,0,0,1.547.984,5.875,5.875,0,0,0,2.085.347h4.678v.013h32.761v-9.691h-2.19v7.722Zm-2.187,0h-1.224a2.705,2.705,0,0,1-2.121-.8,3.521,3.521,0,0,1-.727-2.4,3.281,3.281,0,0,1,.211-1.2,3.094,3.094,0,0,1,.565-.934,2.5,2.5,0,0,1,1.869-.825c.078,0,.184,0,.315.009l.439.02c.15.007.3.02.441.039.083.012.16.024.231.037Z" transform="translate(-479.472 -242.971)" fill="#fff"/>
      <path id="Path_26770" data-name="Path 26770" d="M310.8,243.725h-7.93a4.818,4.818,0,0,0,.671-2.465v-.035a5,5,0,0,0-9.993-.093l0,.041.042,0-.044.046,0,.039v.041a4.119,4.119,0,0,1-.16,1.142,2.125,2.125,0,0,1-.418.785,1.322,1.322,0,0,1-.57.386,2.213,2.213,0,0,1-.693.112h-5.492v0h-1.846a5.2,5.2,0,0,0,.683-1.239,6.086,6.086,0,0,0,.383-2.2,6.279,6.279,0,0,0-.284-1.9,4.609,4.609,0,0,0-.858-1.584,4.1,4.1,0,0,0-1.436-1.084,4.825,4.825,0,0,0-2.022-.4,4.987,4.987,0,0,0-2.141.441,4.676,4.676,0,0,0-1.561,1.166,5,5,0,0,0-.944,1.646,5.734,5.734,0,0,0-.318,1.882,5.639,5.639,0,0,0,.364,2.145,5.351,5.351,0,0,0,.62,1.113h-5.239V240.5a5.222,5.222,0,0,0-1.09-3.589,3.8,3.8,0,0,0-2.958-1.217,4.349,4.349,0,0,0-2.027.518,7.921,7.921,0,0,0-1.824,1.328,11.564,11.564,0,0,0-1.521,1.813c-.234.346-.449.692-.641,1.031q.016-.148.031-.312c.033-.328.063-.725.093-1.214s.041-.967.041-1.461v-6.913h-2.189v13.24H227.267v0h-1.611a4.593,4.593,0,0,1-1.614-.272,5.23,5.23,0,0,1-1.208-.635,5.786,5.786,0,0,0,1.562-1.779,4.181,4.181,0,0,0,.552-1.955,3.8,3.8,0,0,0-.277-1.447,3.307,3.307,0,0,0-.841-1.186,4.063,4.063,0,0,0-1.378-.791,5.821,5.821,0,0,0-1.915-.286,7.317,7.317,0,0,0-2.641.516,13.521,13.521,0,0,0-2.534,1.3l-.053.036-.291,2.105.092.044c.521.247.972.48,1.341.7a7.56,7.56,0,0,1,1.025.708,9.929,9.929,0,0,1,.936.9c.282.308.6.676.953,1.1-.471.23-.965.5-1.468.807a11.808,11.808,0,0,0-1.557,1.116,6.277,6.277,0,0,0-1.171,1.3,2.637,2.637,0,0,0-.468,1.471,3.467,3.467,0,0,0,.291,1.452,2.493,2.493,0,0,0,.982,1.072,5.315,5.315,0,0,0,1.779.626,14.991,14.991,0,0,0,2.738.209c.541,0,1.091-.024,1.629-.071s1.072-.121,1.573-.216l.1-.02.17-1.9-.177.031q-.368.061-.807.112c-.293.034-.584.061-.878.081s-.582.039-.868.053-.551.02-.795.02a7.3,7.3,0,0,1-2.65-.374,1.2,1.2,0,0,1-.848-1.188,1.3,1.3,0,0,1,.282-.759,4.3,4.3,0,0,1,.836-.832,10.247,10.247,0,0,1,1.288-.847c.475-.265.994-.526,1.547-.774A7.394,7.394,0,0,0,223,245.307a7.793,7.793,0,0,0,2.51.381h1.757v0H291.6l.041-.009v0a3.3,3.3,0,0,0,1.883-.562,3.008,3.008,0,0,0,.884-1.052,4.913,4.913,0,0,0,4.107,2.079,5.223,5.223,0,0,0,2.138-.454h12.335v-15.2H310.8Zm-88.53-3.146a6.086,6.086,0,0,1-1,1.188,12.773,12.773,0,0,0-1.967-2.178,5.727,5.727,0,0,0-1.98-1.132,9.027,9.027,0,0,1,1.318-.706,4.312,4.312,0,0,1,1.724-.34,2.712,2.712,0,0,1,1.722.507,1.619,1.619,0,0,1,.625,1.355A2.459,2.459,0,0,1,222.268,240.579Zm47.049,3.146h-7.526a15.432,15.432,0,0,1,1.114-2.371,11.27,11.27,0,0,1,1.436-1.981,6.523,6.523,0,0,1,1.508-1.247,2.781,2.781,0,0,1,1.359-.423,1.985,1.985,0,0,1,.975.221,1.806,1.806,0,0,1,.646.611,2.872,2.872,0,0,1,.37.966,6.48,6.48,0,0,1,.118,1.276Zm13.161-.861a2.06,2.06,0,0,1-1.418.863l-.468.068-.514-.068a1.722,1.722,0,0,1-.6-.24,2.437,2.437,0,0,1-.733-.764,3.625,3.625,0,0,1-.441-1.077,5.084,5.084,0,0,1-.145-1.2,5.224,5.224,0,0,1,.145-1.256,3,3,0,0,1,.446-1.016,2.321,2.321,0,0,1,.764-.695,2.177,2.177,0,0,1,1.079-.257,2.319,2.319,0,0,1,1.145.269,2.429,2.429,0,0,1,.795.715,3.031,3.031,0,0,1,.456,1.027,4.987,4.987,0,0,1,.145,1.191A4.172,4.172,0,0,1,282.478,242.864Zm13.276-1.6v-.035a2.748,2.748,0,0,1,2.759-2.918,2.822,2.822,0,0,1,2.812,2.953v.035a2.756,2.756,0,0,1-2.777,2.918A2.847,2.847,0,0,1,295.754,241.26Z" transform="translate(-214.699 -230.485)" fill="#fff"/>
      <path id="Path_26771" data-name="Path 26771" d="M814.926,287.139a1.1,1.1,0,0,0-.831.35,1.168,1.168,0,0,0-.328.826,1.222,1.222,0,0,0,.327.852,1.084,1.084,0,0,0,.832.362,1.034,1.034,0,0,0,.817-.365,1.264,1.264,0,0,0,.306-.849,1.21,1.21,0,0,0-.307-.823A1.046,1.046,0,0,0,814.926,287.139Z" transform="translate(-637.509 -270.47)" fill="#fff"/>
      <path id="Path_26772" data-name="Path 26772" d="M721.5,287.139a1.1,1.1,0,0,0-.831.35,1.168,1.168,0,0,0-.328.826,1.222,1.222,0,0,0,.327.852,1.084,1.084,0,0,0,.831.362,1.034,1.034,0,0,0,.817-.365,1.263,1.263,0,0,0,.306-.849,1.209,1.209,0,0,0-.307-.823A1.046,1.046,0,0,0,721.5,287.139Z" transform="translate(-571.568 -270.47)" fill="#fff"/>
      <path id="Path_26773" data-name="Path 26773" d="M606.689,237.894a1.168,1.168,0,0,0,.9-.388,1.29,1.29,0,0,0,.344-.9,1.225,1.225,0,0,0-.347-.88,1.19,1.19,0,0,0-.9-.368,1.264,1.264,0,0,0-.917.364,1.2,1.2,0,0,0-.368.883,1.254,1.254,0,0,0,.366.9A1.227,1.227,0,0,0,606.689,237.894Z" transform="translate(-490.451 -233.928)" fill="#fff"/>
      <path id="Path_26774" data-name="Path 26774" d="M596.355,237.892a1.218,1.218,0,0,0,1.021-.507,1.238,1.238,0,0,0,.242-.654,1.256,1.256,0,0,0-.354-.992,1.286,1.286,0,0,0-1.818,0,1.29,1.29,0,0,0,0,1.779A1.211,1.211,0,0,0,596.355,237.892Z" transform="translate(-483.171 -233.928)" fill="#fff"/>
      <path id="Path_26775" data-name="Path 26775" d="M440.883,238.223a1.169,1.169,0,0,0,.9-.388,1.292,1.292,0,0,0,.344-.9,1.225,1.225,0,0,0-.347-.88,1.191,1.191,0,0,0-.9-.368,1.264,1.264,0,0,0-.917.364,1.2,1.2,0,0,0-.368.883,1.255,1.255,0,0,0,.366.9A1.228,1.228,0,0,0,440.883,238.223Z" transform="translate(-373.428 -234.16)" fill="#fff"/>
      <path id="Path_26776" data-name="Path 26776" d="M430.549,238.221a1.219,1.219,0,0,0,1.021-.507,1.242,1.242,0,0,0,.242-.654,1.256,1.256,0,0,0-.354-.992,1.286,1.286,0,0,0-1.818,0,1.29,1.29,0,0,0,0,1.779A1.211,1.211,0,0,0,430.549,238.221Z" transform="translate(-366.149 -234.16)" fill="#fff"/>
    </g>
  </g>
</svg>
