<svg xmlns="http://www.w3.org/2000/svg" viewBox="0 0 374.74 108.63"><defs><style>.cls-1{fill:#3d3839;}.cls-2{fill:#7d227c;}</style></defs><g id="Layer_2" data-name="Layer 2"><g id="Layer_1-2" data-name="Layer 1"><path class="cls-1" d="M198.55,66.08H202v8.34a4.87,4.87,0,0,1,4.3-2.39c3.34,0,6.5,2.16,6.5,7.31v7.52h-3.48V79.34c0-2.75-1.47-4.07-3.66-4.07S202,76.65,202,79.34v7.52h-3.48Z"/><path class="cls-1" d="M224.47,79.93V72.41H228v7.52c0,2.74,1.46,4.06,3.66,4.06s3.65-1.32,3.65-4.06V72.41h3.49v7.52c0,4.82-2.87,7.31-7.14,7.31s-7.14-2.46-7.14-7.31"/><path class="cls-1" d="M262.35,79.63A4.26,4.26,0,1,0,258.08,84a4.13,4.13,0,0,0,4.27-4.36m-12-.11V66.08h3.48v8.43A5.49,5.49,0,0,1,258.66,72a7.1,7.1,0,0,1,7.2,7.46,7.43,7.43,0,0,1-7.81,7.75,7.3,7.3,0,0,1-7.7-7.72"/><path class="cls-2" d="M81.58,0C72.8,0,66.27,3.2,62.22,9c-3.55-5.93-9.69-9-18.58-9S28.29,3.21,24.24,9.05H24c-3.33-6-9.16-9-17.14-9C6.87,0,.35,0,0,5.43-.38,12.33,3.66,12,3.66,12c7.62,0,11.66,5.12,11.66,14.76V52.12c0,4.4,2.5,7,6.55,7s6.54-2.61,6.54-7V28.56C28.41,18.2,33.17,12,41.14,12c7.62,0,11.66,5.12,11.66,14.76V52.12c0,4.4,2.5,7,6.55,7h.46c4.16,0,6.54-2.61,6.54-7V28.56C66.35,18.2,71.11,12,79.08,12c7.62,0,11.66,5.12,11.66,14.75V52.12c0,4.4,2.5,7,6.55,7s6.54-2.61,6.54-7V25.23C103.83,8.69,96.57,0,81.58,0"/><path class="cls-2" d="M239.33,6.9a6.12,6.12,0,0,1-6.54,6.55c-11.43,0-18.09,6.06-18.09,20V52.12c0,4.4-2.38,7-6.54,7s-6.55-2.62-6.55-7V7.73c0-4.28,2.5-7,6.55-7s6.54,2.73,6.54,7V9.88h.24c3.57-6.19,9.64-9.52,17.85-9.52a6.12,6.12,0,0,1,6.54,6.54"/><path class="cls-2" d="M344.16,47.83c10.35,0,17.25-7.26,17.25-17.85s-6.9-18-17.25-18-17.25,7.26-17.25,18,7,17.85,17.25,17.85m0-47.83c18.08,0,30.58,12.14,30.58,30s-12.5,29.87-30.58,29.87S313.58,47.71,313.58,30,326,0,344.16,0"/><path class="cls-2" d="M256,30c0-10.71,7-18,17.26-18s17.25,7.25,17.25,18-6.9,17.85-17.25,17.85S256,40.57,256,30m34.39,25.37c8.36-5.06,13.45-14.07,13.45-25.37,0-17.84-12.5-30-30.58-30s-30.58,12.14-30.58,30c0,16.36,10.55,27.94,26.48,29.63v.24c10.23,0,17.25,7.26,17.25,18,0,8.85-4.9,15.38-12.49,17.28A6.17,6.17,0,0,0,269.2,101a6.09,6.09,0,0,0,7.27,6c14.15-2.81,23.31-13.92,23.31-29.18,0-9.39-3.45-17.17-9.35-22.46"/><path class="cls-2" d="M128.88,30c0-10.7,7-18,17.25-18s17.25,7.26,17.25,18-6.9,17.85-17.25,17.85S128.88,40.57,128.88,30M189,47.12c-7.61,0-11.66-5.12-11.66-14.76V7c0-4.4-2.5-7-6.54-7-3.56,0-5.8,1.93-6.38,5.23A32.32,32.32,0,0,0,146.13,0c-18.2,0-30.58,12.14-30.58,30s12.38,29.87,30.58,29.87c9.52,0,17.47-3.39,22.89-9.16,3.38,5.54,9,8.45,16.74,8.45,0,0,6.53,0,6.85-5.44.41-6.9-3.64-6.58-3.64-6.58"/><path class="cls-2" d="M263.86,102.53h0c0,3.37-3,6.1-6.72,6.1H224.36c-3.71,0-6.72-2.73-6.72-6.1s3-6.09,6.72-6.09h32.78c3.71,0,6.72,2.73,6.72,6.09"/></g></g></svg>