<svg xmlns="http://www.w3.org/2000/svg" width="20" height="20" viewBox="0 0 20 20">
	<rect fill="none" width="20" height="20" />
	<g transform="translate(1.25 5.625)">
		<path fill="#606a81" d="M66.625,120h-10a.625.625,0,0,0,0,1.25h10a.625.625,0,0,0,0-1.25Z" transform="translate(-52.875 -116.25)" />
		<path fill="#606a81" d="M32.875,72H16.625a.625.625,0,0,0,0,1.25h16.25a.625.625,0,0,0,0-1.25Z" transform="translate(-16 -72)" />
		<path fill="#606a81" d="M100.375,168h-3.75a.625.625,0,0,0,0,1.25h3.75a.625.625,0,0,0,0-1.25Z" transform="translate(-89.75 -160.5)" />
	</g>
</svg>
