<svg xmlns="http://www.w3.org/2000/svg" xmlns:xlink="http://www.w3.org/1999/xlink" width="88" height="88" viewBox="0 0 88 88"><defs><style>.a{fill:#6f4c98;}.b{fill:#fff;stroke:#fff;stroke-width:0.25px;}.c{filter:url(#a);}</style><filter id="a" x="0" y="0" width="88" height="88" filterUnits="userSpaceOnUse"><feOffset dx="-4" dy="4" input="SourceAlpha"/><feGaussianBlur stdDeviation="8" result="b"/><feFlood flood-color="#0e0a25" flood-opacity="0.102"/><feComposite operator="in" in2="b"/><feComposite in="SourceGraphic"/></filter></defs><g transform="translate(28 20)"><g transform="translate(-4 56) rotate(-90)"><g class="c" transform="matrix(0, 1, -1, 0, 76, -24)"><rect class="a" width="40" height="40" rx="20" transform="translate(28 60) rotate(-90)"/></g><path class="b" d="M10.975,1A10,10,0,0,0,1.867,6.911a.824.824,0,0,0,.416,1.094.837.837,0,0,0,1.106-.417,8.333,8.333,0,1,1,0,6.823.839.839,0,0,0-1.106-.417.824.824,0,0,0-.416,1.094A9.991,9.991,0,1,0,10.975,1Zm.4,6.25a.833.833,0,0,0-.586,1.419l1.483,1.5H1.8a.833.833,0,0,0,0,1.667H12.276l-1.483,1.5A.828.828,0,1,0,11.964,14.5l2.915-2.917a.826.826,0,0,0,0-1.172L11.964,7.5A.825.825,0,0,0,11.379,7.25Z" transform="translate(47 13.031) rotate(90)"/></g></g></svg>