<svg xmlns="http://www.w3.org/2000/svg" width="11.967" height="12.661" viewBox="0 0 11.967 12.661">
  <g id="Group_157335" data-name="Group 157335" transform="translate(-258.714 -838.805)">
    <g id="Group_157332" data-name="Group 157332" transform="translate(270.681 851.465) rotate(180)">
      <path id="Path_153" data-name="Path 153" d="M10.926,0H1.041A1.042,1.042,0,0,0,0,1.041V6.977a.52.52,0,0,0,1.041,0V1.041h9.886v9.886H6.48a.52.52,0,0,0,0,1.041h4.446a1.042,1.042,0,0,0,1.041-1.041V1.041A1.042,1.042,0,0,0,10.926,0Z" fill="#343a40"/>
    </g>
    <path id="Path_4900" data-name="Path 4900" d="M39.043,29.125,37.4,27.485a.587.587,0,0,0-.83,0l-.966.966h0l-3.436,3.436A.583.583,0,0,0,32,32.3v1.639a.588.588,0,0,0,.587.587h1.639a.583.583,0,0,0,.415-.172l4.4-4.4a.588.588,0,0,0,0-.83ZM37.869,30.3,36.23,28.659l.759-.759,1.639,1.639Z" transform="translate(231.466 811.491)" fill="#343a40"/>
  </g>
</svg>
