<svg xmlns="http://www.w3.org/2000/svg" width="28.448" height="28.457" viewBox="0 0 28.448 28.457">
  <path id="Path_232" data-name="Path 232" d="M46.87,36.13l-1.12-1.681v-1.4l1.119-1.679a2.037,2.037,0,0,0,.26-1.7,13.919,13.919,0,0,0-1.031-2.5,2.013,2.013,0,0,0-1.387-1.02l-1.982-.4-.986-.986-.4-1.982A2.011,2.011,0,0,0,40.324,21.4a13.984,13.984,0,0,0-2.492-1.03,2.019,2.019,0,0,0-1.705.259l-1.68,1.12h-1.4l-1.681-1.12a2.01,2.01,0,0,0-1.7-.259,13.919,13.919,0,0,0-2.5,1.031,2,2,0,0,0-1.02,1.387l-.4,1.982-.986.986-1.984.4a2.006,2.006,0,0,0-1.381,1.02,13.988,13.988,0,0,0-1.03,2.494,2.014,2.014,0,0,0,.259,1.7l1.121,1.681v1.4l-1.122,1.682a2.014,2.014,0,0,0-.258,1.7,13.91,13.91,0,0,0,1.03,2.5,2,2,0,0,0,1.387,1.022l1.983.4.986.986.4,1.981a2,2,0,0,0,1.02,1.389,13.855,13.855,0,0,0,2.493,1.029,1.992,1.992,0,0,0,1.7-.258l1.681-1.12h1.4l1.68,1.12a2.034,2.034,0,0,0,1.127.346,1.985,1.985,0,0,0,.578-.087,13.935,13.935,0,0,0,2.491-1.03,2,2,0,0,0,1.021-1.387l.4-1.983.987-.986,1.983-.4A2.014,2.014,0,0,0,46.1,40.326a13.93,13.93,0,0,0,1.03-2.492A2.036,2.036,0,0,0,46.87,36.13ZM33.75,39.752a6,6,0,1,1,6-6A6,6,0,0,1,33.75,39.752Z" transform="translate(-19.524 -19.524)" fill="none" stroke="#fff" stroke-width="1.5"/>
</svg>
