<svg xmlns="http://www.w3.org/2000/svg" width="27.49" height="21.493" viewBox="0 0 27.49 21.493">
  <path id="Path_187" data-name="Path 187" d="M50,48.976v-.1a.12.12,0,0,0-.008-.052.169.169,0,0,1-.009-.046c0-.015-.008-.032-.012-.048s-.009-.031-.014-.046-.011-.031-.017-.047-.012-.03-.018-.044-.014-.03-.022-.045l-.023-.042-.025-.042-.028-.042-.028-.038-.034-.041-.016-.019-.015-.015-.037-.037-.036-.033-.037-.03-.041-.031-.037-.024-.045-.027-.041-.021-.045-.022-.046-.018-.043-.016-.051-.015-.043-.011-.051-.01-.046-.007H24.881l-.05.008-.048.009-.046.012-.048.014-.046.017-.044.018-.047.023-.039.02-.046.028-.036.024-.042.032-.036.029-.036.033-.037.037-.015.015-.016.019-.034.041-.028.038-.028.042-.025.042-.023.042c-.008.015-.015.03-.022.045s-.012.029-.018.044-.012.031-.017.047-.01.03-.014.046-.009.032-.012.048l-.009.046c0,.015-.006.034-.008.052a.337.337,0,0,0,0,.045V66a2,2,0,0,0,2,2H48a2,2,0,0,0,2-2V48.976ZM48,66H26V51.273l10.324,9.464a1,1,0,0,0,1.352,0L48,51.273Z" transform="translate(-23.26 -47.257)" fill="none" stroke="#fff" stroke-width="1.5"/>
</svg>
