<svg xmlns="http://www.w3.org/2000/svg" width="39" height="30.25" viewBox="0 0 39 30.25">
  <path id="Path_5143" data-name="Path 5143" d="M44.25,51.25H42.562l-4.34-9.765A2.5,2.5,0,0,0,35.938,40H17.562a2.5,2.5,0,0,0-2.285,1.485l-4.34,9.765H9.25a1.25,1.25,0,1,0,0,2.5H10.5v12.5a2.5,2.5,0,0,0,2.5,2.5h3.75a2.5,2.5,0,0,0,2.5-2.5v-2.5h15v2.5a2.5,2.5,0,0,0,2.5,2.5H40.5a2.5,2.5,0,0,0,2.5-2.5V53.75h1.25a1.25,1.25,0,0,0,0-2.5Z" transform="translate(-7.25 -39.25)" fill="none" stroke="#fff" stroke-width="1.5"/>
</svg>
