<svg xmlns="http://www.w3.org/2000/svg" width="31.071" height="21.749" viewBox="0 0 31.071 21.749">
  <path id="Path_341" data-name="Path 341" d="M39.07,64.278c0-.011,0-.022,0-.033,0-.029,0-.057-.006-.085,0-.012,0-.024-.006-.037,0-.028-.01-.056-.016-.083l-.008-.033q-.013-.047-.03-.092s0-.01-.005-.015l-.006-.016v0l-1.8-4.508a2.061,2.061,0,0,0-1.923-1.3H30.785V57.036A1.036,1.036,0,0,0,29.749,56H10.071A2.074,2.074,0,0,0,8,58.071v14.5a2.074,2.074,0,0,0,2.071,2.071h1.685a4.143,4.143,0,0,0,8.023,0h7.512a4.143,4.143,0,0,0,8.023,0H37a2.074,2.074,0,0,0,2.071-2.071V64.285S39.07,64.28,39.07,64.278Zm-8.285-4.135h4.477L36.5,63.25h-5.72ZM10.071,58.071H28.713v8.285H10.071Zm5.7,17.607a2.071,2.071,0,1,1,2.071-2.071,2.071,2.071,0,0,1-2.071,2.071Zm15.535,0a2.071,2.071,0,1,1,2.071-2.071A2.071,2.071,0,0,1,31.3,75.678Z" transform="translate(-8 -56)" fill="#fff"/>
</svg>
