<svg xmlns="http://www.w3.org/2000/svg" width="17.862" height="17.826" viewBox="0 0 17.862 17.826">
	<g transform="translate(-1.98 -2)">
		<path fill="#c5d2e7" d="M15.367,7.348a4.456,4.456,0,0,0,4.456-4.456A.891.891,0,0,0,18.932,2H2.889A.891.891,0,0,0,2,2.891,4.456,4.456,0,0,0,6.454,7.348h.891V9.13H4.672a.891.891,0,0,0-.891.713L2,18.756a.891.891,0,0,0,.891,1.07H18.932a.891.891,0,0,0,.891-1.07L18.041,9.843a.891.891,0,0,0-.891-.713H14.476V7.348ZM3.932,3.783H17.889a2.674,2.674,0,0,1-2.522,1.783H6.454A2.674,2.674,0,0,1,3.932,3.783Zm13.913,14.26H3.976L5.4,10.913H16.419ZM12.693,9.13H9.128V7.348h3.565Z" />
		<path fill="#c5d2e7" d="M11.674,13a2.674,2.674,0,1,0,2.674,2.674A2.674,2.674,0,0,0,11.674,13Zm0,3.565a.891.891,0,1,1,.891-.891A.891.891,0,0,1,11.674,16.565Z" transform="translate(-0.763 -1.196)" />
	</g>
</svg>
