<svg xmlns="http://www.w3.org/2000/svg" width="26.183" height="26.183" viewBox="0 0 26.183 26.183"><defs><style>.a{fill:#c5cfdb;}</style></defs><g transform="translate(0 0)"><path class="a" d="M17.743,7.714H10.8V.771A.771.771,0,0,0,10.028,0H8.486a.771.771,0,0,0-.771.771V7.714H.771A.771.771,0,0,0,0,8.486v1.543a.771.771,0,0,0,.771.771H7.714v6.943a.771.771,0,0,0,.771.771h1.543a.771.771,0,0,0,.771-.771V10.8h6.943a.771.771,0,0,0,.771-.771V8.486A.771.771,0,0,0,17.743,7.714Z" transform="translate(0 13.091) rotate(-45)"/></g></svg>