<svg xmlns="http://www.w3.org/2000/svg" width="24" height="24" viewBox="0 0 24 24">
	<rect fill="none" width="24" height="24" />
	<path fill="#919ab1" d="M48.5,32h-15A1.5,1.5,0,0,0,32,33.5v15A1.5,1.5,0,0,0,33.5,50H43.689a1.493,1.493,0,0,0,1.061-.439l4.811-4.811A1.493,1.493,0,0,0,50,43.689V33.5A1.5,1.5,0,0,0,48.5,32ZM38,37.25h6a.75.75,0,0,1,0,1.5H38a.75.75,0,0,1,0-1.5Zm3,7.5H38a.75.75,0,0,1,0-1.5h3a.75.75,0,0,1,0,1.5Zm-3-3a.75.75,0,0,1,0-1.5h6a.75.75,0,0,1,0,1.5Zm6,6.439V44h4.191Z" transform="translate(-29 -29)" />
</svg>
