<svg xmlns="http://www.w3.org/2000/svg" width="21.61" height="21.588" viewBox="0 0 21.61 21.588">
  <path id="Path_5154" data-name="Path 5154" d="M629.8,93.939a1.349,1.349,0,1,1,1.35-1.35A1.351,1.351,0,0,1,629.8,93.939Zm10.733,13.4-3.082-12.319a1.374,1.374,0,0,0-1.3-1.084h-2.542a4.044,4.044,0,1,0-7.856-1.35,3.952,3.952,0,0,0,.248,1.35h-2.545a1.377,1.377,0,0,0-1.3,1.084l-3.082,12.319a2.175,2.175,0,0,0,1.953,2.789h17.557A2.175,2.175,0,0,0,640.534,107.343Z" transform="translate(-618.996 -88.543)" fill="#919ab1"/>
</svg>
