<svg xmlns="http://www.w3.org/2000/svg" width="16" height="16" viewBox="0 0 16 16"><defs><style>.a{fill:none;}.b{fill:#8f9ab3;}</style></defs><rect class="a" width="16" height="16"/><path class="b" d="M40.259,20.678l-.006-.011-.005-.009a1,1,0,0,0-.368-.361l-5.25-2.967a1,1,0,0,0-.984,0L28.4,20.3a1,1,0,0,0-.372.369l0,0,0,.009a1,1,0,0,0-.128.488v5.917a1,1,0,0,0,.508.871l5.25,2.967a1,1,0,0,0,.457.128l.03,0h.005l.04,0a1,1,0,0,0,.452-.127l5.25-2.967a1,1,0,0,0,.508-.871V21.168A1,1,0,0,0,40.259,20.678ZM34.137,18.2l4.738,2.678-1.67.955L32.43,19.166Zm.063,5.351-4.793-2.678,2-1.132,4.781,2.672Zm.445,6.213.055-5.347,2.008-1.148v2.138a.5.5,0,1,0,1,0V22.7l1.679-.96v5.346Z" transform="translate(-26.144 -16.126)"/></svg>