<svg xmlns="http://www.w3.org/2000/svg" width="48" height="40" viewBox="0 0 48 40"><g transform="translate(24 -11)"><path d="M5.923,32.846h12a1.222,1.222,0,0,0,1-1v-12a1.222,1.222,0,0,0-1-1h-12a1.222,1.222,0,0,0-1,1v12A1.222,1.222,0,0,0,5.923,32.846Zm1-12h10v10h-10Z" transform="translate(-25.923 -1.846)"/><path d="M10.385,39.462h-3c-.425,0,0-.425,0,0v5c0,.425-.425,1,0,1h3a1.222,1.222,0,0,0,1-1v-5C11.385,39.037,10.81,39.462,10.385,39.462Zm0,4h-2v-3h2Z" transform="translate(-1.385 -6.462)"/><path d="M19.23,39.462h-3c-.425,0-1-.425-1,0v5a1.222,1.222,0,0,0,1,1h3c.425,0,0-.575,0-1v-5C19.23,39.037,19.655,39.462,19.23,39.462Zm-1,4h-2v-3h2Z" transform="translate(-3.231 -6.462)"/><path d="M48,33H30V32a1.222,1.222,0,0,0-1-1H23c-.425,0,0,.575,0,1v7c0,.425-.425,1,0,1h1v6H21V15a1.222,1.222,0,0,0-1-1H19V12c0-.425.425-1,0-1H13a1.222,1.222,0,0,0-1,1v2H10V12a1.222,1.222,0,0,0-1-1H3c-.425,0,0,.575,0,1v2H2a1.222,1.222,0,0,0-1,1V50a1.222,1.222,0,0,0,1,1H48a1.222,1.222,0,0,0,1-1V47a1.222,1.222,0,0,0-1-1H29V40h0a1.222,1.222,0,0,0,1-1V37H48a1.222,1.222,0,0,0,1-1V33C49,32.575,48.425,33,48,33ZM3,46V45H19v1ZM13,13h5v1H13ZM4,13H9v1H4Zm15,3V43H3V16ZM47,49H3V48H47ZM27,46H26V40h1Zm2-7H24V33h5Zm12-5h2l-2,2H39Zm-4,2H34l2-2h2Zm-7-2h4l-2,2H30Zm17,2H44l1-2h2Z" transform="translate(-25)"/><path d="M38.077,10.538h2a3.248,3.248,0,0,0,3-3,3.248,3.248,0,0,0-3-3h-2a1.222,1.222,0,0,0-1,1v9h1Zm0-4h2c.637,0,2,.363,2,1s-1.363,1-2,1h-2Z" transform="translate(-54.077 14.462)"/></g></svg>