<svg xmlns="http://www.w3.org/2000/svg" xmlns:xlink="http://www.w3.org/1999/xlink" width="18" height="18" viewBox="0 0 18 18">
	<defs>
		<clipPath>
			<rect width="18" height="18" transform="translate(282 610)" fill="#fff" />
		</clipPath>
	</defs>
	<g transform="translate(-282 -610)">
		<g transform="translate(274 602)">
			<rect width="18" height="18" transform="translate(8 8)" fill="none" />
			<g data-name="add" transform="translate(8 8)">
				<rect width="18" height="18" opacity="0" />
				<path d="M13.5,7H9V2.5A.5.5,0,0,0,8.5,2h-1a.5.5,0,0,0-.5.5V7H2.5a.5.5,0,0,0-.5.5v1a.5.5,0,0,0,.5.5H7v4.5a.5.5,0,0,0,.5.5h1a.5.5,0,0,0,.5-.5V9h4.5a.5.5,0,0,0,.5-.5v-1A.5.5,0,0,0,13.5,7Z" fill="#fff" />
			</g>
		</g>
	</g>
</svg>
