<svg xmlns="http://www.w3.org/2000/svg" width="48" height="54.5" viewBox="0 0 48 54.5">
  <g id="Group_154109" data-name="Group 154109" transform="translate(-1626 -679)">
    <path id="Path_3609" data-name="Path 3609" d="M99.417,0A3.421,3.421,0,0,0,96,3.406V51.094A3.422,3.422,0,0,0,99.417,54.5h34.167A3.422,3.422,0,0,0,137,51.094V13.625L123.333,0Z" transform="translate(1537 679)" fill="#dbe3f2"/>
    <path id="Path_3610" data-name="Path 3610" d="M355.429,13.625h10.286L352,0V10.219A3.428,3.428,0,0,0,355.429,13.625Z" transform="translate(1308.286 679)" fill="#8f9ab3"/>
    <path id="Path_3611" data-name="Path 3611" d="M394.286,138.219,384,128h10.286Z" transform="translate(1279.714 564.625)" fill="#c5d2e7"/>
    <path id="Path_3612" data-name="Path 3612" d="M73.143,258.734a1.714,1.714,0,0,1-1.714,1.7H33.714a1.714,1.714,0,0,1-1.714-1.7V241.7a1.714,1.714,0,0,1,1.714-1.7H71.429a1.714,1.714,0,0,1,1.714,1.7Z" transform="translate(1594 464.547)" fill="#f7f9fd"/>
    <path id="Path_3616" data-name="Path 3616" d="M128.571,417.7H96v1.7h32.571a1.714,1.714,0,0,0,1.714-1.7V416A1.714,1.714,0,0,1,128.571,417.7Z" transform="translate(1536.857 307.281)" fill="#c5d2e7"/>
    <path id="Path_4431" data-name="Path 4431" d="M-22.6,0V-7.846h3.287a2.943,2.943,0,0,1,2.145.7,2.511,2.511,0,0,1,.715,1.875,2.525,2.525,0,0,1-.718,1.881,2.929,2.929,0,0,1-2.142.709h-2.062V0Zm1.225-3.8h2.086a1.63,1.63,0,0,0,1.219-.4,1.477,1.477,0,0,0,.381-1.069,1.458,1.458,0,0,0-.381-1.061,1.637,1.637,0,0,0-1.219-.393h-2.086ZM-14.8,0V-7.846h2.795A4.248,4.248,0,0,1-8.914-6.788,3.815,3.815,0,0,1-7.83-3.926,3.825,3.825,0,0,1-8.914-1.061,4.241,4.241,0,0,1-12.008,0Zm1.225-1.131h1.57a2.983,2.983,0,0,0,2.2-.741,2.782,2.782,0,0,0,.738-2.054,2.782,2.782,0,0,0-.738-2.054,2.983,2.983,0,0,0-2.2-.741h-1.57ZM-6.023,0V-7.846H-.346v1.125H-4.8v2.162h3.756v1.125H-4.8V0Z" transform="translate(1659.071 718.484)" fill="#373068"/>
  </g>
</svg>
