<svg xmlns="http://www.w3.org/2000/svg" width="49.244" height="56.278" viewBox="0 0 49.244 56.278"><defs><style>.d{opacity:1}.a{fill:#dbe3f2;}.b{fill:#8f9ab3;}.c{fill:#c5d2e7;}.d{fill:#373068;}.e{fill:#fff;}.f{fill:#cad1d8;}</style></defs><g transform="translate(-32)"><path class="a" d="M99.517,0A3.528,3.528,0,0,0,96,3.517V52.761a3.528,3.528,0,0,0,3.517,3.517h35.174a3.528,3.528,0,0,0,3.517-3.517V14.07L124.139,0Z" transform="translate(-56.965)"/><path class="b" d="M355.517,14.07H366.07L352,0V10.552A3.528,3.528,0,0,0,355.517,14.07Z" transform="translate(-284.826)"/><path class="c" d="M394.552,138.552,384,128h10.552Z" transform="translate(-313.309 -113.93)"/><path class="d" d="M74.209,259.346A1.764,1.764,0,0,1,72.45,261.1H33.759A1.764,1.764,0,0,1,32,259.346V241.759A1.764,1.764,0,0,1,33.759,240H72.45a1.764,1.764,0,0,1,1.759,1.759Z" transform="translate(0 -213.619)"/><g transform="translate(39.666 32.351)"><path class="e" d="M101.744,295.291a.968.968,0,0,1,.955-.971h3.248a3.516,3.516,0,0,1,0,7.031H103.6v1.857a.883.883,0,0,1-.9.969.948.948,0,0,1-.955-.969Zm1.855.8v3.5h2.348a1.753,1.753,0,0,0,0-3.5Z" transform="translate(-101.744 -294.32)"/><path class="e" d="M188.795,305.2a.88.88,0,0,1-.971-.871v-7.988a.957.957,0,0,1,.971-.872h3.22c6.426,0,6.286,9.731.127,9.731Zm.886-8.014v6.3h2.334c3.8,0,3.966-6.3,0-6.3Z" transform="translate(-178.362 -295.345)"/><path class="e" d="M288.976,297.287v2.235h3.586a1.087,1.087,0,0,1,1.013,1,.977.977,0,0,1-1.013.844h-3.586v2.953a.833.833,0,0,1-.842.871.893.893,0,0,1-1-.871v-7.988a.889.889,0,0,1,1-.872h4.937a.877.877,0,0,1,.985.872.972.972,0,0,1-.985.957h-4.094Z" transform="translate(-266.758 -295.331)"/></g><path class="f" d="M129.415,417.759H96v1.759h33.415a1.764,1.764,0,0,0,1.759-1.759V416A1.764,1.764,0,0,1,129.415,417.759Z" transform="translate(-56.965 -370.274)"/></g></svg>
