<svg xmlns="http://www.w3.org/2000/svg" width="17.001" height="16" viewBox="0 0 17.001 16"><defs><style>.a{fill:#373068;}</style></defs><g transform="translate(-648.349 -106.641)"><path class="a" d="M665.092,127.411a.346.346,0,0,1-.246-.1l-1.384-1.383a.345.345,0,0,1,0-.488l6.919-6.917a.346.346,0,0,1,.488,0l1.384,1.383h0a.345.345,0,0,1,0,.488l-6.919,6.917h0A.346.346,0,0,1,665.092,127.411Zm-.9-1.73.9.9,6.431-6.436-.9-.9Z" transform="translate(-7.004 -5.462)"/><path class="a" d="M662.374,134.732a.346.346,0,0,1-.329-.457l.692-2.075.657.218-.474,1.418,1.419-.474.218.657-2.076.692a.343.343,0,0,1-.107.021Z" transform="translate(-6.472 -12.092)"/><path class="a" d="M671.562,124.431l.489-.489,1.385,1.384-.489.489Z" transform="translate(-10.991 -8.191)"/><path class="a" d="M673.563,122.43l.489-.489,1.385,1.384-.489.489Z" transform="translate(-11.912 -7.244)"/><path class="a" d="M665.561,130.429l.489-.489,1.385,1.384-.489.489Z" transform="translate(-8.15 -11.004)"/><path class="a" d="M656.1,126.429a.437.437,0,0,1-.31-.127l-2.047-2.05h-4.612a.435.435,0,0,1-.436-.435v-6.966a.436.436,0,0,1,.436-.436H659.58a.437.437,0,0,1,.436.436v6.966a.436.436,0,0,1-.436.435h-3.048v1.742a.435.435,0,0,1-.436.435Zm-6.532-3.048h4.355a.44.44,0,0,1,.31.126l1.432,1.437v-1.127a.436.436,0,0,1,.436-.436h3.048v-6.1h-9.581Z" transform="translate(-0.344 -9.774)"/><path class="a" d="M652.028,120.415h.871v.871h-.871Z" transform="translate(-1.501 -11.126)"/><path class="a" d="M654.694,120.415h5.226v.871h-5.226Z" transform="translate(-2.351 -11.126)"/><path class="a" d="M652.028,123.082H659v.871h-6.967Z" transform="translate(-1.501 -12.026)"/></g></svg>