<svg id="pencil-fill" xmlns="http://www.w3.org/2000/svg" width="20" height="20" viewBox="0 0 20 20">
  <rect id="Rectangle_245" data-name="Rectangle 245" width="20" height="20" fill="none"/>
  <path id="Path_290" data-name="Path 290" d="M47,31.171,43.509,27.68a1.25,1.25,0,0,0-1.768,0l-2.058,2.058h0l-7.317,7.317a1.242,1.242,0,0,0-.366.884V41.43a1.251,1.251,0,0,0,1.25,1.25h3.491a1.242,1.242,0,0,0,.884-.366L47,32.938A1.251,1.251,0,0,0,47,31.171Zm-2.5,2.5L41.009,30.18l1.616-1.616,3.491,3.491Z" transform="translate(-29.5 -25.18)" fill="#a187bf"/>
</svg>
