<svg xmlns="http://www.w3.org/2000/svg" width="20" height="20" viewBox="0 0 20 20"><defs><style>.aa{fill:none;}.bb{fill:#606a81;}</style></defs><rect class="aa" width="20" height="20"/><path class="bb" d="M46.842,34.8l-3.659-1.568A1.246,1.246,0,0,0,42,33.345l-1.956,1.3a5.98,5.98,0,0,1-2.75-2.738h0l1.3-1.986a1.248,1.248,0,0,0,.1-1.177l-1.57-3.662a1.252,1.252,0,0,0-1.3-.749A4.38,4.38,0,0,0,32,28.677a11.263,11.263,0,0,0,11.25,11.25A4.381,4.381,0,0,0,47.59,36.1a1.253,1.253,0,0,0-.749-1.3Z" transform="translate(-29.5 -22.427)"/></svg>