<svg xmlns="http://www.w3.org/2000/svg" width="16" height="16" viewBox="0 0 16 16"><defs><style>.a{opacity:0;}.b{fill:#0d102c;}.c{fill:none;stroke:#707070;}</style></defs><rect class="a" width="16" height="16" transform="translate(16) rotate(90)"/><path class="b" d="M10,8a1.147,1.147,0,0,0-.887.427l-2.807,3.4A1.4,1.4,0,0,0,6.133,13.3a1.173,1.173,0,0,0,1.06.7h5.613a1.173,1.173,0,0,0,1.06-.7,1.4,1.4,0,0,0-.173-1.473l-2.807-3.4A1.147,1.147,0,0,0,10,8Z" transform="translate(-2 -3.333)"/><path class="c" d="M4,5.333" transform="translate(0 5.333)"/></svg>