<svg xmlns="http://www.w3.org/2000/svg" width="14.966" height="11.368" viewBox="0 0 14.966 11.368">
	<g transform="translate(0.5 0.507)">
		<path fill="#6772c6" stroke="rgba(0,0,0,0)" d="M851.581,268.444a3.473,3.473,0,0,1,6.932-.307,3.57,3.57,0,0,1-.505,2.141q-1.259,2.171-2.511,4.346a.489.489,0,0,1-.884,0q-1.263-2.186-2.525-4.372A3.548,3.548,0,0,1,851.581,268.444Zm3.477,1.684a1.684,1.684,0,1,0-1.688-1.68A1.687,1.687,0,0,0,855.058,270.129Z" transform="translate(-844.561 -264.886)" />
		<path fill="#6772c6" stroke="rgba(0,0,0,0)" d="M490.985,262.829A2.169,2.169,0,1,1,495,263.97q-.791,1.363-1.577,2.729a.3.3,0,0,1-.539.006q-.815-1.411-1.627-2.824A2.088,2.088,0,0,1,490.985,262.829Zm2.169,1.015a1.014,1.014,0,1,0-1.013-1.006A1.016,1.016,0,0,0,493.154,263.844Z" transform="translate(-490.985 -260.661)" />
		<path fill="#6772c6" stroke="rgba(0,0,0,0)" d="M542.009,574.9H534.7a2.3,2.3,0,0,1-1.169-.277,1.258,1.258,0,0,1-.624-.729,1.121,1.121,0,0,1,.371-1.236,1.917,1.917,0,0,1,1.121-.444c.119-.012.24-.015.36-.015q1.178,0,2.356,0a1.346,1.346,0,0,0,.667-.145.5.5,0,0,0,.319-.451.511.511,0,0,0-.326-.437,1.321,1.321,0,0,0-.639-.142H534.6c.089-.131.18-.27.276-.4a.12.12,0,0,1,.085-.045c.772,0,1.544-.006,2.317,0a1.46,1.46,0,0,1,.911.321.876.876,0,0,1,0,1.423,1.657,1.657,0,0,1-1.076.331h-2.453a1.8,1.8,0,0,0-.873.2,1.212,1.212,0,0,0-.209.141.693.693,0,0,0,.007,1.117,1.5,1.5,0,0,0,.813.318,3.066,3.066,0,0,0,.35.017q3.392,0,6.785,0a.187.187,0,0,1,.175.1C541.8,574.671,541.907,574.781,542.009,574.9Z" transform="translate(-532.032 -564.539)" />
	</g>
</svg>
