<?xml version="1.0" encoding="utf-8"?>
<!-- Generator: Adobe Illustrator 25.3.1, SVG Export Plug-In . SVG Version: 6.00 Build 0)  -->
<svg version="1.1" id="Layer_1"
  xmlns="http://www.w3.org/2000/svg"
  xmlns:xlink="http://www.w3.org/1999/xlink" x="0px" y="0px" viewBox="0 0 56 56" style="enable-background:new 0 0 56 56;" xml:space="preserve">
  <g transform="translate(0.371 0.474)">
    <path fill="#6772C6" d="M48.2,49c0.5,0,0.9-0.4,0.9-0.9v-8.3c0.1-3.6-2.2-6.9-5.6-8.1l-10-3.1l-6.8-12.8c-0.1-0.2-0.3-0.3-0.5-0.4
		l-2.9-1.1c-0.8-0.3-1.7-0.1-2.3,0.4c-0.6,0.6-1,1.4-1,2.3v7.4l-5.4-1.8l-3.2-6.8c-0.1-0.2-0.3-0.4-0.5-0.4l-2.8-1.1
		c-0.8-0.2-1.7-0.1-2.3,0.4c-0.7,0.6-1.1,1.4-1.1,2.3v12.3c-0.1,3.6,2.2,6.9,5.6,8.1L48,49C48,49,48.1,49,48.2,49L48.2,49z"/>
  </g>
</svg>
