<?xml version="1.0" encoding="utf-8"?>
<!-- Generator: Adobe Illustrator 25.3.1, SVG Export Plug-In . SVG Version: 6.00 Build 0)  -->
<svg version="1.1" id="Layer_1" xmlns="http://www.w3.org/2000/svg" xmlns:xlink="http://www.w3.org/1999/xlink" x="0px" y="0px"
	 viewBox="0 0 56 56" style="enable-background:new 0 0 56 56;" xml:space="preserve">
<style type="text/css">
	.st0{fill:none;}
	.st1{fill:#6772C6;}
	.st2{fill:#FFFFFF;}
</style>
<g transform="translate(0.371 0.474)">
	<path fill="#6772C6" d="M52.4,45.6c0.5-0.1,0.7-0.6,0.6-1.1l-2.4-7.9c-1-3.5-4.1-5.9-7.7-6.1l-10.5,0L22.1,20.2
		C21.9,20,21.7,20,21.5,20l-3.1-0.2c-0.9-0.1-1.7,0.4-2.1,1.1c-0.4,0.8-0.5,1.6-0.3,2.5l2.2,7.1l-5.7-0.1l-5.1-5.6
		c-0.2-0.2-0.4-0.3-0.6-0.2l-3-0.2c-0.8,0-1.7,0.4-2.1,1.1c-0.5,0.8-0.6,1.7-0.4,2.5L5,39.6c1,3.5,4.1,5.9,7.7,6.1l39.4,0
		C52.2,45.7,52.3,45.6,52.4,45.6L52.4,45.6z"/>
</g>
<circle fill="#6772C6" cx="44.7" cy="49" r="2.9"/>
<circle fill="#FFFFFF" cx="44.7" cy="49" r="1.4"/>
<circle fill="#6772C6" cx="18.3" cy="49" r="2.9"/>
<circle fill="#FFFFFF" cx="18.3" cy="49" r="1.4"/>
</svg>
