<svg xmlns="http://www.w3.org/2000/svg" xmlns:xlink="http://www.w3.org/1999/xlink" width="16" height="16" viewBox="0 0 16 16"><defs><style>.a-plus{fill:#fff;}.b-plus{clip-path:url(#a);}.c-plus{fill:none;}.d-plus{opacity:0;}.e-plus{fill:#0d102c;}</style><clipPath id="a"><rect class="a-plus" width="16" height="16" transform="translate(282 610)"/></clipPath></defs><g class="b-plus" transform="translate(-282 -610)"><g transform="translate(274 602)"><rect class="c-plus" width="16" height="16" transform="translate(8 8)"/><g transform="translate(8 8)"><rect class="d-plus" width="16" height="16"/><path class="e-plus" d="M13.5,7H9V2.5A.5.5,0,0,0,8.5,2h-1a.5.5,0,0,0-.5.5V7H2.5a.5.5,0,0,0-.5.5v1a.5.5,0,0,0,.5.5H7v4.5a.5.5,0,0,0,.5.5h1a.5.5,0,0,0,.5-.5V9h4.5a.5.5,0,0,0,.5-.5v-1A.5.5,0,0,0,13.5,7Z"/></g></g></g></svg>