<svg xmlns="http://www.w3.org/2000/svg" width="48" height="54.5" viewBox="0 0 48 54.5">
  <g id="Group_154107" data-name="Group 154107" transform="translate(-1507 -679)">
    <path id="Path_4400" data-name="Path 4400" d="M99.417,0A3.421,3.421,0,0,0,96,3.406V51.094A3.421,3.421,0,0,0,99.417,54.5h34.167A3.421,3.421,0,0,0,137,51.094V13.625L123.333,0Z" transform="translate(1418 679)" fill="#dbe3f2"/>
    <path id="Path_4401" data-name="Path 4401" d="M355.429,13.625h10.286L352,0V10.219A3.428,3.428,0,0,0,355.429,13.625Z" transform="translate(1189.286 679)" fill="#8f9ab3"/>
    <path id="Path_4402" data-name="Path 4402" d="M394.286,138.219,384,128h10.286Z" transform="translate(1160.714 564.625)" fill="#c5d2e7"/>
    <path id="Path_4403" data-name="Path 4403" d="M73.143,258.734a1.714,1.714,0,0,1-1.714,1.7H33.714a1.714,1.714,0,0,1-1.714-1.7V241.7a1.714,1.714,0,0,1,1.714-1.7H71.429a1.714,1.714,0,0,1,1.714,1.7Z" transform="translate(1475 464.547)" fill="#373068"/>
    <path id="Path_4407" data-name="Path 4407" d="M128.571,417.7H96v1.7h32.571a1.714,1.714,0,0,0,1.714-1.7V416A1.714,1.714,0,0,1,128.571,417.7Z" transform="translate(1417.857 307.281)" fill="#c5d2e7"/>
    <path id="Path_4430" data-name="Path 4430" d="M-24.555,0V-7.846h3.287a2.943,2.943,0,0,1,2.145.7,2.511,2.511,0,0,1,.715,1.875,2.525,2.525,0,0,1-.718,1.881,2.929,2.929,0,0,1-2.142.709h-2.062V0Zm1.225-3.8h2.086a1.63,1.63,0,0,0,1.219-.4,1.477,1.477,0,0,0,.381-1.069,1.458,1.458,0,0,0-.381-1.061,1.637,1.637,0,0,0-1.219-.393h-2.086ZM-16.942,0V-4.752a3.219,3.219,0,0,1,.87-2.382A3.308,3.308,0,0,1-13.625-8a3.314,3.314,0,0,1,2.455.87A3.225,3.225,0,0,1-10.3-4.752V0h-1.225V-4.752a2.169,2.169,0,0,0-.539-1.564,2.059,2.059,0,0,0-1.559-.562,2.05,2.05,0,0,0-1.553.563,2.169,2.169,0,0,0-.539,1.564V0ZM-4.5.158A4.5,4.5,0,0,1-6.182-.152,3.919,3.919,0,0,1-7.506-1,3.861,3.861,0,0,1-8.361-2.3a4.244,4.244,0,0,1-.311-1.629,4.244,4.244,0,0,1,.311-1.629A3.861,3.861,0,0,1-7.506-6.85,3.883,3.883,0,0,1-6.182-7.7,4.539,4.539,0,0,1-4.5-8a4.276,4.276,0,0,1,2.461.712A3.792,3.792,0,0,1-.562-5.379H-1.916a2.572,2.572,0,0,0-1.02-1.1,3.016,3.016,0,0,0-1.564-.4,2.841,2.841,0,0,0-2.115.832,2.9,2.9,0,0,0-.82,2.121A2.9,2.9,0,0,0-6.615-1.8,2.841,2.841,0,0,0-4.5-.973,3.111,3.111,0,0,0-2.669-1.5,2.64,2.64,0,0,0-1.641-3H-4.98V-4.131H-.334v.6A4.159,4.159,0,0,1-.741-2.045,3.782,3.782,0,0,1-1.62-.876a3.989,3.989,0,0,1-1.286.759A4.555,4.555,0,0,1-4.5.158Z" transform="translate(1540 718.5)" fill="#fff"/>
  </g>
</svg>
