<svg xmlns="http://www.w3.org/2000/svg" width="18" height="18" viewBox="0 0 18 18"><defs><style>.a-print{fill:none;}.b-print{fill:#0d102c;}</style></defs><rect class="a-print" width="18" height="18"/><path class="b-print" d="M33.4,34.813h-.75v-2.25A.563.563,0,0,0,32.088,32h-9a.563.563,0,0,0-.562.562v2.25h-.75A1.738,1.738,0,0,0,19.994,36.5v5.625a.563.563,0,0,0,.562.563h1.969v2.531a.563.563,0,0,0,.562.563h9a.563.563,0,0,0,.563-.562V42.688h1.969a.563.563,0,0,0,.563-.562V36.5A1.738,1.738,0,0,0,33.4,34.813Zm-9.75-1.687h7.875v1.688H23.65Zm7.875,11.531H23.65V41h7.875Zm.281-5.906a.844.844,0,1,1,.844-.844A.844.844,0,0,1,31.807,38.75Z" transform="translate(-18.588 -29.75)"/></svg>