<svg xmlns="http://www.w3.org/2000/svg" xmlns:xlink="http://www.w3.org/1999/xlink" width="19.239" height="19.219" viewBox="0 0 19.239 19.219">
  <defs>
    <clipPath id="clip-path">
      <rect id="Rectangle_141385" data-name="Rectangle 141385" width="19.239" height="19.219" fill="#919ab1"/>
    </clipPath>
  </defs>
  <g id="Group_157632" data-name="Group 157632" transform="translate(-281.874 -94.376)">
    <g id="Group_157631" data-name="Group 157631" transform="translate(281.874 94.376)" clip-path="url(#clip-path)">
      <path id="Path_5150" data-name="Path 5150" d="M295.24,105.67l-.564,6.949a.9.9,0,0,0,.9.976h2.106a.9.9,0,0,0,.9-.9V95.277a.9.9,0,0,0-.9-.9c-3.1,0-8.32,6.7-2.439,11.294ZM290.76,94.946a45.75,45.75,0,0,1,.606,4.835,3.957,3.957,0,0,1-2.589,3.926l.483,8.937a.9.9,0,0,1-.9.951h-2.406a.9.9,0,0,1-.9-.951l.485-8.937a3.954,3.954,0,0,1-2.589-3.926,45.712,45.712,0,0,1,.6-4.835c.121-.762,1.7-.773,1.8.042v5.3c.049.128.567.121.6,0,.054-.95.3-5.226.3-5.323.124-.78,1.679-.78,1.8,0,.007.1.247,4.374.3,5.323.034.121.555.128.6,0v-5.3c.1-.812,1.684-.8,1.8-.042Z" transform="translate(-281.145 -94.376)" fill="#919ab1"/>
    </g>
  </g>
</svg>
