<svg xmlns="http://www.w3.org/2000/svg" width="34.383" height="35.046" viewBox="0 0 34.383 35.046">
  <g id="Group_156684" data-name="Group 156684" transform="translate(-18926.809 2737.043)">
    <g id="Group" transform="translate(18921.414 -2742.563)">
      <circle id="Ellipse_503" data-name="Ellipse 503" cx="1.972" cy="1.972" r="1.972" transform="translate(30.072 29.155)" fill="#f7bf06"/>
    </g>
    <path id="Compound_Path" data-name="Compound Path" d="M24.374,5.709a.789.789,0,0,0-1.025,0L6.788,19.9a.789.789,0,0,0,1.025,1.183L10.495,18.8V35.2a3.943,3.943,0,0,0,3.943,3.943H29.816a9.858,9.858,0,0,0,2.839,1.42h.473a9.976,9.976,0,0,0,3.233-1.735,11.041,11.041,0,0,0,4.1-8.635V25.385a.789.789,0,0,0-.789-.789,11.435,11.435,0,0,1-2.76-.394V18.8l2.681,2.287A.789.789,0,1,0,40.62,19.9ZM38.885,30.2a9.463,9.463,0,0,1-3.509,7.413,8.517,8.517,0,0,1-2.524,1.38,8.517,8.517,0,0,1-2.524-1.38A9.463,9.463,0,0,1,26.819,30.2V26.134a10.883,10.883,0,0,0,5.993-2.169,10.883,10.883,0,0,0,5.993,2.169ZM35.375,23.65a7.255,7.255,0,0,1-1.932-1.262.789.789,0,0,0-1.1,0,9.157,9.157,0,0,1-6.269,2.248.789.789,0,0,0-.789.789V30.2a11.2,11.2,0,0,0,2.76,7.374h-13.6A2.366,2.366,0,0,1,12.072,35.2V17.46L23.862,7.326,35.375,17.42Z" transform="translate(18920.223 -2742.563)" fill="#9d9ac0"/>
  </g>
</svg>
