<svg xmlns="http://www.w3.org/2000/svg" xmlns:xlink="http://www.w3.org/1999/xlink" width="26.1" height="26.1" viewBox="0 0 26.1 26.1"><defs><style>.a{stroke:rgba(0,0,0,0.1);fill:url(#a);}.b{fill:#fff;}.c{stroke:none;}.d{fill:none;}.e{filter:url(#b);}</style><linearGradient id="a" x1="0.5" x2="0.5" y2="1" gradientUnits="objectBoundingBox"><stop offset="0" stop-color="#a187bf"/><stop offset="1" stop-color="#744aa5"/></linearGradient><filter id="b" x="0" y="0" width="26.1" height="26.1" filterUnits="userSpaceOnUse"><feOffset dy="0.5" input="SourceAlpha"/><feGaussianBlur stdDeviation="0.75" result="c"/><feFlood flood-color="#8c69b5" flood-opacity="0.251"/><feComposite operator="in" in2="c"/><feComposite in="SourceGraphic"/></filter></defs><g transform="translate(2.25 1.75)"><g class="e" transform="matrix(1, 0, 0, 1, -2.25, -1.75)"><g class="a" transform="translate(2.25 1.75)"><circle class="c" cx="10.8" cy="10.8" r="10.8"/><circle class="d" cx="10.8" cy="10.8" r="10.3"/></g></g><path class="b" d="M8.1.815A.8.8,0,0,0,7.853.243a.9.9,0,0,0-1.21,0L4.051,2.681,1.46.235a.9.9,0,0,0-1.21,0,.779.779,0,0,0,0,1.143L3.446,4.4a.87.87,0,0,0,.605.233A.91.91,0,0,0,4.656,4.4l3.2-3.01A.815.815,0,0,0,8.1.815Z" transform="translate(8.55 14.85) rotate(-90)"/></g></svg>