<svg xmlns="http://www.w3.org/2000/svg" width="36.295" height="36.314" viewBox="0 0 36.295 36.314"><defs><style>.a{fill:#f7bf06;}.b{fill:#9e99c3;}</style></defs><g transform="translate(-0.424 0.001)"><path class="b" d="M180.725,192.859l-6.271,5.923-3.01-3.1a.867.867,0,1,0-1.244,1.209l3.61,3.706a.883.883,0,0,0,1.227.026l6.9-6.506a.867.867,0,0,0,.035-1.227A.888.888,0,0,0,180.725,192.859Zm0,0" transform="translate(-157.497 -178.581)"/><path class="a" d="M101.159,90.551a10.283,10.283,0,1,0,10.284,10.283A10.293,10.293,0,0,0,101.159,90.551Zm0,19.189a8.906,8.906,0,1,1,8.908-8.906A8.917,8.917,0,0,1,101.159,109.74Zm0,0" transform="translate(-82.582 -82.675)"/><path class="a" d="M34.135,14l.25-4.488a.755.755,0,0,0-.416-.719l-4-2.021-2.021-4a.768.768,0,0,0-.719-.416l-4.5.242L18.992.124a.756.756,0,0,0-.832,0L14.414,2.6l-4.487-.25a.754.754,0,0,0-.719.416l-2.021,4-4,2.021a.767.767,0,0,0-.416.719l.249,4.488L.55,17.734a.756.756,0,0,0,0,.832L3.017,22.32l-.25,4.488a.755.755,0,0,0,.416.719l4,2.021,2.021,4a.767.767,0,0,0,.719.416l4.488-.25,3.746,2.475a.737.737,0,0,0,.832,0l3.746-2.475,4.488.25a.755.755,0,0,0,.719-.416l2.021-4,4-2.021a.768.768,0,0,0,.416-.719l-.25-4.488,2.475-3.746a.756.756,0,0,0,0-.832Zm-1.408,7.7a.711.711,0,0,0-.121.462l.234,4.245-3.776,1.907a.747.747,0,0,0-.333.333l-1.907,3.776-4.245-.234a.827.827,0,0,0-.462.121l-3.542,2.339L15.034,32.31a.749.749,0,0,0-.416-.129H14.58l-4.246.235L8.428,28.639a.745.745,0,0,0-.333-.333l-3.784-1.9.235-4.245a.827.827,0,0,0-.121-.462L2.086,18.158l2.338-3.542a.708.708,0,0,0,.121-.461L4.311,9.909,8.087,8a.746.746,0,0,0,.333-.333l1.907-3.776,4.246.235a.831.831,0,0,0,.462-.121l3.541-2.338,3.542,2.338a.71.71,0,0,0,.462.121l4.245-.235,1.907,3.776A.746.746,0,0,0,29.065,8l3.776,1.907-.234,4.246a.829.829,0,0,0,.121.461l2.339,3.542Zm0,0" transform="translate(0 0)"/></g></svg>