<svg xmlns="http://www.w3.org/2000/svg" width="25.572" height="33.607" viewBox="0 0 25.572 33.607">
  <g id="noun_railway_1454846" transform="translate(-9.494 -16.409)">
    <path id="Union_2" data-name="Union 2" d="M24.254,32.937l-.886-1.143H1.858a.441.441,0,0,1-.085-.008L.817,32.937a.458.458,0,0,1-.36.17.46.46,0,0,1-.283-.1A.441.441,0,0,1,.1,32.383L4.915,26.1H3.035A2.218,2.218,0,0,1,.8,23.91V5.8A4,4,0,0,1,2.024,2.963C3.875,1,7.43,0,12.592,0c5.144,0,8.694.995,10.552,2.957a4.027,4.027,0,0,1,1.243,2.875V23.442a2.459,2.459,0,0,1-.76,1.9,3.4,3.4,0,0,1-2.21.761c-.071,0-.114,0-.124,0H20.267l4.706,6.284a.442.442,0,0,1-.076.629.466.466,0,0,1-.643-.075ZM22.7,30.917l-.834-1.2L20.955,28.4H4.228l-.893,1.287-.855,1.234ZM6.08,26.1h0L4.95,27.5H20.232L19.1,26.1v0ZM1.711,23.91A1.311,1.311,0,0,0,3.035,25.2H21.319A2.587,2.587,0,0,0,23,24.685a1.592,1.592,0,0,0,.469-1.242V16.858H1.711Zm0-7.947h21.76V7.99H1.71ZM2.724,3.541A3.159,3.159,0,0,0,1.71,5.765V7.095H23.471V5.8a3.178,3.178,0,0,0-1.027-2.262C21.284,2.331,18.633.895,12.592.895,6.53.895,3.879,2.334,2.724,3.541Z" transform="translate(9.744 16.659)" fill="#9d99c0" stroke="#9d9ac0" stroke-width="0.5"/>
    <path id="Path_4854" data-name="Path 4854" d="M32.138,69.671a1.649,1.649,0,1,0-1.65-1.649A1.651,1.651,0,0,0,32.138,69.671Zm0-2.595a.945.945,0,1,1-.946.946A.947.947,0,0,1,32.138,67.076Z" transform="translate(-16.308 -30.558)" fill="#9e99bf" stroke="#9d9ac0" stroke-width="0.5"/>
    <path id="Path_4855" data-name="Path 4855" d="M62.165,69.673a1.651,1.651,0,1,0-1.651-1.651A1.653,1.653,0,0,0,62.165,69.673Zm0-2.6a.946.946,0,1,1-.946.946A.948.948,0,0,1,62.165,67.077Z" transform="translate(-33.316 -30.559)" fill="#9e99bf" stroke="#9d9ac0" stroke-width="0.5"/>
    <g id="Rectangle_140806" data-name="Rectangle 140806" transform="translate(18.657 19.86)" fill="#f6bf06" stroke="#f7bf06" stroke-width="1">
      <rect width="7.213" height="1.606" rx="0.803" stroke="none"/>
      <rect x="0.5" y="0.5" width="6.213" height="0.606" rx="0.303" fill="none"/>
    </g>
  </g>
</svg>
