<?xml version="1.0" encoding="UTF-8" standalone="no" ?>
<!DOCTYPE svg PUBLIC "-//W3C//DTD SVG 1.1//EN" "http://www.w3.org/Graphics/SVG/1.1/DTD/svg11.dtd">
<svg xmlns="http://www.w3.org/2000/svg" xmlns:xlink="http://www.w3.org/1999/xlink" version="1.1" width="800" height="800" viewBox="0 0 640 640" xml:space="preserve">
<desc>Created with Fabric.js 4.6.0</desc>
<defs>
</defs>
<g transform="matrix(1 0 0 1 320 320)" id="_o3mfS2a5WqA3Ug2Cghgf"  >
<g style="" vector-effect="non-scaling-stroke"   >
		<g transform="matrix(1 0 0 1 0 119.79)" id="ycq4mC9Lsi8P_84wvIBz-"  >
<path style="stroke: none; stroke-width: 1; stroke-dasharray: none; stroke-linecap: butt; stroke-dashoffset: 0; stroke-linejoin: miter; stroke-miterlimit: 4; fill: rgb(96,106,129); fill-rule: nonzero; opacity: 1;" vector-effect="non-scaling-stroke"  transform=" translate(-256, -375.79)" d="M 501.108 324.808 C 483.03000000000003 302.02299999999997 449.86 298.71299999999997 427.653 317.348 L 348.538 383.731 L 311.42900000000003 383.731 C 329.947 376.153 343.32700000000006 358.308 343.896 337.553 C 344.69300000000004 308.478 321.409 284.622 292.42 284.622 L 137.134 284.622 L 137.134 268.916 C 137.134 259.694 129.65699999999998 252.21699999999998 120.43499999999999 252.21699999999998 L 16.699 252.21699999999998 C 7.477 252.218 0 259.695 0 268.917 L 0 482.67199999999997 C 0 491.89399999999995 7.477 499.371 16.699 499.371 L 120.43599999999999 499.371 C 129.658 499.371 137.135 491.894 137.135 482.67199999999997 L 137.135 455.344 L 169.82999999999998 482.774 C 178.83599999999998 490.331 190.272 494.492 202.029 494.492 L 358.528 494.492 C 370.286 494.492 381.72200000000004 490.33000000000004 390.72900000000004 482.773 L 493.3 396.711 C 514.768 378.695 518.272 346.441 501.108 324.808 z M 103.737 465.972 L 33.398 465.972 L 33.398 285.615 L 103.737 285.615 C 103.737 296.354 103.737 458.287 103.737 465.972 z M 471.83 371.125 L 369.259 457.188 C 366.257 459.707 362.445 461.094 358.52500000000003 461.094 L 202.027 461.094 C 198.10799999999998 461.094 194.297 459.707 191.29399999999998 457.188 L 137.13299999999998 411.748 L 137.13299999999998 318.02099999999996 L 292.419 318.02099999999996 C 302.553 318.02099999999996 310.792 326.34499999999997 310.51099999999997 336.64 C 310.24499999999995 346.332 301.80499999999995 354.217 291.69599999999997 354.217 C 284.43399999999997 354.217 232.58099999999996 354.217 226.00699999999998 354.217 C 216.78499999999997 354.217 209.30799999999996 361.69399999999996 209.30799999999996 370.916 C 209.30799999999996 380.13800000000003 216.78499999999997 387.615 226.00699999999998 387.615 L 255.59699999999998 387.615 L 281.465 409.318 C 287.46999999999997 414.35499999999996 295.09299999999996 417.131 302.93199999999996 417.131 L 348.539 417.131 C 356.377 417.131 364.001 414.35699999999997 370.007 409.31699999999995 L 449.122 342.93399999999997 C 456.882 336.42299999999994 468.546 337.50199999999995 474.946 345.568 C 480.972 353.162 479.575 364.628 471.83 371.125 z" stroke-linecap="round" />
</g>
		<g transform="matrix(1 0 0 1 0.05 -122.4)" id="b8SEbpuR3cs7IGH4kc1zI"  >
<path style="stroke: none; stroke-width: 1; stroke-dasharray: none; stroke-linecap: butt; stroke-dashoffset: 0; stroke-linejoin: miter; stroke-miterlimit: 4; fill: rgb(96,106,129); fill-rule: nonzero; opacity: 1;" vector-effect="non-scaling-stroke"  transform=" translate(-256.05, -133.6)" d="M 368.08 92.437 L 301.015 82.693 L 271.02299999999997 21.921 C 264.90999999999997 9.535 247.18999999999997 9.527999999999999 241.07399999999996 21.921 L 211.08199999999997 82.693 L 144.01699999999997 92.437 C 130.34799999999996 94.42399999999999 124.86599999999997 111.273 134.76199999999997 120.92 L 183.28999999999996 168.226 L 171.83299999999997 235.01999999999998 C 169.49699999999996 248.63299999999998 183.82799999999997 259.054 196.06199999999995 252.62399999999997 L 256.04799999999994 221.08799999999997 L 316.0319999999999 252.62299999999996 C 328.1889999999999 259.015 342.6119999999999 248.72499999999997 340.2609999999999 235.01899999999995 L 328.8039999999999 168.22499999999997 L 377.3329999999999 120.91999999999996 C 387.225 111.279 381.757 94.424 368.08 92.437 z M 301.626 207.317 C 247.27499999999998 178.743 265.043 178.627 210.47099999999998 207.317 C 220.85499999999996 146.768 226.41799999999998 163.626 182.30199999999996 120.623 C 242.84899999999996 111.825 228.45199999999997 122.961 256.049 67.04400000000001 C 283.23699999999997 122.13400000000001 268.82899999999995 111.76500000000001 329.794 120.62300000000002 C 285.814 163.494 291.21 146.586 301.626 207.317 z" stroke-linecap="round" />
</g>
</g>
</g>
<g transform="matrix(1.98 0 0 1.82 320 199.49)" id="Ae96915Rkmckw_biKetVv"  >
<path style="stroke: rgb(143,60,45); stroke-width: 0; stroke-dasharray: none; stroke-linecap: butt; stroke-dashoffset: 0; stroke-linejoin: miter; stroke-miterlimit: 4; fill: rgb(96,106,129); fill-rule: nonzero; opacity: 1;" vector-effect="non-scaling-stroke"  transform=" translate(-48.77, -46.39)" d="M 48.77213 0 L 63.24069 31.36779 L 97.54426000000001 35.43503 L 72.18275000000001 58.88863 L 78.91496000000001 92.77011 L 48.772130000000004 75.89744 L 18.629300000000004 92.77011 L 25.361510000000003 58.88863 L 3.552713678800501e-15 35.43503 L 34.30357000000001 31.36779 z" stroke-linecap="round" />
</g>
<g transform="matrix(1 0 0 1 297.44 188.72)" id="V3_oaF1Gzo1A0bIqtLK0l"  >
<path style="stroke: rgb(0,0,0); stroke-width: 1; stroke-dasharray: none; stroke-linecap: butt; stroke-dashoffset: 0; stroke-linejoin: miter; stroke-miterlimit: 4; fill: rgb(255,255,255); fill-opacity: 0; fill-rule: nonzero; opacity: 1;" vector-effect="non-scaling-stroke"  transform=" translate(0, 0)" d="M 0 0 z" stroke-linecap="round" />
</g>
</svg>