<svg width="512" height="512" xmlns="http://www.w3.org/2000/svg" xml:space="preserve" version="1.1">

 <g>
  <title>Layer 1</title>
  <g fill="white" id="svg_1">
   <g id="svg_2">
    <path fill="#606a81" id="svg_3" d="m501.108,324.808c-18.078,-22.785 -51.248,-26.095 -73.455,-7.46l-79.115,66.383l-37.109,0c18.518,-7.578 31.898,-25.423 32.467,-46.178c0.797,-29.075 -22.487,-52.931 -51.476,-52.931l-155.286,0l0,-15.706c0,-9.222 -7.477,-16.699 -16.699,-16.699l-103.736,0c-9.222,0.001 -16.699,7.478 -16.699,16.7l0,213.755c0,9.222 7.477,16.699 16.699,16.699l103.737,0c9.222,0 16.699,-7.477 16.699,-16.699l0,-27.328l32.695,27.43c9.006,7.557 20.442,11.718 32.199,11.718l156.499,0c11.758,0 23.194,-4.162 32.201,-11.719l102.571,-86.062c21.468,-18.016 24.972,-50.27 7.808,-71.903zm-397.371,141.164l-70.339,0l0,-180.357l70.339,0c0,10.739 0,172.672 0,180.357zm368.093,-94.847l-102.571,86.063c-3.002,2.519 -6.814,3.906 -10.734,3.906l-156.498,0c-3.919,0 -7.73,-1.387 -10.733,-3.906l-54.161,-45.44l0,-93.727l155.286,0c10.134,0 18.373,8.324 18.092,18.619c-0.266,9.692 -8.706,17.577 -18.815,17.577c-7.262,0 -59.115,0 -65.689,0c-9.222,0 -16.699,7.477 -16.699,16.699s7.477,16.699 16.699,16.699l29.59,0l25.868,21.703c6.005,5.037 13.628,7.813 21.467,7.813l45.607,0c7.838,0 15.462,-2.774 21.468,-7.814l79.115,-66.383c7.76,-6.511 19.424,-5.432 25.824,2.634c6.026,7.594 4.629,19.06 -3.116,25.557z"/>
   </g>
  </g>
  <g fill="#606a81" id="svg_4">
   <g id="svg_5">
    <path id="svg_6" d="m368.08,92.437l-67.065,-9.744l-29.992,-60.772c-6.113,-12.386 -23.833,-12.393 -29.949,0l-29.992,60.772l-67.065,9.744c-13.669,1.987 -19.151,18.836 -9.255,28.483l48.528,47.306l-11.457,66.794c-2.336,13.613 11.995,24.034 24.229,17.604l59.986,-31.536l59.984,31.535c12.157,6.392 26.58,-3.898 24.229,-17.604l-11.457,-66.794l48.529,-47.305c9.892,-9.641 4.424,-26.496 -9.253,-28.483zm-66.454,114.88c-54.351,-28.574 -36.583,-28.69 -91.155,0c10.384,-60.549 15.947,-43.691 -28.169,-86.694c60.547,-8.798 46.15,2.338 73.747,-53.579c27.188,55.09 12.78,44.721 73.745,53.579c-43.98,42.871 -38.584,25.963 -28.168,86.694z"/>
   </g>
  </g>
  <g id="svg_7"/>
  <g id="svg_8"/>
  <g id="svg_9"/>
  <g id="svg_10"/>
  <g id="svg_11"/>
  <g id="svg_12"/>
  <g id="svg_13"/>
  <g id="svg_14"/>
  <g id="svg_15"/>
  <g id="svg_16"/>
  <g id="svg_17"/>
  <g id="svg_18"/>
  <g id="svg_19"/>
  <g id="svg_20"/>
  <g id="svg_21"/>
  <path stroke="#606a81" id="svg_22" d="m139.89501,108.18924l88.99871,0l27.50129,-81.35897l27.5013,81.35897l88.99869,0l-72.00134,50.28203l27.50271,81.35897l-72.00137,-50.2834l-72.00135,50.2834l27.50272,-81.35897l-72.00136,-50.28203z" fill="#606a81"/>
 </g>
</svg>