<svg xmlns="http://www.w3.org/2000/svg" width="16.202" height="15.033" viewBox="0 0 16.202 15.033"><defs><style>.a{fill:#8f9ab3;}</style></defs><g transform="translate(0.364 0.08)"><g transform="translate(0 0)"><path class="a" d="M4.636,15.629h1l-2-3h-3l1,1-2,3a39.535,39.535,0,0,0,2,4c.347.551,1.554,0,2,0h4v-3h-5Z" transform="translate(0 -6.675)"/><path class="a" d="M11.45,5.523h3l2-3-1,1-2-3s-2.41-.077-4,0c-.651.032-.781.613-1,1l-3,4,3,1,3-4,1,2Z" transform="translate(-2.815 -0.571)"/><path class="a" d="M23.81,14.389l-2-4-3,2,3,4h-3v-1l-2,2,2,3v-1h3a32.062,32.062,0,0,0,2-3A2.593,2.593,0,0,0,23.81,14.389Z" transform="translate(-8.174 -5.436)"/></g></g></svg>