<svg xmlns="http://www.w3.org/2000/svg" width="35.875" height="53.047" viewBox="0 0 35.875 53.047">
	<g transform="translate(-0.724)">
		<g transform="translate(0.724)">
			<path fill="#9d9ac0" d="M35.519,22.325H32.934V14.141A14.157,14.157,0,0,0,18.793,0h-.264A14.157,14.157,0,0,0,4.388,14.141v8.184H1.8A1.08,1.08,0,0,0,.724,23.4V51.967a1.079,1.079,0,1,0,2.159,0V24.484H34.439v26.4H14.523a1.079,1.079,0,1,0,0,2.159h21A1.08,1.08,0,0,0,36.6,51.967V23.4A1.079,1.079,0,0,0,35.519,22.325Zm-28.972,0V14.141A12,12,0,0,1,18.529,2.159h.264A12,12,0,0,1,30.775,14.141v8.184Z" transform="translate(-0.724)" />
			<path fill="#f7bf06" d="M79.223,169.558a1.079,1.079,0,1,0,0-2.159,4.651,4.651,0,1,0,4.651,4.651,1.079,1.079,0,1,0-2.159,0,2.492,2.492,0,1,1-2.492-2.492Z" transform="translate(-61.286 -137.281)" />
		</g>
	</g>
</svg>
