<svg xmlns="http://www.w3.org/2000/svg" width="34.089" height="40.308" viewBox="0 0 34.089 40.308">
	<g transform="translate(15416.108 -7293.985)">
		<path fill="#9d9ac0" d="M2.216,35.176h0A2.218,2.218,0,0,1,0,33.044V7.472A2.218,2.218,0,0,1,2.215,5.34H4.207V4.959a1.532,1.532,0,0,1,1.53-1.53H7.8a4.59,4.59,0,0,1,8.881,0h2.062a1.532,1.532,0,0,1,1.53,1.53v.382h1.992a2.218,2.218,0,0,1,2.215,2.132V17.645h-1.53V7.472a.711.711,0,0,0-.7-.6c-.022,0-.044,0-.066,0H20.271v.382a1.532,1.532,0,0,1-1.53,1.53h-13a1.532,1.532,0,0,1-1.53-1.53V6.871H2.295c-.022,0-.044,0-.066,0a.711.711,0,0,0-.7.6V33.044a.711.711,0,0,0,.7.6c.022,0,.044,0,.066,0H12.309v1.53H2.216ZM5.737,4.959V7.254h13V4.959Zm6.5-3.443h0A3.06,3.06,0,0,0,9.4,3.429h5.672a3.116,3.116,0,0,0-.67-1.017,3.038,3.038,0,0,0-2.161-.9h0Z" transform="translate(-15416.108 7293.985)" />
		<g transform="translate(-15403.87 7311.573)">
			<g transform="translate(0 0)">
				<g transform="translate(0.9 19.77)">
					<path fill="#9d9ac0" stroke="#9d9ac0" stroke-width="0.5px" d="M21.35,44.7H2.45A.45.45,0,0,1,2,44.25v-1.8a.45.45,0,0,1,.9,0V43.8h18V42.45a.45.45,0,0,1,.9,0v1.8A.45.45,0,0,1,21.35,44.7Z" transform="translate(-2 -42)" />
				</g>
				<path fill="#9d9ac0" stroke="#9d9ac0" stroke-width="0.5px" d="M21.15,19.837H.45a.45.45,0,0,1-.45-.45v-2.7a2.253,2.253,0,0,1,2.25-2.25H6.612c2.962-2.062,1.6-5.054.507-7.463A6.905,6.905,0,0,1,6.3,4.537,4.343,4.343,0,0,1,10.8.067a4.344,4.344,0,0,1,4.5,4.47,6.9,6.9,0,0,1-.815,2.431c-1.094,2.414-2.453,5.411.5,7.469H19.35a2.253,2.253,0,0,1,2.25,2.25v2.7A.45.45,0,0,1,21.15,19.837ZM.9,18.937H20.7v-2.25a1.352,1.352,0,0,0-1.35-1.35h-4.5a.449.449,0,0,1-.249-.075c-3.738-2.483-2.052-6.2-.936-8.666A6.982,6.982,0,0,0,14.4,4.537,3.438,3.438,0,0,0,10.8.967a3.436,3.436,0,0,0-3.6,3.57A6.971,6.971,0,0,0,7.939,6.6C9.056,9.059,10.744,12.773,7,15.262a.452.452,0,0,1-.249.075H2.25A1.352,1.352,0,0,0,.9,16.687Z" transform="translate(0 -0.067)" />
			</g>
		</g>
		<line fill="none" stroke="#f7bf0f" stroke-linecap="round" stroke-linejoin="round" stroke-miterlimit="2.613" stroke-width="1.5px" x2="10.825" transform="translate(-15410.307 7308.9)" />
		<line fill="none" stroke="#f7bf0f" stroke-linecap="round" stroke-linejoin="round" stroke-miterlimit="2.613" stroke-width="1.5px" x2="7.271" transform="translate(-15410.307 7315.197)" />
	</g>
</svg>
