<svg xmlns="http://www.w3.org/2000/svg" width="16" height="16" viewBox="0 0 16 16">
    <rect fill="none" width="16" height="16"/>
    <g transform="translate(1.922 1.922)">
        <path fill="#c5cfdb" d="M112.368,31.7a3.25,3.25,0,0,0-4.6,0l-1.237,1.237a.5.5,0,1,0,.707.707l1.237-1.237a2.25,2.25,0,1,1,3.182,3.182l-1.768,1.768a2.253,2.253,0,0,1-3.182,0,.5.5,0,0,0-.707.707,3.254,3.254,0,0,0,4.6,0l1.768-1.768a3.25,3.25,0,0,0,0-4.6Z" transform="translate(-101.163 -30.745)"/>
        <path fill="#c5cfdb" d="M36.823,98.365,35.586,99.6A2.25,2.25,0,1,1,32.4,96.42l1.768-1.768a2.252,2.252,0,0,1,3.182,0,.5.5,0,0,0,.707-.707,3.254,3.254,0,0,0-4.6,0L31.7,95.713a3.25,3.25,0,1,0,4.6,4.6l1.237-1.237a.5.5,0,0,0-.707-.707Z" transform="translate(-30.745 -89.105)"/>
    </g>
</svg>
