<svg xmlns="http://www.w3.org/2000/svg" width="12.857" height="11.867" viewBox="0 0 12.857 11.867">
  <g id="Group_157327" data-name="Group 157327" transform="translate(0.15 0.15)">
    <path id="Path_89" data-name="Path 89" d="M24.221,36.6l-.024-.006-.022-.006-.022-.008-.022-.008-.02-.009-.023-.011-.018-.011-.022-.014-.018-.013-.02-.015-.025-.023-.01-.009-.01-.011-.022-.025-.015-.021-.013-.017-.014-.023-.01-.017-.011-.024-.009-.019-.008-.023-.007-.021c0-.008,0-.016-.006-.024s0-.015-.005-.022,0-.018,0-.028,0-.013,0-.019a.48.48,0,0,1,0-.048V33.231a.482.482,0,0,1,.964,0V34.96l1.223-1.223a5.793,5.793,0,0,1,8.183,0,.482.482,0,0,1-.682.682,4.827,4.827,0,0,0-6.819,0l-1.223,1.223h1.729a.482.482,0,1,1,0,.964H24.315l-.048,0-.021,0Z" transform="translate(-23.833 -32.045)" stroke="#343a40" stroke-width="0.3"/>
    <path id="Path_90" data-name="Path 90" d="M58.6,150.471a4.827,4.827,0,0,0,6.819,0l1.223-1.223H64.91a.482.482,0,1,1,0-.964h2.9l.037,0,.025,0,.022,0,.026.006.02.005.024.008.021.008.021.01.022.01.019.011.022.013.019.014.019.014.025.023.01.009.01.011.022.025.015.021.013.017.014.023.01.017.011.024.009.019.008.023.007.021c0,.008,0,.016.006.024s0,.015.005.022,0,.018,0,.028,0,.013,0,.019a.481.481,0,0,1,0,.048v2.893a.482.482,0,1,1-.964,0v-1.729L66.1,151.153a5.793,5.793,0,0,1-8.183,0,.482.482,0,0,1,.682-.682Z" transform="translate(-55.728 -141.278)" stroke="#343a40" stroke-width="0.3"/>
  </g>
</svg>
