<svg xmlns="http://www.w3.org/2000/svg" width="18.764" height="17.993" viewBox="0 0 18.764 17.993">
  <path id="Path_56" data-name="Path 56" d="M39.963,34.677a9.01,9.01,0,0,0-12.728,0l-1.9,1.9V33.889a.75.75,0,1,0-1.5,0v4.6a.1.1,0,0,0,.007.043.129.129,0,0,1,.009.035l.009.036a.34.34,0,0,0,.012.034c0,.011.008.024.013.035l.014.031.017.036.017.028c.007.012.013.023.021.035l.022.03.022.029c.014.017.029.033.044.049l0,.006h0c.016.016.033.031.05.045l.027.02.032.023.032.02.031.018.033.016.033.015.032.012.037.013.032.008.039.009.037.006.036.005h4.573a.75.75,0,1,0,0-1.5H26.394l1.9-1.9a7.5,7.5,0,1,1,0,10.607A.75.75,0,1,0,27.235,47.4,9,9,0,1,0,39.964,34.676Z" transform="translate(-23.835 -32.045)" fill="#919ab1"/>
</svg>
