<svg xmlns="http://www.w3.org/2000/svg" width="19.127" height="17.025" viewBox="0 0 19.127 17.025">
  <g id="bedroom-sleeping" transform="translate(0.003 0.007)">
    <path id="Path_5124" data-name="Path 5124" d="M17.474,16.732a.287.287,0,0,1-.286.286H1.854a.287.287,0,0,1-.286-.286V8.037A1.277,1.277,0,0,1,.7,8.079a1.014,1.014,0,0,1-.478-.335A1.057,1.057,0,0,1,0,7.206,1.378,1.378,0,0,1,.332,6.2h0A.331.331,0,0,1,.379,6.15L9.344.069A.285.285,0,0,1,9.713.053l8.981,6.069h0a.325.325,0,0,1,.034.031,1.287,1.287,0,0,1,.364,1.186,1.1,1.1,0,0,1-.247.475,1.073,1.073,0,0,1-.442.3,1.191,1.191,0,0,1-.928-.061c0,2.428,0,6.253,0,8.679ZM7.2,9.387a.655.655,0,1,1-.655.655A.655.655,0,0,1,7.2,9.387ZM5.281,9.41h.833v2.455h7.991v1.348H14.02v.676h-.833v-.676H6.114v.676H5.281v-.676h-.2V11.866h.2V9.41Zm2.9.188H13.2a.8.8,0,0,1,.794.794v1.216H6.427v-.549a.156.156,0,0,1,.156-.156H8.175V9.6Zm8.579,6.7V7.718a.309.309,0,0,1,0-.054L9.589,2.886,2.279,7.665a.286.286,0,0,1,.009.073V16.3Z" transform="translate(0 0)" fill="#919ab1" fill-rule="evenodd"/>
  </g>
</svg>
