<svg xmlns="http://www.w3.org/2000/svg" width="36" height="36.837" viewBox="0 0 36 36.837">
    <defs>
        <style>.a{fill:#9e99c3;}.b{fill:#f7bf06;}</style>
    </defs>
    <g transform="translate(-14764.808 -864)">
        <path class="a" d="M21.572,958.362a.838.838,0,1,0,.078,1.674h6.7a.837.837,0,1,0,0-1.674Zm0,3.349a.867.867,0,0,0-.759.837v8.372H17.465a.837.837,0,0,0-.654,1.347l7.535,9.628a.876.876,0,0,0,1.308,0l7.535-9.628a.837.837,0,0,0-.654-1.347H29.185v-8.372a.87.87,0,0,0-.837-.837H21.572Zm.916,1.674h5.023v8.372a.87.87,0,0,0,.837.837h2.472L25,980.025l-5.821-7.43h2.472a.87.87,0,0,0,.837-.837Zm-9.706,2.93a.859.859,0,0,0-.733.6l-5,17.516a.615.615,0,0,0-.052.236c0,3.213,0,6.468,0,9.693a.87.87,0,0,0,.837.837H42.162a.87.87,0,0,0,.837-.837c0-3.233,0-6.515,0-9.733a1.06,1.06,0,0,0-.039-.144L38.368,966.93a.862.862,0,0,0-.811-.615H31.7q-.039,0-.078,0a.838.838,0,1,0,.078,1.674h5.219l4.16,15.907H31.7a.87.87,0,0,0-.837.837v2.512H19.139v-2.512a.87.87,0,0,0-.837-.837H8.949L13.5,967.99h4.8a.837.837,0,1,0,0-1.674h-5.52ZM8.674,985.571h8.791v2.512a.87.87,0,0,0,.837.837H31.7a.87.87,0,0,0,.837-.837v-2.512h8.791v7.953H8.674Z" transform="translate(14757.808 -94.362)"/>
        <rect class="b" width="8.301" height="1.557" rx="0.778" transform="translate(14778.656 864.259)"/>
    </g>
</svg>