<svg id="Capa_1" enable-background="new 0 0 512 512" height="512" viewBox="0 0 512 512" width="512" xmlns="http://www.w3.org/2000/svg"><g><path d="m31.593 512c-4.139 0-7.512-3.345-7.512-7.483v-29.141c0-4.139 3.373-7.484 7.512-7.484s7.483 3.346 7.483 7.484v21.629h285.056c-7.966-4.678-15.251-10.347-21.742-16.838-19.645-19.645-31.833-46.829-31.833-76.849 0-29.991 12.189-57.176 31.833-76.849 18.028-18 42.35-29.735 69.365-31.55v-224.307c0-4.167 3.345-7.512 7.483-7.512 4.167 0 7.512 3.345 7.512 7.512v224.308c27.015 1.815 51.336 13.55 69.336 31.55 19.672 19.673 31.833 46.857 31.833 76.849 0 30.02-12.161 57.203-31.833 76.849-19.645 19.671-46.829 31.832-76.848 31.832zm136.206-319.78c0-4.139 3.374-7.512 7.512-7.512s7.483 3.373 7.483 7.512v64.376h45.241v-64.376c0-4.139 3.345-7.512 7.484-7.512s7.512 3.373 7.512 7.512v64.376h7.058c4.337 0 8.277-1.758 11.14-4.621 2.835-2.834 4.621-6.774 4.621-11.14v-11.254c0-4.139 3.345-7.512 7.483-7.512 4.139 0 7.512 3.373 7.512 7.512v11.254c0 8.504-3.458 16.186-9.015 21.769-5.556 5.556-13.238 8.986-21.742 8.986-29.792 0-59.557 0-89.349 0-8.476 0-16.186-3.431-21.742-8.986-5.556-5.584-9.014-13.266-9.014-21.769v-56.496c0-11.026 4.507-21.033 11.764-28.289 7.598-7.598 17.689-11.764 28.404-11.764-3.316-5.868-5.216-12.643-5.216-19.844v-35.319c0-7.145 2.92-13.635 7.625-18.341 4.706-4.706 11.197-7.625 18.34-7.625h29.027c7.143 0 13.635 2.919 18.34 7.625 4.706 4.706 7.625 11.196 7.625 18.341v35.319c0 7.201-1.899 13.976-5.216 19.844 10.715 0 20.806 4.166 28.403 11.764 7.257 7.256 11.764 17.263 11.764 28.289v11.254c0 4.139-3.374 7.512-7.512 7.512-4.139 0-7.483-3.373-7.483-7.512v-11.254c0-6.888-2.835-13.152-7.37-17.688-4.536-4.564-10.8-7.371-17.688-7.371h-14.826c-6.038 3.572-13.067 5.642-20.551 5.642-7.483 0-14.514-2.069-20.551-5.642h-14.825c-6.888 0-13.124 2.807-17.689 7.371-4.536 4.535-7.371 10.8-7.371 17.688v56.496c0 4.365 1.786 8.306 4.621 11.14 2.863 2.863 6.803 4.621 11.14 4.621h7.058v-64.376zm-81.242 251.69c-4.139 0-7.512-3.345-7.512-7.482 0-4.168 3.373-7.513 7.512-7.513h163.816c4.139 0 7.484 3.345 7.484 7.513 0 4.138-3.345 7.482-7.484 7.482zm0-118.29c-4.139 0-7.512-3.373-7.512-7.512s3.373-7.512 7.512-7.512h190.547c4.139 0 7.483 3.373 7.483 7.512s-3.345 7.512-7.483 7.512zm0 39.43c-4.139 0-7.512-3.373-7.512-7.512s3.373-7.483 7.512-7.483h167.756c4.139 0 7.483 3.345 7.483 7.483 0 4.139-3.345 7.512-7.483 7.512zm0 39.43c-4.139 0-7.512-3.345-7.512-7.512 0-4.139 3.373-7.483 7.512-7.483h159.819c4.139 0 7.483 3.345 7.483 7.483 0 4.167-3.345 7.512-7.483 7.512zm93.374-308.469c1.389.085 2.665 0 3.855-.198 2.636-.426 4.847-1.418 6.491-2.354 7.853-4.45 9.015-4.677 16.101 1.531 8.277 7.257 18.51 6.973 24.52 5.953v-11.82c0-3.006-1.247-5.755-3.232-7.739-1.984-1.984-4.733-3.231-7.738-3.231h-29.027c-3.005 0-5.754 1.247-7.739 3.231-1.984 1.984-3.231 4.733-3.231 7.739zm50.968 19.984c-8.929 1.021-22.337.368-33.761-9.241-2.778 1.531-6.492 3.09-10.886 3.826-1.984.341-4.081.511-6.321.426v13.437c0 7.002 2.892 13.381 7.512 18.001 4.763 4.762 11.169 7.483 17.972 7.483s13.209-2.722 17.972-7.512c4.621-4.592 7.512-10.971 7.512-17.973zm-102.218-101v82.121c0 4.139-3.345 7.483-7.484 7.483h-82.121v336.816c0 4.139-3.345 7.483-7.483 7.483-4.139 0-7.512-3.345-7.512-7.483v-344.3c0-2.098.851-3.997 2.239-5.357l89.576-89.548c1.446-1.473 3.374-2.21 5.301-2.21h258.041c4.167 0 7.512 3.374 7.512 7.512v29.112c0 4.139-3.345 7.513-7.512 7.513-4.139 0-7.483-3.374-7.483-7.513v-21.629zm-79.003 74.609h64.007v-64.007zm273.745 313.29c-2.92-2.948-2.92-7.683 0-10.602 2.948-2.948 7.682-2.948 10.601 0l32.23 32.201 58.196-58.225c2.948-2.92 7.682-2.92 10.63 0 2.92 2.92 2.92 7.682 0 10.602l-63.525 63.525c-2.948 2.92-7.682 2.92-10.63 0zm55.787 94.111c24.945 0 48.643-9.78 66.274-27.44 16.952-16.951 27.44-40.365 27.44-66.246 0-25.853-10.488-49.267-27.44-66.218-16.951-16.951-40.366-27.439-66.246-27.439-25.853 0-49.267 10.488-66.218 27.439s-27.439 40.365-27.439 66.218c0 25.881 10.488 49.295 27.439 66.246 16.923 16.952 40.337 27.44 66.19 27.44z"/></g></svg>