<svg xmlns="http://www.w3.org/2000/svg" width="17.671" height="17.673" viewBox="0 0 17.671 17.673">
  <path id="Path_232" data-name="Path 232" d="M37.731,30.684,37,29.581v-.915l.734-1.1a1.336,1.336,0,0,0,.17-1.119,9.135,9.135,0,0,0-.677-1.637,1.321,1.321,0,0,0-.91-.669l-1.3-.26-.647-.647-.26-1.3a1.32,1.32,0,0,0-.67-.911,9.177,9.177,0,0,0-1.635-.676,1.325,1.325,0,0,0-1.119.17l-1.1.735h-.915l-1.1-.735a1.319,1.319,0,0,0-1.118-.17,9.135,9.135,0,0,0-1.637.677,1.315,1.315,0,0,0-.669.91l-.26,1.3-.647.647-1.3.26a1.317,1.317,0,0,0-.909.67,9.179,9.179,0,0,0-.677,1.636,1.322,1.322,0,0,0,.17,1.118l.736,1.1v.915l-.736,1.1A1.322,1.322,0,0,0,20.34,31.8a9.128,9.128,0,0,0,.677,1.635,1.314,1.314,0,0,0,.91.671l1.3.26.647.647.26,1.3a1.312,1.312,0,0,0,.669.911,9.092,9.092,0,0,0,1.636.675,1.307,1.307,0,0,0,1.119-.169l1.1-.735h.915l1.1.735a1.335,1.335,0,0,0,.74.227A1.3,1.3,0,0,0,31.8,37.9a9.145,9.145,0,0,0,1.635-.676,1.31,1.31,0,0,0,.67-.91l.26-1.3.648-.647,1.3-.26a1.322,1.322,0,0,0,.91-.67A9.142,9.142,0,0,0,37.9,31.8a1.336,1.336,0,0,0-.17-1.118Zm-8.61,2.377a3.938,3.938,0,1,1,3.938-3.938,3.937,3.937,0,0,1-3.938,3.938Z" transform="translate(-20.285 -20.288)" fill="#606a81"/>
</svg>
