<svg xmlns="http://www.w3.org/2000/svg" width="18.75" height="20.776" viewBox="0 0 18.75 20.776">
  <path id="Path_284" data-name="Path 284" d="M46.444,22.417l-.008-.017-.008-.013a1.5,1.5,0,0,0-.552-.542L38,17.395a1.508,1.508,0,0,0-1.476,0l-7.875,4.451a1.5,1.5,0,0,0-.559.553l0,.007-.007.013a1.5,1.5,0,0,0-.192.732v8.875a1.5,1.5,0,0,0,.762,1.306l7.875,4.451a1.5,1.5,0,0,0,.685.191l.045,0h.008c.02,0,.04,0,.06,0A1.5,1.5,0,0,0,38,37.783l7.875-4.451a1.5,1.5,0,0,0,.762-1.306V23.151A1.5,1.5,0,0,0,46.444,22.417ZM37.262,18.7l7.108,4.017L41.865,24.15l-7.163-4Zm.1,8.027L30.168,22.71l3-1.7,7.172,4.007Zm.667,9.319.083-8.02L41.119,26.3v3.207a.75.75,0,0,0,1.5,0V25.447l2.519-1.44v8.02Z" transform="translate(-27.887 -17.202)" fill="#919ab1"/>
</svg>
