<svg xmlns="http://www.w3.org/2000/svg" width="20" height="20" viewBox="0 0 20 20"><defs><style>.a{fill:none;}.b{fill:#606a81;}</style></defs><rect class="a" width="20" height="20"/><g transform="translate(2.5 2.5)"><path class="b" d="M105.819,81.464l-3.281-3.281a.625.625,0,1,0-.884.884l2.214,2.214H96.625a.625.625,0,0,0,0,1.25h7.243l-2.214,2.214a.625.625,0,1,0,.884.884l3.281-3.281A.625.625,0,0,0,105.819,81.464Z" transform="translate(-91 -74.406)"/><path class="b" d="M38.875,45.75H33.25V33.25h5.625a.625.625,0,1,0,0-1.25H33.25A1.251,1.251,0,0,0,32,33.25v12.5A1.251,1.251,0,0,0,33.25,47h5.625a.625.625,0,0,0,0-1.25Z" transform="translate(-32 -32)"/></g></svg>