<svg xmlns="http://www.w3.org/2000/svg" width="20" height="20" viewBox="0 0 20 20"><defs><style>.a-desc{fill:none;}.b-desc{fill:#744aa5;}</style></defs><rect class="a-desc" width="20" height="20"/><g transform="translate(3.125 3.124)"><path class="b-desc" d="M143.317,43.3l-3.125-3.124,0,0c-.014-.014-.028-.027-.044-.039l-.022-.016-.028-.02-.026-.016-.027-.016-.027-.013-.029-.013-.026-.009-.032-.011-.025-.006-.034-.008-.028,0-.032,0-.047,0h-.028l-.048,0-.032,0-.029,0-.033.008-.026.007-.031.011-.027.01-.028.013-.028.013-.025.015-.027.017-.026.019-.023.017c-.014.011-.027.023-.039.036l-.006.006L136.183,43.3a.625.625,0,1,0,.884.884l2.058-2.058v5.991a.625.625,0,0,0,1.25,0V42.127l2.058,2.058a.625.625,0,1,0,.884-.884Z" transform="translate(-128.5 -39.994)"/><path class="b-desc" d="M40.625,121.244H46.25a.625.625,0,0,0,0-1.25H40.625a.625.625,0,0,0,0,1.25Z" transform="translate(-40 -113.744)"/><path class="b-desc" d="M40.625,57.244H45a.625.625,0,0,0,0-1.25H40.625a.625.625,0,0,0,0,1.25Z" transform="translate(-40 -54.744)"/><path class="b-desc" d="M51.25,183.994H40.625a.625.625,0,0,0,0,1.25H51.25a.625.625,0,0,0,0-1.25Z" transform="translate(-40 -172.744)"/></g></svg>