<svg xmlns="http://www.w3.org/2000/svg" width="20" height="20" viewBox="0 0 20 20"><defs><style>.a-asc{fill:none;}.b-asc{fill:#606a81;}</style></defs><rect class="a-asc" width="20" height="20"/><g transform="translate(3.125 4.374)"><path class="b-asc" d="M143.317,108.552a.625.625,0,0,0-.884,0l-2.058,2.058v-5.991a.625.625,0,0,0-1.25,0v5.991l-2.058-2.058a.625.625,0,0,0-.884.884l3.125,3.125.006.006c.013.012.026.024.039.036l.024.018.025.019.028.017.024.014.029.014.027.012.028.01.03.01.028.007.031.008.033.005.027,0c.021,0,.041,0,.062,0s.041,0,.062,0l.028,0,.033,0,.031-.008.028-.007.03-.011.028-.01.027-.013.028-.014.025-.015.027-.016.027-.02.022-.017q.023-.019.043-.039l0,0,3.125-3.124A.625.625,0,0,0,143.317,108.552Z" transform="translate(-128.5 -100.244)"/><path class="b" d="M46.25,119.994H40.625a.625.625,0,0,0,0,1.25H46.25a.625.625,0,0,0,0-1.25Z" transform="translate(-40 -114.994)"/><path class="b" d="M40.625,57.244H51.25a.625.625,0,0,0,0-1.25H40.625a.625.625,0,0,0,0,1.25Z" transform="translate(-40 -55.994)"/><path class="b" d="M45,183.994H40.625a.625.625,0,0,0,0,1.25H45a.625.625,0,0,0,0-1.25Z" transform="translate(-40 -173.994)"/></g></svg>