<svg xmlns="http://www.w3.org/2000/svg" width="16" height="16" viewBox="0 0 16 16"><defs><style>.a{fill:rgba(0,0,0,0);}.b{fill:#fff;}</style></defs><g transform="translate(-0.332 0.155)"><rect class="a" width="16" height="16" transform="translate(0.332 -0.155)"/><path class="b" d="M29.939,21.085a1.023,1.023,0,0,0-.908-.71l-3.712-.26-1.377-3.467A1.021,1.021,0,0,0,22.991,16h0a1.02,1.02,0,0,0-.949.651l-1.4,3.487-3.691.24a1.023,1.023,0,0,0-.908.71,1.043,1.043,0,0,0,.322,1.129l2.84,2.4-.845,3.323a1.148,1.148,0,0,0,.438,1.22,1.114,1.114,0,0,0,1.254.039l2.93-1.856s.008,0,.017,0l3.152,2A1.009,1.009,0,0,0,27.29,29.3a1.04,1.04,0,0,0,.4-1.1l-.9-3.63,2.827-2.353A1.043,1.043,0,0,0,29.939,21.085Z" transform="translate(-14.991 -14.747)"/></g></svg>