<svg xmlns="http://www.w3.org/2000/svg" width="18" height="18" viewBox="0 0 18 18">
	<g transform="translate(-0.105)">
		<rect fill="#f0f" opacity="0" width="18" height="18" transform="translate(0.105)" />
		<path fill="#d88e27" d="M8,16a8,8,0,1,1,8-8A8.009,8.009,0,0,1,8,16Zm-.074-4.847a.923.923,0,1,0,.925.923A.926.926,0,0,0,7.926,11.154ZM5.24,10.416a.738.738,0,1,0,.74.738A.74.74,0,0,0,5.24,10.416Zm5.672-.848a1.107,1.107,0,1,0,1.111,1.108A1.111,1.111,0,0,0,10.912,9.568ZM4.055,8.2a.554.554,0,1,0,.555.554A.555.555,0,0,0,4.055,8.2ZM11.5,6a1.292,1.292,0,1,0,1.3,1.292A1.3,1.3,0,0,0,11.5,6ZM4.868,5.986a.369.369,0,1,0,.371.369A.37.37,0,0,0,4.868,5.986ZM8.982,3a1.476,1.476,0,1,0,1.481,1.477A1.481,1.481,0,0,0,8.982,3Z" transform="translate(1.104 1)" />
	</g>
</svg>
