<?xml version="1.0" encoding="utf-8"?>
<!-- Generator: Adobe Illustrator 25.2.1, SVG Export Plug-In . SVG Version: 6.00 Build 0)  -->
<svg version="1.1" id="Layer_1" xmlns="http://www.w3.org/2000/svg" xmlns:xlink="http://www.w3.org/1999/xlink" x="0px" y="0px"
	 viewBox="0 0 60 60" style="enable-background:new 0 0 60 60;" xml:space="preserve">
<path fill="#CC4051" d="M59.2,19.6L31,0.3c-0.7-0.4-1.5-0.4-2.1,0L0.8,19.6C0.3,20,0,20.6,0,21.2v36.2C0,58.8,1.1,60,2.5,60h4.9V29.9
	c0-1.3,1.1-2.5,2.5-2.5h40c1.3,0,2.5,1.1,2.5,2.5v30h5.1c1.3,0,2.5-1.1,2.5-2.5V21.2C60,20.6,59.7,20,59.2,19.6z"/>
<path fill="#CC4051"  d="M23.1,47.3v1.9c0,1.1-0.8,1.9-1.9,1.9c-1.1,0-1.9-0.8-1.9-1.9v-1.9h-4.4c-0.7,0-1.2,0.5-1.2,1.2v10
	c0,0.7,0.5,1.2,1.2,1.2h12.5c0.7,0,1.2-0.5,1.2-1.2v-10c0-0.7-0.5-1.2-1.2-1.2H23.1z"/>
<path fill="#CC4051"  d="M40.6,47.3v1.9c0,1.1-0.8,1.9-1.9,1.9c-1.1,0-1.9-0.8-1.9-1.9v-1.9h-4.4c-0.7,0-1.2,0.5-1.2,1.2v10
	c0,0.7,0.5,1.2,1.2,1.2H45c0.7,0,1.2-0.5,1.2-1.2v-10c0-0.7-0.5-1.2-1.2-1.2H40.6z"/>
<path fill="#CC4051"  d="M31.8,32.4v1.9c0,1.1-0.8,1.9-1.9,1.9c-1.1,0-1.9-0.8-1.9-1.9v-1.9h-4.4c-0.7,0-1.2,0.5-1.2,1.2v10
	c0,0.7,0.5,1.2,1.2,1.2h12.5c0.7,0,1.2-0.5,1.2-1.2v-10c0-0.7-0.5-1.2-1.2-1.2H31.8z"/>
</svg>
