<?xml version="1.0" encoding="utf-8"?>
<!-- Generator: Adobe Illustrator 25.2.1, SVG Export Plug-In . SVG Version: 6.00 Build 0)  -->
<svg version="1.1" id="Layer_1" xmlns="http://www.w3.org/2000/svg" xmlns:xlink="http://www.w3.org/1999/xlink" x="0px" y="0px"
	 viewBox="0 0 60 60" style="enable-background:new 0 0 60 60;" xml:space="preserve">
<style type="text/css">
	.st0{fill:#919AB1;}
</style>
<path class="st0" d="M51.4,18.5L30.3,4c-0.5-0.3-1.1-0.3-1.6,0L7.6,18.5C7.2,18.8,7,19.2,7,19.7v27.2c0,1,0.8,1.9,1.9,1.9h3.7V26.2
	c0-1,0.8-1.9,1.9-1.9h30c1,0,1.9,0.8,1.9,1.9v22.5h3.8c1,0,1.9-0.8,1.9-1.9V19.7C52,19.2,51.8,18.8,51.4,18.5z"/>
<path class="st0" d="M24.3,39.3v1.4c0,0.8-0.6,1.4-1.4,1.4s-1.4-0.6-1.4-1.4v-1.4h-3.3c-0.5,0-0.9,0.4-0.9,0.9v7.5
	c0,0.5,0.4,0.9,0.9,0.9h9.4c0.5,0,0.9-0.4,0.9-0.9v-7.5c0-0.5-0.4-0.9-0.9-0.9H24.3z"/>
<path class="st0" d="M37.5,39.3v1.4c0,0.8-0.6,1.4-1.4,1.4s-1.4-0.6-1.4-1.4v-1.4h-3.3c-0.5,0-0.9,0.4-0.9,0.9v7.5
	c0,0.5,0.4,0.9,0.9,0.9h9.4c0.5,0,0.9-0.4,0.9-0.9v-7.5c0-0.5-0.4-0.9-0.9-0.9H37.5z"/>
<path class="st0" d="M30.9,28.1v1.4c0,0.8-0.6,1.4-1.4,1.4s-1.4-0.6-1.4-1.4v-1.4h-3.3c-0.5,0-0.9,0.4-0.9,0.9v7.5
	c0,0.5,0.4,0.9,0.9,0.9h9.4c0.5,0,0.9-0.4,0.9-0.9V29c0-0.5-0.4-0.9-0.9-0.9H30.9z"/>
</svg>
