<svg xmlns="http://www.w3.org/2000/svg" width="57.601" height="46.67" viewBox="0 0 57.601 46.67">
	<g transform="translate(-3 -14.006)">
		<path fill="#9d9ac0" d="M59.607,58.69H57.621V29.781a1.172,1.172,0,0,0,0-.2.993.993,0,0,0-.079-.179l-.109-.149a.666.666,0,0,0-.149-.139.385.385,0,0,0-.089-.079l-24.828-14.9a.993.993,0,0,0-.993,0L6.545,29.036a.917.917,0,0,1-.089.079.665.665,0,0,0-.149.139.9.9,0,0,0-.109.159.665.665,0,0,0-.079.169,1.172,1.172,0,0,0,0,.2l-.139.109v28.8H3.993a.993.993,0,1,0,0,1.986H59.607a.993.993,0,1,0,0-1.986Zm-40.717,0H12.931V48.759H18.89Zm31.779,0H26.835V38.828H50.669Zm4.966,0H52.655V37.835a.993.993,0,0,0-.993-.993H25.841a.993.993,0,0,0-.993.993V58.69H20.876V47.766a.993.993,0,0,0-.993-.993H11.938a.993.993,0,0,0-.993.993V58.69H7.966V30.456L31.8,16.155l23.835,14.3Z" transform="translate(0 0)" />
		<path fill="#9d9ac0" d="M36.993,34.986h3.972a.993.993,0,1,0,0-1.986H36.993a.993.993,0,1,0,0,1.986Z" transform="translate(-0.227 -0.131)" />
		<path fill="#f7bf0f" d="M31.993,44.986H45.9A.993.993,0,0,0,45.9,43h-13.9a.993.993,0,0,0,0,1.986Z" transform="translate(-0.193 -0.2)" />
		<path fill="#f7bf0f" d="M31.993,49.986H45.9A.993.993,0,0,0,45.9,48h-13.9a.993.993,0,1,0,0,1.986Z" transform="translate(-0.193 -0.234)" />
		<path fill="#f7bf0f" d="M31.993,54.986H45.9A.993.993,0,0,0,45.9,53h-13.9a.993.993,0,0,0,0,1.986Z" transform="translate(-0.193 -0.269)" />
		<path fill="#9d9ac0" d="M17.966,43H13.993a.993.993,0,0,0,0,1.986h3.972a.993.993,0,0,0,0-1.986Z" transform="translate(-0.069 -0.2)" />
	</g>
</svg>
