<svg xmlns="http://www.w3.org/2000/svg" xmlns:xlink="http://www.w3.org/1999/xlink" width="21.722" height="21.699" viewBox="0 0 21.722 21.699">
  <!-- <defs>
    <clipPath id="clip-path">
      <rect id="Rectangle_141388" data-name="Rectangle 141388" width="21.722" height="21.699" fill="#919ab1"/>
    </clipPath>
  </defs> -->
  <!-- <g id="Group_157638" data-name="Group 157638" transform="translate(-535.688 -94.159)">
    <g id="Group_157637" data-name="Group 157637" transform="translate(535.688 94.159)" clip-path="url(#clip-path)"> -->
      <path id="Path_5153" data-name="Path 5153" d="M542.477,107.842V98.906a.679.679,0,0,0-1.358,0v8.937a2.035,2.035,0,1,0,1.358,0Zm-.68,5.3a3.383,3.383,0,0,1-2.036-6.094V98.906a2.036,2.036,0,0,1,4.072,0v8.145a3.383,3.383,0,0,1-2.036,6.094Zm4.752-14.238a4.751,4.751,0,0,0-9.5,0v7.056a6.11,6.11,0,1,0,9.5,0Zm6.787.678a1.356,1.356,0,1,1,1.358-1.356A1.355,1.355,0,0,1,553.336,99.584Zm0-5.425a4.069,4.069,0,1,0,4.074,4.069A4.078,4.078,0,0,0,553.336,94.159Z" transform="translate(-535.688 -94.159)" fill="#919ab1"/>
    <!-- </g>
  </g> -->
</svg>
