<svg id="Group_157334" data-name="Group 157334" xmlns="http://www.w3.org/2000/svg" width="18.375" height="17.625" viewBox="0 0 18.375 17.625">
  <path id="Path_153" data-name="Path 153" d="M51.75,36H37.5A1.5,1.5,0,0,0,36,37.5v8.557a.75.75,0,0,0,1.5,0V37.5H51.75V51.75H45.34a.75.75,0,0,0,0,1.5H51.75a1.5,1.5,0,0,0,1.5-1.5V37.5A1.5,1.5,0,0,0,51.75,36Z" transform="translate(-34.874 -36)" fill="#37a355"/>
  <path id="Path_154" data-name="Path 154" d="M34.28,144.22a.75.75,0,0,0-1.061,0l-5.47,5.47-2.47-2.47a.75.75,0,0,0-1.061,1.061l3,3a.75.75,0,0,0,1.061,0l6-6A.75.75,0,0,0,34.28,144.22Z" transform="translate(-23.999 -133.875)" fill="#37a355"/>
</svg>
