<svg xmlns="http://www.w3.org/2000/svg" width="82.401" height="66.951" viewBox="0 0 82.401 66.951">
  <g id="Group_165848" data-name="Group 165848" transform="translate(4643 -2579.524)">
    <g id="Group_165843" data-name="Group 165843">
      <g id="Group_165836" data-name="Group 165836" transform="translate(5 -330)">
        <g id="Group_165837" data-name="Group 165837" transform="translate(0.201)">
          <g id="Group_165835" data-name="Group 165835" transform="translate(478 280.524)">
            <path id="Subtraction_2" data-name="Subtraction 2" d="M65.738,27.565H0V-8H34.7v2.348H2.348V25.216H63.39V-5.652H60.913V-8h4.825V27.564Z" transform="translate(-5052.131 2663.532) rotate(180)" fill="#9d9ac0"/>
            <g id="_976599_all_in_one_appliances_desktop_display_electronics_icon" data-name="976599_all in one_appliances_desktop_display_electronics_icon" transform="translate(-5126.201 2626)">
              <path id="Path_40362" data-name="Path 40362" d="M77.251,3H5.15A5.15,5.15,0,0,0,0,8.15V57.076a5.15,5.15,0,0,0,5.15,5.15h30.9v5.15H25.75v2.575h30.9V67.376h-10.3v-5.15h30.9a5.15,5.15,0,0,0,5.15-5.15V8.15A5.15,5.15,0,0,0,77.251,3ZM43.776,67.376h-5.15v-5.15h5.15Zm36.051-10.3a2.575,2.575,0,0,1-2.575,2.575H5.15a2.575,2.575,0,0,1-2.575-2.575V8.15A2.575,2.575,0,0,1,5.15,5.575h72.1A2.575,2.575,0,0,1,79.826,8.15Z" fill="#9d9ac0"/>
            </g>
            <g id="Group_165833" data-name="Group 165833" transform="translate(-409.235 2.938)">
              <path id="Path_40379" data-name="Path 40379" d="M36.741,19.345h19.83a2.012,2.012,0,0,0,2.011-2.011V13.371a2.012,2.012,0,0,0-2.011-2.011H36.741a2.012,2.012,0,0,0-2.011,2.011v3.964A2,2,0,0,0,36.741,19.345Zm-.878-5.986a.878.878,0,0,1,.878-.878h19.83a.878.878,0,0,1,.878.878v3.964a.878.878,0,0,1-.878.878H36.741a.878.878,0,0,1-.878-.878V13.359Z" transform="translate(-4709.1 2630.565)" fill="#9d9ac0"/>
              <path id="Path_40380" data-name="Path 40380" d="M55.277,21.37H43.686a.566.566,0,1,0,0,1.132h11.6a.566.566,0,1,0-.012-1.132Z" transform="translate(-4706.905 2630.967)" fill="#9d9ac0"/>
              <path id="Path_40381" data-name="Path 40381" d="M34.526,22.5h5.686a.566.566,0,0,0,0-1.132H34.526a.566.566,0,1,0,0,1.132Z" transform="translate(-4708.33 2630.967)" fill="#9d9ac0"/>
              <path id="Path_40382" data-name="Path 40382" d="M56.7,26.03H34.526a.566.566,0,1,0,0,1.132H56.7a.567.567,0,0,0,.566-.566A.553.553,0,0,0,56.7,26.03Z" transform="translate(-4708.33 2630.537)" fill="#9d9ac0"/>
            </g>
          </g>
          <g id="Ellipse_884" data-name="Ellipse 884" transform="translate(-4628 2924)" fill="none" stroke="#f7bf0f" stroke-width="2">
            <circle cx="5" cy="5" r="5" stroke="none"/>
            <circle cx="5" cy="5" r="4" fill="none"/>
          </g>
          <path id="_9040411_hand_index_icon" data-name="9040411_hand_index_icon" d="M8.252,1.361A1.021,1.021,0,0,1,9.273,2.383v8.509a.681.681,0,1,0,1.361,0V7.443l.117-.005a5.791,5.791,0,0,1,1.111.037,2.254,2.254,0,0,1,.61.248.466.466,0,0,1,.2.427v2.742a.681.681,0,0,0,1.361,0V8.761l.144-.014a2.611,2.611,0,0,1,.964.054,2.125,2.125,0,0,1,.662.585c.11.131.2.259.272.353v1.832a.681.681,0,0,0,1.361,0V10.211h.466a1.361,1.361,0,0,1,1.355,1.5l-.369,3.7a3.4,3.4,0,0,1-.432,1.349l-1.9,3.325a.681.681,0,0,1-.591.343H7.278a.681.681,0,0,1-.566-.3L4.761,17.191a2.042,2.042,0,0,1-.331-.907l-.47-4.227a.681.681,0,0,1,.543-.743l1.366-.272v1.212a.681.681,0,0,0,1.361,0V2.383A1.021,1.021,0,0,1,8.252,1.361ZM10.634,6.08v-3.7a2.383,2.383,0,1,0-4.765,0v7.27l-1.634.327a2.042,2.042,0,0,0-1.628,2.227l.47,4.229a3.4,3.4,0,0,0,.551,1.511l1.951,2.927a2.042,2.042,0,0,0,1.7.909h8.693a2.042,2.042,0,0,0,1.773-1.029l1.9-3.323a4.765,4.765,0,0,0,.6-1.891l.369-3.7a2.723,2.723,0,0,0-2.709-2.994h-.791q-.127-.173-.265-.338a3.356,3.356,0,0,0-1.2-.975,3.768,3.768,0,0,0-1.577-.147l-.18.016a1.715,1.715,0,0,0-.762-.874,3.583,3.583,0,0,0-1-.392,6.8,6.8,0,0,0-1.43-.063ZM13.485,8.837Z" transform="translate(-4633.81 2936.731)" fill="#9d9ac0"/>
        </g>
      </g>
    </g>
  </g>
</svg>
