<svg xmlns="http://www.w3.org/2000/svg" width="18" height="18" viewBox="0 0 18 18"><defs><style>.a{fill:#f0f;opacity:0;}.b{fill:#fff;}.c{fill:#d98e28;}</style></defs><g transform="translate(-0.431)"><rect class="a" width="18" height="18" transform="translate(0.431)"/><path class="b" d="M32.268,24a8.268,8.268,0,1,0,8.268,8.268A8.268,8.268,0,0,0,32.268,24Z" transform="translate(-22.836 -23.268)"/><path class="c" d="M8,16a8,8,0,1,1,8-8A8.009,8.009,0,0,1,8,16Zm-.074-4.846a.923.923,0,1,0,.925.923A.926.926,0,0,0,7.926,11.155ZM5.24,10.417a.738.738,0,1,0,.741.738A.74.74,0,0,0,5.24,10.417Zm5.672-.848a1.107,1.107,0,1,0,1.111,1.108A1.111,1.111,0,0,0,10.912,9.569ZM4.055,8.2a.554.554,0,1,0,.555.554A.555.555,0,0,0,4.055,8.2ZM11.5,6a1.292,1.292,0,1,0,1.3,1.292A1.3,1.3,0,0,0,11.5,6ZM4.868,5.987a.369.369,0,1,0,.371.369A.37.37,0,0,0,4.868,5.987ZM8.982,3a1.476,1.476,0,1,0,1.481,1.477A1.481,1.481,0,0,0,8.982,3Z" transform="translate(1.431 1)"/></g></svg>