<svg xmlns="http://www.w3.org/2000/svg" width="36.392" height="38" viewBox="0 0 36.392 38">
  <path id="tel-icon" d="M21.559,35.825a2.676,2.676,0,0,1-5.352,0A2.676,2.676,0,1,1,21.559,35.825Zm8.563,0a2.676,2.676,0,0,1-5.352,0A2.676,2.676,0,1,1,30.122,35.825ZM13,35.825a2.676,2.676,0,0,1-5.352,0A2.676,2.676,0,1,1,13,35.825Zm8.563-8.566a2.676,2.676,0,1,1-5.352,0A2.676,2.676,0,0,1,21.559,27.259Zm8.563,0a2.676,2.676,0,1,1-5.352,0A2.676,2.676,0,0,1,30.122,27.259ZM13,27.259a2.676,2.676,0,1,1-5.352,0A2.676,2.676,0,0,1,13,27.259ZM21.559,18.7a2.676,2.676,0,0,1-5.352,0A2.676,2.676,0,0,1,21.559,18.7Zm8.563,0a2.676,2.676,0,0,1-5.352,0A2.676,2.676,0,0,1,30.122,18.7ZM13,18.7a2.676,2.676,0,0,1-5.352,0A2.676,2.676,0,0,1,13,18.7ZM18.883.5a21.924,21.924,0,0,1,18.3,10.061l-5.459,3.426a15.689,15.689,0,0,0-5.244-5.032V5.317a19.17,19.17,0,0,0-7.493-1.606A17.456,17.456,0,0,0,11.5,5.317V8.955a15.79,15.79,0,0,0-5.244,5.032L.793,10.561A21.276,21.276,0,0,1,18.883.5Z" transform="translate(-0.793 -0.5)" fill="#fff"/>
</svg>
