<svg xmlns="http://www.w3.org/2000/svg" width="60" height="56.467" viewBox="0 0 60 56.467">
<g transform="translate(-648.349 -106.641)">
<path fill="#f7bf0f" d="M669.514,150.38a1.23,1.23,0,0,1-.874-.358l-4.92-4.918a1.228,1.228,0,0,1,0-1.734l24.6-24.592a1.231,1.231,0,0,1,1.734,0l4.92,4.918v0a1.228,1.228,0,0,1,0,1.734l-24.6,24.592v0A1.231,1.231,0,0,1,669.514,150.38Zm-3.186-6.15,3.186,3.21,22.866-22.882-3.188-3.184Z" transform="translate(13.018 10.268)"/>
<path fill="#f7bf0f" d="M663.261,141.2a1.23,1.23,0,0,1-1.169-1.623l2.461-7.377,2.335.775-1.686,5.041,5.045-1.684.775,2.335-7.38,2.459a1.217,1.217,0,0,1-.38.074Z" transform="translate(11.721 21.907)"/>
<path fill="#f7bf0f" d="M671.562,125.68l1.739-1.738,4.923,4.921-1.738,1.739Z" transform="translate(19.879 14.818)"/>
<path fill="#f7bf0f" d="M673.563,123.679l1.74-1.738,4.923,4.921-1.739,1.739Z" transform="translate(21.634 13.104)"/>
<path fill="#f7bf0f" d="M665.561,131.678l1.74-1.738,4.923,4.921-1.738,1.739Z" transform="translate(14.74 19.997)"/>
<path fill="#f7bf0f" d="M675.015,152.019a1.553,1.553,0,0,1-1.1-.45l-7.277-7.289h-16.4a1.548,1.548,0,0,1-1.549-1.547V117.966a1.55,1.55,0,0,1,1.549-1.551H687.4a1.554,1.554,0,0,1,1.549,1.551v24.766a1.55,1.55,0,0,1-1.549,1.547H676.564v6.193a1.546,1.546,0,0,1-1.549,1.547ZM651.79,141.183h15.483a1.564,1.564,0,0,1,1.1.448l5.09,5.109v-4.008a1.549,1.549,0,0,1,1.551-1.549h10.837V119.513H651.79Z" transform="translate(-0.344 -9.774)"/>
<path fill="#f7bf0f" d="M652.028,120.415h3.1v3.1h-3.1Z" transform="translate(4.065 -4.43)"/>
<path fill="#f7bf0f" d="M654.694,120.415h18.581v3.1H654.694Z" transform="translate(7.704 -4.43)"/>
<path fill="#f7bf0f" d="M652.028,123.082H676.8v3.1H652.028Z" transform="translate(4.065 -0.867)"/>
</g>
</svg>
