<svg xmlns="http://www.w3.org/2000/svg" width="39.379" height="32.089" viewBox="0 0 39.379 32.089">
  <g id="noun_epidemic_3681519" transform="translate(-6.1 -4.1)">
    <g id="Group_152106" data-name="Group 152106" transform="translate(6.1 4.1)">
      <g id="Group_152105" data-name="Group 152105">
        <path id="Path_4382" data-name="Path 4382" d="M31.9,16.4A13.41,13.41,0,0,0,18.5,29.8v.3h.3a9.417,9.417,0,0,1,1.551.129V29.8a11.642,11.642,0,0,1,3.1-7.882,2.471,2.471,0,0,1,.3.172,3.074,3.074,0,0,1,.043,1.206v.086a3.075,3.075,0,0,1,.043,2.111,4.33,4.33,0,0,0-.129,3.015c.215.3,1.335,1.723,1.508,1.9a5.4,5.4,0,0,1,.517,1.292,2.006,2.006,0,0,0,1.508.991,3.231,3.231,0,0,1,1.292.388c.172.086.3.129.388.172.043,0,.086.086.129.172a1.708,1.708,0,0,0,.689.689c.129.043.215.129.345.172a6.176,6.176,0,0,1,.991.6c0,.043-.086.129-.172.215a1.524,1.524,0,0,0-.517,1.378,4.778,4.778,0,0,0,1.766,2.154c.258.172.129,1.938,0,2.283a1.2,1.2,0,0,0-.043.431h-.129a11.9,11.9,0,0,1-3.92-.689,11.122,11.122,0,0,1-.431,1.809A13.38,13.38,0,0,0,45.377,29.8,13.568,13.568,0,0,0,31.9,16.4Zm2.412,24.724c.129-.129.215-.215.215-.258s.129-.086.215-.129a1.35,1.35,0,0,0,.474-.345A2.616,2.616,0,0,1,35.9,39.7a11.568,11.568,0,0,0,1.68-1.551,4.028,4.028,0,0,1,.689-1.206c.3-.258.043-.689-.086-.861l-.043-.043c-.129-.172-.9-.258-1.034-.258a2.774,2.774,0,0,1-.861-.474,1.773,1.773,0,0,0-.818-.861,1.12,1.12,0,0,1-.689-.345,2.737,2.737,0,0,0-1.421-.517,2.053,2.053,0,0,1-.861-.172,1.757,1.757,0,0,0-1.034.215.728.728,0,0,1-.215.086A3.414,3.414,0,0,1,30.13,33.5a1.33,1.33,0,0,1-.086-.474.728.728,0,0,0-.086-.388c-.043-.086-.215-.172-.6-.258-.086-.043-.215-.043-.258-.086a.728.728,0,0,1,.086-.215c.129-.3.215-.474.129-.6-.043-.043-.086-.086-.129-.086-.172-.043-.431.129-.646.3-.129.086-.258.215-.345.215a2.182,2.182,0,0,1-.818-.345c-.215-.129.043-.818.129-1.12a.944.944,0,0,1,.129-.345c0-.086.388-.172.948-.172a2.964,2.964,0,0,0,.56-.086,2.114,2.114,0,0,1,.474-.043c.086,0,.215.215.3.345.129.215.258.388.431.345.215-.043.215-.345.172-.517V29.8a1.539,1.539,0,0,1,.517-.732c.3-.172.646-.689.56-.948,0-.129.474-.431.646-.56a.6.6,0,0,0,.172-.129.327.327,0,0,1,.172-.086c.172-.086.388-.215.388-.474,0-.172.517-.258.861-.3a.388.388,0,0,0,.215-.043.651.651,0,0,0,.388-.172.608.608,0,0,0-.043-.388c0-.043-.043-.086-.043-.129a.477.477,0,0,1,.172-.6,1.506,1.506,0,0,1,.517-.129,3.879,3.879,0,0,0,.689-.129c.172-.086.258-.129.258-.258a.357.357,0,0,0-.129-.345c-.043-.043-.086-.086-.086-.129a1.836,1.836,0,0,0-.474-.517c-.086-.043-.129-.388-.172-.56-.043-.129-.043-.258-.086-.3a.336.336,0,0,0-.172-.172.962.962,0,0,0-.6.129c0-.043-.043-.086-.043-.129a.622.622,0,0,0-.086-.3,1.64,1.64,0,0,0-.258-.215c-.172-.172-.388-.345-.517-.474a.278.278,0,0,0-.215-.086c-.215.043-.345.258-.517.517,0,.043-.043.043-.043.086-.258.388-.3.646-.086.775a.224.224,0,0,1-.043.215c-.086.172-.215.345-.3.345h0c-.215,0-.3.3-.345.6a.667.667,0,0,1-.086.345c-.043-.043-.129-.215-.129-.732v-.043c0-.086,0-.129-.043-.172a.546.546,0,0,0-.258-.043c-.129,0-.172,0-.172-.043-.129-.215-.732-.431-.991-.517v-.732a6.965,6.965,0,0,1,1.249-.818,5.257,5.257,0,0,0,1.206-.732c.129-.086.172-.215.129-.258-.043-.258-.474-.431-.646-.474-.129-.345-.388-.345-.646-.3a1.932,1.932,0,0,1-.474-.043,6.79,6.79,0,0,0-1.809-.086,2.962,2.962,0,0,1-1.077-.129,1.9,1.9,0,0,0-.431-.086,11.482,11.482,0,0,1,8.614.129l.129.388a3.435,3.435,0,0,1,.388,1.335,7.883,7.883,0,0,1,0,1.034,3.522,3.522,0,0,0,1.077,1.206c.215.043.345-.086.474-.3a2.986,2.986,0,0,1,.646-.732,1.852,1.852,0,0,1,1.249-.129,7.561,7.561,0,0,1,1.034,1.292c-.086.043-.129.129-.172.172-.172.172-.646.646-.56.991a1.6,1.6,0,0,0,.9,1.034.985.985,0,0,1,.517.818c0,.086.646.517.646.517s-.258.56-.431.56c-.129,0-.258.56-.258.775a1.343,1.343,0,0,0,.56.818c.3.215.732-.388.775-.388.043.345.043.689.086,1.077a2.071,2.071,0,0,0-.948.345c-.172.172-.6,1.508-.818,1.637a11.758,11.758,0,0,0-.6,2.2c-.043.172.56,1.723.9,1.723A11.7,11.7,0,0,1,34.308,41.124Z" transform="translate(-13.159 -11.102)" fill="#9e99c3"/>
        <path id="Path_4385" data-name="Path 4385" d="M45.382,22.363a.965.965,0,0,0-.818-.517H43.53a18.728,18.728,0,0,0-37.43.991.948.948,0,1,0,1.9,0,16.854,16.854,0,0,1,33.683-.948H40.73a.886.886,0,0,0-.818.517.931.931,0,0,0,.043.948l1.938,2.757a.969.969,0,0,0,1.551,0l1.938-2.757A1.314,1.314,0,0,0,45.382,22.363Z" transform="translate(-6.1 -4.1)" fill="#f7bf06"/>
      </g>
    </g>
  </g>
</svg>
