<svg xmlns="http://www.w3.org/2000/svg" width="24" height="24" viewBox="0 0 24 24"><defs><style>.a{fill:none;}.b{fill:#c8b6dd;}</style></defs><g transform="translate(-12 -12)"><rect class="a" width="24" height="24" transform="translate(12 12)"/><path class="b" d="M16.733,3h-4V2a1.035,1.035,0,0,0-1.067-1H6.333A1.035,1.035,0,0,0,5.267,2V3h-4A.259.259,0,0,0,1,3.25v.5A.259.259,0,0,0,1.267,4H2.333L3.62,16.55a.522.522,0,0,0,.533.45h9.7a.522.522,0,0,0,.533-.45L15.667,4h1.067A.259.259,0,0,0,17,3.75v-.5A.259.259,0,0,0,16.733,3ZM5.835,14.5a.523.523,0,0,1-.568-.465h0l-.571-8a.513.513,0,0,1,.5-.533.524.524,0,0,1,.569.466l.571,8a.512.512,0,0,1-.5.533Zm3.7-.5a.534.534,0,0,1-1.067,0V6A.534.534,0,0,1,9.533,6ZM11.667,3H6.333V2h5.333Zm1.067,11.034a.524.524,0,0,1-.569.466.513.513,0,0,1-.5-.533l.571-8a.524.524,0,0,1,.569-.467.513.513,0,0,1,.5.534Z" transform="translate(15 15)"/></g></svg>