<svg xmlns="http://www.w3.org/2000/svg" width="42.246" height="27.908" viewBox="0 0 42.246 27.908"><defs><style>.a{fill:#9d9ac0;}.b,.d{fill:none;}.b{stroke:#f7bf06;}.c{stroke:none;}</style></defs><g transform="translate(-10977.238 3)"><g transform="translate(10977.238 -3)"><path class="a" d="M1.792,283.43a.754.754,0,0,0-.757.757v17.344a.754.754,0,0,0,.757.757h23.38a.754.754,0,0,0,.759-.757V284.187a.754.754,0,0,0-.759-.757Zm.751,1.509H24.421V300.78H2.544Zm28.654,2.25a.751.751,0,0,0-.109.011h-2.9a.754.754,0,0,0-.751.759V303.8H1.792a.694.694,0,0,0-.078,0,.754.754,0,0,0-.679.751v3.019a.754.754,0,0,0,.757.751H7.148a3.772,3.772,0,0,0,7.393,0H28.191a.754.754,0,0,0,.757-.751h2.26a3.773,3.773,0,0,0,7.546,0h3.017a.754.754,0,0,0,.751-.751v-3.231a1.515,1.515,0,0,0,.759-1.3v-1.509a1.517,1.517,0,0,0-.759-1.3v-2.41a.754.754,0,0,0-.091-.429l-.009-.017c-.01-.017-.02-.033-.031-.048l-.01-.014-.009-.011L35.586,287.5a.755.755,0,0,0-.607-.306H31.332a.739.739,0,0,0-.134-.012Zm-2.25,1.52h1.509V297a.754.754,0,0,0,.751.757h9.806v1.51a1.522,1.522,0,0,0-1.509,1.509v1.509a1.526,1.526,0,0,0,1.208,1.478,1.506,1.506,0,0,0,.3.031v2.261H38.432a3.791,3.791,0,0,0-2.908-2.217h-.007a3.678,3.678,0,0,0-.532-.044h-.006a3.779,3.779,0,0,0-3.449,2.262H28.949Zm3.019,0h2.639l5.653,7.545H31.967Zm9.047,12.072h.757v1.509h-.757ZM2.544,305.308H7.849a3.735,3.735,0,0,0-.7,1.509h-4.6Zm8.3,0a2.26,2.26,0,1,1-2.267,2.26,2.3,2.3,0,0,1,.047-.458,2.252,2.252,0,0,1,2.22-1.8Zm2.994,0h13.6v1.509H14.54a3.738,3.738,0,0,0-.7-1.509Zm21.138,0a2.231,2.231,0,0,1,.417.04c.06.011.118.03.177.046s.14.038.208.063.127.053.189.082.118.062.175.1.117.072.172.112.088.07.131.106a2.19,2.19,0,0,1,.181.165c.014.014.025.032.038.047a2.255,2.255,0,1,1-3.123-.237c.027-.023.053-.046.081-.068a2.264,2.264,0,0,1,.221-.143c.039-.023.079-.043.119-.063a2.207,2.207,0,0,1,.231-.1c.05-.017.1-.032.153-.047a1.968,1.968,0,0,1,.225-.059,2.349,2.349,0,0,1,.4-.038Zm-24.132,1.13a1.13,1.13,0,1,0,1.13,1.13A1.146,1.146,0,0,0,10.847,306.438Zm24.132,0a1.13,1.13,0,1,0,1.136,1.13A1.14,1.14,0,0,0,34.979,306.438Zm-24.132.751a.379.379,0,0,1,0,.757.379.379,0,0,1,0-.757Zm24.132,0a.379.379,0,0,1,0,.757.379.379,0,0,1,0-.757Z" transform="translate(-1.035 -283.43)"/></g><g class="b" transform="translate(11006.237 12.859)"><rect class="c" width="6.047" height="2.016" rx="1"/><rect class="d" x="0.5" y="0.5" width="5.047" height="1.016" rx="0.5"/></g></g></svg>