<svg xmlns="http://www.w3.org/2000/svg" width="16" height="16" viewBox="0 0 16 16"><defs><style>.a{fill:none;}.b{fill:#fff;}</style></defs><rect class="a" width="16" height="16"/><path class="b" d="M23,60c0-.005,0-.01,0-.016s0-.028,0-.041,0-.012,0-.018,0-.027-.008-.04l0-.016q-.006-.023-.015-.044l0-.007,0-.008v0l-.87-2.176A1,1,0,0,0,21.161,57H19v-.5a.5.5,0,0,0-.5-.5H9a1,1,0,0,0-1,1v7a1,1,0,0,0,1,1h.813a2,2,0,0,0,3.873,0h3.627a2,2,0,0,0,3.873,0H22a1,1,0,0,0,1-1V60S23,60,23,60Zm-4-2h2.162l.6,1.5H19ZM9,57h9v4H9Zm2.75,8.5a1,1,0,1,1,1-1,1,1,0,0,1-1,1Zm7.5,0a1,1,0,1,1,1-1,1,1,0,0,1-1,1Z" transform="translate(-7.5 -52.5)"/></svg>