<svg xmlns="http://www.w3.org/2000/svg" width="28" height="28" viewBox="0 0 28 28">
  <g id="Group_157265" data-name="Group 157265" transform="translate(456 -372)">
    <g id="Group_156693" data-name="Group 156693" transform="translate(-456 372)">
      <g id="Component_413_2" data-name="Component 413 – 2">
        <g id="Group_152517" data-name="Group 152517">
          <rect id="Rectangle_140539" data-name="Rectangle 140539" width="24" height="24" fill="none"/>
          <path id="Path_4381" data-name="Path 4381" d="M21.655,77.28l-8.25,8.25a.75.75,0,0,1-1.061,0L8.219,81.4A.75.75,0,0,1,9.28,80.344l3.595,3.595,7.72-7.72a.75.75,0,0,1,1.061,1.061Zm8.625-1.061a.75.75,0,0,0-1.061,0l-7.72,7.72-1.661-1.661a.75.75,0,0,0-1.061,1.061l2.191,2.191a.75.75,0,0,0,1.061,0l8.25-8.25a.75.75,0,0,0,0-1.061Z" transform="translate(-7.25 -68.874)" fill="#6f4c98"/>
        </g>
        <g id="Ellipse_517" data-name="Ellipse 517" fill="#5ba2ec" stroke="#5ba2ec" stroke-width="1">
          <circle cx="14" cy="14" r="14" stroke="none"/>
          <circle cx="14" cy="14" r="13.5" fill="none"/>
        </g>
      </g>
    </g>
    <g id="Group_154068" data-name="Group 154068" transform="translate(-449.969 380.415)">
      <path id="Path_4421" data-name="Path 4421" d="M124.954,635.36l-1.085-.47-.921-1.794a1.452,1.452,0,0,0-1.307-.794h-1.587v-.448a1.464,1.464,0,0,0-1.459-1.473H111.01a1.459,1.459,0,0,0-1.452,1.473v6.868a.894.894,0,0,0,.882.907h.2c0,.035,0,.05,0,.071a1.843,1.843,0,0,0,3.686.014V639.7a.59.59,0,0,0,0-.072h6.13v.072a1.844,1.844,0,0,0,3.687.014v-.089h.459a.9.9,0,0,0,.9-.9v-2.54A.89.89,0,0,0,124.954,635.36Zm-12.468,5.483a1.132,1.132,0,1,1,1.131-1.132A1.13,1.13,0,0,1,112.486,640.844Zm6.856-1.918h-5.188a1.841,1.841,0,0,0-3.338,0h-.363a.185.185,0,0,1-.185-.2V636.9h9.074Zm0-7.067v4.327h-9.074v-4.327a.749.749,0,0,1,.741-.761H118.6a.754.754,0,0,1,.747.758Zm.712,1.16h1.587a.753.753,0,0,1,.677.4l.711,1.377h-2.974Zm2.246,7.825a1.132,1.132,0,1,1,1.131-1.132A1.131,1.131,0,0,1,122.3,640.844Zm2.487-2.114a.185.185,0,0,1-.185.2h-.633a1.842,1.842,0,0,0-3.338,0h-.577v-3.416h3.487l1.131.5a.21.21,0,0,1,.114.192Z" transform="translate(-109.558 -630.382)" fill="#fff" stroke="#fff" stroke-width="0.5"/>
    </g>
  </g>
</svg>
