<svg xmlns="http://www.w3.org/2000/svg" width="27" height="23.989" viewBox="0 0 27 23.989">
  <path id="Twitter" d="M62.452-13.524a11.015,11.015,0,0,1-2.492,2.51v.775A17.607,17.607,0,0,1,55.073,2.028,16.066,16.066,0,0,1,43.29,6.991a15.9,15.9,0,0,1-7.348-1.777.354.354,0,0,1-.2-.324V4.74a.358.358,0,0,1,.36-.373A11.617,11.617,0,0,0,43,1.773,5.887,5.887,0,0,1,37.75-1.837a.381.381,0,0,1,.039-.357.345.345,0,0,1,.312-.15,5.163,5.163,0,0,0,2.048-.2A6.052,6.052,0,0,1,35.5-7.913a.373.373,0,0,1,.15-.325.337.337,0,0,1,.34-.04,5.188,5.188,0,0,0,2.129.48,6.181,6.181,0,0,1-2.3-6.965.739.739,0,0,1,.544-.492.709.709,0,0,1,.682.237,16.345,16.345,0,0,0,11.333,5.47,5.887,5.887,0,0,1-.162-1.41,6.148,6.148,0,0,1,3.732-5.62A5.7,5.7,0,0,1,58.333-15.1a11.368,11.368,0,0,0,3.221-1.17.22.22,0,0,1,.243,0,.249.249,0,0,1,0,.253A6.082,6.082,0,0,1,59.425-13.2a11.14,11.14,0,0,0,2.7-.676.208.208,0,0,1,.243,0,.237.237,0,0,1,.126.15.249.249,0,0,1-.04.2Z" transform="translate(-35.499 16.998)" fill="#fff"/>
</svg>
