<svg xmlns="http://www.w3.org/2000/svg" width="18.219" height="18.075" viewBox="0 0 18.219 18.075">
  <g id="Group_165734" data-name="Group 165734" transform="translate(-863.842 -2843.893)">
    <g id="Group_165728" data-name="Group 165728" transform="translate(1 25)">
      <g id="Layer_2" data-name="Layer 2" transform="translate(862.342 2819.393)">
        <g id="Layer_1" data-name="Layer 1" transform="translate(0 0)">
          <ellipse id="Ellipse_875" data-name="Ellipse 875" cx="3.536" cy="3.536" rx="3.536" ry="3.536" transform="translate(4.887)" fill="none" stroke="#414043" stroke-linecap="round" stroke-miterlimit="10" stroke-width="1"/>
          <path id="Path_40313" data-name="Path 40313" d="M15.325,65.288H2.821A.823.823,0,0,1,2,64.468V60.262a4.991,4.991,0,0,1,4.976-4.976h4.193" transform="translate(-1 -48.213)" fill="none" stroke="#414043" stroke-linecap="round" stroke-miterlimit="10" stroke-width="1"/>
        </g>
      </g>
      <g id="_3844474_gear_setting_settings_wheel_icon" data-name="3844474_gear_setting_settings_wheel_icon" transform="translate(873.375 2826.779)">
        <ellipse id="XMLID_224_" cx="1.211" cy="1.211" rx="1.211" ry="1.211" transform="translate(2.43 2.725)" fill="none" stroke="#414043" stroke-linecap="round" stroke-linejoin="round" stroke-miterlimit="10" stroke-width="0.8"/>
        <path id="XMLID_242_" d="M11.175,5.23l-.3-.524a.605.605,0,0,0-.827-.222l-.159.092A.908.908,0,0,1,8.524,3.79V3.606A.605.605,0,0,0,7.918,3H7.312a.605.605,0,0,0-.606.606V3.79a.908.908,0,0,1-1.363.787l-.159-.092a.605.605,0,0,0-.827.222l-.3.524a.605.605,0,0,0,.222.827l.159.092a.908.908,0,0,1,0,1.573l-.159.092a.605.605,0,0,0-.222.827l.3.524a.605.605,0,0,0,.827.222L5.344,9.3a.908.908,0,0,1,1.363.787v.184a.605.605,0,0,0,.606.606h.606a.605.605,0,0,0,.606-.606v-.184A.908.908,0,0,1,9.886,9.3l.159.092a.605.605,0,0,0,.827-.222l.3-.524a.605.605,0,0,0-.222-.827l-.159-.092a.908.908,0,0,1,0-1.573l.159-.092A.605.605,0,0,0,11.175,5.23Z" transform="translate(-3.974 -3)" fill="none" stroke="#414043" stroke-linecap="round" stroke-linejoin="round" stroke-miterlimit="10" stroke-width="0.8"/>
      </g>
    </g>
  </g>
</svg>
