<svg id="eye-fill" xmlns="http://www.w3.org/2000/svg" width="20" height="20" viewBox="0 0 20 20">
  <rect id="Rectangle_171" data-name="Rectangle 171" width="20" height="20" fill="none"/>
  <path id="Path_190" data-name="Path 190" d="M26.7,53.989a11.053,11.053,0,0,0-2.16-3,10.056,10.056,0,0,0-14.321,0,11.053,11.053,0,0,0-2.16,3,.625.625,0,0,0,0,.508,11.051,11.051,0,0,0,2.16,3,10.057,10.057,0,0,0,14.321,0,11.051,11.051,0,0,0,2.16-3A.625.625,0,0,0,26.7,53.989ZM17.375,51.43a2.813,2.813,0,1,1-2.812,2.813A2.813,2.813,0,0,1,17.375,51.43Z" transform="translate(-7.375 -44.242)" fill="#267ad2"/>
</svg>
