<svg xmlns="http://www.w3.org/2000/svg" width="38.467" height="31.269" viewBox="0 0 38.467 31.269">
  <g id="money" transform="translate(0 -37.989)">
    <g id="Group_157238" data-name="Group 157238" transform="translate(0 37.989)">
      <path id="Path_5085" data-name="Path 5085" d="M38.364,57.034a.758.758,0,0,0-.37-.32l-2.759-1.129L38.093,53.9a.758.758,0,0,0-.1-1.357l-2.759-1.129,2.857-1.683a.768.768,0,0,0-.106-1.364L27.125,43.921l-5.351-2.274a.758.758,0,0,0-.273-.053l-8.716-3.547a.758.758,0,0,0-.659.038L.446,44.648a.758.758,0,0,0,.076,1.387L3.342,47.2l-2.9,1.614a.758.758,0,0,0,.076,1.357l2.819,1.167L.461,52.955a.758.758,0,0,0,.061,1.417l2.819,1.16L.461,57.147A.758.758,0,0,0,.537,58.5l9.8,4.161a.751.751,0,0,0,.114.068l5.359,2.274L25.663,69.2a.758.758,0,0,0,.682-.045L38.093,62.24a.758.758,0,0,0-.1-1.357l-2.759-1.129,2.857-1.683A.758.758,0,0,0,38.364,57.034ZM36,53.357l-10.1,5.95-9.035-3.835V52.948l8.792,3.737a.754.754,0,0,0,.682-.045l7.253-4.267Zm.03-4.176L25.9,55.131l-8.208-3.486,9.247-6.177ZM9.966,60.876,2.531,57.715l2.554-1.432,4.889,2.077Zm0-4.169L2.531,53.546,5.085,52.1l4.889,2.077Zm0-4.169L2.531,49.385l2.554-1.432L9.973,50.03ZM2.531,45.217l10.02-5.631,7.269,2.979-9.156,6.109Zm13.15,5.957a.758.758,0,0,0-.333.629V63.172l-3.858-1.637V49.946l10.043-6.693,3.737,1.516ZM36,61.694,25.9,67.636,16.863,63.8V61.285l8.792,3.7a.758.758,0,0,0,.682-.045l7.253-4.267ZM25.9,63.468l-9.035-3.835V57.116l8.8,3.737a.758.758,0,0,0,.682-.045L33.6,56.54l2.4.985Z" transform="translate(0 -37.989)" fill="#fff"/>
    </g>
  </g>
</svg>
