<svg xmlns="http://www.w3.org/2000/svg" width="44.122" height="44.122" viewBox="0 0 44.122 44.122"><g transform="translate(-3.125 -3.125)"><path d="M27.363,25.952a6.228,6.228,0,0,0,6-4c1.056-2.551.95-5.048-1-7s-5.449-3.056-8-2a6.228,6.228,0,0,0-4,6A7.137,7.137,0,0,0,27.363,25.952Zm-5-4c.656.267,1.3-.121,2,0a11.2,11.2,0,0,0,1,2C24.205,23.419,22.9,23.11,22.363,21.952Zm2-4c-.03.4,0,.6,0,1s-.03,1.6,0,2a5.265,5.265,0,0,1-3-2C21.363,18.664,22.845,18.3,24.363,17.952Zm3-4c.288,0,.647.482,1,2-.4-.03-.6,0-1,0s-.6-.03-1,0C26.716,14.434,27.075,13.952,27.363,13.952Zm0,4a7.633,7.633,0,0,1,1,0,7.633,7.633,0,0,1,0,1c0,.519.044,1.553,0,2a7.633,7.633,0,0,1-1,0c-.519,0-1.553.044-2,0-.044-.447,0-1.481,0-2a7.633,7.633,0,0,1,0-1C25.811,17.908,26.844,17.952,27.363,17.952Zm5,1a2.593,2.593,0,0,1-2,2c.03-.4,0-1.6,0-2s.03-.6,0-1C31.881,18.3,32.363,18.664,32.363,18.952Zm-5,6c-.288,0-.647-1.482-1-3,.4.03.6,0,1,0s.6.03,1,0C28.011,23.47,27.651,24.952,27.363,24.952Zm2-1a11.2,11.2,0,0,0,1-2c.7-.121,1.344.267,2,0C31.831,23.11,30.521,23.419,29.363,23.952Zm3-7c-.656-.267-1.3.121-2,0a11.2,11.2,0,0,0-1-2C30.521,15.484,31.831,15.794,32.363,16.952Zm-7-2a11.2,11.2,0,0,0-1,2c-.7.121-1.344-.267-2,0C22.9,15.794,24.205,15.484,25.363,14.952Z" transform="translate(-9.238 -4.827)"/><path d="M11.343,11.343c0-.419-.419,0,0,0h3v-2h-3a1.834,1.834,0,0,0-2,2v3h2Z" transform="translate(-3.218 -3.218)"/><path d="M11.343,67.592v-4h-2v4a1.834,1.834,0,0,0,2,2h3v-2h-3C10.924,67.592,11.343,68.011,11.343,67.592Z" transform="translate(-3.218 -32.467)"/><path d="M52.268,11.343v3h1v-3a1.834,1.834,0,0,0-2-2h-3v2h3c.2,0,.858-.142,1,0S52.268,11.142,52.268,11.343Z" transform="translate(-24.142 -3.218)"/><path d="M42.125,25.125l-10-6v-14a1.874,1.874,0,0,0-2-2h-25a1.874,1.874,0,0,0-2,2v32c0,1.215.785,3,2,3h21c0,3.643,2.358,7,6,7h14c.389,0,.725.275,1,0s0-.611,0-1v-13C47.136,29.816,44.948,26.855,42.125,25.125Zm-38,12v-32a1.271,1.271,0,0,1,1-1h25c.194,0,.862.863,1,1s0-.194,0,0v28l-6-5a3.536,3.536,0,0,0-5,5l5,5h-20A1.271,1.271,0,0,1,4.125,37.125Zm42,9h-14c-2.834,0-5-3.166-5-6v-1c0-.174.114-.866,0-1l-6-6h0a2.07,2.07,0,0,1,0-3,2.1,2.1,0,0,1,3,0l10,9,1-1-3-3v-14l10,6a8.426,8.426,0,0,1,4,7Z"/><path d="M81.665,54.365l-1,1a8.183,8.183,0,0,1,4,7h2C86.676,58.95,84.576,56.154,81.665,54.365Z" transform="translate(-41.54 -27.24)"/><path d="M17.365,43.707h1v2h-1Z" transform="translate(-7.24 -21.582)"/><path d="M23,43.707H34v2H23Z" transform="translate(-10.878 -21.582)"/><path d="M48.2,43.707h2v2h-2Z" transform="translate(-24.072 -21.582)"/></g></svg>