<svg id="Group_157339" data-name="Group 157339" xmlns="http://www.w3.org/2000/svg" width="23.493" height="21.288" viewBox="0 0 23.493 21.288">
  <path id="Path_4357" data-name="Path 4357" d="M31.113,31.2l1.863-6.712L30.459,23.8V18.615a2.1,2.1,0,0,0-2.1-2.1h-4.2V14.839h1.678V14h-4.2v.839h1.678v1.678h-4.2a2.1,2.1,0,0,0-2.1,2.1V23.8l-2.517.688L16.38,31.2H12v.839H35.493V31.2ZM17.873,18.615a1.259,1.259,0,0,1,1.259-1.259h9.229a1.259,1.259,0,0,1,1.259,1.259v4.959l-5.873-1.6-5.873,1.6ZM17.252,31.2l-1.7-6.125,7.778-2.119V31.2Zm6.914,0V22.957l7.778,2.119L30.24,31.2Z" transform="translate(-12 -14)" fill="#919ab1"/>
  <rect id="Rectangle_140472" data-name="Rectangle 140472" width="19.35" height="0.784" transform="translate(2.071 18.935)" fill="#919ab1"/>
  <rect id="Rectangle_140473" data-name="Rectangle 140473" width="15.166" height="0.784" transform="translate(4.163 20.503)" fill="#919ab1"/>
  <rect id="Rectangle_140474" data-name="Rectangle 140474" width="1.046" height="1.307" transform="translate(11.223 4.553)" fill="#919ab1"/>
  <rect id="Rectangle_140475" data-name="Rectangle 140475" width="0.784" height="1.307" transform="translate(14.623 4.553)" fill="#919ab1"/>
  <rect id="Rectangle_140476" data-name="Rectangle 140476" width="0.784" height="1.307" transform="translate(8.085 4.553)" fill="#919ab1"/>
</svg>
