<svg xmlns="http://www.w3.org/2000/svg" width="53.24" height="53.268" viewBox="0 0 53.24 53.268">
	<g transform="translate(-0.425 0.001)">
		<path fill="#f7bf06" d="M185.753,192.97l-9.2,8.689-4.415-4.542a1.272,1.272,0,1,0-1.825,1.773l5.3,5.436a1.3,1.3,0,0,0,1.8.038l10.118-9.544a1.271,1.271,0,0,0,.051-1.8A1.3,1.3,0,0,0,185.753,192.97Zm0,0" transform="translate(-151.879 -172.025)" />
		<path fill="#9e99c3" d="M105.96,90.551a15.083,15.083,0,1,0,15.086,15.083A15.1,15.1,0,0,0,105.96,90.551Zm0,28.148a13.064,13.064,0,1,1,13.066-13.064A13.08,13.08,0,0,1,105.96,118.7Zm0,0" transform="translate(-78.909 -78.998)" />
		<path fill="#9e99c3" d="M49.874,20.53l.366-6.583a1.108,1.108,0,0,0-.611-1.055L43.769,9.929,40.8,4.067a1.126,1.126,0,0,0-1.055-.611l-6.594.356L27.661.182a1.11,1.11,0,0,0-1.221,0l-5.495,3.63-6.583-.366a1.106,1.106,0,0,0-1.055.611L10.343,9.918,4.482,12.882a1.125,1.125,0,0,0-.611,1.055l.366,6.583L.608,26.014a1.109,1.109,0,0,0,0,1.221l3.619,5.506-.366,6.583a1.107,1.107,0,0,0,.611,1.055l5.861,2.964L13.3,49.2a1.125,1.125,0,0,0,1.055.611l6.583-.366,5.495,3.63a1.081,1.081,0,0,0,1.221,0l5.495-3.63,6.583.366a1.108,1.108,0,0,0,1.055-.611l2.964-5.861,5.861-2.964a1.126,1.126,0,0,0,.611-1.055l-.366-6.583,3.63-5.495a1.109,1.109,0,0,0,0-1.221Zm-2.065,11.3a1.042,1.042,0,0,0-.177.677l.344,6.227-5.539,2.8a1.1,1.1,0,0,0-.488.489l-2.8,5.539-6.227-.344a1.213,1.213,0,0,0-.677.177l-5.2,3.43-5.195-3.43a1.1,1.1,0,0,0-.611-.189h-.056l-6.228.344-2.8-5.54a1.093,1.093,0,0,0-.489-.488l-5.55-2.787.344-6.227a1.213,1.213,0,0,0-.178-.677l-3.43-5.2,3.43-5.2a1.039,1.039,0,0,0,.178-.677l-.344-6.228,5.54-2.8a1.094,1.094,0,0,0,.488-.488l2.8-5.54,6.228.344a1.218,1.218,0,0,0,.677-.178l5.195-3.43,5.2,3.43a1.041,1.041,0,0,0,.677.178L39.15,5.71l2.8,5.54a1.094,1.094,0,0,0,.488.488l5.539,2.8-.344,6.228a1.216,1.216,0,0,0,.177.677l3.43,5.2Zm0,0" transform="translate(0)" />
	</g>
</svg>
