<svg xmlns="http://www.w3.org/2000/svg" width="36" height="36" viewBox="0 0 36 36">
  <g id="Group_157337" data-name="Group 157337" transform="translate(-293.116 -770.678)">
    <g id="Path_4888" data-name="Path 4888" transform="translate(293.116 770.678)" fill="none">
      <path d="M18,0A18,18,0,1,1,0,18,18,18,0,0,1,18,0Z" stroke="none"/>
      <path d="M 18 1 C 13.45914077758789 1 9.190059661865234 2.768310546875 5.979190826416016 5.979190826416016 C 2.768310546875 9.190059661865234 1 13.45914077758789 1 18 C 1 22.54085922241211 2.768310546875 26.80994033813477 5.979190826416016 30.02080917358398 C 9.190059661865234 33.231689453125 13.45914077758789 35 18 35 C 22.54085922241211 35 26.80994033813477 33.231689453125 30.02080917358398 30.02080917358398 C 33.231689453125 26.80994033813477 35 22.54085922241211 35 18 C 35 13.45914077758789 33.231689453125 9.190059661865234 30.02080917358398 5.979190826416016 C 26.80994033813477 2.768310546875 22.54085922241211 1 18 1 M 18 0 C 27.94112014770508 0 36 8.058879852294922 36 18 C 36 27.94112014770508 27.94112014770508 36 18 36 C 8.058879852294922 36 0 27.94112014770508 0 18 C 0 8.058879852294922 8.058879852294922 0 18 0 Z" stroke="none" fill="#f7bf06"/>
    </g>
    <circle id="Ellipse_596" data-name="Ellipse 596" cx="13" cy="13" r="13" transform="translate(298.515 775.678)" fill="#f7bf06"/>
    <path id="Path_4893" data-name="Path 4893" d="M35.655,35.365a7.3,7.3,0,0,0-4.068-3.282,4.364,4.364,0,1,0-4.463,0,7.3,7.3,0,0,0-4.068,3.282.485.485,0,0,0,.42.728H35.235a.485.485,0,0,0,.42-.728Z" transform="translate(282.16 757.697)" fill="none" stroke="#373069" stroke-width="1"/>
  </g>
</svg>
