<svg xmlns="http://www.w3.org/2000/svg" width="16.875" height="11.25" viewBox="0 0 16.875 11.25">
  <path id="Path_4895" data-name="Path 4895" d="M24.827,53.389a9.947,9.947,0,0,0-1.944-2.7,9.05,9.05,0,0,0-12.889,0,9.948,9.948,0,0,0-1.944,2.7.563.563,0,0,0,0,.457,9.946,9.946,0,0,0,1.944,2.7,9.051,9.051,0,0,0,12.889,0,9.946,9.946,0,0,0,1.944-2.7A.563.563,0,0,0,24.827,53.389Zm-8.389-2.3a2.531,2.531,0,1,1-2.531,2.531A2.531,2.531,0,0,1,16.438,51.086Z" transform="translate(-8 -47.992)" fill="#343a40"/>
</svg>
