<svg xmlns="http://www.w3.org/2000/svg" width="21.675" height="21.687" viewBox="0 0 21.675 21.687">
  <g id="quality" transform="translate(-0.425 0.001)">
    <path id="Path_4396" data-name="Path 4396" d="M176.387,192.763l-3.745,3.537-1.8-1.849a.518.518,0,1,0-.743.722l2.156,2.213a.527.527,0,0,0,.733.015l4.119-3.885a.518.518,0,0,0,.021-.733A.53.53,0,0,0,176.387,192.763Zm0,0" transform="translate(-162.344 -184.237)" fill="#919ab1"/>
    <path id="Path_4397" data-name="Path 4397" d="M97.017,90.551a6.141,6.141,0,1,0,6.142,6.141A6.147,6.147,0,0,0,97.017,90.551Zm0,11.459a5.319,5.319,0,1,1,5.32-5.319A5.325,5.325,0,0,1,97.017,102.01Zm0,0" transform="translate(-85.752 -85.848)" fill="#919ab1"/>
    <path id="Path_4398" data-name="Path 4398" d="M20.557,8.358l.149-2.68a.451.451,0,0,0-.249-.429L18.071,4.042,16.864,1.655a.459.459,0,0,0-.429-.249l-2.685.145L11.513.074a.452.452,0,0,0-.5,0L8.779,1.552,6.1,1.4a.45.45,0,0,0-.429.249L4.463,4.037,2.077,5.244a.458.458,0,0,0-.249.429l.149,2.68L.5,10.59a.452.452,0,0,0,0,.5l1.473,2.242-.149,2.68a.451.451,0,0,0,.249.429l2.386,1.207,1.207,2.386a.458.458,0,0,0,.429.249l2.68-.149,2.237,1.478a.44.44,0,0,0,.5,0l2.237-1.478,2.68.149a.451.451,0,0,0,.429-.249l1.207-2.386,2.386-1.207a.458.458,0,0,0,.249-.429l-.149-2.68,1.478-2.237a.452.452,0,0,0,0-.5Zm-.841,4.6a.424.424,0,0,0-.072.276l.14,2.535-2.255,1.139a.446.446,0,0,0-.2.2l-1.139,2.255-2.535-.14a.494.494,0,0,0-.276.072l-2.115,1.4-2.115-1.4a.447.447,0,0,0-.249-.077H8.878l-2.535.14L5.2,17.1a.445.445,0,0,0-.2-.2L2.745,15.77l.14-2.535a.494.494,0,0,0-.072-.276l-1.4-2.115,1.4-2.115a.423.423,0,0,0,.072-.276l-.14-2.535L5,4.778a.446.446,0,0,0,.2-.2L6.338,2.324l2.535.14a.5.5,0,0,0,.276-.072L11.265,1l2.115,1.4a.424.424,0,0,0,.276.072l2.535-.14L17.33,4.58a.446.446,0,0,0,.2.2l2.255,1.139-.14,2.535a.5.5,0,0,0,.072.276l1.4,2.115Zm0,0" transform="translate(0 0)" fill="#919ab1"/>
  </g>
</svg>
