<svg xmlns="http://www.w3.org/2000/svg" width="17.221" height="20.35" viewBox="0 0 17.221 20.35">
  <path id="Path_209" data-name="Path 209" d="M56.977,29.7,51.5,24.229l-.024-.022-.032-.029-.023-.017-.039-.029-.019-.011-.047-.028-.013-.006c-.018-.009-.037-.019-.056-.027l-.009,0c-.021-.008-.041-.016-.063-.023l-.009,0c-.021-.006-.043-.012-.065-.016l-.021,0L51.029,24a.774.774,0,0,0-.078,0H41.558a1.567,1.567,0,0,0-1.565,1.565v17.22a1.567,1.567,0,0,0,1.565,1.565h14.09a1.567,1.567,0,0,0,1.565-1.565V30.277c0-.005,0-.01,0-.015A.78.78,0,0,0,56.977,29.7Zm-5.243,9.17H45.472a.783.783,0,1,1,0-1.565h6.262a.783.783,0,1,1,0,1.565Zm0-3.131H45.472a.783.783,0,0,1,0-1.565h6.262a.783.783,0,0,1,0,1.565Zm-.783-5.479V25.89l4.372,4.372Z" transform="translate(-39.992 -24)" fill="#d98e28"/>
</svg>
